<?xml version="1.0" standalone="no"?>
<!DOCTYPE svg PUBLIC "-//W3C//DTD SVG 20010904//EN"
 "http://www.w3.org/TR/2001/REC-SVG-20010904/DTD/svg10.dtd">
<svg version="1.0" xmlns="http://www.w3.org/2000/svg"
 width="2048.000000pt" height="2048.000000pt" viewBox="0 0 2048.000000 2048.000000"
 preserveAspectRatio="xMidYMid meet">

<g transform="translate(0.000000,2048.000000) scale(0.100000,-0.100000)"
fill="#000000" stroke="none">
<path d="M12115 19253 c-4 -12 -15 -14 -50 -9 -36 6 -45 4 -45 -8 0 -24 -22
-31 -36 -11 -10 13 -21 16 -43 12 -17 -4 -33 -2 -36 3 -10 16 -24 11 -41 -15
-21 -32 -12 -60 15 -46 15 9 20 7 25 -12 6 -24 -15 -47 -46 -47 -12 0 -15 5
-11 17 5 13 2 15 -15 11 -12 -4 -25 -2 -28 3 -8 14 -24 10 -24 -6 0 -8 5 -15
10 -15 6 0 10 -5 10 -10 0 -7 -13 -8 -36 -4 -26 5 -39 3 -45 -7 -14 -22 -10
-39 9 -39 20 -1 -56 -30 -79 -30 -8 0 -30 -16 -49 -35 -19 -19 -40 -35 -47
-35 -7 0 -13 -11 -13 -26 0 -14 -13 -43 -30 -64 -16 -21 -30 -45 -30 -53 0 -8
-7 -17 -15 -21 -8 -3 -15 -12 -15 -21 0 -9 -13 -21 -29 -26 -22 -8 -30 -18
-34 -46 -4 -19 -13 -43 -21 -52 -20 -22 -46 -100 -39 -119 4 -8 -2 -21 -12
-28 -14 -10 -15 -16 -6 -27 15 -19 -11 -41 -38 -32 -16 5 -21 1 -26 -22 -3
-15 -17 -52 -31 -81 -13 -29 -24 -60 -24 -70 0 -10 -9 -36 -19 -58 -31 -65
-44 -123 -30 -140 9 -11 8 -19 -5 -39 -9 -13 -16 -40 -16 -60 0 -19 -9 -51
-19 -71 -13 -24 -18 -47 -14 -69 3 -21 -1 -46 -11 -66 -9 -17 -16 -42 -16 -54
0 -12 -3 -25 -7 -29 -14 -14 -30 -75 -22 -87 4 -7 5 -36 2 -65 -5 -51 -4 -54
21 -63 33 -13 33 -26 1 -47 -30 -20 -33 -54 -5 -61 23 -6 25 -14 8 -32 -10
-11 -10 -14 0 -18 17 -7 15 -33 -3 -33 -8 0 -15 -7 -15 -15 0 -8 7 -15 16 -15
9 0 27 -8 40 -19 l23 -18 -23 -22 c-29 -27 -46 -27 -46 2 0 17 -2 19 -10 7 -5
-9 -5 -19 2 -27 8 -10 5 -18 -11 -30 -12 -10 -23 -31 -24 -48 -2 -24 2 -30 18
-29 11 1 28 5 37 8 12 6 21 0 32 -22 l15 -29 -46 -1 c-25 0 -50 -5 -55 -10 -5
-5 -11 -36 -11 -67 -2 -52 0 -59 21 -68 22 -10 22 -12 7 -24 -13 -9 -16 -20
-12 -43 5 -25 3 -30 -12 -30 -15 0 -20 -9 -23 -41 -2 -22 0 -43 4 -45 13 -8 9
-38 -11 -80 -12 -25 -16 -45 -11 -54 5 -9 5 -23 -1 -31 -13 -21 -11 -83 3 -97
10 -10 10 -17 0 -32 -10 -16 -9 -21 9 -30 16 -9 18 -14 9 -25 -14 -17 -5 -51
15 -58 8 -4 11 -14 8 -26 -3 -13 3 -28 19 -43 14 -13 28 -35 32 -51 5 -22 10
-26 24 -19 9 5 23 7 30 5 7 -3 20 3 28 13 12 17 15 17 27 4 6 -8 30 -16 53
-17 22 -2 57 -11 78 -21 33 -16 35 -20 22 -31 -33 -27 -5 -62 33 -41 12 6 22
5 29 -2 8 -8 15 -8 27 2 18 15 20 51 4 67 -7 7 -9 19 -5 28 4 12 10 14 26 5
16 -8 22 -7 32 10 7 11 17 20 23 20 12 0 55 115 55 148 0 14 8 26 24 32 26 9
66 55 66 76 0 7 20 25 45 41 24 15 44 35 45 44 0 8 23 50 50 92 28 42 50 83
50 91 0 8 7 16 15 20 8 3 15 13 15 23 1 10 12 36 25 58 14 22 29 49 34 60 5
11 18 29 30 39 14 13 21 31 21 55 0 27 6 41 25 55 14 10 25 27 25 36 0 10 11
25 25 34 14 9 25 23 25 32 0 8 7 17 15 20 8 4 15 11 15 17 0 5 16 43 35 83 19
40 38 87 42 104 3 18 13 34 22 37 31 11 51 36 57 71 4 19 19 54 34 76 36 54
47 111 24 124 -24 13 -11 40 23 48 47 12 138 118 173 201 17 41 33 87 36 103
4 15 19 42 35 60 19 20 29 42 29 62 0 17 7 39 15 48 23 26 44 121 32 148 -8
18 -6 27 11 45 12 13 22 35 22 50 0 21 -9 31 -42 48 -42 22 -43 22 -19 33 19
8 26 7 36 -8 12 -16 15 -14 31 19 16 34 16 39 1 64 -14 24 -14 31 -3 53 10 18
11 29 4 36 -6 6 -9 46 -8 94 5 122 3 148 -12 167 -18 21 -35 59 -42 94 -4 18
-13 27 -26 27 -25 0 -26 14 -2 37 16 17 15 19 -33 41 -27 13 -58 28 -67 33
-24 13 -34 11 -52 -6 -18 -18 -66 -4 -66 20 0 9 -9 15 -21 15 -12 0 -23 8 -26
19 -4 14 -18 20 -64 25 -32 4 -61 11 -63 15 -10 15 -84 9 -91 -6z m52 -500
c-1 -76 -4 -80 -39 -62 -11 6 -41 14 -67 18 -38 5 -47 11 -56 34 -8 24 -6 30
8 38 9 6 17 18 17 28 0 13 8 19 27 19 15 0 31 6 37 14 7 12 13 12 42 -1 l33
-15 -2 -73z m-84 -250 c-7 -2 -19 -2 -25 0 -7 3 -2 5 12 5 14 0 19 -2 13 -5z
m-313 -163 c0 -5 -2 -10 -4 -10 -3 0 -8 5 -11 10 -3 6 -1 10 4 10 6 0 11 -4
11 -10z m-460 -76 c0 -2 -19 -4 -42 -4 -26 0 -38 4 -30 8 12 8 72 4 72 -4z
m-80 -80 c0 -2 -9 -4 -21 -4 -11 0 -18 4 -14 10 5 8 35 3 35 -6z m670 -254 c0
-14 -7 -20 -22 -20 -21 0 -21 0 -2 19 24 25 24 25 24 1z m-681 -77 c-8 -9 -16
-10 -22 -4 -13 13 0 31 19 24 11 -4 12 -8 3 -20z m78 -19 c-3 -3 -12 -4 -19
-1 -8 3 -5 6 6 6 11 1 17 -2 13 -5z m953 -90 c0 -12 -3 -14 -12 -6 -7 5 -22
12 -33 15 -13 3 -9 5 13 6 23 1 32 -3 32 -15z m-1120 -338 c0 -22 -31 -42 -44
-28 -13 12 -5 41 12 45 30 8 32 7 32 -17z m-85 -446 c3 -5 1 -10 -4 -10 -6 0
-11 5 -11 10 0 6 2 10 4 10 3 0 8 -4 11 -10z m465 -510 c0 -5 -4 -10 -10 -10
-5 0 -10 5 -10 10 0 6 5 10 10 10 6 0 10 -4 10 -10z"/>
<path d="M5483 18804 c-45 -19 -54 -20 -64 -8 -10 13 -14 13 -29 -1 -11 -10
-20 -11 -27 -4 -7 7 -14 5 -24 -7 -11 -14 -11 -18 6 -30 18 -13 18 -14 -7 -14
-14 0 -31 6 -37 14 -12 14 -69 15 -106 1 -11 -4 -33 -11 -50 -17 -16 -5 -40
-15 -52 -20 -12 -6 -30 -7 -40 -3 -22 10 -79 13 -110 7 -14 -2 -23 -11 -23
-23 0 -10 -6 -22 -13 -26 -8 -4 -17 -26 -20 -48 -4 -21 -16 -52 -27 -67 -22
-30 -26 -78 -9 -95 6 -6 8 -17 3 -24 -10 -16 -6 -94 7 -126 6 -16 4 -36 -7
-63 -16 -40 -13 -110 5 -110 5 0 9 -30 9 -66 0 -36 5 -71 11 -77 6 -6 11 -31
11 -57 0 -46 30 -142 47 -147 5 -2 8 -16 5 -31 -2 -18 2 -33 12 -41 9 -8 16
-21 16 -31 0 -10 16 -41 35 -70 19 -29 35 -59 35 -68 0 -25 57 -134 90 -171
25 -28 50 -84 50 -115 0 -4 14 -24 30 -43 17 -18 30 -38 30 -44 0 -6 9 -8 20
-4 14 5 20 2 20 -10 0 -9 15 -34 32 -56 27 -34 33 -50 34 -97 1 -46 5 -59 25
-73 48 -36 59 -50 59 -75 0 -22 2 -25 15 -14 16 13 18 9 16 -26 -2 -24 40
-105 73 -144 21 -24 29 -39 55 -103 7 -17 23 -32 41 -39 19 -6 32 -19 36 -34
3 -13 10 -24 15 -24 5 0 15 -11 21 -25 7 -16 19 -25 34 -25 18 0 24 -6 24 -22
0 -81 30 -178 55 -178 20 -1 112 -96 119 -124 l7 -29 26 37 c18 24 30 33 37
26 6 -6 3 -16 -9 -30 -18 -20 -18 -22 1 -78 20 -61 60 -109 100 -117 13 -3 35
-7 49 -10 34 -7 54 -49 37 -76 -14 -21 -8 -39 11 -39 7 0 21 -19 32 -42 19
-40 23 -43 83 -56 34 -7 62 -18 62 -23 0 -5 -7 -9 -15 -9 -21 0 -19 -12 6 -39
25 -27 43 -23 47 10 5 31 20 49 41 49 14 -1 14 -2 -1 -14 -10 -7 -18 -18 -18
-25 0 -6 8 -14 18 -18 9 -3 38 -26 64 -51 45 -43 49 -45 61 -28 12 16 17 17
38 5 13 -7 30 -12 37 -10 22 4 43 -20 36 -42 -5 -17 -3 -19 27 -15 19 3 41 2
49 -2 55 -27 71 -30 155 -26 50 2 90 5 91 5 1 1 9 19 19 40 19 43 15 68 -12
78 -29 10 -53 35 -53 55 0 10 -6 18 -14 18 -16 0 -26 42 -15 63 6 10 1 18 -19
26 l-27 13 24 19 c13 10 33 19 45 19 12 0 32 7 45 17 19 13 28 14 42 5 25 -16
66 -15 72 1 4 10 7 10 18 0 21 -20 42 -16 36 7 -3 12 1 21 12 25 35 11 63 143
34 166 -10 9 -9 16 4 35 15 24 15 26 -13 55 -24 25 -29 39 -31 86 -1 40 -6 59
-17 65 -10 5 -16 22 -16 42 0 23 -9 44 -30 67 -36 40 -47 74 -31 93 8 9 9 22
3 37 -25 65 -35 107 -33 136 1 18 -5 44 -14 57 -9 13 -20 50 -25 82 -6 37 -20
74 -39 101 -19 26 -28 49 -24 62 3 13 -6 34 -29 63 -19 24 -33 51 -31 60 3 10
-7 33 -21 51 -28 36 -33 66 -15 84 8 8 5 22 -10 51 -13 25 -17 43 -11 47 19
12 10 41 -20 67 -16 14 -30 35 -30 47 0 11 -4 23 -10 26 -5 3 -10 24 -10 46 0
22 -7 50 -15 63 -9 13 -20 50 -25 81 -8 49 -15 63 -45 87 -33 28 -34 30 -19
53 14 22 14 26 -3 51 -10 16 -28 39 -40 53 -13 13 -23 35 -23 48 0 14 -17 45
-39 71 -46 56 -66 91 -63 112 1 9 -9 31 -23 50 -15 21 -25 47 -25 69 0 54 -11
66 -49 53 -19 -7 -31 -7 -31 -1 0 5 5 9 10 9 19 0 10 52 -16 85 -17 22 -23 41
-19 54 4 13 -3 30 -23 53 -16 18 -32 43 -36 56 -4 12 -15 22 -25 22 -10 0 -24
7 -31 15 -7 8 -18 15 -25 15 -7 0 -18 7 -25 15 -9 11 -16 13 -24 5 -15 -15
-30 -12 -18 3 13 15 6 51 -17 86 -14 22 -19 23 -98 18 -46 -2 -86 -1 -89 4 -3
5 -14 9 -25 9 -12 0 -19 7 -19 19 0 29 -15 34 -48 17 -26 -13 -32 -13 -59 4
-17 10 -34 23 -37 29 -4 5 -13 8 -20 5 -7 -3 -32 4 -54 16 -59 31 -117 32
-179 4z m249 -399 c6 -14 15 -25 20 -25 4 0 8 -4 8 -10 0 -5 -11 -10 -25 -10
-14 0 -34 -5 -45 -12 -26 -16 -35 -5 -19 24 7 12 12 31 10 41 -4 28 37 21 51
-8z m-118 9 c9 -3 16 -13 16 -21 0 -21 -54 -13 -58 10 -4 18 13 22 42 11z
m-105 -131 c11 -9 17 -21 14 -26 -3 -4 -14 1 -24 12 -31 33 -23 43 10 14z
m1536 -1752 c3 -5 1 -12 -5 -16 -5 -3 -10 1 -10 9 0 18 6 21 15 7z m-998 -553
c-3 -7 -5 -2 -5 12 0 14 2 19 5 13 2 -7 2 -19 0 -25z m813 -272 c0 -3 -4 -8
-10 -11 -5 -3 -10 -1 -10 4 0 6 5 11 10 11 6 0 10 -2 10 -4z m-295 -55 c3 -5
1 -12 -5 -16 -5 -3 -10 1 -10 9 0 18 6 21 15 7z m30 -52 c10 -15 -1 -23 -20
-15 -9 3 -13 10 -10 16 8 13 22 13 30 -1z"/>
<path d="M17112 16945 c-24 -8 -49 -12 -57 -9 -16 6 -48 -9 -88 -42 -16 -13
-35 -21 -45 -18 -14 5 -15 4 -2 -5 12 -8 12 -13 2 -23 -10 -10 -15 -10 -22 2
-7 11 -12 12 -20 4 -7 -7 -30 -9 -56 -6 -36 4 -50 0 -76 -20 -18 -14 -43 -28
-56 -32 -12 -4 -27 -16 -32 -27 -6 -10 -17 -19 -26 -19 -8 0 -20 -11 -26 -25
-6 -14 -17 -25 -24 -25 -15 0 -64 -46 -64 -60 0 -4 -8 -6 -19 -3 -24 6 -77
-21 -90 -46 -6 -10 -24 -23 -40 -29 -16 -6 -50 -31 -77 -56 -26 -25 -54 -46
-61 -46 -8 0 -17 -8 -20 -17 -4 -10 -17 -26 -30 -36 -13 -10 -23 -25 -23 -33
0 -8 -6 -15 -12 -16 -7 0 -17 -2 -23 -2 -12 -2 -65 -35 -83 -53 -7 -7 -17 -13
-22 -13 -5 0 -12 -10 -16 -22 -8 -29 -80 -104 -116 -124 -16 -8 -28 -21 -28
-28 0 -7 -18 -25 -40 -40 -24 -16 -40 -34 -40 -46 0 -11 -14 -29 -30 -42 -17
-12 -28 -28 -26 -35 3 -8 -7 -18 -23 -26 -32 -14 -121 -111 -121 -132 0 -31
-23 -62 -56 -74 -22 -8 -34 -19 -34 -31 0 -10 -4 -22 -10 -25 -5 -3 -10 -13
-10 -22 0 -8 -9 -26 -20 -40 -11 -14 -20 -36 -20 -48 0 -14 -9 -26 -25 -33
-14 -6 -25 -15 -25 -20 0 -5 -18 -28 -40 -52 -22 -24 -39 -49 -36 -56 3 -7 -2
-20 -9 -31 -8 -10 -15 -28 -15 -41 0 -12 -11 -32 -25 -44 -14 -12 -25 -26 -25
-31 0 -5 -25 -49 -54 -97 -68 -109 -118 -218 -111 -240 3 -10 2 -27 -3 -40
-10 -28 6 -70 28 -70 8 -1 0 -7 -18 -15 l-32 -14 6 -58 c8 -69 36 -108 65 -92
30 15 59 -6 59 -42 0 -23 11 -41 41 -70 46 -44 48 -45 75 -24 23 17 43 20 26
3 -15 -15 -3 -36 52 -93 25 -25 53 -45 64 -45 14 0 24 -10 32 -35 11 -33 14
-35 53 -35 37 0 45 5 65 35 22 35 23 35 52 20 44 -23 63 -19 103 25 33 37 37
38 46 21 13 -23 41 -35 54 -22 5 5 27 6 48 4 27 -4 45 -1 57 9 9 9 28 19 42
23 14 4 32 13 40 20 8 8 36 19 62 25 26 7 61 25 78 40 18 16 38 26 46 23 8 -3
34 11 58 31 25 20 50 36 56 36 15 0 49 40 50 58 0 7 8 12 18 11 19 -3 92 38
92 52 0 5 9 9 20 9 13 0 24 10 30 25 5 14 16 28 24 31 8 3 12 13 9 25 -4 15 0
19 17 19 14 0 38 16 60 39 20 21 47 44 59 50 11 7 21 20 21 31 0 10 5 22 11
25 6 4 8 13 5 21 -3 8 0 11 9 8 9 -4 16 3 21 20 7 28 -1 46 -19 42 -7 -1 -9
-1 -4 1 13 8 7 33 -7 33 -8 0 -18 5 -21 10 -4 6 5 10 19 10 21 0 26 -5 26 -25
0 -28 27 -35 36 -10 6 14 8 14 18 0 14 -20 46 -10 46 15 0 22 25 44 40 35 17
-11 97 60 103 92 6 27 42 74 115 149 17 18 32 38 32 44 0 5 9 10 19 10 20 0
31 18 31 50 0 10 8 25 18 32 9 7 23 25 31 40 7 14 23 29 34 32 14 3 18 10 14
26 -4 14 0 23 11 27 21 8 101 91 104 107 1 6 2 25 2 41 1 19 6 30 16 30 29 1
48 20 70 70 32 73 51 107 71 130 20 24 69 113 69 129 0 6 14 24 30 40 28 27
50 90 37 103 -4 3 0 18 8 33 8 15 12 30 9 33 -3 3 -7 21 -8 41 -1 28 3 37 22
45 17 8 21 16 17 33 -16 65 -33 173 -29 180 3 4 2 23 -1 42 -5 26 -11 33 -24
29 -10 -2 -26 3 -35 13 -10 9 -32 25 -49 34 -105 57 -147 83 -147 90 0 5 -9
18 -21 28 -17 17 -18 20 -5 25 21 8 20 27 -4 55 -14 17 -23 21 -37 14 -66 -34
-178 -37 -204 -6 -14 17 -30 16 -87 -1z m-1872 -2051 c0 -8 -4 -12 -10 -9 -5
3 -10 10 -10 16 0 5 5 9 10 9 6 0 10 -7 10 -16z m330 -18 c0 -3 -4 -8 -10 -11
-5 -3 -10 -1 -10 4 0 6 5 11 10 11 6 0 10 -2 10 -4z m377 -242 c-3 -3 -12 -4
-19 -1 -8 3 -5 6 6 6 11 1 17 -2 13 -5z"/>
<path d="M11870 15604 c-8 -3 -35 -15 -59 -25 -43 -20 -43 -20 -85 0 -39 18
-42 18 -56 2 -38 -43 -48 -45 -82 -16 -31 26 -32 26 -47 8 -20 -24 -62 -23
-116 2 -34 16 -69 19 -242 21 -184 2 -201 1 -206 -15 -4 -15 -13 -17 -64 -13
l-59 4 1 -28 c0 -21 -5 -29 -20 -32 -20 -3 -20 -3 -1 13 15 11 17 18 8 27 -8
8 -18 3 -40 -20 l-29 -31 -39 29 c-30 22 -42 26 -52 17 -11 -8 -16 -7 -23 6
-11 19 -44 23 -54 7 -3 -5 -17 -10 -31 -10 -14 0 -34 -5 -45 -11 -16 -8 -26
-7 -44 5 -26 17 -75 13 -112 -10 -15 -10 -40 -12 -80 -8 -40 4 -69 1 -92 -9
-31 -13 -38 -13 -59 1 -19 12 -28 13 -43 4 -29 -19 -108 -44 -118 -38 -5 3
-14 -1 -21 -9 -10 -13 -17 -12 -50 7 -34 20 -41 21 -65 8 -21 -11 -30 -12 -46
-1 -18 11 -21 9 -26 -9 -4 -13 -11 -19 -20 -16 -8 3 -22 2 -31 -3 -12 -6 -24
-4 -37 5 -10 8 -31 14 -46 14 -15 0 -31 5 -34 10 -8 12 -56 13 -87 1 -13 -5
-43 -15 -68 -22 -25 -7 -57 -18 -72 -26 -24 -12 -170 -25 -260 -24 -29 0 -42
-6 -62 -30 -14 -17 -26 -26 -26 -21 0 14 -81 25 -94 12 -5 -5 -21 -10 -34 -10
-14 0 -30 -8 -37 -17 -10 -14 -16 -15 -27 -5 -8 6 -18 9 -22 5 -11 -12 -79
-32 -88 -27 -5 3 -14 1 -21 -4 -7 -5 -32 -12 -55 -15 -25 -3 -54 -15 -66 -26
-21 -20 -25 -20 -50 -7 -34 17 -61 11 -86 -22 -19 -23 -26 -25 -88 -23 -71 1
-84 -3 -95 -31 -3 -10 -17 -18 -29 -19 -42 -1 -116 -34 -152 -67 -20 -18 -36
-36 -36 -41 0 -4 -12 -6 -27 -3 -21 4 -32 -1 -53 -27 -19 -22 -42 -36 -76 -44
-37 -9 -49 -17 -48 -30 2 -15 -4 -16 -32 -11 -39 7 -77 -13 -164 -87 -30 -25
-70 -51 -88 -57 -18 -6 -55 -35 -82 -64 -27 -29 -52 -49 -56 -46 -18 18 -98
-46 -110 -88 -5 -20 -53 -44 -86 -44 -22 0 -102 -68 -139 -118 -17 -23 -35
-42 -40 -42 -18 0 -108 -72 -143 -114 -22 -27 -48 -47 -66 -51 -17 -4 -30 -10
-30 -15 0 -13 -91 -120 -102 -120 -6 0 -26 -13 -45 -30 -18 -16 -38 -30 -43
-30 -6 0 -10 -5 -10 -10 0 -6 -56 -68 -125 -138 -69 -70 -125 -134 -125 -144
0 -9 -6 -21 -13 -25 -7 -4 -20 -19 -29 -33 -9 -14 -37 -47 -62 -75 -30 -32
-46 -59 -46 -76 0 -18 -12 -35 -40 -58 -22 -17 -40 -38 -40 -45 0 -6 -16 -27
-35 -46 -19 -19 -35 -41 -35 -51 0 -9 -8 -27 -19 -40 -10 -13 -37 -61 -60
-106 -23 -46 -48 -83 -55 -83 -17 0 -46 -33 -46 -52 0 -20 -32 -78 -42 -78 -5
0 -8 -8 -8 -19 0 -10 -7 -24 -15 -31 -8 -7 -15 -21 -15 -32 0 -10 -7 -21 -15
-24 -8 -4 -15 -14 -15 -24 0 -10 -7 -23 -15 -30 -8 -7 -15 -18 -15 -24 0 -6
-14 -29 -30 -50 -17 -22 -30 -45 -30 -51 0 -6 -9 -29 -19 -51 -11 -22 -22 -56
-26 -77 -4 -20 -16 -48 -26 -61 -14 -18 -17 -30 -10 -48 7 -19 2 -31 -26 -66
-26 -32 -32 -46 -24 -56 8 -10 4 -19 -15 -37 -14 -13 -23 -31 -21 -40 2 -9 -4
-21 -14 -28 -11 -6 -19 -19 -19 -29 0 -9 -7 -26 -15 -36 -8 -11 -12 -28 -9
-39 4 -11 -2 -27 -14 -40 -12 -14 -22 -43 -27 -77 -3 -30 -10 -65 -16 -77 -5
-13 -13 -33 -19 -45 -39 -93 -40 -100 -27 -127 12 -23 11 -29 -12 -59 -20 -28
-24 -44 -23 -94 1 -33 -3 -69 -10 -81 -6 -12 -17 -53 -24 -92 -8 -38 -18 -89
-22 -112 -5 -23 -6 -47 -1 -54 4 -7 1 -28 -6 -46 -20 -46 -31 -214 -16 -241
10 -18 9 -22 -4 -22 -10 0 -15 -10 -15 -29 0 -16 -3 -43 -6 -60 -6 -27 -3 -33
15 -38 26 -7 28 -30 3 -37 -12 -4 -23 -24 -31 -54 -12 -49 -8 -75 16 -103 12
-14 11 -21 -7 -51 -30 -51 -37 -123 -15 -148 15 -16 16 -25 6 -71 -10 -44 -9
-54 3 -61 17 -9 10 -44 -10 -52 -21 -8 -17 -37 11 -78 25 -37 33 -92 15 -103
-12 -7 -14 -45 -2 -45 4 0 13 -15 20 -33 10 -29 9 -39 -8 -75 -22 -45 -25 -83
-11 -111 6 -11 6 -34 0 -61 -13 -55 -6 -78 18 -59 17 15 17 14 -3 -113 -5 -29
-2 -39 10 -44 12 -5 13 -11 6 -24 -17 -31 -12 -48 25 -83 23 -22 35 -43 35
-61 0 -32 -17 -34 -30 -3 -8 19 -9 17 -9 -14 -1 -26 3 -36 13 -35 8 0 15 -3
15 -9 2 -21 -12 -81 -21 -91 -5 -7 -4 -23 2 -38 5 -15 10 -41 10 -57 0 -33 25
-89 40 -89 5 0 17 -17 26 -37 10 -21 24 -42 32 -46 11 -7 11 -12 -3 -27 -12
-14 -15 -28 -9 -61 4 -24 8 -66 8 -92 1 -27 7 -51 12 -55 17 -11 22 -35 12
-54 -11 -22 6 -58 27 -58 11 0 15 -13 15 -47 0 -55 18 -96 42 -101 21 -4 91
-69 107 -101 7 -13 14 -56 15 -95 1 -56 4 -70 15 -68 28 6 61 -20 61 -47 0
-14 5 -43 10 -63 10 -33 14 -37 48 -40 40 -3 40 -2 26 -86 -6 -39 -5 -44 15
-49 23 -6 26 -14 10 -30 -8 -8 1 -22 29 -49 22 -22 47 -53 56 -71 9 -17 24
-34 34 -37 10 -4 23 -24 31 -50 13 -44 26 -56 60 -56 14 0 18 -9 18 -46 0 -25
4 -49 10 -52 12 -8 39 -67 47 -104 3 -15 15 -30 27 -33 11 -4 24 -18 29 -31 5
-13 14 -24 20 -24 14 0 13 -27 -2 -32 -10 -4 -9 -14 1 -46 11 -31 19 -42 35
-42 53 0 116 -80 95 -121 -11 -21 41 -72 67 -67 16 2 19 -4 20 -38 0 -29 8
-51 25 -71 13 -17 29 -38 34 -48 10 -17 12 -17 37 -1 24 16 78 14 78 -3 -1
-19 -20 -32 -38 -27 -11 4 -23 2 -26 -3 -10 -16 24 -77 53 -94 58 -36 56 -34
40 -53 -13 -16 -12 -17 9 -12 24 7 42 -15 42 -51 0 -14 6 -21 19 -21 24 0 51
-36 51 -67 0 -13 11 -33 25 -45 19 -16 22 -25 14 -40 -8 -15 -5 -20 16 -28 15
-6 31 -10 36 -10 5 0 9 -7 9 -15 0 -8 9 -20 20 -27 11 -7 20 -18 20 -25 0 -7
5 -13 10 -13 6 0 10 7 10 15 0 8 5 15 10 15 6 0 10 -13 10 -29 0 -46 10 -61
39 -61 34 0 71 -10 71 -20 0 -4 -10 -11 -22 -17 -21 -9 -20 -12 30 -48 41 -29
50 -40 41 -51 -13 -15 -4 -34 17 -34 8 0 14 -10 14 -25 0 -16 7 -28 18 -31 9
-3 26 -10 37 -14 11 -5 37 -14 58 -21 20 -7 44 -23 51 -35 23 -34 77 -85 86
-79 4 3 10 -2 14 -10 3 -8 1 -15 -5 -15 -5 0 -15 -11 -21 -25 -16 -36 13 -68
56 -59 41 7 94 -12 78 -28 -19 -19 -14 -28 22 -43 26 -11 35 -22 38 -42 2 -17
10 -29 21 -31 10 -2 29 -14 43 -27 22 -20 39 -25 98 -27 71 -3 71 -3 81 -36 6
-21 14 -31 23 -27 8 3 26 -4 40 -16 21 -16 35 -19 69 -14 49 7 80 -6 133 -57
19 -19 49 -44 67 -56 29 -21 32 -21 41 -5 9 15 13 14 42 -10 17 -15 37 -27 44
-27 7 0 25 -13 41 -30 16 -16 39 -30 51 -30 12 0 27 -7 35 -16 11 -13 28 -14
111 -8 69 5 98 3 98 -4 0 -7 15 -19 33 -28 17 -9 45 -27 60 -40 20 -16 41 -24
68 -24 22 0 51 -7 64 -16 14 -9 44 -18 67 -19 24 -2 57 -9 73 -16 17 -7 35
-11 40 -9 50 15 180 -4 210 -31 5 -5 21 -9 36 -9 14 0 42 -11 62 -24 20 -14
57 -27 84 -31 26 -3 58 -11 70 -17 17 -8 27 -7 48 10 22 17 38 20 98 18 40 -2
78 2 85 7 10 8 22 6 42 -6 47 -28 127 -28 180 0 29 16 55 22 71 19 19 -4 33 2
49 20 27 27 65 32 78 8 5 -10 28 -18 56 -21 39 -5 51 -2 71 17 18 17 28 20 37
12 21 -17 116 -7 148 16 24 18 29 19 42 5 14 -13 23 -12 83 16 38 18 73 30 79
28 22 -8 56 12 56 33 0 17 5 21 28 18 24 -3 27 -7 24 -35 -3 -25 0 -33 12 -33
11 0 16 9 16 29 0 41 12 45 81 31 47 -10 62 -10 74 0 12 10 21 9 48 -3 18 -9
41 -25 51 -36 24 -27 115 -27 134 1 9 12 26 18 52 18 22 0 51 5 65 12 21 9 31
9 47 -1 16 -10 23 -10 35 1 12 10 17 10 27 -2 15 -21 63 -41 80 -34 8 3 17 1
21 -5 3 -6 15 -11 25 -11 29 0 90 32 90 47 0 7 5 13 10 13 6 0 10 -6 10 -14 0
-26 20 -28 65 -7 25 12 47 21 50 21 4 0 11 -14 17 -30 6 -20 16 -30 27 -28 9
1 21 -1 28 -5 16 -10 43 2 43 19 0 19 30 30 40 15 12 -20 104 -19 127 1 12 11
23 14 32 9 8 -5 26 -5 41 -1 16 5 32 4 37 -1 6 -6 21 -4 39 6 16 8 34 15 41
15 7 0 21 10 32 22 18 18 24 20 45 10 14 -6 28 -7 31 -2 3 4 24 11 48 15 77
11 142 29 157 42 9 7 45 20 80 29 35 9 71 25 79 35 9 11 43 26 79 34 35 9 73
22 85 30 12 8 32 15 45 15 12 0 33 6 45 14 12 8 51 19 85 25 35 6 69 14 75 19
7 5 41 12 75 16 41 5 83 18 118 37 30 16 63 29 73 29 10 0 21 9 24 21 3 12 13
20 24 18 25 -2 82 12 89 22 3 5 14 9 25 9 11 0 22 7 25 15 4 8 15 15 26 15 28
0 73 26 96 55 11 14 25 25 30 25 18 0 80 40 86 55 2 7 -2 19 -10 25 -21 18
-18 43 5 37 11 -2 31 3 46 13 16 10 34 16 42 13 16 -6 53 24 53 43 0 7 8 15
18 18 9 4 28 15 42 25 20 16 22 22 11 35 -18 21 -7 34 37 42 48 9 74 22 66 35
-3 6 4 24 16 41 12 16 19 36 16 44 -8 20 3 44 20 44 8 0 14 -7 14 -16 0 -9 5
-14 12 -12 12 4 18 13 42 70 9 20 24 39 34 42 21 7 52 56 52 83 0 15 11 21 51
29 44 7 55 14 69 40 9 18 29 43 45 57 28 23 29 27 15 51 -18 34 -3 50 43 49
28 -1 33 3 33 21 -1 16 6 22 26 24 18 2 29 11 34 25 3 12 18 34 32 49 22 24
24 31 14 52 -9 20 -8 25 7 29 12 3 21 18 25 43 9 57 9 58 5 74 -3 9 4 15 17
16 33 2 67 33 87 78 10 23 23 49 28 58 12 24 11 28 -6 28 -8 0 -15 5 -15 11 0
6 7 9 15 5 18 -7 35 23 35 62 0 16 7 35 15 42 8 7 15 20 15 29 0 9 10 21 22
26 23 10 62 99 54 122 -7 17 5 24 20 12 9 -8 17 -2 29 24 9 19 27 45 40 57 14
13 21 28 18 38 -4 8 0 20 8 26 15 11 52 82 64 124 4 13 18 27 31 32 13 5 24
16 24 24 0 8 11 32 25 52 17 25 25 50 25 80 0 41 26 109 56 144 21 26 84 152
84 169 0 9 -7 27 -16 39 -13 19 -13 22 0 22 21 0 30 18 16 35 -10 12 -9 16 3
21 9 3 21 3 26 0 6 -4 13 10 16 31 11 69 13 78 26 111 10 25 11 37 2 51 -18
29 -14 112 8 147 10 17 16 33 14 36 -3 3 8 20 25 38 31 33 39 64 18 76 -8 5
-7 10 3 18 25 20 56 70 62 101 4 22 0 36 -16 53 l-21 22 36 69 c24 46 32 73
25 80 -6 6 -2 25 13 55 12 25 19 49 16 54 -2 4 6 27 18 49 15 25 20 46 15 54
-4 7 -5 18 -1 23 7 13 19 77 32 176 5 41 16 79 23 85 29 22 36 48 20 78 -10
20 -11 33 -5 39 6 6 8 17 5 24 -3 8 4 30 16 49 23 40 27 75 9 93 -16 16 -11
114 7 128 12 9 13 17 5 40 -9 23 -8 31 4 40 9 6 16 17 16 24 0 8 7 21 16 31
16 18 16 22 -11 68 -12 22 -12 26 5 38 27 19 15 49 -23 58 -30 7 -30 8 -9 14
13 3 30 18 39 32 15 25 15 30 -1 63 -9 20 -14 41 -11 46 4 6 9 47 11 91 4 74
-4 114 -27 129 -4 3 -1 30 7 60 14 53 13 55 -11 90 -30 44 -32 71 -5 95 11 10
20 28 20 41 0 13 7 27 16 32 27 15 10 58 -26 71 -27 9 -30 13 -20 31 6 11 9
24 6 28 -3 4 -1 14 4 22 7 11 1 24 -20 45 -28 29 -29 32 -15 59 19 36 9 75
-21 86 -13 5 -24 17 -24 27 0 10 -7 27 -15 37 -18 24 -20 63 -3 68 9 3 6 20
-9 64 -13 37 -19 73 -16 96 4 27 0 45 -15 65 -25 36 -36 97 -22 122 14 26 3
50 -26 57 -25 7 -31 19 -14 29 7 4 1 24 -15 53 -21 37 -25 54 -20 85 7 36 4
41 -52 97 -32 33 -64 60 -70 60 -18 0 -16 19 2 26 8 4 15 14 15 23 0 9 5 22
11 28 10 10 7 15 -36 51 -9 8 -15 30 -15 58 0 29 -5 46 -14 50 -8 3 -24 25
-35 48 -13 28 -30 47 -50 56 -26 10 -29 14 -18 32 10 16 9 21 -4 31 -9 7 -26
31 -37 54 -12 23 -26 44 -31 47 -5 3 -7 31 -5 62 l4 56 -55 54 c-30 30 -67 77
-82 105 -66 123 -74 142 -63 149 26 16 -28 125 -67 136 -17 5 -23 14 -23 35 0
19 -8 34 -25 45 -15 10 -25 26 -25 40 0 12 -10 30 -22 38 -30 21 -78 94 -78
119 0 28 -97 136 -129 143 -32 8 -61 32 -61 51 0 23 -38 90 -54 96 -9 4 -22
21 -30 40 -7 19 -30 50 -50 70 -20 20 -36 46 -36 59 0 17 -13 30 -49 50 -37
20 -51 34 -56 57 -4 19 -15 33 -28 37 -35 11 -66 37 -67 56 0 9 -4 20 -10 23
-5 3 -10 14 -10 24 0 11 -12 23 -28 30 -15 6 -33 25 -41 41 -11 26 -18 30 -52
30 -29 0 -46 6 -62 24 -12 14 -34 38 -50 55 -15 17 -23 32 -17 36 16 10 11 25
-8 25 -19 0 -62 34 -62 49 0 4 -12 14 -27 22 -16 7 -39 21 -52 31 -13 10 -32
18 -42 18 -19 0 -20 3 -23 97 -1 11 -14 31 -31 44 -16 13 -32 26 -35 29 -18
19 -55 30 -81 25 -39 -9 -66 1 -73 28 -7 29 -154 173 -192 188 -16 6 -38 12
-49 13 -11 0 -21 10 -23 21 -2 11 -10 25 -18 32 -10 7 -12 13 -5 18 8 4 8 12
1 26 -14 26 -85 27 -95 2 -5 -14 -12 -8 -36 30 -16 26 -29 51 -29 56 0 13 -36
23 -59 16 -27 -8 -68 10 -76 34 -4 13 -15 21 -28 21 -31 0 -51 15 -44 33 7 20
-21 31 -39 16 -11 -9 -23 -8 -53 5 -21 10 -46 16 -57 14 -12 -2 -26 9 -43 35
-17 26 -28 34 -35 27 -7 -7 -16 -4 -27 12 -16 21 -21 22 -71 11 -29 -6 -58 -8
-65 -6 -6 2 -24 22 -39 44 -15 22 -32 38 -38 37 -6 -1 -24 1 -39 5 -18 5 -34
3 -43 -4 -12 -10 -17 -8 -28 6 -15 21 -120 33 -131 15 -10 -16 -33 -12 -73 14
-36 24 -122 40 -152 30z m105 -34 c3 -5 -1 -10 -9 -10 -9 0 -16 5 -16 10 0 6
4 10 9 10 6 0 13 -4 16 -10z m-500 -410 c3 -5 29 -9 58 -8 66 1 117 -10 140
-30 15 -13 20 -14 27 -3 5 10 17 11 36 6 16 -4 72 -8 124 -10 52 -1 102 -4
110 -5 33 -6 60 1 60 15 0 22 44 19 65 -5 20 -22 74 -40 120 -40 17 0 36 -5
42 -11 7 -7 29 -7 73 1 60 11 64 10 103 -16 35 -23 44 -25 74 -16 25 8 35 7
41 -2 13 -23 61 -48 78 -42 9 4 24 0 33 -7 9 -8 28 -17 44 -21 15 -3 27 -11
27 -17 0 -18 24 -34 50 -34 17 0 29 -8 38 -27 10 -21 20 -28 42 -28 16 0 35
-7 44 -15 8 -8 18 -15 23 -15 5 0 26 -16 47 -36 22 -21 45 -34 54 -31 45 12
46 12 52 -21 4 -29 11 -36 43 -47 21 -7 39 -15 41 -17 18 -28 64 -83 102 -121
34 -35 56 -49 78 -50 23 -2 32 -9 40 -32 23 -63 61 -113 103 -136 24 -13 43
-31 43 -40 0 -10 12 -21 28 -27 15 -5 47 -26 70 -46 24 -20 51 -36 60 -36 17
-1 62 -61 62 -83 1 -21 48 -67 97 -92 65 -35 153 -133 153 -171 0 -13 3 -14
13 -5 11 8 16 5 25 -14 7 -14 23 -30 36 -36 13 -7 27 -23 31 -38 8 -34 43 -71
67 -71 12 0 24 -12 33 -34 8 -18 23 -36 33 -38 10 -3 27 -23 36 -44 22 -46 54
-84 72 -84 16 0 59 -70 56 -90 -1 -9 9 -27 23 -40 19 -18 25 -33 25 -66 0 -32
5 -46 18 -53 10 -6 29 -26 43 -45 13 -19 32 -37 42 -40 14 -3 17 -10 12 -25
-6 -18 -3 -20 22 -15 23 5 32 0 51 -26 23 -31 24 -47 6 -95 -6 -14 -3 -16 14
-11 17 6 21 4 16 -8 -3 -9 -1 -16 5 -16 6 0 11 -14 11 -31 0 -26 3 -31 20 -26
22 6 27 -12 9 -30 -6 -6 -9 -21 -7 -34 2 -17 9 -23 24 -22 18 2 24 -10 49 -98
15 -55 36 -110 46 -123 11 -13 19 -36 19 -50 0 -19 5 -26 18 -26 28 0 34 -11
17 -30 -14 -16 -13 -19 10 -34 14 -9 30 -14 35 -11 15 9 12 0 -10 -40 -11 -19
-16 -35 -11 -35 5 0 12 -11 15 -24 3 -13 17 -31 31 -40 20 -13 25 -25 25 -56
0 -34 4 -42 26 -50 21 -8 24 -13 15 -24 -13 -16 -5 -44 20 -69 13 -12 17 -26
13 -46 -7 -33 10 -71 31 -71 21 0 28 -19 14 -36 -10 -12 -9 -16 10 -21 19 -5
22 -10 17 -42 -7 -40 10 -96 37 -126 29 -32 87 -126 87 -140 0 -8 4 -16 8 -19
12 -7 13 -74 2 -81 -5 -3 -3 -17 5 -32 13 -24 12 -28 -11 -45 -29 -24 -30 -35
-4 -63 17 -19 18 -25 7 -54 -12 -34 -8 -42 40 -69 13 -8 5 -56 -16 -107 -15
-35 -12 -75 5 -82 15 -5 15 -8 2 -17 -21 -16 -31 -124 -13 -143 11 -10 19 -11
34 -3 25 13 41 13 41 -1 0 -6 -9 -13 -20 -16 -12 -3 -19 -8 -18 -12 31 -60 31
-59 9 -96 -22 -38 -27 -80 -11 -105 6 -9 5 -19 -3 -28 -8 -11 -7 -16 6 -23 9
-6 17 -19 17 -29 0 -10 5 -22 10 -25 17 -11 11 -85 -9 -114 -11 -15 -20 -41
-19 -57 0 -16 -5 -42 -11 -58 -10 -25 -9 -34 8 -57 21 -29 19 -39 -11 -39 -22
0 -24 -33 -4 -81 16 -38 10 -90 -11 -102 -10 -6 -12 -18 -8 -37 4 -17 1 -33
-8 -41 -28 -29 -49 -170 -27 -184 15 -9 12 -52 -5 -86 -13 -25 -14 -36 -3 -71
11 -37 10 -42 -6 -52 -53 -32 -61 -43 -50 -72 8 -21 7 -37 -2 -59 -7 -16 -20
-57 -29 -90 -9 -33 -25 -79 -36 -103 -10 -23 -19 -54 -19 -68 0 -14 -7 -32
-15 -41 -9 -8 -13 -23 -10 -33 3 -11 -1 -20 -11 -24 -11 -4 -14 -13 -11 -28 3
-11 0 -33 -7 -47 -7 -15 -11 -51 -10 -83 2 -44 0 -58 -13 -62 -11 -5 -14 -14
-10 -35 4 -19 1 -33 -8 -41 -8 -7 -12 -16 -9 -21 9 -15 24 -10 24 7 0 8 5 12
10 9 7 -4 3 -19 -10 -39 -30 -49 -27 -70 9 -63 30 6 43 -5 34 -30 -3 -8 -12
-9 -30 -2 -33 12 -33 12 -33 -16 0 -14 -4 -25 -10 -25 -5 0 -21 -12 -35 -26
-20 -20 -25 -34 -22 -53 9 -43 -3 -80 -27 -83 -17 -2 -21 -10 -21 -40 0 -20
-6 -42 -12 -49 -7 -7 -13 -19 -13 -27 0 -7 -11 -30 -25 -50 -14 -20 -25 -42
-25 -48 0 -6 -11 -24 -25 -40 -29 -34 -27 -29 -30 -74 -1 -19 -14 -60 -29 -91
-14 -31 -26 -61 -26 -68 0 -7 -11 -27 -25 -45 -14 -18 -25 -43 -25 -55 0 -13
-18 -42 -42 -67 -50 -52 -78 -99 -78 -131 0 -27 -30 -95 -47 -106 -7 -4 -10
-14 -6 -22 7 -20 -15 -72 -33 -79 -8 -3 -14 -12 -14 -21 0 -8 -4 -15 -10 -15
-5 0 -9 -26 -9 -57 0 -50 -4 -115 -10 -147 0 -5 -10 -1 -22 10 -17 16 -22 16
-29 4 -6 -8 -10 -18 -10 -22 0 -5 -9 -8 -19 -8 -23 0 -63 -50 -81 -102 -12
-31 -11 -40 4 -62 16 -26 16 -26 -9 -26 -19 0 -41 -15 -75 -52 -27 -29 -49
-58 -50 -64 0 -11 -38 -49 -56 -55 -15 -6 -79 -81 -87 -101 -3 -9 -24 -29 -47
-43 -22 -14 -40 -32 -40 -40 0 -20 -48 -92 -66 -99 -8 -3 -14 -18 -14 -34 0
-35 -13 -47 -58 -57 -27 -6 -33 -11 -29 -27 4 -15 -2 -24 -25 -36 -52 -29 -78
-53 -78 -72 0 -10 -10 -20 -24 -24 -13 -3 -43 -27 -67 -53 -24 -27 -51 -52
-60 -58 -59 -37 -99 -67 -99 -75 0 -6 -11 -10 -25 -10 -14 0 -28 -7 -32 -16
-3 -8 -42 -34 -87 -56 -44 -22 -103 -52 -131 -66 -37 -20 -64 -27 -105 -27
-60 0 -117 -16 -167 -46 -22 -14 -34 -16 -38 -9 -10 16 -98 3 -154 -21 -24
-10 -52 -19 -62 -19 -10 0 -23 -8 -28 -19 -6 -10 -38 -35 -71 -55 -50 -29 -71
-36 -115 -36 -50 0 -85 -16 -85 -40 0 -4 -16 -18 -37 -30 -31 -18 -40 -19 -64
-10 -21 9 -36 9 -63 0 -20 -6 -40 -9 -45 -5 -10 6 -15 4 -79 -28 -36 -18 -78
-22 -86 -8 -6 9 -125 -13 -155 -28 -10 -6 -41 -13 -69 -17 -29 -3 -52 -10 -52
-14 0 -5 -19 -8 -42 -8 -24 1 -57 -2 -74 -6 -27 -6 -32 -4 -30 11 1 15 -6 18
-51 16 -42 -2 -51 1 -46 12 8 22 -21 18 -42 -5 -24 -26 -59 -25 -77 2 l-14 22
-31 -30 c-16 -16 -33 -38 -37 -48 -9 -26 -19 -13 -18 24 0 23 -4 30 -18 30
-10 0 -22 5 -25 10 -13 21 -55 11 -65 -15 -12 -32 -39 -44 -52 -22 -7 13 -18
16 -48 11 -26 -4 -45 -2 -55 6 -12 10 -21 10 -44 0 -21 -8 -35 -9 -49 -1 -12
6 -36 11 -55 11 -19 0 -40 7 -47 15 -11 13 -16 13 -48 -1 -48 -21 -153 -24
-167 -6 -9 11 -21 10 -73 -7 -34 -12 -77 -21 -97 -21 -20 0 -55 -10 -78 -21
-28 -15 -59 -21 -95 -21 -45 0 -58 -4 -76 -23 -15 -16 -26 -21 -36 -15 -8 5
-19 5 -26 -1 -16 -13 -86 -14 -109 -2 -25 13 -90 9 -109 -6 -8 -7 -25 -9 -40
-5 -16 4 -40 0 -63 -11 -32 -15 -41 -16 -72 -5 -40 15 -99 14 -116 0 -7 -6
-15 -7 -19 -3 -3 4 -25 8 -49 9 -23 0 -57 2 -76 3 -24 1 -32 5 -28 15 6 15
-14 78 -23 73 -3 -2 -20 -10 -37 -17 -18 -8 -33 -20 -33 -26 0 -15 -90 -24
-108 -11 -14 11 -14 11 -28 -20 -9 -22 -11 -22 -38 -8 -16 8 -34 14 -40 14
-19 -3 -46 12 -46 26 0 25 -20 27 -49 6 -35 -25 -47 -26 -59 -5 -7 12 -27 18
-71 20 -76 4 -101 11 -101 30 0 8 -6 14 -13 14 -7 0 -20 9 -30 20 -18 22 -34
25 -56 11 -9 -6 -29 -4 -52 4 -21 8 -59 12 -83 10 -43 -4 -46 -3 -52 23 -10
47 -13 52 -29 52 -8 0 -20 -11 -25 -25 -11 -30 -40 -33 -40 -5 0 18 -5 20 -39
14 -44 -7 -82 16 -74 45 6 24 -22 44 -51 39 -18 -4 -27 1 -35 19 -9 19 -18 23
-55 23 -49 0 -80 21 -71 49 3 9 -1 26 -9 37 -12 15 -17 17 -27 7 -34 -34 -111
14 -150 92 -17 34 -28 45 -46 45 -13 0 -23 -5 -23 -10 0 -6 -11 -3 -25 6 -14
9 -36 18 -48 19 -29 3 -29 3 -50 19 -14 11 -16 19 -7 41 15 39 -1 58 -57 70
-39 8 -51 16 -63 41 -8 18 -30 42 -47 54 -40 27 -42 40 -7 40 14 0 23 4 19 10
-8 13 -45 13 -45 0 0 -5 -7 -10 -15 -10 -10 0 -15 10 -15 33 0 26 -6 36 -29
50 -19 11 -31 27 -33 45 -2 19 -9 28 -25 30 -19 3 -21 8 -17 31 5 24 2 29 -18
35 -42 11 -68 43 -84 101 -15 59 -37 85 -90 109 -25 11 -33 22 -39 52 -10 55
-22 73 -43 67 -27 -7 -55 40 -47 78 6 25 0 37 -44 86 -28 31 -51 60 -51 64 0
4 -16 10 -36 14 -31 5 -35 9 -29 28 18 57 17 67 -2 74 -47 19 -103 82 -103
117 0 9 -15 38 -34 64 -18 27 -37 58 -40 70 -4 13 -20 30 -34 40 -38 24 -53
44 -48 65 4 16 0 18 -29 13 -29 -6 -33 -4 -39 20 -5 17 -2 32 7 43 18 19 6 61
-18 61 -10 0 -15 10 -15 30 0 23 -6 33 -24 39 -31 13 -38 35 -20 68 14 27 13
29 -28 65 -23 20 -57 45 -75 55 -20 11 -31 23 -28 31 3 8 -3 16 -15 19 -20 5
-27 27 -11 37 5 3 8 20 6 38 -2 22 -9 34 -24 39 -11 5 -21 15 -21 22 0 8 -10
18 -22 24 -17 7 -22 19 -24 59 -5 96 -15 121 -54 129 -39 9 -61 36 -67 87 -4
24 -17 60 -30 80 -19 28 -22 41 -14 55 16 31 1 99 -29 133 -15 16 -32 30 -38
30 -14 0 -21 42 -25 142 -4 81 -18 111 -58 123 -11 4 -17 11 -13 16 3 6 3 18
-1 27 -4 9 -7 36 -5 60 1 30 -4 50 -16 63 -11 12 -19 41 -21 82 -3 34 -9 67
-15 74 -7 8 -6 23 1 46 13 37 4 69 -31 116 -23 31 -23 41 2 41 26 0 41 37 28
70 -6 14 -11 50 -13 80 -1 30 -5 62 -9 71 -4 8 -2 27 3 42 7 17 7 28 1 32 -6
4 -10 16 -10 29 0 12 -5 27 -11 33 -9 9 -9 19 1 42 10 25 9 33 -4 52 -10 14
-12 27 -6 34 5 6 5 26 -1 51 -8 31 -7 50 5 84 8 24 11 49 7 55 -5 5 -9 38 -10
73 -1 35 -8 83 -17 108 -14 41 -14 46 2 61 14 14 16 31 11 97 -3 44 -1 88 4
97 5 10 11 77 13 151 3 73 5 135 6 138 1 3 1 14 0 24 -1 10 3 28 8 40 18 38
33 106 26 117 -3 6 2 26 12 44 17 33 17 35 -1 69 l-19 35 23 25 c13 13 21 31
18 38 -2 7 3 21 11 31 9 10 15 34 14 59 -1 26 7 60 23 94 16 34 25 71 26 106
0 29 1 64 1 78 1 14 -2 32 -6 41 -4 10 -1 22 7 31 22 22 67 122 67 149 0 13
14 55 30 94 17 38 30 82 30 97 0 15 5 30 11 34 6 3 9 18 6 32 -4 19 1 33 18
48 19 18 22 28 18 65 -5 40 -2 46 26 67 17 12 31 31 31 41 0 10 7 24 15 31 8
7 15 20 15 30 0 10 6 20 14 23 8 3 20 25 27 49 7 24 24 53 39 65 14 12 33 41
40 65 8 24 24 56 37 72 18 21 21 31 12 42 -15 18 -3 34 27 34 20 0 24 4 20 18
-4 11 4 26 24 42 17 14 30 33 30 42 0 10 9 22 19 28 13 6 22 25 26 55 5 32 13
46 27 51 10 3 26 21 35 40 9 18 24 36 33 39 17 5 100 159 100 183 0 7 8 12 18
12 27 0 49 29 69 89 15 48 21 55 69 79 35 17 55 33 58 48 4 13 27 40 52 61 25
21 54 54 64 73 11 19 36 49 56 65 20 17 50 45 67 63 17 17 37 32 45 32 19 0
112 63 144 97 114 121 254 245 306 270 28 14 52 31 52 38 0 14 55 65 70 65 5
0 10 7 10 15 0 8 -5 15 -12 15 -6 0 -9 3 -5 6 3 3 29 7 59 10 34 2 57 9 65 20
7 9 23 22 35 28 13 6 27 21 33 33 9 21 46 38 72 34 17 -2 88 90 85 111 -2 10
2 18 7 18 6 0 11 -4 11 -10 0 -19 49 -10 78 15 17 14 37 25 47 25 19 0 94 40
141 76 22 17 48 26 80 28 31 2 49 8 56 19 5 10 20 17 34 17 14 0 40 10 57 22
18 13 50 24 75 25 24 2 59 10 79 18 19 8 49 15 65 15 29 0 66 18 105 53 19 17
25 18 39 6 14 -11 18 -10 32 7 20 24 66 54 84 54 6 0 22 -10 34 -21 l23 -21
50 33 c28 18 51 36 51 41 0 15 18 8 49 -18 33 -27 51 -25 51 7 0 20 15 26 25
9 9 -14 111 -10 132 6 27 20 66 17 86 -7 30 -35 59 -18 72 44 6 30 30 36 60
14 12 -10 30 -12 59 -6 23 4 62 5 89 2 43 -5 47 -4 47 15 0 15 5 19 20 15 10
-3 24 -11 30 -18 7 -8 22 -10 49 -5 22 4 47 3 56 -3 12 -6 46 -6 102 2 46 7
99 9 117 5 24 -4 42 -1 61 12 25 17 28 17 37 1 10 -19 77 -24 95 -6 9 9 106
22 163 20 171 -3 255 1 288 15 21 8 48 12 64 8 19 -4 37 0 53 10 13 9 42 16
64 16 27 0 43 5 49 16 8 15 15 14 67 -10 37 -16 62 -23 69 -17 18 15 62 17 78
3 12 -10 18 -9 28 3 14 17 46 20 55 5 10 -16 45 -12 52 6 3 9 0 20 -8 25 -11
7 -11 9 3 9 9 0 20 -4 23 -10z m3522 -2826 c-3 -3 -12 -4 -19 -1 -8 3 -5 6 6
6 11 1 17 -2 13 -5z m-9097 -424 c0 -5 -4 -10 -10 -10 -5 0 -10 5 -10 10 0 6
5 10 10 10 6 0 10 -4 10 -10z m-270 -510 c0 -5 -4 -10 -10 -10 -5 0 -10 5 -10
10 0 6 5 10 10 10 6 0 10 -4 10 -10z m52 -322 c-9 -9 -12 -7 -12 12 0 19 3 21
12 12 9 -9 9 -15 0 -24z m10052 -50 c7 -5 5 -8 -6 -8 -22 0 -32 17 -22 38 6
15 8 15 12 -3 2 -11 9 -23 16 -27z m-10087 -1120 c-3 -7 -5 -2 -5 12 0 14 2
19 5 13 2 -7 2 -19 0 -25z m-177 -933 c0 -8 -7 -15 -15 -15 -16 0 -20 12 -8
23 11 12 23 8 23 -8z m8545 -2855 c3 -5 -3 -10 -15 -10 -12 0 -18 5 -15 10 3
6 10 10 15 10 5 0 12 -4 15 -10z m-135 -95 c0 -8 -4 -15 -10 -15 -5 0 -10 7
-10 15 0 8 5 15 10 15 6 0 10 -7 10 -15z m-2885 -844 c3 -5 1 -12 -5 -16 -5
-3 -10 1 -10 9 0 18 6 21 15 7z"/>
<path d="M1986 14285 c-8 -8 -20 -15 -26 -15 -6 0 -13 -7 -17 -15 -7 -19 -74
-55 -101 -55 -11 0 -25 7 -33 16 -30 36 -229 -28 -245 -78 -3 -10 -11 -18 -18
-18 -7 0 -18 -12 -24 -26 -7 -14 -17 -22 -23 -19 -18 12 -57 -4 -64 -25 -3
-11 -15 -20 -26 -20 -19 0 -25 -11 -12 -24 4 -4 13 -26 20 -49 11 -37 11 -44
-4 -54 -15 -11 -15 -16 -3 -40 8 -16 22 -40 32 -54 9 -14 20 -57 24 -95 8 -81
55 -220 81 -240 10 -7 26 -14 36 -14 12 0 17 -8 17 -28 0 -15 11 -43 25 -62
14 -19 25 -39 25 -46 0 -6 10 -24 21 -39 18 -22 20 -29 8 -36 -11 -7 -11 -9 3
-9 9 0 18 5 20 11 2 6 14 8 30 4 19 -5 24 -12 21 -25 -3 -10 -10 -17 -16 -16
-7 2 -9 1 -4 -1 4 -3 7 -13 7 -23 0 -11 4 -29 9 -42 5 -13 12 -36 16 -52 5
-22 9 -26 18 -17 18 18 27 13 27 -14 0 -15 14 -38 36 -59 31 -30 39 -33 61
-25 13 5 29 7 33 4 11 -7 1 -37 -17 -50 -13 -10 -11 -14 150 -197 34 -40 61
-61 86 -68 51 -14 65 -25 59 -48 -8 -27 8 -51 31 -45 13 3 20 -2 25 -20 5 -23
91 -97 112 -97 4 0 19 -11 33 -23 15 -13 42 -30 61 -37 50 -20 108 -59 115
-79 3 -9 41 -33 85 -53 66 -31 85 -36 106 -28 37 15 43 13 56 -17 17 -39 48
-73 68 -73 10 0 28 -9 42 -19 22 -18 75 -27 179 -30 9 -1 19 -11 22 -23 5 -19
8 -20 23 -8 14 12 18 12 29 -3 7 -10 19 -15 29 -11 11 4 16 1 16 -10 0 -9 -8
-16 -20 -16 -11 0 -20 -4 -20 -8 0 -12 110 -66 136 -67 11 -1 33 -11 49 -23
36 -28 45 -28 45 3 0 17 -8 29 -25 37 -31 14 -32 26 -1 38 13 4 26 20 30 34
10 39 26 31 26 -13 0 -49 29 -75 67 -60 53 20 81 12 105 -31 13 -22 30 -40 39
-40 9 0 22 -6 28 -14 7 -8 26 -18 42 -21 16 -4 29 -13 29 -20 0 -21 18 -28 77
-30 30 -1 58 -6 61 -12 14 -21 49 -31 94 -26 40 5 48 2 57 -16 14 -25 45 -27
92 -5 60 27 64 31 62 59 -2 22 1 26 17 22 11 -3 20 -1 20 3 0 5 7 16 16 24 14
14 13 20 -13 56 -21 29 -34 39 -53 38 -72 -4 -120 3 -120 17 0 8 10 20 23 26
12 7 24 15 27 18 3 3 13 12 23 20 15 12 17 11 15 -10 -7 -57 63 -20 207 112
50 45 92 86 94 91 2 6 -2 21 -10 34 -11 21 -10 26 6 38 10 7 15 18 11 24 -4 7
3 17 18 24 40 18 34 56 -12 91 -32 24 -38 33 -34 58 3 18 -5 49 -21 82 -14 28
-25 59 -26 67 0 53 -45 119 -102 149 -16 8 -29 25 -32 40 -3 15 -22 45 -42 66
-22 25 -38 54 -42 77 -4 30 -10 38 -27 38 -19 1 -66 57 -66 80 0 12 -28 21
-35 10 -7 -11 -95 -11 -95 1 0 5 6 9 13 9 20 0 47 33 47 56 0 12 -20 31 -55
52 -35 21 -55 40 -57 55 -2 16 -11 23 -31 25 -16 2 -31 10 -34 18 -3 9 -16 19
-27 24 -14 5 -27 23 -35 50 -8 28 -20 45 -39 53 -15 7 -51 36 -80 65 -29 28
-60 52 -68 52 -9 0 -27 9 -41 20 -14 11 -32 20 -41 20 -12 0 -12 3 -2 15 11
13 7 21 -25 52 -35 34 -39 35 -50 19 -16 -21 -28 -6 -27 35 1 25 -3 28 -36 31
-30 2 -38 8 -40 26 -2 12 -7 22 -12 22 -5 0 -22 12 -39 26 -17 14 -43 29 -58
33 -21 6 -27 13 -25 29 2 17 -2 22 -18 22 -30 0 -60 18 -60 35 0 20 -29 19
-52 -2 -18 -16 -22 -16 -46 -2 -20 11 -27 23 -27 46 0 33 -29 73 -52 73 -7 0
-16 7 -19 15 -4 8 -16 15 -29 15 -12 0 -36 7 -51 15 -16 8 -37 15 -46 15 -9 0
-30 12 -47 26 -24 20 -38 24 -57 20 -21 -6 -27 -3 -31 14 -5 17 -11 20 -34 15
-16 -4 -29 -2 -29 3 0 11 -41 28 -85 35 -16 3 -37 8 -46 12 -12 5 -20 -2 -27
-22 -6 -16 -11 -21 -11 -11 -1 10 -13 19 -33 23 -18 3 -43 11 -56 18 -18 9
-32 7 -70 -8 -51 -21 -124 -24 -145 -7 -7 6 -23 9 -35 5 -17 -4 -22 -1 -22 15
0 33 -65 45 -94 17z m49 -25 c4 -6 -5 -10 -19 -10 -14 0 -26 5 -26 10 0 6 9
10 19 10 11 0 23 -4 26 -10z m-571 -411 c-3 -5 -10 -7 -15 -3 -5 3 -7 10 -3
15 3 5 10 7 15 3 5 -3 7 -10 3 -15z m1416 -1584 c0 -26 -14 -33 -25 -15 -9 14
1 40 15 40 5 0 10 -11 10 -25z m480 -180 c0 -8 -4 -15 -10 -15 -5 0 -10 7 -10
15 0 8 5 15 10 15 6 0 10 -7 10 -15z m171 -15 c10 -6 19 -17 19 -25 0 -20 -6
-19 -30 5 -30 30 -26 39 11 20z m-168 -46 c11 -11 -3 -24 -18 -18 -8 4 -12 10
-9 15 6 11 18 12 27 3z m722 -114 c-3 -5 -10 -10 -16 -10 -5 0 -9 5 -9 10 0 6
7 10 16 10 8 0 12 -4 9 -10z"/>
<path d="M18716 13281 c-6 -9 -45 -18 -126 -27 -25 -3 -49 -10 -54 -14 -4 -5
-22 -6 -40 -3 -17 2 -44 -1 -61 -8 -16 -7 -61 -14 -100 -15 -108 -4 -166 -15
-204 -38 -35 -21 -101 -30 -101 -14 0 4 -10 8 -23 8 -22 0 -57 -31 -57 -50 0
-15 -17 -12 -62 11 l-42 21 -35 -41 c-20 -23 -43 -41 -52 -41 -9 0 -22 -7 -30
-16 -11 -14 -13 -14 -21 0 -9 17 -61 12 -86 -7 -9 -7 -16 -7 -24 1 -13 13 -71
-8 -103 -37 -19 -18 -66 -31 -110 -32 -11 0 -38 -5 -60 -11 -99 -26 -138 -42
-167 -68 -17 -16 -36 -26 -43 -24 -7 3 -23 -9 -35 -25 -13 -19 -30 -31 -44
-31 -13 0 -29 -7 -36 -15 -7 -8 -18 -15 -25 -15 -7 0 -35 -17 -62 -37 -76 -59
-111 -83 -122 -83 -19 0 -21 -18 -5 -35 13 -13 14 -21 6 -39 -8 -19 -20 -24
-63 -28 -29 -3 -55 -11 -57 -17 -2 -7 -16 -26 -30 -42 -14 -17 -33 -45 -41
-63 -9 -17 -26 -35 -39 -41 -20 -8 -22 -15 -17 -43 5 -28 3 -33 -18 -41 -25
-10 -41 -34 -30 -45 14 -14 50 -4 76 20 23 21 31 23 42 14 18 -15 19 -27 3
-45 -7 -8 -26 -32 -43 -54 -16 -21 -45 -47 -62 -56 -36 -20 -39 -26 -21 -55
10 -15 9 -24 -2 -44 -12 -24 -11 -28 8 -49 26 -27 28 -46 7 -73 -18 -24 -19
-75 -2 -99 13 -17 15 -17 30 6 17 23 17 23 17 -23 0 -50 12 -67 35 -48 13 10
15 8 15 -14 0 -15 6 -39 14 -54 7 -15 17 -46 21 -70 5 -31 13 -46 28 -52 12
-4 32 -18 45 -29 12 -12 28 -21 35 -20 33 4 59 -3 74 -21 12 -14 24 -18 41
-13 18 4 29 0 41 -16 30 -39 154 -50 168 -15 2 7 11 10 19 7 8 -3 21 1 30 8
13 11 17 11 24 -2 11 -18 79 -13 86 6 3 7 13 11 24 8 10 -3 21 0 24 6 4 6 15
11 25 11 28 0 64 46 63 81 -1 24 3 29 15 25 9 -4 21 -1 29 5 9 7 18 8 31 0 17
-10 16 -11 -4 -17 -13 -3 -23 -13 -23 -20 0 -8 -6 -15 -12 -15 -7 -1 1 -5 17
-8 36 -9 93 11 115 39 13 17 23 19 71 14 52 -5 58 -3 92 27 20 18 56 39 80 47
57 19 70 31 56 48 -9 11 -6 14 15 14 17 0 26 -5 26 -16 0 -13 6 -15 28 -10 15
4 40 10 57 13 16 3 35 12 43 19 7 8 25 17 40 21 25 6 111 65 123 85 4 7 14 6
27 -1 30 -16 39 -14 45 10 5 19 11 21 41 15 26 -5 47 -1 78 14 23 11 49 20 57
20 81 2 211 101 211 160 0 33 24 41 44 16 23 -30 84 -23 126 14 18 16 38 31
44 33 7 3 5 11 -6 23 -17 17 -16 19 13 31 46 19 65 18 44 -3 -12 -13 -13 -19
-5 -24 19 -12 50 1 50 20 0 11 13 23 33 31 31 12 31 12 7 16 -36 7 -46 20 -20
28 14 4 28 1 39 -9 25 -23 40 -20 47 10 4 16 12 23 20 20 23 -9 70 17 126 69
29 27 67 56 83 65 17 9 29 22 29 33 -1 9 2 17 8 17 5 0 28 9 50 20 23 11 52
20 64 20 16 0 25 11 39 48 10 26 26 59 37 74 12 18 20 52 24 101 5 70 4 76
-20 102 -18 20 -26 39 -26 66 0 32 -5 40 -34 58 -37 23 -46 39 -46 77 0 16
-15 40 -42 67 -28 29 -49 63 -64 107 -20 56 -27 65 -50 68 -16 2 -39 -5 -57
-18 -29 -22 -30 -22 -88 -5 -52 16 -64 16 -99 5 -31 -10 -43 -11 -52 -2 -7 7
-21 12 -33 12 -12 0 -26 5 -32 11 -9 9 -18 8 -38 -5 -24 -16 -28 -16 -50 -2
-27 18 -61 21 -69 7z m-1719 -543 c-3 -7 -5 -2 -5 12 0 14 2 19 5 13 2 -7 2
-19 0 -25z m-309 -400 c-3 -7 -10 -13 -16 -12 -57 5 -59 5 -32 14 38 12 52 11
48 -2z m1876 -275 c-5 -5 -12 -12 -16 -18 -4 -6 -8 -2 -8 8 0 9 7 17 17 17 9
0 12 -3 7 -7z m-1934 -213 c0 -5 -4 -10 -10 -10 -5 0 -10 5 -10 10 0 6 5 10
10 10 6 0 10 -4 10 -10z m985 -150 c3 -5 1 -10 -4 -10 -6 0 -11 5 -11 10 0 6
2 10 4 10 3 0 8 -4 11 -10z m-45 -4 c0 -11 -19 -15 -25 -6 -3 5 1 10 9 10 9 0
16 -2 16 -4z"/>
<path d="M19561 10148 c-28 -22 -47 -23 -84 -3 -26 13 -31 13 -50 0 -28 -19
-63 -19 -71 0 -4 12 -24 15 -96 14 -88 -1 -92 -2 -101 -26 -8 -22 -14 -25 -47
-21 -20 3 -54 1 -76 -4 -30 -7 -41 -5 -50 7 -13 18 -86 10 -86 -9 0 -8 -23
-13 -67 -14 -38 -1 -86 -3 -108 -4 -34 -3 -40 0 -40 17 0 11 -7 20 -15 20 -8
0 -14 -8 -14 -17 2 -15 -4 -17 -35 -12 -81 13 -133 14 -146 4 -9 -8 -14 -6
-19 5 -8 23 -32 18 -68 -14 -32 -27 -86 -36 -105 -18 -3 4 -12 2 -20 -5 -11
-9 -15 -7 -19 8 -5 18 -16 20 -106 22 -55 1 -106 -2 -112 -7 -7 -6 -30 -11
-51 -12 -22 -1 -47 -6 -55 -10 -14 -7 -135 -19 -186 -19 -12 0 -27 -7 -34 -15
-10 -13 -16 -13 -40 0 -25 13 -30 13 -50 -5 l-21 -19 28 -15 28 -15 -37 -1
c-20 0 -40 5 -43 10 -4 6 -12 5 -21 -5 -11 -11 -38 -14 -102 -14 -79 1 -88 -1
-107 -23 -13 -14 -28 -22 -43 -20 -37 6 -113 -37 -126 -70 -6 -16 -21 -31 -33
-34 -13 -4 -23 -12 -23 -20 0 -16 -60 -29 -90 -19 -17 5 -19 10 -9 21 6 7 15
11 21 8 5 -3 14 -1 21 4 7 6 23 12 36 14 27 3 35 16 22 36 -7 12 -13 12 -37 0
-16 -8 -51 -13 -79 -12 -34 2 -55 -2 -67 -13 -21 -18 -23 -44 -7 -60 15 -15 4
-43 -17 -43 -9 0 -26 10 -38 23 -17 19 -29 22 -69 19 -42 -4 -47 -6 -41 -24 5
-16 2 -19 -13 -14 -24 7 -57 -19 -50 -39 4 -9 1 -15 -8 -15 -7 0 -17 -9 -20
-20 -4 -13 -15 -20 -31 -20 -16 0 -24 -6 -24 -17 0 -10 -14 -33 -30 -52 -17
-18 -30 -39 -30 -45 0 -6 -3 -21 -6 -33 -4 -13 -2 -23 4 -23 6 0 13 8 15 18 3
9 5 0 6 -21 1 -26 -5 -42 -19 -54 -39 -34 -11 -74 40 -58 11 3 20 11 20 16 0
5 5 9 10 9 14 0 13 -27 -2 -32 -21 -7 3 -28 33 -28 31 0 39 -17 14 -27 -14 -5
-13 -7 3 -19 11 -7 22 -27 26 -44 3 -17 10 -29 16 -25 17 11 44 -12 55 -47 8
-24 20 -36 43 -43 18 -5 32 -13 32 -17 0 -4 16 -10 37 -14 26 -5 39 -3 47 7
23 29 58 37 118 25 31 -6 64 -19 75 -28 10 -9 38 -22 63 -29 25 -7 49 -16 54
-21 6 -4 27 -8 48 -8 27 0 40 -5 48 -20 8 -16 17 -19 33 -14 12 4 25 12 30 18
8 13 27 -10 27 -35 0 -13 13 -18 57 -21 31 -3 59 -10 61 -16 5 -15 37 -15 62
-2 13 7 21 7 25 -1 4 -6 17 4 31 25 14 20 27 36 30 36 2 0 9 -12 14 -26 6 -15
17 -24 27 -23 10 1 26 -1 35 -5 11 -5 23 -2 34 9 21 21 79 17 78 -6 -1 -12 11
-15 71 -14 39 1 77 5 84 9 6 4 23 0 37 -8 19 -13 29 -14 45 -5 16 8 27 8 45
-1 23 -13 30 -12 99 14 25 9 39 21 39 30 -2 20 12 21 19 2 4 -10 18 -12 51 -9
25 3 46 2 46 -3 0 -5 13 -15 30 -22 26 -12 32 -11 52 7 l22 21 -27 0 c-14 0
-29 5 -32 10 -10 16 26 25 44 12 33 -24 42 -24 67 4 l26 27 18 -23 c11 -15 20
-19 24 -11 4 6 16 11 27 11 11 0 22 7 25 15 9 22 41 28 66 11 13 -8 56 -17 96
-21 59 -6 77 -4 98 10 20 13 28 14 40 4 16 -13 45 -3 93 33 29 22 61 23 61 4
0 -33 45 -29 55 5 5 15 16 19 55 19 27 0 51 4 54 9 3 5 22 12 42 16 41 7 118
45 93 45 -24 0 -44 26 -25 33 21 8 56 -3 56 -19 0 -8 7 -14 16 -14 13 0 14 3
5 14 -9 10 -8 15 4 20 18 6 45 -2 45 -15 0 -13 78 -11 86 2 3 6 15 9 25 6 13
-4 19 0 19 12 0 9 6 26 14 37 14 18 15 18 22 1 5 -15 14 -17 53 -12 70 10 76
13 61 30 -11 13 -8 14 18 9 18 -4 32 -1 37 5 5 9 10 9 21 0 11 -9 25 -5 66 18
29 17 58 28 64 26 12 -4 32 17 49 51 7 13 20 21 35 21 18 0 26 6 28 20 2 12
12 27 24 34 19 12 20 11 16 -14 -6 -31 18 -47 36 -24 13 17 60 39 85 39 23 0
74 54 76 81 1 11 6 24 11 27 43 29 55 92 28 144 -9 17 -16 54 -16 81 0 44 -6
57 -42 103 -22 29 -54 73 -69 98 -18 29 -36 46 -48 46 -10 0 -19 3 -19 8 0 10
-108 35 -120 27 -6 -3 -14 5 -19 18 -11 27 -29 37 -72 37 -22 0 -30 6 -35 24
-7 28 -28 36 -63 24 -13 -5 -45 -6 -71 -2 -30 4 -50 2 -54 -5 -10 -16 -48 -14
-74 5 -18 12 -26 13 -37 4 -11 -9 -26 -10 -53 -3 -32 8 -42 7 -61 -9z m-126
-87 c-9 -16 -25 -3 -18 15 4 10 9 12 15 6 6 -6 7 -15 3 -21z m-595 -21 c-20
-13 -40 -13 -40 0 0 6 12 10 28 10 21 0 24 -2 12 -10z m-1423 -236 c2 -5 -3
-19 -11 -29 -14 -19 -15 -19 -21 -2 -4 9 -4 24 -1 33 6 16 27 15 33 -2z m-396
-59 c0 -5 -7 -12 -16 -13 -23 -5 -47 6 -40 19 8 13 56 8 56 -6z m359 5 c0 -5
-5 -10 -11 -10 -5 0 -7 5 -4 10 3 6 8 10 11 10 2 0 4 -4 4 -10z m-370 -112 c0
-4 -4 -8 -9 -8 -5 0 -15 -2 -23 -5 -7 -3 -19 -1 -27 4 -12 8 -12 12 -2 25 10
12 17 13 37 4 13 -6 24 -15 24 -20z m-323 -49 c-8 -20 -18 -29 -34 -29 -24 0
-23 20 4 52 24 27 43 13 30 -23z m2613 -349 c0 -5 -16 -10 -36 -10 -21 0 -33
4 -29 10 3 6 19 10 36 10 16 0 29 -4 29 -10z m-1175 -210 c3 -5 -1 -10 -10
-10 -9 0 -13 5 -10 10 3 6 8 10 10 10 2 0 7 -4 10 -10z m-155 -30 c0 -5 -7
-10 -16 -10 -8 0 -12 5 -9 10 3 6 10 10 16 10 5 0 9 -4 9 -10z m260 1 c0 -12
-29 -35 -36 -28 -11 10 5 37 21 37 8 0 15 -4 15 -9z"/>
<path d="M1878 9904 c-21 -7 -64 -15 -95 -17 -46 -2 -64 -8 -86 -29 -16 -15
-42 -30 -57 -33 -16 -4 -32 -15 -35 -26 -8 -25 -25 -24 -32 1 -6 24 -19 26
-27 4 -10 -25 -23 -7 -18 26 3 24 1 30 -15 30 -10 0 -24 -5 -30 -11 -8 -8 -16
-7 -31 2 -15 10 -24 10 -34 1 -9 -7 -19 -8 -28 -2 -8 6 -26 10 -39 10 -28 0
-101 -30 -101 -42 0 -4 -20 -8 -45 -8 -42 0 -58 -11 -35 -25 33 -20 -34 -34
-71 -14 -16 8 -31 5 -71 -15 -29 -14 -65 -26 -80 -26 -18 0 -28 -5 -28 -15 0
-24 -40 -38 -115 -40 -58 -2 -83 -9 -135 -36 -73 -38 -86 -50 -65 -62 30 -17
15 -30 -27 -24 -65 8 -111 -11 -124 -52 -10 -32 -17 -36 -70 -50 -43 -12 -62
-22 -69 -38 -5 -13 -17 -23 -25 -23 -16 0 -42 -32 -50 -64 -3 -11 -22 -28 -43
-39 -20 -10 -37 -24 -37 -31 0 -7 -13 -25 -30 -41 -16 -16 -30 -37 -30 -46 0
-10 -4 -21 -10 -24 -14 -9 -13 -52 2 -61 7 -5 4 -10 -10 -15 -26 -10 -30 -60
-7 -79 12 -10 14 -24 9 -57 -7 -48 -1 -52 36 -23 27 21 55 26 64 11 3 -5 -5
-12 -19 -15 -22 -6 -25 -12 -25 -51 0 -29 6 -52 18 -64 9 -11 26 -32 37 -47
39 -53 64 -74 88 -74 13 0 32 -9 42 -20 10 -11 30 -20 45 -20 17 0 30 -7 34
-17 6 -15 8 -14 20 2 9 13 19 16 32 10 10 -4 28 -7 40 -6 33 3 74 -17 74 -37
0 -22 59 -75 77 -68 7 3 16 19 19 36 4 16 8 30 10 30 3 0 33 -27 79 -71 25
-23 45 -25 45 -4 0 22 13 18 40 -10 26 -27 49 -32 69 -12 10 10 14 9 22 -5 16
-28 85 -24 125 7 26 20 33 22 38 10 3 -10 19 -15 45 -15 30 0 40 4 44 20 6 23
37 28 37 6 0 -29 40 -29 69 -2 34 32 45 33 73 1 21 -25 52 -33 62 -17 3 5 27
4 54 -1 45 -9 55 -8 107 17 44 21 60 24 66 15 6 -10 16 -10 47 1 23 7 47 10
55 7 14 -5 80 13 93 26 4 4 18 7 31 7 13 0 50 14 82 30 42 22 66 29 85 24 14
-3 51 1 83 11 32 9 75 21 96 27 20 6 42 17 48 24 6 7 18 10 26 7 9 -4 21 1 27
9 11 15 14 14 35 -1 l24 -18 -27 -7 c-34 -8 -33 -22 3 -34 40 -14 94 -1 106
26 12 27 23 28 41 5 11 -16 17 -16 45 -6 27 11 36 10 49 -2 21 -19 50 -19 75
-1 11 7 31 17 44 21 19 6 23 4 18 -8 -4 -11 6 -16 46 -21 49 -6 54 -4 79 24
22 24 36 30 69 30 48 0 76 13 106 48 18 21 24 23 36 13 10 -8 17 -9 22 -1 11
18 41 11 69 -19 l28 -30 69 25 c39 14 75 22 82 17 15 -9 48 -5 65 10 8 6 31
10 53 9 21 -2 58 6 81 16 24 10 59 25 78 32 19 8 41 20 48 27 7 7 25 13 40 14
29 1 24 3 -21 13 -41 10 -28 31 16 28 28 -3 38 1 47 17 14 26 32 27 48 1 15
-24 64 -27 106 -5 15 8 36 15 45 15 10 0 26 7 37 15 10 8 28 15 38 15 11 0 34
11 52 25 18 14 37 25 43 25 6 0 15 9 21 20 6 11 19 20 29 20 11 0 21 7 25 15
3 8 11 15 17 15 6 0 26 15 44 34 26 27 33 31 41 19 12 -19 47 -6 39 14 -4 12
0 14 17 10 17 -5 32 4 65 40 37 39 43 52 43 90 0 26 -10 63 -24 91 -13 26 -21
53 -19 59 3 7 -1 28 -7 47 -8 26 -22 40 -56 56 -24 12 -52 19 -61 16 -13 -5
-15 0 -11 38 4 36 1 49 -14 66 -13 14 -26 19 -37 14 -9 -4 -42 -10 -74 -12
-44 -3 -63 0 -77 13 -10 9 -30 15 -46 13 -22 -2 -29 2 -32 17 -9 46 -72 86
-99 63 -12 -10 -19 -6 -40 20 -30 39 -40 40 -53 7 -5 -14 -17 -25 -27 -25 -17
1 -17 1 0 14 16 13 16 15 -8 30 -23 15 -27 15 -41 1 -11 -11 -15 -28 -12 -55
3 -33 0 -40 -14 -40 -10 0 -18 6 -18 13 0 6 -16 25 -35 40 -29 23 -39 26 -50
17 -12 -10 -22 -6 -54 19 -41 33 -61 39 -62 19 0 -7 -4 -3 -9 10 -14 34 -47
28 -63 -10 l-14 -33 -6 26 c-5 21 -15 28 -44 33 -68 11 -91 7 -98 -14 -7 -22
-21 -27 -27 -9 -4 12 -58 2 -58 -11 0 -4 -11 -5 -25 -2 -17 3 -25 0 -25 -9 -1
-11 -3 -10 -13 2 -7 8 -33 27 -58 42 -39 23 -50 25 -80 17 -50 -15 -116 -12
-150 5 -28 15 -31 15 -56 -5 -23 -18 -28 -19 -35 -5 -13 21 -43 19 -59 -6
l-14 -21 -27 21 c-14 12 -33 19 -41 15 -8 -3 -17 2 -20 10 -5 12 -21 16 -64
16 -63 -1 -82 -10 -101 -53 -12 -29 -32 -29 -32 0 0 10 -6 14 -19 10 -12 -3
-22 1 -25 10 -4 10 -17 14 -40 12 -19 -2 -38 0 -42 4 -11 10 -52 9 -59 -3 -3
-5 -22 2 -42 15 -42 29 -49 30 -96 10 -45 -19 -81 -19 -110 -2 -18 12 -28 12
-59 1z m-1289 -393 c19 -12 -4 -24 -30 -16 -17 6 -19 9 -8 16 17 11 21 11 38
0z m169 -584 c2 -11 -3 -17 -14 -17 -9 0 -23 -8 -30 -17 -12 -16 -13 -16 -14
9 0 15 -5 30 -11 34 -8 5 -8 9 1 14 19 12 65 -4 68 -23z"/>
<path d="M482 8569 c1 -12 9 -24 16 -27 9 -3 13 3 10 19 -1 12 -9 24 -16 27
-9 3 -13 -3 -10 -19z"/>
<path d="M15879 7734 c-12 -13 -32 -24 -45 -24 -12 0 -27 -6 -33 -14 -6 -7
-25 -16 -41 -20 -16 -3 -38 -15 -47 -26 -10 -11 -25 -20 -34 -20 -9 0 -23 -9
-30 -19 -9 -13 -36 -24 -79 -33 -64 -12 -112 -41 -104 -63 3 -6 -10 -16 -27
-22 -25 -10 -30 -16 -24 -30 5 -10 9 -33 11 -51 2 -30 26 -61 47 -62 5 0 1
-10 -7 -22 -25 -36 -20 -94 10 -124 15 -16 24 -35 22 -48 -1 -13 9 -38 23 -57
29 -39 49 -90 49 -128 1 -32 35 -75 54 -68 10 4 18 -5 27 -31 6 -20 17 -41 23
-47 12 -10 49 -82 60 -117 3 -11 15 -18 30 -18 13 0 39 -8 58 -17 18 -10 34
-18 35 -18 1 0 5 -25 8 -55 4 -34 13 -61 24 -70 9 -8 23 -28 29 -43 7 -16 25
-34 41 -40 15 -6 36 -25 46 -43 10 -18 27 -34 38 -36 14 -2 24 -14 30 -34 12
-42 43 -61 66 -40 10 9 22 16 28 16 14 0 25 -29 17 -42 -3 -5 -3 -25 0 -44 5
-25 12 -34 27 -34 20 0 68 -46 69 -66 0 -17 35 -44 57 -44 11 0 34 -6 50 -12
47 -21 143 -101 149 -125 3 -12 15 -25 27 -29 24 -8 32 -13 97 -76 27 -27 54
-48 59 -48 6 0 14 -6 18 -14 9 -15 56 -27 116 -30 30 -1 44 -8 60 -30 22 -30
79 -59 140 -70 23 -4 37 -13 37 -22 0 -10 7 -13 24 -8 17 4 28 -1 44 -20 11
-14 26 -26 34 -26 23 0 29 -12 12 -24 -22 -16 -8 -48 18 -40 14 4 21 0 25 -15
3 -12 6 -21 7 -21 1 0 16 4 35 10 29 8 34 7 38 -11 3 -11 23 -29 44 -40 26
-13 39 -26 39 -39 0 -25 14 -25 54 -1 61 37 71 36 118 -12 48 -49 114 -70 125
-41 5 13 7 13 14 2 5 -7 21 -14 36 -14 15 -1 43 -8 61 -15 30 -13 37 -12 72 9
21 12 48 22 59 22 11 0 35 6 53 14 18 7 55 19 83 25 27 7 57 19 66 27 8 8 24
14 35 14 25 0 44 18 44 42 0 10 10 20 25 24 19 5 26 15 32 46 5 23 16 45 26
49 9 5 25 13 35 18 14 7 17 22 17 97 0 94 -12 123 -72 181 -13 12 -23 31 -23
41 0 10 -9 27 -20 37 -11 10 -20 26 -20 35 0 23 -32 50 -58 50 -14 0 -26 12
-38 40 -14 32 -20 37 -32 28 -11 -10 -22 -3 -55 35 -23 25 -52 59 -64 75 -12
16 -38 37 -57 46 -18 9 -36 22 -39 30 -3 9 -15 12 -31 9 -15 -3 -26 -1 -26 6
0 6 -9 11 -20 11 -21 0 -29 30 -7 30 7 1 5 6 -5 14 -10 7 -18 19 -18 26 0 13
-30 49 -69 84 -13 11 -38 34 -55 50 -17 16 -45 33 -63 38 -18 5 -47 21 -64 35
-25 22 -42 27 -88 27 -53 1 -56 2 -56 27 -1 39 -29 75 -64 82 -17 4 -35 16
-42 29 -7 12 -18 29 -26 36 -7 7 -13 22 -13 33 0 15 -7 19 -37 19 -43 0 -58 8
-58 30 0 9 -15 18 -42 24 -40 8 -43 11 -43 43 0 27 -5 35 -27 44 -16 5 -49 31
-74 56 -29 28 -49 41 -53 34 -11 -18 -33 -13 -39 9 -3 11 -12 20 -21 20 -9 0
-16 6 -16 14 0 29 -66 89 -105 95 -21 3 -41 13 -45 21 -33 71 -36 75 -66 75
-17 0 -39 8 -49 18 -10 10 -29 23 -42 28 -12 4 -23 16 -23 25 0 12 -6 15 -22
11 -12 -4 -29 -1 -37 6 -11 9 -15 9 -18 0 -3 -7 -11 -13 -19 -13 -9 0 -12 5
-9 10 3 6 3 19 0 31 -5 16 -12 19 -35 14 -21 -5 -47 2 -97 27 -75 36 -92 52
-93 85 0 12 -12 30 -29 42 -15 11 -45 45 -66 76 -21 31 -48 58 -59 60 -96 23
-115 23 -137 -1z m681 -444 c0 -5 -7 -10 -15 -10 -8 0 -15 5 -15 10 0 6 7 10
15 10 8 0 15 -4 15 -10z m-588 -272 c-9 -9 -15 -9 -24 0 -9 9 -7 12 12 12 19
0 21 -3 12 -12z m563 -243 c7 -6 20 -27 28 -46 10 -24 24 -38 41 -43 14 -3 26
-11 26 -16 0 -6 4 -10 10 -10 10 0 100 -83 100 -92 0 -3 -10 -8 -22 -11 -31
-9 -64 16 -77 56 -9 26 -19 36 -39 40 -34 7 -72 39 -72 61 0 9 -7 27 -15 39
-9 14 -12 32 -8 47 6 22 8 23 11 5 2 -11 10 -25 17 -30z m245 -234 c0 -5 -7
-14 -15 -21 -13 -10 -15 -9 -15 9 0 12 6 21 15 21 8 0 15 -4 15 -9z m90 -1 c0
-5 -7 -10 -15 -10 -8 0 -15 5 -15 10 0 6 7 10 15 10 8 0 15 -4 15 -10z m26
-77 c35 -37 44 -82 14 -74 -8 2 -31 6 -50 9 -33 4 -49 16 -50 36 0 4 7 6 14 3
10 -4 13 -1 10 8 -5 13 11 55 22 55 3 0 21 -17 40 -37z m116 -75 c21 -18 58
-82 58 -101 0 -22 -18 -31 -34 -18 -7 6 -21 9 -30 5 -19 -7 -23 25 -5 43 8 8
6 15 -10 25 -21 13 -28 38 -14 51 9 10 17 9 35 -5z m-145 -34 c-3 -3 -12 -4
-19 -1 -8 3 -5 6 6 6 11 1 17 -2 13 -5z m333 -134 c0 -5 -7 -10 -15 -10 -8 0
-15 5 -15 10 0 6 7 10 15 10 8 0 15 -4 15 -10z m710 -110 c0 -5 -4 -10 -9 -10
-6 0 -13 5 -16 10 -3 6 1 10 9 10 9 0 16 -4 16 -10z m-480 -670 c0 -5 -4 -10
-10 -10 -5 0 -10 5 -10 10 0 6 5 10 10 10 6 0 10 -4 10 -10z"/>
<path d="M5355 6450 c-3 -5 -30 -10 -59 -10 -38 0 -61 -6 -78 -20 l-25 -19
-11 24 c-8 17 -16 22 -33 18 -19 -5 -21 -11 -15 -49 6 -47 0 -53 -34 -31 -17
10 -22 9 -30 -2 -6 -11 -12 -12 -22 -4 -18 14 -94 32 -106 24 -5 -3 -11 -15
-13 -25 -2 -10 -12 -24 -21 -30 -14 -8 -22 -6 -39 10 -21 21 -21 21 -59 3 -45
-22 -62 -23 -77 -8 -6 6 -17 8 -23 4 -9 -6 -8 -10 4 -17 9 -5 16 -13 16 -18 0
-14 -28 -12 -32 2 -7 21 -38 0 -38 -27 0 -25 -7 -29 -42 -26 -12 2 -16 -3 -12
-13 7 -18 -36 -39 -70 -34 -15 2 -22 -3 -24 -19 -2 -14 -10 -23 -22 -23 -47 0
-172 -79 -190 -120 -6 -15 -27 -33 -50 -43 -22 -9 -40 -24 -40 -32 0 -8 -8
-15 -18 -15 -19 0 -77 -58 -86 -88 -4 -10 -21 -25 -38 -33 -31 -14 -78 -84
-71 -106 2 -5 -11 -14 -29 -19 -23 -7 -34 -17 -36 -32 -2 -13 -14 -27 -27 -32
-13 -5 -35 -29 -49 -52 -14 -24 -39 -54 -55 -66 -18 -13 -31 -33 -33 -49 -2
-20 -13 -33 -37 -45 -36 -18 -60 -50 -61 -80 0 -9 -8 -22 -17 -27 -17 -10 -17
-10 0 -11 9 0 17 -7 17 -16 0 -11 -8 -15 -27 -14 -46 3 -51 1 -57 -27 -5 -17
-3 -29 6 -34 7 -4 9 -12 4 -16 -5 -4 -11 -2 -13 5 -5 13 -31 16 -57 6 -22 -9
-20 -21 6 -27 22 -6 22 -6 -5 -27 -15 -12 -27 -30 -27 -40 0 -34 -11 -52 -25
-40 -19 16 -47 -15 -64 -69 -13 -46 -44 -80 -72 -81 -15 0 -79 -107 -79 -131
0 -6 -16 -31 -36 -57 -33 -43 -36 -51 -30 -97 5 -42 3 -52 -14 -65 -18 -14
-19 -17 -5 -44 8 -15 15 -34 15 -40 0 -24 21 -35 46 -24 33 15 74 -4 74 -34 0
-24 -20 -63 -20 -40 0 6 -7 12 -15 12 -8 0 -15 -7 -15 -15 0 -8 7 -15 15 -15
17 0 21 -55 5 -65 -5 -3 -10 -21 -10 -40 0 -19 -4 -37 -10 -40 -5 -3 -10 -22
-10 -41 0 -26 -4 -34 -19 -34 -20 0 -71 -43 -71 -60 0 -6 -6 -21 -14 -33 -30
-46 -24 -95 13 -108 42 -15 45 -35 8 -57 -29 -16 -32 -24 -34 -68 -2 -64 15
-89 65 -98 22 -3 45 -13 52 -22 9 -10 22 -13 37 -9 19 4 23 1 23 -17 0 -13 9
-34 19 -47 15 -19 24 -23 47 -17 79 19 83 19 94 -5 10 -23 16 -24 103 -24 84
0 95 2 132 28 22 15 48 27 58 27 18 0 24 4 77 53 16 15 39 27 50 27 10 0 24
10 31 23 16 30 44 52 113 88 36 19 91 63 145 117 47 47 100 93 116 102 17 10
35 31 41 49 5 17 13 29 17 25 10 -10 76 35 95 65 9 14 40 49 69 77 29 29 55
64 59 78 4 17 20 34 43 46 21 10 43 26 50 34 8 9 19 16 27 16 7 0 19 10 25 22
6 12 20 31 30 41 10 11 21 32 24 47 3 15 17 33 31 40 13 8 27 23 30 35 3 14
13 21 27 21 14 -1 23 7 27 24 4 18 14 26 33 28 39 5 80 58 74 96 -2 17 -7 39
-12 49 -9 22 12 23 37 0 15 -13 23 -14 43 -5 14 6 25 17 25 24 0 7 16 30 35
51 19 21 35 42 35 47 0 5 11 21 24 37 13 15 25 37 27 48 3 13 16 22 38 26 19
4 38 14 43 23 5 9 15 16 23 16 8 0 21 15 29 34 8 18 19 37 26 41 6 4 15 18 20
31 5 13 17 24 25 24 10 0 15 7 13 18 -1 9 7 31 20 49 12 17 22 36 22 42 0 5 6
14 13 18 24 14 57 71 51 86 -3 9 4 21 16 30 12 9 19 20 16 25 -4 6 2 8 14 5
28 -8 53 15 46 43 -4 16 -1 24 12 28 14 5 22 24 31 74 13 71 40 142 54 142 5
0 6 23 2 50 -5 34 -3 50 4 50 6 0 11 14 11 30 0 20 -5 30 -15 30 -8 0 -15 -4
-15 -10 0 -5 -5 -10 -11 -10 -8 0 -8 4 1 15 6 8 9 19 5 25 -4 6 -1 18 6 26 13
16 -2 64 -21 64 -7 0 -8 6 -2 18 5 9 12 29 16 44 5 22 2 27 -16 30 -12 2 -25
12 -28 23 -8 33 -40 73 -60 78 -12 3 -20 14 -20 26 0 15 -6 21 -24 21 -13 0
-29 7 -36 15 -7 8 -19 15 -27 15 -8 0 -12 4 -8 10 10 16 -7 60 -24 60 -9 0
-31 9 -49 20 -37 22 -48 24 -57 10z m-1455 -864 c0 -3 -4 -8 -10 -11 -5 -3
-10 -1 -10 4 0 6 5 11 10 11 6 0 10 -2 10 -4z m-250 -436 c0 -5 -4 -10 -9 -10
-6 0 -13 5 -16 10 -3 6 1 10 9 10 9 0 16 -4 16 -10z m-13 -46 c-3 -3 -12 -4
-19 -1 -8 3 -5 6 6 6 11 1 17 -2 13 -5z m-117 -129 c0 -27 -1 -28 -24 -19 -12
5 -13 9 -3 25 16 26 27 24 27 -6z m-5 -65 c-3 -5 -12 -7 -20 -3 -21 7 -19 13
6 13 11 0 18 -4 14 -10z m-128 -346 c13 -35 -17 -38 -67 -6 -8 5 24 22 43 22
10 0 20 -7 24 -16z m-47 -59 c0 -8 -4 -17 -10 -20 -6 -4 -10 5 -10 20 0 15 4
24 10 20 6 -3 10 -12 10 -20z"/>
<path d="M5740 6180 c0 -11 5 -20 10 -20 6 0 10 9 10 20 0 11 -4 20 -10 20 -5
0 -10 -9 -10 -20z"/>
<path d="M14250 5599 c-19 -6 -63 -10 -97 -10 -52 0 -65 -3 -77 -20 -8 -12
-19 -18 -26 -14 -19 12 -102 -16 -108 -37 -2 -10 -23 -26 -46 -36 -22 -11 -47
-26 -55 -35 -7 -10 -22 -17 -32 -17 -11 0 -19 -4 -19 -10 0 -5 11 -10 24 -10
14 0 28 -4 31 -10 3 -5 -3 -10 -14 -10 -26 0 -31 -9 -31 -56 -1 -73 0 -83 16
-92 9 -5 12 -15 8 -25 -5 -14 -9 -15 -20 -6 -16 13 -23 0 -23 -41 0 -14 -2
-43 -5 -65 -2 -22 -1 -44 4 -50 4 -5 11 -46 15 -90 4 -44 14 -94 22 -112 9
-18 12 -44 9 -60 -4 -20 0 -38 16 -62 41 -61 48 -76 48 -98 0 -12 8 -27 18
-32 21 -12 46 -61 63 -126 8 -31 25 -62 46 -83 25 -24 33 -41 33 -67 0 -25 8
-43 30 -65 16 -16 45 -55 64 -85 19 -30 49 -61 66 -70 17 -9 30 -23 30 -34 0
-10 7 -21 15 -25 8 -3 20 -17 25 -31 5 -14 16 -25 25 -25 8 0 22 -11 31 -25 9
-14 23 -25 30 -25 8 0 20 -11 26 -25 6 -14 24 -30 40 -37 15 -7 28 -19 28 -25
0 -7 6 -13 13 -13 7 0 23 -12 36 -26 14 -16 28 -23 38 -20 17 7 42 -19 43 -45
0 -10 10 -15 34 -16 21 -1 42 -10 59 -27 14 -14 23 -26 19 -26 -4 0 -13 -4
-20 -9 -11 -7 -12 -12 -1 -29 10 -16 20 -19 41 -15 15 3 48 -1 73 -8 40 -12
45 -17 51 -49 3 -19 8 -47 10 -61 5 -26 34 -58 72 -78 10 -6 25 -24 32 -40 15
-38 48 -50 67 -25 11 15 16 16 38 4 20 -10 28 -11 37 -2 7 7 20 12 30 12 10 0
29 7 42 15 16 11 36 13 70 9 54 -8 46 -18 -24 -29 -37 -6 -41 -9 -24 -16 12
-4 25 -12 29 -18 3 -6 19 -11 34 -11 19 0 32 -8 41 -25 11 -20 21 -25 54 -25
23 0 48 -5 56 -10 15 -9 50 18 50 40 0 22 37 8 63 -25 15 -19 35 -35 43 -35
22 0 74 32 74 46 0 23 38 46 72 42 40 -3 168 42 168 59 0 7 -9 13 -20 13 -37
0 -55 76 -27 115 22 29 40 9 22 -25 -21 -41 -19 -44 15 -23 32 19 37 28 19 39
-8 5 -6 10 5 16 20 11 21 61 2 77 -7 6 -16 26 -19 44 -3 18 -15 55 -27 83 -12
27 -28 63 -36 79 -7 17 -24 41 -38 54 -14 14 -26 33 -26 42 0 10 -9 23 -20 29
-10 6 -17 16 -14 24 3 7 -6 26 -19 42 -13 16 -32 52 -42 79 -24 66 -29 70 -78
70 -33 0 -42 4 -45 19 -2 11 2 24 10 30 8 6 17 18 20 26 5 15 -34 79 -78 130
-12 14 -24 34 -26 45 -2 13 -16 24 -38 31 -30 10 -36 17 -40 50 -4 31 -10 40
-27 42 -17 2 -24 12 -29 38 -4 20 -23 52 -45 77 -22 22 -39 45 -39 50 0 5 -7
15 -15 23 -8 9 -15 27 -15 40 0 40 -55 111 -90 119 -25 5 -30 11 -25 26 4 13
2 19 -9 19 -8 0 -18 10 -21 23 -10 31 -75 97 -98 97 -13 0 -17 5 -13 18 4 12
-6 24 -34 41 -31 19 -38 29 -34 46 5 22 -25 58 -68 79 -13 6 -32 26 -43 43
-30 46 -54 59 -70 36 -19 -26 -51 -5 -47 31 3 28 -23 76 -43 76 -6 0 -32 13
-56 30 -24 16 -53 30 -64 31 -11 0 -14 3 -7 6 13 5 17 45 5 56 -3 4 -12 2 -18
-3 -16 -13 -71 14 -86 41 -8 15 -14 18 -23 10 -10 -8 -18 -6 -31 9 -20 22 -32
23 -85 9z m140 -638 c0 -5 16 -18 35 -30 20 -11 61 -49 93 -83 31 -34 72 -76
90 -94 17 -18 32 -37 32 -42 0 -34 74 -126 112 -138 17 -5 20 -10 22 -46 1
-19 29 -54 113 -146 48 -51 51 -58 37 -73 -10 -11 -12 -19 -5 -24 6 -3 11 -10
11 -16 0 -19 -30 -8 -60 21 -17 17 -38 30 -48 30 -9 0 -23 9 -29 19 -8 13 -19
18 -35 14 -19 -4 -20 -3 -8 6 13 10 13 13 -2 25 -10 7 -18 21 -18 31 0 22 -51
95 -67 95 -7 0 -13 5 -13 10 0 6 -8 10 -17 10 -22 0 -53 29 -53 49 0 9 -7 25
-15 35 -8 11 -15 27 -15 36 0 8 -14 31 -32 50 -18 19 -32 38 -31 41 1 4 -6 5
-16 2 -16 -4 -19 1 -19 34 -1 71 -13 113 -33 113 -10 0 -25 10 -33 22 -18 25
-21 58 -6 58 6 0 10 -4 10 -9z m131 -404 c-13 -13 -26 -3 -16 12 3 6 11 8 17
5 6 -4 6 -10 -1 -17z m479 -53 c0 -8 -4 -12 -10 -9 -5 3 -10 10 -10 16 0 5 5
9 10 9 6 0 10 -7 10 -16z m-910 -74 c0 -5 -13 -10 -30 -10 -16 0 -30 5 -30 10
0 6 14 10 30 10 17 0 30 -4 30 -10z m625 -50 c3 -5 1 -10 -4 -10 -6 0 -11 5
-11 10 0 6 2 10 4 10 3 0 8 -4 11 -10z m370 -30 c0 -9 -11 -16 -27 -18 -23 -3
-28 1 -28 18 0 17 5 21 28 18 16 -2 27 -9 27 -18z m75 0 c0 -5 -2 -10 -4 -10
-3 0 -8 5 -11 10 -3 6 -1 10 4 10 6 0 11 -4 11 -10z m-113 -52 c-3 -8 -6 -5
-6 6 -1 11 2 17 5 13 3 -3 4 -12 1 -19z m-47 -98 c14 0 20 -7 20 -22 0 -14 -3
-18 -8 -11 -4 6 -19 14 -33 18 -21 5 -26 11 -21 27 4 18 6 18 14 4 5 -9 18
-16 28 -16z m380 -140 c0 -5 -4 -10 -10 -10 -5 0 -10 5 -10 10 0 6 5 10 10 10
6 0 10 -4 10 -10z m-150 -134 c0 -2 -7 -6 -15 -10 -8 -3 -15 -1 -15 4 0 6 7
10 15 10 8 0 15 -2 15 -4z m495 -26 c3 -5 -1 -10 -10 -10 -9 0 -13 5 -10 10 3
6 8 10 10 10 2 0 7 -4 10 -10z m-548 -25 c-8 -18 -61 -21 -55 -3 4 12 48 28
57 22 2 -2 1 -10 -2 -19z m93 -245 c0 -5 -4 -10 -10 -10 -5 0 -10 5 -10 10 0
6 5 10 10 10 6 0 10 -4 10 -10z m-30 -151 c0 -11 -4 -17 -10 -14 -5 3 -10 13
-10 21 0 8 5 14 10 14 6 0 10 -9 10 -21z m240 -89 c0 -5 -2 -10 -4 -10 -3 0
-8 5 -11 10 -3 6 -1 10 4 10 6 0 11 -4 11 -10z m-50 -65 c0 -8 -4 -15 -10 -15
-5 0 -10 7 -10 15 0 8 5 15 10 15 6 0 10 -7 10 -15z"/>
<path d="M7828 5065 c-3 -3 -28 -8 -54 -11 -27 -3 -51 -9 -52 -15 -2 -5 -18
-7 -37 -3 -41 7 -105 -12 -105 -32 0 -17 -12 -18 -27 -3 -9 9 -21 6 -47 -11
-20 -12 -36 -26 -36 -31 0 -5 -16 -9 -35 -9 -19 0 -35 -4 -35 -10 0 -5 -5 -10
-11 -10 -7 0 -22 -10 -34 -22 -46 -46 -112 -91 -171 -117 -12 -5 -24 -17 -28
-26 -4 -10 -12 -15 -21 -11 -20 7 -69 -36 -85 -75 -8 -17 -20 -29 -31 -29 -11
0 -19 -4 -19 -9 0 -11 -49 -61 -109 -111 -23 -19 -49 -47 -57 -62 -8 -16 -21
-28 -29 -28 -8 0 -15 -4 -15 -10 0 -5 -16 -30 -35 -56 -19 -25 -38 -58 -41
-72 -9 -43 -26 -82 -35 -82 -15 0 -51 -61 -60 -101 -9 -37 -39 -79 -58 -79 -5
0 -12 -16 -15 -35 -4 -19 -11 -35 -16 -35 -5 0 -12 -17 -16 -37 -4 -21 -15
-44 -25 -50 -9 -7 -25 -34 -34 -60 -10 -27 -28 -69 -41 -95 -15 -29 -21 -49
-14 -53 15 -10 12 -20 -15 -49 -24 -26 -24 -28 -7 -33 26 -6 25 -73 0 -73 -22
0 -23 -23 -2 -54 16 -26 3 -46 -19 -28 -20 15 -42 -20 -45 -73 -2 -36 -8 -54
-22 -65 -19 -14 -19 -20 -9 -74 8 -43 8 -66 0 -84 -7 -13 -9 -33 -5 -44 3 -10
1 -25 -5 -32 -6 -8 -18 -40 -27 -71 -8 -32 -21 -73 -30 -90 -8 -18 -14 -36
-12 -41 3 -14 -13 -57 -29 -75 -15 -17 -9 -94 8 -105 17 -10 9 -52 -10 -59
-34 -10 -45 -32 -27 -50 22 -22 20 -71 -2 -87 -11 -7 -23 -22 -29 -33 -9 -19
-8 -210 4 -372 2 -41 0 -80 -6 -91 -8 -16 -6 -25 9 -45 16 -21 17 -27 6 -36
-15 -12 -16 -58 -2 -80 13 -20 17 -99 6 -106 -6 -4 -7 -24 -4 -46 5 -31 3 -39
-9 -39 -16 0 -30 -26 -21 -41 3 -5 16 -6 30 -3 13 4 31 1 39 -6 8 -7 21 -10
30 -7 21 9 25 -5 13 -46 -13 -41 -5 -59 15 -35 23 30 74 11 115 -43 35 -48 62
-63 62 -35 0 19 26 40 35 26 3 -5 13 -10 22 -10 8 0 26 -9 41 -20 l25 -20 19
20 c10 11 24 20 31 21 7 1 19 2 27 3 8 2 27 3 43 4 16 1 27 8 27 17 0 20 41
57 58 50 7 -2 15 2 18 10 4 8 14 15 23 15 21 0 91 70 91 91 0 9 10 27 21 40
12 13 26 36 31 50 5 15 18 29 29 32 10 3 22 12 25 22 4 9 24 34 46 56 33 33
39 46 36 71 -3 17 0 31 6 33 46 13 48 15 36 30 -10 12 -8 16 12 24 15 6 33 27
46 54 12 25 43 67 69 94 26 27 53 60 59 74 6 13 22 48 35 77 12 29 38 68 56
87 20 20 33 44 33 60 0 14 4 25 9 25 5 0 23 12 40 26 23 19 31 34 31 58 0 34
20 79 70 156 15 25 29 53 29 63 1 9 12 23 26 29 30 14 33 44 4 53 -16 5 -18
10 -8 21 14 17 39 18 40 2 0 -7 4 -3 9 10 5 12 16 22 24 22 16 0 26 21 26 54
0 13 9 35 20 49 22 28 41 107 33 137 -4 14 5 25 31 41 23 13 36 29 36 42 0 12
7 31 15 41 8 11 13 27 10 37 -3 10 5 26 20 40 42 39 88 117 82 139 -3 11 -2
20 1 20 10 0 52 94 52 116 0 11 9 30 20 44 11 14 20 32 20 41 0 9 3 19 7 23
14 13 30 75 22 83 -4 4 3 39 16 77 13 38 22 73 18 79 -3 5 -1 19 5 30 6 12 16
46 21 75 6 30 18 60 26 68 17 17 20 44 5 44 -5 0 -7 21 -3 50 5 42 3 50 -9 45
-9 -4 -18 0 -21 9 -3 8 1 17 9 20 8 3 14 18 14 33 0 18 8 33 21 41 17 11 20
20 15 45 -3 17 -14 39 -22 49 -15 16 -14 20 15 54 30 33 31 38 17 53 -9 10
-16 25 -16 34 0 9 -4 18 -9 21 -5 4 -5 20 1 40 9 28 7 41 -13 81 -13 26 -34
54 -46 63 -13 8 -23 18 -23 24 0 26 -150 158 -179 158 -6 0 -25 16 -43 35 -19
20 -36 33 -40 30z m-438 -175 c0 -5 -4 -10 -10 -10 -5 0 -10 5 -10 10 0 6 5
10 10 10 6 0 10 -4 10 -10z m322 -1635 c0 -5 -5 -11 -11 -13 -6 -2 -11 4 -11
13 0 9 5 15 11 13 6 -2 11 -8 11 -13z m58 5 c0 -5 -4 -10 -10 -10 -5 0 -10 5
-10 10 0 6 5 10 10 10 6 0 10 -4 10 -10z m-1503 -616 c-3 -3 -12 -4 -19 -1 -8
3 -5 6 6 6 11 1 17 -2 13 -5z m-60 -101 c-3 -10 -5 -2 -5 17 0 19 2 27 5 18 2
-10 2 -26 0 -35z"/>
<path d="M11424 4465 c-4 -8 -16 -15 -28 -15 -51 0 -68 -11 -64 -41 3 -16 1
-29 -3 -29 -9 0 -81 -62 -124 -106 -16 -17 -39 -49 -50 -70 -10 -21 -24 -46
-31 -54 -20 -26 -84 -150 -84 -164 0 -7 -9 -25 -20 -39 -11 -14 -20 -39 -20
-55 0 -16 -7 -35 -15 -42 -8 -7 -15 -22 -15 -34 0 -12 -5 -27 -11 -33 -10 -10
-24 -84 -38 -193 -4 -33 -16 -68 -29 -88 -21 -29 -23 -41 -21 -136 2 -69 -1
-109 -9 -118 -9 -11 -9 -22 0 -46 10 -25 10 -37 1 -51 -8 -14 -9 -37 -3 -84 5
-36 12 -105 14 -153 3 -49 7 -108 9 -131 2 -24 0 -43 -4 -43 -11 0 -4 -195 10
-279 10 -64 8 -92 -10 -166 -8 -31 -6 -50 5 -84 9 -24 16 -58 16 -76 0 -26 9
-41 41 -69 31 -28 38 -40 30 -50 -8 -10 -6 -20 10 -40 32 -41 9 -56 -24 -17
-39 46 -39 25 -1 -55 42 -88 60 -106 80 -79 8 10 14 14 14 8 0 -18 100 -55
131 -49 26 5 29 2 35 -29 3 -18 15 -41 25 -51 13 -11 19 -30 19 -56 0 -33 7
-46 41 -80 28 -27 38 -45 34 -57 -24 -58 -31 -98 -22 -119 6 -12 14 -22 19
-22 4 0 8 -8 8 -19 0 -10 14 -30 32 -45 34 -28 48 -32 48 -15 0 7 10 9 25 5
18 -5 27 -2 31 9 9 22 54 20 54 -3 0 -11 9 -27 19 -36 16 -15 34 -17 128 -12
114 5 143 11 143 30 0 6 14 38 30 71 17 34 30 77 30 98 0 21 7 54 15 74 8 19
15 43 15 53 0 10 7 31 15 46 17 33 19 81 5 118 -7 19 -6 27 4 33 7 4 16 25 20
45 6 34 5 38 -14 38 -11 0 -20 3 -20 6 0 9 28 34 38 34 21 0 36 35 38 84 1 28
6 70 13 94 8 29 8 49 1 62 -10 19 -4 64 24 175 13 48 8 146 -7 161 -3 4 3 20
14 36 15 21 19 37 14 56 -15 60 -17 95 -6 115 15 29 21 227 7 249 -7 12 -6 24
3 42 8 13 11 36 9 50 -3 17 -1 26 7 26 14 0 15 226 1 248 -4 7 -3 19 4 27 15
19 6 59 -20 85 -22 22 -25 42 -10 70 6 11 12 41 14 67 2 26 7 58 11 69 5 15 2
23 -10 28 -13 5 -15 14 -10 51 9 56 -10 80 -55 70 -39 -8 -38 3 1 36 30 25 31
27 19 63 -11 35 -13 36 -46 30 -31 -6 -34 -4 -34 19 0 14 -4 29 -10 32 -5 3
-10 14 -10 23 0 10 -8 29 -17 42 -10 13 -18 42 -19 63 -3 49 -8 54 -40 36 -23
-12 -27 -11 -39 4 -7 9 -17 17 -24 17 -6 0 -11 5 -11 10 0 6 13 10 29 10 39 0
47 15 26 47 -12 18 -15 37 -11 62 3 20 7 44 8 54 2 15 -5 20 -34 22 -21 2 -40
-1 -44 -6 -8 -13 -33 20 -34 44 0 10 -8 17 -21 17 -12 0 -23 8 -26 20 -4 16
-9 18 -25 9 -16 -8 -17 -13 -7 -25 9 -11 9 -18 1 -26 -9 -9 -12 -7 -12 10 0
17 -6 22 -24 22 -20 0 -23 4 -19 23 4 17 3 19 -6 11 -9 -9 -22 -7 -51 7 -21
10 -42 23 -45 29 -9 15 -45 12 -51 -5z m381 -265 c3 -5 -3 -10 -15 -10 -12 0
-18 5 -15 10 3 6 10 10 15 10 5 0 12 -4 15 -10z m-50 -10 c-3 -5 -10 -10 -16
-10 -5 0 -9 5 -9 10 0 6 7 10 16 10 8 0 12 -4 9 -10z m-360 -230 c-5 -8 -11
-8 -17 -2 -6 6 -7 16 -3 22 5 8 11 8 17 2 6 -6 7 -16 3 -22z m-205 -84 c0 -3
-4 -8 -10 -11 -5 -3 -10 -1 -10 4 0 6 5 11 10 11 6 0 10 -2 10 -4z m-152 -257
c12 -19 11 -20 -10 -17 -12 2 -24 11 -26 21 -5 24 20 21 36 -4z m57 11 c-3 -5
-13 -10 -21 -10 -8 0 -14 5 -14 10 0 6 9 10 21 10 11 0 17 -4 14 -10z m912
-162 c-3 -8 -6 -5 -6 6 -1 11 2 17 5 13 3 -3 4 -12 1 -19z"/>
</g>
</svg>
