<svg version="1.1" id="Layer_1" xmlns="http://www.w3.org/2000/svg" xmlns:xlink="http://www.w3.org/1999/xlink" x="0px" y="0px"
	 width="100%" viewBox="0 0 1024 1024" enable-background="new 0 0 1024 1024" xml:space="preserve">
<path fill="#353940" opacity="1.000000" stroke="none" 
	d="
M395.028809,845.448181 
	C383.424744,853.456726 370.751984,858.851135 358.535400,864.949890 
	C352.019897,868.202515 345.409058,872.642456 337.849182,872.941345 
	C330.438934,873.234253 323.074829,876.686890 315.552490,873.584778 
	C314.678589,873.224426 313.426147,873.067078 312.600342,873.413757 
	C302.305695,877.736206 292.674713,871.790161 282.687805,871.528442 
	C281.352753,871.493530 280.064056,871.195190 278.800873,871.797607 
	C276.503174,872.893372 274.746094,872.519226 273.281158,870.243103 
	C270.879639,866.511658 266.424500,869.080933 263.220886,867.158630 
	C260.617737,865.596619 257.469727,864.555542 254.282379,866.395752 
	C252.916916,867.184082 251.788986,866.379700 250.667603,865.527527 
	C249.619171,864.730774 248.448547,863.642578 247.263275,863.548889 
	C236.790588,862.721741 227.799973,857.334106 218.328613,853.732361 
	C210.817993,850.876221 203.837738,846.408020 197.382019,840.973755 
	C193.718201,837.889709 191.154388,832.939819 185.890518,831.717651 
	C184.641312,831.427673 184.365494,830.174316 183.691589,829.251953 
	C181.562302,826.337402 180.014786,823.272400 175.485199,822.313293 
	C171.601242,821.490845 167.755295,818.433716 167.355835,813.312500 
	C167.082779,809.811951 165.276108,807.364502 161.848938,806.418701 
	C159.116165,805.664612 158.861511,803.275574 157.877808,801.241882 
	C155.674164,796.686035 155.902679,791.377808 151.779266,787.224792 
	C148.670761,784.093933 149.972885,778.444519 148.848145,774.028442 
	C146.540588,764.968201 149.752960,755.710388 147.642166,746.627258 
	C147.147614,744.499146 146.268326,742.851257 144.399399,742.879822 
	C137.899353,742.979065 131.914825,740.362732 125.728714,739.152527 
	C119.959824,738.023804 113.084457,737.440186 108.968971,731.458862 
	C107.198120,728.885193 102.878265,731.275452 100.636452,728.089478 
	C99.863762,726.991333 97.999382,726.345215 97.286224,724.747437 
	C97.018295,724.147156 96.635582,723.169983 96.223587,723.125854 
	C88.929123,722.343567 84.035461,714.847412 76.326492,715.780029 
	C73.524185,716.119080 71.344177,715.563110 70.431015,713.421570 
	C69.086311,710.267883 66.987297,709.788696 64.105995,710.076233 
	C58.678791,710.617798 57.835407,704.793640 54.130367,702.796021 
	C49.455189,700.275208 47.084667,694.988892 42.682636,692.152161 
	C39.118290,689.855286 34.856319,688.525452 35.109100,683.110168 
	C35.127239,682.721497 34.245010,682.051941 33.682583,681.912964 
	C29.255577,680.818787 27.722178,677.609924 27.247412,673.502319 
	C27.155403,672.706360 26.909132,671.656128 26.348410,671.227295 
	C18.075581,664.899231 16.411701,654.866211 11.949354,646.353638 
	C6.627148,636.200806 4.887482,625.087708 3.021657,614.291931 
	C1.305058,604.359680 1.416698,593.913696 2.383211,583.536377 
	C3.281812,573.888123 1.788525,564.028931 2.751742,554.259460 
	C4.207940,539.489807 5.294745,524.764771 8.506303,510.116241 
	C10.658640,500.299011 13.952418,490.863800 16.354309,481.167236 
	C18.004623,474.504791 20.806210,467.868317 25.309126,462.083954 
	C28.515783,457.964783 30.153044,452.658081 32.779694,448.045959 
	C38.120842,438.667480 44.674782,430.150024 51.411415,421.722412 
	C56.792183,414.990997 62.729755,408.779236 68.238022,402.192230 
	C73.074974,396.407959 78.968803,391.839691 84.235703,386.599731 
	C89.220901,381.640015 94.509529,377.042450 99.730492,372.392517 
	C103.531578,369.007172 108.283737,366.710449 112.488083,363.752441 
	C119.143036,359.070312 124.965370,353.242554 132.186035,349.336029 
	C134.684082,347.984558 135.151398,345.967285 134.486145,343.421387 
	C133.603470,340.043488 132.490524,336.696686 131.955490,333.261902 
	C129.516327,317.602844 127.605904,301.800323 131.083221,286.159576 
	C132.422165,280.137177 134.082047,274.010254 137.622604,268.359100 
	C143.022064,259.741028 147.983292,250.832306 154.012207,242.620789 
	C159.317993,235.394165 166.382385,230.261429 174.618011,226.798721 
	C176.086258,226.181381 177.104462,225.230286 178.172668,224.182617 
	C181.113708,221.298080 184.400146,219.197159 188.792450,219.615280 
	C190.845184,219.810699 192.324097,218.724274 194.115112,217.726898 
	C200.981247,213.903412 207.957733,210.262497 215.639359,208.078415 
	C221.497345,206.412842 227.842514,208.291672 233.439148,205.202240 
	C234.463043,204.637039 235.890182,204.867630 236.778320,205.643005 
	C240.448380,208.846970 244.456589,208.191711 248.547928,206.883469 
	C250.521820,206.252258 252.458115,206.264206 254.446457,206.818176 
	C258.746613,208.016220 262.956177,209.082397 267.622681,208.458801 
	C270.113647,208.125916 272.842194,209.859558 275.505768,210.478760 
	C286.279999,212.983536 295.394836,219.447784 305.701569,223.091492 
	C308.517517,224.087021 310.148315,226.938721 311.922272,229.264267 
	C314.323395,232.411987 317.417969,235.144058 319.580292,238.150146 
	C322.376740,242.037689 325.825592,245.196976 329.064148,248.386429 
	C334.394318,253.635742 336.081177,260.536316 339.420746,266.674957 
	C339.800079,267.372223 340.510498,267.889343 341.124634,268.551788 
	C344.524689,266.346741 346.853088,263.529633 347.571198,259.518158 
	C347.874878,257.821655 349.053589,256.609711 350.017120,255.241577 
	C356.553162,245.961060 363.843201,237.322571 371.785309,229.224045 
	C372.134430,228.868073 372.414154,228.398239 372.828674,228.158890 
	C382.708954,222.453873 389.101990,212.758743 398.089691,206.063095 
	C406.980804,199.439362 416.012451,192.967255 425.960938,187.996506 
	C427.783997,187.085587 429.281891,185.849869 430.914703,184.783142 
	C441.382446,177.944565 453.545807,174.546021 464.277466,168.430634 
	C473.923676,162.933792 484.487915,160.107117 494.814240,157.471008 
	C503.165894,155.338989 511.576660,152.671066 520.531250,151.787109 
	C529.148376,150.936462 537.835327,150.576172 546.457520,150.007996 
	C550.330261,149.752792 554.534119,151.367966 558.359070,153.068451 
	C561.763306,154.581924 565.889465,154.176361 569.007202,155.269150 
	C575.101135,157.405151 581.448242,155.799942 587.499573,158.437271 
	C595.580750,161.959198 601.294678,168.558411 608.752197,172.738510 
	C611.437683,174.243759 614.476807,174.757950 617.285095,176.174988 
	C621.890320,178.498764 625.953125,181.053604 628.844971,185.263443 
	C629.857422,186.737213 630.818054,187.291763 632.551758,186.823593 
	C633.849304,186.473190 635.613892,186.344116 636.366150,187.353607 
	C639.954041,192.168518 645.036865,195.390991 648.772461,200.260590 
	C655.473022,208.995285 660.888306,218.792236 669.278259,226.257706 
	C674.240479,230.673172 675.956055,237.268173 679.104065,242.898376 
	C679.232971,243.128922 678.917725,243.801987 678.998657,243.837509 
	C683.836487,245.959595 683.341736,252.466110 687.889648,254.725647 
	C691.524780,256.531677 693.379578,259.269409 693.372742,263.337250 
	C693.371094,264.301544 693.359802,265.620026 693.933716,266.174591 
	C698.258728,270.353394 698.679810,275.440887 698.804932,281.161896 
	C698.975952,288.979919 702.860352,291.039124 710.338379,288.957092 
	C722.252991,285.639832 734.196045,281.302521 746.581360,281.584259 
	C757.232727,281.826569 768.032288,278.825409 778.595093,282.419495 
	C779.343262,282.674072 780.327637,282.729248 781.056458,282.469025 
	C788.356506,279.862183 795.046082,283.250092 802.039246,284.009064 
	C807.725952,284.626282 813.362488,285.588226 819.040894,286.232697 
	C825.842590,287.004639 832.500854,288.608734 838.681335,291.128021 
	C841.578735,292.309082 844.023071,291.301910 846.687683,291.919159 
	C851.752991,293.092499 856.004272,296.703827 861.207764,296.767334 
	C866.371277,296.830322 870.896179,297.958862 874.682251,301.550629 
	C875.436523,302.266266 876.308777,302.820618 877.368835,302.571320 
	C884.128906,300.981567 888.776306,305.304993 894.038025,308.236694 
	C903.731384,313.637604 910.953491,322.439270 920.914978,327.422791 
	C922.364075,328.147736 923.068604,329.320404 923.168701,331.014648 
	C923.526611,337.069733 926.309937,339.548889 932.484619,339.473114 
	C936.045044,339.429382 944.702637,346.684631 945.184814,350.214905 
	C945.498657,352.512970 946.217224,353.651978 948.850830,354.603058 
	C953.318420,356.216400 956.570007,360.633850 958.196960,364.545319 
	C960.014160,368.914246 963.688538,370.496918 966.472717,373.186157 
	C969.781311,376.382019 972.335693,379.490295 973.534241,384.053101 
	C974.996216,389.618225 978.213867,394.333557 983.287231,397.346405 
	C985.250244,398.512177 986.333679,399.839355 987.366577,401.943573 
	C991.529907,410.424957 994.449646,419.411316 998.957092,427.808563 
	C1003.130981,435.584167 1007.835876,443.320129 1010.712830,451.634552 
	C1012.990784,458.217682 1012.785339,465.631104 1013.989319,472.623016 
	C1015.212769,479.727997 1015.275574,487.061615 1015.469666,494.068695 
	C1015.668335,501.240051 1016.010864,508.153259 1017.316467,515.226685 
	C1018.397095,521.080933 1016.225525,527.379211 1019.413940,533.107300 
	C1020.016052,534.189026 1019.140320,535.330933 1018.392578,536.271362 
	C1016.953552,538.081421 1018.136963,539.808899 1018.246399,541.666626 
	C1018.636780,548.297363 1023.375244,553.938904 1021.844910,561.096191 
	C1021.187683,564.169861 1020.969177,568.021973 1023.330200,571.317871 
	C1025.156860,573.867920 1023.343384,576.818359 1022.676941,579.493469 
	C1022.022766,582.119568 1021.463745,584.544556 1022.531433,587.270630 
	C1023.529785,589.819763 1022.930359,592.190491 1021.394287,594.760132 
	C1018.461121,599.666626 1017.929199,605.542847 1015.798889,610.886230 
	C1009.800171,625.932800 999.860291,638.037659 988.811890,649.379517 
	C983.931030,654.390015 979.722168,660.127014 973.774048,664.069153 
	C970.870728,665.993286 970.585205,670.034363 967.879517,671.978577 
	C961.484985,676.573364 954.831238,680.805542 948.376892,685.319580 
	C945.065918,687.635193 942.369385,690.720764 939.278320,693.329529 
	C933.506897,698.200256 926.790833,701.517151 920.891846,706.018555 
	C911.878357,712.896545 901.656250,717.568481 891.743896,722.721924 
	C880.451416,728.592957 869.020447,734.233154 857.602112,739.867493 
	C848.177979,744.517700 838.080444,747.820496 827.887878,750.342346 
	C821.863586,751.832825 816.023193,754.614197 809.579590,754.235474 
	C807.956665,754.140076 806.783813,755.159485 805.442078,755.795044 
	C804.103394,756.429199 802.575378,757.576782 801.334351,757.355530 
	C793.277893,755.918640 784.800964,759.103394 776.995300,755.118408 
	C776.454407,754.842285 775.593506,754.622986 775.125854,754.859863 
	C769.124512,757.899658 763.782227,754.722778 758.145386,753.422302 
	C754.926147,752.679565 751.193481,751.844482 748.325928,752.006958 
	C742.606079,752.330872 738.467102,748.575073 733.161621,747.975708 
	C730.538025,747.679382 727.199890,744.940857 723.928406,744.313232 
	C715.719482,742.738525 710.321167,735.757568 702.500488,733.602661 
	C700.389038,733.020874 699.498230,731.397278 698.111023,730.019348 
	C695.480896,727.406494 692.602722,725.129700 688.799561,723.680725 
	C684.053406,721.872498 679.730103,718.642212 675.665161,715.462219 
	C672.708557,713.149231 670.940308,713.270081 669.650940,716.646118 
	C665.642761,727.140747 660.670837,737.426270 657.398743,747.980469 
	C653.944702,759.121094 650.727783,770.553162 648.159241,782.053223 
	C647.207703,786.312927 644.210449,789.928528 641.857971,793.151306 
	C638.362427,797.939819 636.745605,803.824280 632.343384,808.064453 
	C630.312073,810.021179 629.870972,813.526672 628.120483,815.895081 
	C621.143982,825.334167 614.859436,835.528137 603.629883,840.779846 
	C601.077881,841.973389 598.486633,843.221985 595.778076,843.918945 
	C580.338379,847.891968 565.533508,853.344543 551.372742,860.803650 
	C544.330627,864.513000 536.442932,866.027527 528.278564,863.038086 
	C525.413269,865.700867 522.242981,866.627502 519.210693,863.000977 
	C517.170227,860.560608 514.245239,862.590454 512.310181,861.506531 
	C502.125214,855.800842 491.180725,851.430603 482.179932,843.612976 
	C476.032166,838.273376 469.034058,833.986755 462.038269,829.781494 
	C461.049225,829.186951 459.822388,828.608765 459.296326,827.686218 
	C456.325836,822.477173 451.300140,819.901733 446.283997,817.385864 
	C443.741669,816.110657 442.972565,814.477173 444.702454,811.174500 
	C440.474365,812.933838 437.785492,814.477234 435.332245,817.616699 
	C432.256409,821.552979 427.447601,824.094788 423.584106,827.464661 
	C416.832153,833.353760 407.838806,836.026489 401.756073,842.856689 
	C400.075928,844.743164 397.425323,844.354614 395.028809,845.448181 
M471.537781,195.298355 
	C469.938812,197.079224 467.586548,195.560791 465.566467,197.015945 
	C456.323730,203.673904 445.306915,207.305038 436.041046,214.034775 
	C428.426117,219.565414 420.149658,224.115891 413.146545,230.583679 
	C408.895660,234.509644 404.808105,238.665970 400.313477,242.293289 
	C390.444092,250.258286 381.665436,259.288147 374.835266,269.881317 
	C369.885345,277.558380 364.114960,284.771667 360.361389,293.217407 
	C358.588684,297.205994 354.882843,301.070953 357.543610,305.586060 
	C359.986389,309.731384 360.374329,313.874023 360.387695,318.408722 
	C360.405487,324.446869 356.507233,328.377258 350.685913,327.093292 
	C345.025665,325.844849 339.420380,325.159241 332.914825,326.221741 
	C333.390472,323.327881 330.277863,322.204803 329.929901,320.552551 
	C328.792511,315.152496 324.993958,310.692932 323.821289,306.167206 
	C322.481354,300.995758 319.387054,297.921661 317.056274,293.938202 
	C315.914642,291.987030 316.001312,289.800934 315.636932,287.676270 
	C314.635803,281.838867 314.048218,275.788940 310.364777,270.844818 
	C309.141235,269.202515 308.376221,267.790710 308.009064,265.664917 
	C307.542206,262.961945 307.530792,259.071808 304.021637,258.270355 
	C297.411682,256.760712 296.149536,251.131531 293.473297,246.117203 
	C290.068115,246.919174 289.390350,242.956085 287.555786,242.009247 
	C282.182312,239.235931 279.197876,233.572495 272.670654,231.995834 
	C263.744751,229.839767 255.261154,226.861053 245.833466,229.110153 
	C238.936081,230.755615 231.631836,230.434692 224.975449,233.507294 
	C221.157104,235.269867 217.261322,237.631989 213.380310,238.365417 
	C203.500977,240.232407 194.721207,244.791489 187.070862,250.352829 
	C180.767136,254.935257 174.705109,260.874329 170.655243,268.113770 
	C168.382401,272.176636 166.195084,276.305054 163.645279,280.191376 
	C159.019775,287.241333 156.575302,294.998230 157.505814,303.259125 
	C158.114899,308.666443 156.379517,313.627655 156.369034,318.830139 
	C156.363220,321.711975 155.588287,324.471313 155.112976,327.227753 
	C154.652206,329.899963 156.551270,333.545898 158.924118,335.716339 
	C163.011993,339.455536 167.849701,342.229828 171.653107,346.481415 
	C174.187317,349.314178 174.030609,350.903381 171.487274,352.910217 
	C168.496201,355.270325 164.995560,357.105164 162.397385,359.820007 
	C154.782730,367.776611 146.064514,374.389221 137.248291,380.829620 
	C124.906418,389.845612 112.413971,398.671143 101.400352,409.304596 
	C90.546646,419.783539 80.543335,431.096802 71.404999,443.094177 
	C65.632011,450.673340 59.424458,458.279205 55.539886,466.838837 
	C51.630234,475.453705 45.718357,483.102814 43.302151,492.432434 
	C42.006977,497.433472 41.282040,502.662567 38.285816,507.132996 
	C37.685200,508.029144 37.476871,509.409119 37.579697,510.520508 
	C38.332783,518.660156 34.756321,526.109741 33.782558,534.017944 
	C32.247585,546.483887 30.524246,558.885864 30.571253,571.451477 
	C30.615782,583.355591 29.864237,595.226990 30.878487,607.182190 
	C31.759333,617.564880 34.530949,627.167419 38.338482,636.676636 
	C39.305008,639.090454 41.435837,641.423706 40.680664,644.107849 
	C39.823318,647.155151 41.280792,648.783752 43.219322,650.419617 
	C44.220673,651.264709 45.708004,651.750793 45.866726,653.239685 
	C47.100578,664.814514 55.935516,671.576233 63.018879,679.083801 
	C70.770447,687.299500 79.727501,694.448914 91.948265,695.147278 
	C93.202644,695.218933 93.877777,696.451294 94.866913,696.891235 
	C97.687706,698.145874 99.447533,701.596558 102.824570,701.352112 
	C106.613564,701.077820 109.082420,702.992004 111.282616,705.465088 
	C112.642105,706.993164 114.091728,707.997070 115.965645,708.907715 
	C120.169205,710.950562 124.777267,711.875061 127.922523,716.528870 
	C129.979538,719.572571 134.980804,722.458069 139.337845,720.886353 
	C144.583145,718.994385 149.400864,720.086914 154.401825,720.824402 
	C158.370361,721.409607 162.348602,723.305054 166.107620,720.002686 
	C166.696045,719.485657 168.327576,719.390076 168.972214,719.833374 
	C172.064056,721.959473 175.879898,722.212585 179.069855,724.000183 
	C185.209000,727.440369 186.059525,730.009521 183.243240,736.466980 
	C182.777496,737.534790 182.612122,738.820862 181.911743,739.684937 
	C177.651016,744.941406 176.501373,750.376526 176.221573,757.523743 
	C175.904495,765.623169 179.150497,773.102783 177.999664,780.983398 
	C184.467911,787.353271 183.111786,797.889343 191.125214,803.931519 
	C196.635422,808.086304 196.909271,818.190247 206.518982,818.444946 
	C209.324417,824.087585 216.309753,824.614868 219.884628,829.347595 
	C220.461166,830.110840 221.368729,830.817383 222.267365,831.114624 
	C232.836594,834.611145 242.938019,839.474060 254.039291,841.474243 
	C257.033173,842.013672 260.742004,841.457092 263.037659,844.651367 
	C263.683228,845.549683 265.018005,845.655273 266.282318,845.283813 
	C271.027893,843.889526 275.470612,844.537781 279.504700,847.497742 
	C280.323059,848.098145 281.240692,848.823547 282.231689,848.398926 
	C290.209412,844.980774 298.228271,852.826416 306.199615,848.293884 
	C306.537872,848.101501 307.180450,848.340271 307.645294,848.489868 
	C319.498993,852.303406 329.947235,847.078186 340.301331,842.844543 
	C345.869598,840.567749 351.091064,837.056519 356.529114,834.444763 
	C372.069794,826.980957 387.179382,819.014709 400.881165,808.413330 
	C406.365662,804.169922 411.401276,799.195557 417.254944,795.653625 
	C425.077240,790.920593 428.043030,780.436157 438.383301,778.759033 
	C440.886108,778.353088 442.095367,778.092407 443.731903,780.238098 
	C445.451294,782.492493 446.725067,785.552734 450.207367,785.914001 
	C453.916748,786.298828 455.593170,788.497131 456.264008,792.068726 
	C457.125458,796.655029 458.552460,800.411072 463.454987,803.154480 
	C471.915375,807.888794 479.864838,813.697021 487.446808,819.779968 
	C492.001373,823.434021 497.453674,825.684509 501.644257,829.694153 
	C504.861115,832.772034 509.637970,833.849548 511.987244,838.022949 
	C512.364624,838.693359 513.502747,838.599792 514.314819,838.217834 
	C516.265381,837.300476 518.183899,838.115356 520.126099,838.150635 
	C524.912537,838.237427 530.619873,839.234985 534.315735,837.067627 
	C542.162231,832.466187 551.089661,830.793152 558.924377,826.348450 
	C563.154968,823.948303 568.034607,822.059387 572.588318,820.880188 
	C577.215820,819.681885 581.813721,817.951538 586.686707,817.147339 
	C595.730408,815.654785 598.496765,806.434570 603.385071,800.177063 
	C608.232178,793.972412 611.152588,786.278687 615.890808,779.968506 
	C620.825806,773.396301 622.648804,765.658691 625.267517,758.339294 
	C628.378357,749.644348 628.943420,740.120361 632.917297,731.553894 
	C638.897095,718.663147 643.607605,705.417603 646.180603,691.298279 
	C647.190552,685.755981 645.191833,684.123718 641.200378,682.560730 
	C640.418701,682.254700 639.586731,682.119507 639.187073,680.905701 
	C639.206299,679.066895 639.576172,676.986206 639.344421,674.796814 
	C639.038879,671.911560 640.278076,669.221313 642.991638,667.615906 
	C651.312134,662.693665 663.193848,665.667175 667.479492,674.599731 
	C670.442200,680.774841 676.825500,682.857239 680.668945,687.836182 
	C682.183838,689.798584 684.642395,691.147034 686.580444,692.935364 
	C689.141113,695.298279 689.995544,699.067688 693.012268,700.649414 
	C698.384766,703.466309 703.837708,706.191223 708.638123,709.860352 
	C713.518188,713.590210 719.688843,714.854553 724.410034,718.821350 
	C725.936829,720.104187 726.551331,722.451294 729.413269,722.407532 
	C734.541504,722.329041 739.773560,722.637573 743.937744,726.266052 
	C745.278381,727.434143 746.487854,727.961670 748.321167,727.889465 
	C755.113037,727.621704 761.800476,729.155090 768.559875,729.622253 
	C774.872559,730.058533 781.208191,730.438660 787.462463,730.178162 
	C799.396545,729.681213 811.020508,726.661865 822.371033,723.251343 
	C835.273560,719.374451 847.695496,713.942810 859.680237,707.741150 
	C868.042175,703.414246 875.502136,697.541626 883.703003,692.857849 
	C894.793762,686.523438 904.478027,678.158813 914.498474,670.289551 
	C919.247131,666.560303 925.064270,664.093567 925.575928,656.716858 
	C925.743774,654.297607 928.526367,653.388794 930.732178,654.843933 
	C936.675415,658.764771 941.164490,655.179138 945.154785,651.776489 
	C954.894775,643.470764 964.006714,634.438416 972.006042,624.432983 
	C977.959595,616.986511 985.501648,610.647644 988.243835,600.799866 
	C989.011902,598.041443 990.582581,594.944031 993.161560,592.853577 
	C993.734558,592.389038 994.442688,591.286194 994.252563,590.813477 
	C992.813965,587.236267 995.146118,584.762451 996.614807,582.050781 
	C997.348694,580.695923 998.403503,579.047363 997.399109,577.864563 
	C992.674316,572.300720 997.731995,568.466064 999.436707,563.960144 
	C995.081604,560.688843 992.773743,554.323547 994.054810,547.893188 
	C994.465515,545.831726 994.835388,543.913574 993.621033,542.151489 
	C987.107422,532.700623 989.751038,522.350647 990.907471,512.269165 
	C991.264404,509.157654 991.618164,506.357452 989.987122,503.672699 
	C989.062805,502.151184 989.033569,500.722107 989.082397,498.977875 
	C989.224121,493.910187 990.460022,488.763275 988.421936,483.769012 
	C986.531982,479.137817 991.700867,474.804138 987.591553,469.083069 
	C984.351685,464.572510 985.437988,456.927734 982.380554,451.217163 
	C981.892151,450.304962 981.871948,448.849640 982.216003,447.844116 
	C982.963867,445.658234 981.902771,444.174072 981.120361,442.291870 
	C979.740723,438.972900 977.626465,436.403046 975.061462,434.072449 
	C973.852966,432.974457 973.083923,431.825592 974.033752,430.163361 
	C974.649963,429.084900 974.835388,427.939697 974.033813,426.872314 
	C970.872742,422.662689 970.066772,416.296600 966.423401,413.475067 
	C961.357483,409.551788 959.771912,403.695129 958.353271,399.259460 
	C954.658569,387.707336 941.614685,384.526886 938.046082,373.612152 
	C931.444153,370.186920 926.244629,365.366425 922.866577,358.644043 
	C920.947754,354.825470 915.928711,355.376434 913.661011,352.978455 
	C909.731262,348.822937 903.536987,347.443878 900.961914,341.716827 
	C899.193604,337.784088 893.344238,338.533173 891.430603,335.187836 
	C889.216125,331.316589 885.678345,330.613068 882.325867,328.947266 
	C877.539124,326.568817 872.012817,326.719269 867.327637,324.379089 
	C859.206909,320.322998 850.694824,318.435547 841.681335,317.562317 
	C837.032471,317.111938 832.138184,317.699310 827.600464,315.473145 
	C819.789795,311.641327 811.359497,309.791901 802.760986,308.765717 
	C798.516602,308.259155 794.250305,307.844788 789.982056,307.652649 
	C784.943237,307.425751 779.862122,304.448547 774.817444,307.901123 
	C773.970520,308.480743 772.534363,308.113647 771.468933,308.474701 
	C767.123474,309.947113 763.132751,306.877045 758.719482,307.780304 
	C746.748718,310.230499 734.493835,310.746674 722.664795,314.633331 
	C716.243347,316.743195 710.118713,318.495453 705.181702,323.261688 
	C702.153137,326.185577 696.748474,327.278168 694.767578,325.529053 
	C690.809998,322.034607 685.138062,320.209381 682.873901,314.870026 
	C682.694214,314.446167 682.685425,313.820679 682.858704,313.395416 
	C685.959167,305.787445 678.050781,299.124542 680.960205,291.510437 
	C681.119751,291.092896 680.580261,290.130493 680.103333,289.792053 
	C676.690308,287.369934 676.553223,283.666443 676.379944,279.818420 
	C673.973450,280.567749 673.025513,279.059906 671.656006,277.780579 
	C669.281067,275.561920 671.633850,272.874237 670.748596,271.054291 
	C667.523865,264.424591 664.621094,257.297607 659.903381,251.815598 
	C653.031677,243.830627 647.739502,234.944595 641.911926,226.323242 
	C637.801025,220.241486 634.348267,213.637100 627.829651,209.247177 
	C623.546204,206.362534 617.748840,205.502579 614.735474,201.484726 
	C608.773438,193.535233 599.410889,191.758102 591.608826,187.204575 
	C589.538940,185.996490 587.733704,184.034821 584.926758,184.137833 
	C579.144836,184.350037 573.955933,179.151794 567.806458,182.199829 
	C567.473755,182.364731 566.861267,181.988297 566.386475,181.840134 
	C554.017273,177.980347 541.803711,176.148499 528.516785,178.319672 
	C515.805237,180.396805 503.375610,183.310287 491.158844,186.950241 
	C484.671021,188.883240 478.832642,193.123505 471.537781,195.298355 
z"/>
</svg>