<svg version="1.1" id="Layer_1" xmlns="http://www.w3.org/2000/svg" xmlns:xlink="http://www.w3.org/1999/xlink" x="0px" y="0px"
	 width="100%" viewBox="0 0 1024 1024" enable-background="new 0 0 1024 1024" xml:space="preserve">
<path fill="#000000" opacity="1.000000" stroke="none" 
	d="
M1.000000,396.437500 
	C7.318705,384.128082 18.243116,378.136963 30.018770,373.187469 
	C43.533958,367.506805 57.764885,366.123413 72.218910,364.600464 
	C85.141693,363.238861 98.061272,363.347992 110.955040,362.346466 
	C121.605507,361.519226 130.646851,365.622742 137.428223,374.063629 
	C140.310135,377.650818 139.844620,379.134003 135.065094,383.069855 
	C137.883484,389.017334 141.562271,395.105713 134.646820,400.796600 
	C141.392761,406.272461 135.851456,414.837555 129.547424,416.982330 
	C118.372154,420.784363 106.948288,421.415466 95.333618,419.786926 
	C90.069977,419.048920 84.851021,420.351044 79.524559,420.109131 
	C75.349335,419.919525 71.464836,418.675842 67.352890,418.476013 
	C55.100956,417.880554 42.824158,417.268555 30.646496,415.879211 
	C23.802397,415.098389 17.119314,412.830933 10.393503,411.116272 
	C6.196224,410.046295 4.295415,406.199371 1.271736,403.196838 
	C1.000000,400.958344 1.000000,398.916656 1.000000,396.437500 
z"/>
<path fill="#000000" opacity="1.000000" stroke="none" 
	d="
M471.252960,862.739014 
	C465.521698,858.912903 458.935364,859.212891 452.976746,857.767761 
	C445.651672,855.991272 439.112671,852.520447 432.315887,849.816162 
	C427.962006,848.083862 423.202820,847.182556 419.005676,844.747498 
	C417.149689,843.670715 415.236938,842.746460 413.817596,841.181091 
	C410.328247,837.332825 406.900513,833.510498 401.215790,833.066223 
	C400.218811,832.988342 399.279358,832.403687 398.934479,831.351440 
	C397.272675,826.281433 392.664001,824.257629 388.708405,821.689453 
	C385.444733,819.570435 383.717560,816.037720 380.890594,813.824829 
	C379.093964,813.674500 378.794708,815.066956 378.233521,815.962280 
	C374.080048,822.588684 367.755554,827.071411 361.101410,830.191956 
	C356.928253,832.148926 352.544281,836.500854 346.821411,833.885132 
	C346.223083,833.611572 345.200562,834.087219 344.437744,834.379517 
	C333.706268,838.491882 322.441925,837.645813 311.289734,838.386719 
	C304.059357,838.867065 296.997162,837.544800 289.838379,837.986938 
	C286.938599,838.166016 283.792969,838.686646 281.495850,835.894653 
	C281.022247,835.319031 280.051697,834.952637 279.267700,834.863464 
	C272.349304,834.076599 266.367889,831.299133 260.392059,827.709290 
	C257.817566,826.162842 255.814972,823.886780 254.200226,822.156494 
	C242.212311,809.310486 231.685135,795.516113 226.451950,778.131409 
	C219.992249,756.672180 221.695404,735.679565 227.779877,714.656372 
	C229.762344,707.806519 231.037003,700.804321 233.362976,693.998413 
	C236.752823,684.079468 241.097168,674.566467 245.637177,665.247559 
	C250.409866,655.451111 255.104065,645.400635 262.292999,636.937195 
	C267.100800,631.277100 271.926819,625.632507 277.292603,619.338257 
	C272.508362,619.106079 268.445068,619.328430 264.462585,619.017639 
	C261.430939,618.780945 258.885773,618.504456 256.251831,617.019653 
	C252.913773,615.137939 249.469986,613.605957 245.349533,614.950745 
	C242.327713,615.936890 239.784637,613.094971 238.049057,611.861816 
	C230.886719,606.772888 223.189148,602.442261 217.263428,595.429382 
	C206.303574,582.458801 197.900665,568.175842 191.284286,552.645142 
	C189.279800,547.939941 186.086655,543.755432 183.837006,539.138062 
	C173.463470,517.846497 171.460312,495.165924 171.581863,471.794983 
	C171.676941,453.512299 175.275742,436.239929 182.102524,419.614563 
	C185.318359,411.782928 187.694992,403.619965 191.493469,396.015442 
	C193.022614,392.954071 195.751770,390.919891 197.483002,388.070587 
	C204.307648,376.838379 211.902756,366.120544 221.914154,357.542023 
	C229.698593,350.871735 238.817368,346.115631 247.797668,341.097351 
	C258.253876,335.254333 269.243347,330.537598 280.091705,325.804382 
	C290.408203,321.303223 300.414185,315.369019 311.404083,312.968903 
	C320.600677,310.960419 329.848175,308.553192 339.440430,308.101227 
	C344.042938,307.884399 348.515778,308.720306 352.993805,308.513641 
	C358.712891,308.249664 364.411530,307.593597 370.164459,307.626434 
	C377.724091,307.669617 384.972626,306.921600 392.762695,309.349731 
	C399.398407,311.418091 406.767487,312.837402 413.939240,313.644196 
	C418.921356,314.204712 422.622559,318.361786 427.662231,318.147156 
	C435.324554,317.820831 440.598267,324.099579 448.207581,324.876617 
	C454.680267,325.537598 460.193573,330.702393 465.686035,334.635559 
	C466.352783,335.113037 466.860107,335.858276 467.573303,336.217102 
	C469.575378,337.224487 471.947266,335.317566 474.058197,337.591553 
	C481.877167,346.014374 490.060944,354.158539 493.718445,365.442017 
	C494.617218,368.214752 495.039978,371.320343 492.108307,373.655487 
	C489.399689,375.812988 486.885895,373.656738 484.475220,373.727692 
	C477.889923,373.921570 476.693939,369.762573 473.467499,365.488892 
	C466.231812,355.904602 457.434418,346.862335 446.574524,341.652954 
	C438.782227,337.915100 430.216980,334.519440 421.254730,333.685974 
	C418.329468,333.413940 416.887024,330.958313 414.204437,330.348083 
	C406.286926,328.547089 398.270050,327.839233 390.240967,326.860870 
	C381.403870,325.784027 372.412354,327.170837 363.695709,324.645782 
	C359.656494,323.475708 355.598175,325.813293 351.391876,325.313965 
	C341.988281,324.197662 333.627441,329.394775 324.402863,330.056610 
	C317.512726,330.550995 311.850647,335.756165 305.014404,337.004303 
	C297.269226,338.418396 291.300262,343.601685 284.271362,346.343140 
	C273.476074,350.553558 263.650024,356.633820 253.141037,361.393066 
	C242.212036,366.342560 233.005264,374.017151 225.694565,383.971100 
	C221.273392,389.990814 217.475784,396.463043 212.597015,402.149170 
	C209.495316,405.764191 208.788757,410.558533 206.994629,414.746613 
	C203.034683,423.990387 200.484009,433.826416 196.995102,443.286865 
	C193.884247,451.722198 193.702133,460.556091 193.541275,469.234680 
	C193.296555,482.439697 192.332443,495.909271 196.249039,508.732727 
	C198.842896,517.225342 200.540100,526.138733 205.264877,533.913574 
	C208.378265,539.036865 210.532578,544.602478 212.978989,550.053040 
	C216.539719,557.986206 221.460388,565.339600 226.107864,572.747742 
	C234.403885,585.971558 245.927216,595.484009 260.240387,601.700317 
	C263.561859,603.142822 266.887512,601.602295 270.170685,601.736755 
	C277.185394,602.024048 284.220337,602.362610 291.226440,602.922668 
	C294.392822,603.175720 296.718567,602.073730 298.676605,599.831421 
	C301.887665,596.154114 305.722931,593.179626 309.874359,590.749207 
	C313.536316,588.605286 312.886841,585.925476 310.786499,583.820435 
	C302.943237,575.959473 300.826660,565.568848 298.472168,555.541809 
	C295.418732,542.538269 296.164459,529.031250 296.599762,515.837341 
	C296.892853,506.953583 300.712006,498.215820 302.656982,489.347626 
	C304.202576,482.300232 308.818817,476.912994 312.043884,470.777954 
	C312.963684,469.028229 314.428772,467.722504 316.151459,466.543060 
	C322.421600,462.250305 328.532745,457.724365 334.676880,453.249390 
	C335.776978,452.448151 336.880127,451.862701 338.267090,451.672516 
	C342.346405,451.113037 346.379639,450.671570 350.140381,448.493744 
	C353.771027,446.391266 357.566254,449.071869 361.328278,449.162964 
	C367.865204,449.321259 374.332397,448.329620 380.925446,450.672791 
	C385.052460,452.139526 388.673798,454.646820 392.916504,455.686951 
	C397.292694,456.759796 400.485443,460.386810 404.804474,461.401520 
	C407.835175,462.113556 409.224915,464.763977 412.144318,466.524872 
	C415.989075,456.759491 422.032684,448.511078 427.724548,440.033783 
	C436.822327,426.483948 447.140533,414.027069 459.122986,402.889160 
	C475.229736,387.917633 492.351349,374.142151 511.167450,362.922913 
	C518.812927,358.364288 527.067749,354.229523 535.464905,350.669952 
	C547.712708,345.478088 559.941467,340.490692 573.068359,337.886810 
	C577.276672,337.052002 581.569580,337.343384 585.676697,337.146790 
	C594.797485,336.710266 604.032959,336.722382 613.226746,336.928741 
	C620.469360,337.091370 627.830200,337.218689 635.125000,336.729919 
	C636.267517,336.653381 637.525818,336.381134 638.547974,336.731720 
	C648.560547,340.166290 659.153625,338.875488 669.361511,340.637421 
	C670.497620,340.833527 671.815430,340.951050 672.677307,341.599213 
	C677.354126,345.116455 683.608337,343.942474 688.484253,347.270874 
	C691.366028,349.237976 695.268860,345.648041 699.000061,347.833252 
	C700.446838,348.680542 702.621704,348.908081 704.227356,350.118011 
	C704.873840,350.605194 706.002686,351.344757 706.422546,351.106537 
	C712.830444,347.471588 717.895081,353.083954 722.801270,354.759644 
	C727.122437,356.235474 732.146790,358.583527 736.514526,359.869537 
	C745.670654,362.565430 750.096924,370.975128 758.074707,374.769196 
	C761.828796,376.554565 763.664001,380.929169 765.910645,384.322876 
	C768.576111,388.349213 772.920654,391.163849 774.107788,396.618317 
	C777.643433,394.356903 780.703125,392.205841 783.938904,390.364075 
	C797.643921,382.563324 812.876465,382.027435 827.987915,381.911407 
	C845.349731,381.778137 862.771423,382.223358 879.838684,385.898621 
	C884.865051,386.980988 889.903564,388.324371 894.884521,389.894623 
	C906.662231,393.607605 916.719116,401.738800 929.322937,403.047516 
	C932.398438,403.366882 934.694458,405.797821 936.237488,407.332642 
	C940.370483,411.443695 946.621033,412.043640 950.127625,416.846130 
	C952.565308,420.184753 957.037354,420.279785 960.386475,422.486023 
	C967.146362,426.938965 971.523132,433.516876 977.227600,438.852417 
	C978.788391,440.312408 980.223022,441.870575 982.002319,443.105896 
	C985.731506,445.694977 989.081848,448.614685 990.201660,453.333496 
	C990.387756,454.117584 990.713745,455.000488 991.264099,455.546295 
	C999.218933,463.435547 1002.431580,473.751251 1006.688538,483.725494 
	C1009.291809,489.825012 1010.290283,496.617310 1014.224365,502.162048 
	C1014.894592,503.106720 1015.287781,504.226196 1014.704163,505.458679 
	C1013.003418,509.050629 1014.307922,512.056702 1016.564392,514.894287 
	C1019.579651,518.686157 1019.197998,523.342773 1019.597107,527.735352 
	C1020.470520,537.349792 1022.455750,546.815735 1023.499390,556.377258 
	C1025.100464,571.047058 1023.023865,585.333313 1017.340271,599.144592 
	C1014.228210,606.706970 1009.419006,613.171936 1005.382080,620.122437 
	C1000.899292,627.840393 995.873291,635.208191 990.475342,642.399536 
	C986.485779,647.714478 983.061035,653.747864 979.569397,659.571716 
	C972.719666,670.996521 963.746460,680.806580 955.801819,691.397095 
	C949.305359,700.057251 941.431946,707.435608 934.004333,715.109985 
	C925.642944,723.749329 915.773804,731.036255 906.712097,739.038391 
	C898.076599,746.664246 887.771606,751.918335 879.477783,759.898804 
	C875.909912,763.331909 875.292358,768.041321 873.216187,772.106873 
	C866.717102,784.833496 859.112000,796.670166 849.295959,807.255737 
	C840.875732,816.336121 830.340820,821.279663 819.539429,826.363037 
	C810.342773,830.691101 800.884583,834.314758 791.461731,838.027710 
	C779.056091,842.916016 766.002808,844.232117 752.727539,844.541199 
	C743.051819,844.766418 733.457947,842.872986 723.749817,844.007263 
	C720.611145,844.373962 717.219727,843.450684 714.133606,842.783813 
	C711.663879,842.250122 709.424500,841.929993 706.930664,842.122009 
	C701.734741,842.522156 696.585571,844.100281 691.350403,841.162598 
	C689.482788,840.114624 686.552368,842.001587 683.745789,841.623779 
	C676.676819,840.672180 669.493652,840.363342 662.349915,840.265320 
	C659.130615,840.221069 656.440125,839.417297 654.065796,837.498352 
	C650.450439,834.576355 647.391663,835.786987 644.266113,838.347839 
	C638.118713,843.384827 632.370300,848.871338 626.234070,853.937134 
	C616.566467,861.918335 604.737488,864.858459 593.534668,869.324402 
	C585.906250,866.586975 578.674133,870.849182 571.082092,870.594299 
	C562.017700,870.289978 552.897461,872.011597 543.809082,871.935913 
	C537.350037,871.882141 531.134949,872.587769 524.777893,873.415649 
	C520.565063,873.964294 515.667847,873.473511 511.454010,871.635254 
	C509.074249,870.597168 506.825806,871.844849 504.576233,871.273865 
	C493.582611,868.483643 482.592682,865.678772 471.252960,862.739014 
M891.487732,723.968262 
	C897.964905,718.262695 904.358826,712.459106 910.935974,706.871155 
	C925.949585,694.115723 938.868347,679.386841 950.535156,663.648621 
	C965.187012,643.883667 977.562622,622.562500 991.170959,602.093262 
	C1002.315247,585.330505 1005.490845,567.218323 1002.719238,548.355957 
	C1001.323120,538.854187 1003.634399,528.353516 997.456604,519.664795 
	C997.369934,519.542847 997.328064,519.340576 997.355774,519.192749 
	C998.838745,511.278931 993.311096,505.067657 992.198486,497.817261 
	C991.622009,494.060364 988.688416,491.370819 988.179565,487.780670 
	C987.203796,480.895477 985.358521,474.429291 980.872375,468.941193 
	C979.517395,467.283600 977.056152,465.930511 977.183777,463.808929 
	C977.367371,460.754944 975.681763,459.327362 973.840271,457.623627 
	C969.830994,453.914246 965.158386,450.624146 962.138672,446.216064 
	C958.131958,440.367157 951.864380,437.551666 946.397949,434.864929 
	C938.889832,431.174683 932.265198,426.031830 924.478882,422.821442 
	C915.533447,419.133026 907.877075,412.581543 897.729187,411.376190 
	C894.568909,411.000824 890.899475,410.791138 888.258728,408.632599 
	C885.184814,406.120087 881.732544,405.439941 878.024719,405.402466 
	C875.815491,405.380127 873.868652,404.637970 871.790833,404.057922 
	C866.822205,402.670868 861.803223,400.665375 856.455994,402.440918 
	C854.175659,403.198059 851.947021,403.555450 849.791931,401.959045 
	C848.635193,401.102173 847.258118,401.250824 845.946350,401.669708 
	C837.979309,404.213623 829.828186,401.720459 821.696594,402.327698 
	C808.782471,403.292053 796.866516,406.873657 784.411865,409.925781 
	C784.733826,411.220764 784.848267,411.852814 785.047974,412.456665 
	C786.417786,416.597992 785.473511,420.359711 781.795288,422.445953 
	C778.491760,424.319702 775.903564,421.462067 773.556641,419.404327 
	C763.779480,410.831696 755.867065,400.698364 749.152161,389.626434 
	C748.084534,387.866119 746.993042,386.424957 745.304382,385.223999 
	C736.996033,379.315247 727.640198,375.689484 718.102783,372.416901 
	C713.600891,370.872101 709.071228,369.168304 704.563232,367.925751 
	C695.076050,365.310760 685.041931,365.237640 675.705750,361.195251 
	C672.051025,359.612854 667.911438,357.268311 663.317017,358.380341 
	C660.846924,358.978210 658.388916,357.789764 656.128418,357.738647 
	C650.795959,357.617950 645.655518,355.120728 640.150391,356.761993 
	C637.682983,357.497620 634.542664,357.850769 632.262085,356.959198 
	C627.059998,354.925507 622.055603,357.472992 616.797058,356.645081 
	C609.531189,355.501129 601.884583,357.052307 594.466675,356.525177 
	C586.029297,355.925537 578.060913,358.042419 570.148438,359.918457 
	C558.317078,362.723663 547.637390,368.858551 536.380249,373.359100 
	C531.328552,375.378723 526.653625,378.337128 521.796021,380.846741 
	C514.348206,384.694550 508.410370,390.636932 501.603546,395.374390 
	C494.950592,400.004791 488.419983,404.814667 482.472229,410.331451 
	C475.058044,417.208466 466.804932,423.241913 460.790558,431.547394 
	C455.933228,438.255188 449.869720,443.952911 445.366211,451.017670 
	C440.430389,458.760559 434.754669,466.007477 431.937622,474.932007 
	C429.798798,481.708008 427.567596,488.455872 425.291779,495.187286 
	C423.807098,499.578644 420.212189,501.910980 417.284515,500.502167 
	C409.791260,496.896240 404.068268,490.569244 399.310638,484.531891 
	C393.027496,476.558685 385.627899,471.722778 376.688782,468.044159 
	C370.452789,465.477997 364.081024,466.591400 357.749146,466.404724 
	C355.334015,466.333527 352.461975,465.121368 350.565521,467.212555 
	C346.595062,471.590851 340.621948,472.601746 336.253448,476.555542 
	C330.626068,481.648590 325.514862,486.667755 323.177612,494.141724 
	C319.112396,507.141174 317.365997,520.408020 317.959717,533.984314 
	C318.398163,544.009888 318.941833,554.056519 322.743134,563.520264 
	C323.848053,566.271118 325.706512,568.710022 326.961273,571.411926 
	C329.266785,576.376587 333.314056,579.424744 338.168823,581.244202 
	C341.108795,582.346008 343.993195,582.950500 344.113434,586.789001 
	C344.245483,591.002563 342.552338,594.566650 338.656921,595.998413 
	C332.618622,598.217773 327.486206,602.311401 323.135681,606.235291 
	C311.689178,616.559082 299.722961,626.425598 289.456482,638.047485 
	C282.053223,646.428101 275.456512,655.354675 270.001373,665.114136 
	C263.916504,676.000244 258.791107,687.363708 254.461121,699.022156 
	C250.134277,710.672119 246.781006,722.645020 245.070679,735.039001 
	C243.996826,742.820557 244.150665,750.643494 244.256363,758.406616 
	C244.392288,768.390381 247.130905,777.923218 252.268723,786.636658 
	C257.222992,795.038879 263.644501,802.342957 269.958038,809.676392 
	C274.093353,814.479797 280.484955,816.465881 285.438141,820.355591 
	C286.065430,820.848206 287.482361,820.812561 288.311829,820.475891 
	C290.331543,819.656006 292.263702,819.949219 294.185791,820.500732 
	C303.058258,823.046692 312.405518,819.054016 321.225983,822.470093 
	C321.691528,822.650391 322.495728,822.169128 323.059082,821.849426 
	C326.635864,819.819153 330.143860,818.055237 334.583313,819.291077 
	C335.814697,819.633911 337.916473,819.656067 339.198273,818.111328 
	C340.882050,816.082458 343.316864,815.578186 345.714355,814.780273 
	C351.631073,812.811035 357.012909,809.853760 360.363953,804.270447 
	C364.106689,798.034607 370.152985,792.613281 367.130798,783.981689 
	C366.378723,781.833740 367.961334,779.760010 369.778656,778.427246 
	C371.572174,777.111877 373.389618,778.053345 374.840485,779.169678 
	C380.338013,783.399475 390.288849,783.359558 389.210022,793.985779 
	C389.183899,794.243408 389.516449,794.569641 389.736145,794.815247 
	C393.629639,799.169250 396.026154,804.888367 401.855865,807.509705 
	C403.382965,808.196350 405.016998,809.906860 405.464661,811.472412 
	C406.429352,814.845886 408.695831,816.914551 411.400330,818.466248 
	C418.504089,822.541931 423.284668,829.899780 432.076599,831.828491 
	C436.520691,832.803345 440.726074,835.218018 445.331116,836.521606 
	C449.524017,837.708618 453.411377,840.653564 457.787231,842.131104 
	C462.508209,843.725037 467.072296,846.020508 472.293671,844.153809 
	C473.391083,843.761475 474.635834,844.051880 475.621674,844.798462 
	C479.953003,848.078979 485.366150,848.285461 490.246521,850.003296 
	C493.451660,851.131470 497.034668,850.135437 499.994934,851.225525 
	C505.406677,853.218262 510.706421,855.530701 516.548218,854.587219 
	C525.229248,853.185242 534.110840,856.581360 542.698975,853.223145 
	C545.230896,852.233093 548.031006,852.824707 550.614380,853.316650 
	C555.351746,854.218628 560.163086,854.256836 564.634949,852.950439 
	C569.209717,851.613892 573.658203,851.010681 578.408264,850.861267 
	C598.106750,850.241516 611.997070,837.437195 627.209656,827.208923 
	C626.300659,825.802368 625.452332,824.589417 624.704712,823.317322 
	C618.102051,812.082520 621.169983,796.613892 631.452942,789.112122 
	C633.436951,787.664612 635.650574,786.279175 637.688721,788.442261 
	C639.640381,790.513733 642.126099,791.221497 644.126404,792.017151 
	C646.269531,797.259888 644.267517,801.520081 642.305847,805.943054 
	C639.791992,811.610901 642.994568,817.131592 648.854431,818.697998 
	C659.540039,821.554565 670.574890,821.609680 681.422119,822.262512 
	C693.585205,822.994507 705.833008,822.754639 718.051086,823.250305 
	C722.702393,823.439026 727.251953,825.208923 731.611938,824.584534 
	C740.541443,823.305786 749.435730,824.977539 758.305176,823.949341 
	C766.187012,823.035645 774.086914,822.707886 781.699280,819.777710 
	C788.814453,817.039001 795.738708,813.808472 802.819763,811.009766 
	C809.664429,808.304565 816.994141,806.164795 823.214233,802.029114 
	C833.660156,795.083740 840.612305,784.853638 847.366272,774.626099 
	C854.663940,763.575195 859.211548,751.261719 862.515320,738.481445 
	C864.216431,731.901001 866.611145,730.862061 872.154419,734.948120 
	C875.381958,737.327209 877.879028,736.959412 880.522339,734.436523 
	C884.008728,731.108704 887.490601,727.776123 891.487732,723.968262 
z"/>
<path fill="#000000" opacity="1.000000" stroke="none" 
	d="
M255.415802,191.689346 
	C259.116669,203.942780 262.414429,215.900879 264.771179,228.067444 
	C266.536621,237.181213 267.219238,246.447906 267.455627,255.765411 
	C267.584900,260.861694 269.269135,265.884430 269.184906,271.058441 
	C269.049835,279.354004 266.455627,286.701996 256.332001,288.279053 
	C253.659760,288.695343 253.149429,290.996948 251.999649,292.703827 
	C249.635162,296.213959 246.996292,298.554260 242.492218,296.193420 
	C241.794189,295.827545 240.871002,295.875916 240.047318,295.767944 
	C237.811722,295.474884 235.351715,297.517822 233.358994,295.533478 
	C230.880630,293.065491 229.204483,290.039764 227.762085,286.792664 
	C221.464539,272.615814 218.705917,257.486450 215.777100,242.432877 
	C214.713867,236.968094 214.383804,231.238556 214.625610,225.669189 
	C215.037567,216.180984 213.395035,206.830399 213.388535,197.358734 
	C213.384445,191.392349 212.974228,185.415802 213.762543,179.487900 
	C214.764587,171.952682 217.565781,165.073273 224.949921,161.896240 
	C231.962296,158.879181 245.264542,161.444122 247.935242,169.212463 
	C250.458344,176.551529 253.701630,183.657196 255.415802,191.689346 
z"/>
<path fill="#000000" opacity="1.000000" stroke="none" 
	d="
M406.609802,172.657867 
	C410.947815,166.226837 416.358704,161.194275 422.041931,156.686264 
	C427.478546,152.373779 433.882812,149.944229 440.860016,154.160950 
	C444.761993,156.519119 446.920410,161.009796 446.865967,164.395966 
	C446.698792,174.791321 447.783234,185.223328 445.860168,195.647736 
	C442.377899,214.524063 436.623810,232.552185 428.807556,250.086945 
	C424.531830,259.679016 418.895813,268.425568 414.032349,277.637512 
	C412.902130,279.778259 411.208984,281.340820 408.455322,281.099030 
	C403.381866,280.653595 397.344849,278.808319 394.849792,275.995056 
	C391.464813,272.178436 387.041748,267.407654 387.052307,261.184204 
	C387.073639,248.615784 386.359131,236.112473 388.469788,223.507568 
	C391.064911,208.009521 395.307220,193.215088 402.259613,179.181183 
	C403.357056,176.965881 405.024689,175.033066 406.609802,172.657867 
z"/>
<path fill="#000000" opacity="1.000000" stroke="none" 
	d="
M68.618858,553.658081 
	C76.153107,544.120239 86.363869,538.388550 95.281578,531.073486 
	C104.865196,523.212219 116.358612,520.182068 126.854492,514.763733 
	C132.143372,512.033447 137.576843,512.780823 143.142090,516.372314 
	C147.318680,519.067627 149.275314,521.763672 149.334671,526.467957 
	C149.356827,528.223999 151.153442,529.140686 152.348648,530.277161 
	C156.492462,534.217407 156.573624,537.812988 152.626022,541.875061 
	C148.308975,546.317261 142.899323,549.314819 137.780563,552.614502 
	C135.593399,554.024353 133.060730,555.148621 131.106583,556.841919 
	C123.936150,563.055176 114.917511,566.532349 107.769333,572.660278 
	C100.134499,579.205322 91.399910,584.297302 84.099518,591.301147 
	C80.791763,594.474548 76.710960,596.989136 72.651360,599.196655 
	C66.867317,602.341797 61.320148,600.010010 56.224403,597.081665 
	C53.749065,595.659241 51.487457,594.146851 48.536274,593.926636 
	C44.396023,593.617737 43.531670,591.116638 43.934490,587.324463 
	C44.827110,578.921387 49.832047,572.599487 55.617115,567.622009 
	C60.475372,563.441956 64.545593,558.879517 68.618858,553.658081 
z"/>
<path fill="#000000" opacity="1.000000" stroke="none" 
	d="
M122.307846,662.344727 
	C130.186462,645.534180 139.146301,629.860229 153.633408,618.309875 
	C158.841293,614.157776 163.255493,609.156006 169.789932,606.312134 
	C179.770905,601.968140 189.999054,603.476685 196.050354,612.617676 
	C198.830475,616.817322 197.910339,622.252441 196.329300,626.609802 
	C194.763062,630.926392 192.452408,635.130432 190.000626,639.234924 
	C184.577225,648.314026 178.534439,656.987061 172.816528,665.836426 
	C164.742844,678.331604 155.068207,689.790833 143.651352,699.399597 
	C135.173309,706.534973 124.818054,705.572327 117.300919,697.330750 
	C112.212631,691.752014 113.225807,684.775330 115.362434,678.070557 
	C117.073784,672.700256 118.692467,667.283325 122.307846,662.344727 
z"/>
</svg>