<?xml version="1.0" standalone="no"?>
<!DOCTYPE svg PUBLIC "-//W3C//DTD SVG 20010904//EN"
 "http://www.w3.org/TR/2001/REC-SVG-20010904/DTD/svg10.dtd">
<svg version="1.0" xmlns="http://www.w3.org/2000/svg"
 width="2048.000000pt" height="2048.000000pt" viewBox="0 0 2048.000000 2048.000000"
 preserveAspectRatio="xMidYMid meet">

<g transform="translate(0.000000,2048.000000) scale(0.100000,-0.100000)"
fill="#000000" stroke="none">
<path d="M6136 20391 c-21 -64 -26 -131 -15 -203 11 -77 12 -78 41 -78 26 0
28 -2 14 -15 -8 -9 -21 -14 -28 -13 -8 2 -12 -5 -10 -17 8 -57 7 -75 -2 -78
-7 -2 -6 -10 3 -21 10 -12 11 -20 4 -24 -6 -4 -9 -43 -8 -96 1 -74 4 -91 20
-102 18 -14 18 -14 0 -27 -15 -12 -16 -19 -7 -45 6 -18 7 -32 2 -32 -5 0 -9
-12 -9 -27 0 -16 -2 -54 -4 -86 -3 -31 -1 -60 3 -62 4 -3 8 -28 9 -56 0 -28 5
-57 11 -64 5 -6 7 -15 3 -19 -4 -4 -9 -25 -10 -47 -2 -33 0 -39 17 -39 22 0
37 -19 22 -29 -23 -14 -15 -276 9 -307 5 -6 8 -37 6 -68 -1 -37 2 -59 10 -64
7 -5 13 -26 13 -48 1 -123 7 -216 19 -267 11 -50 15 -57 32 -52 21 7 26 -14 8
-32 -20 -20 -6 -56 26 -66 35 -12 48 -28 35 -41 -6 -6 -10 -17 -10 -26 0 -21
81 -100 103 -100 9 0 26 -9 37 -20 32 -32 57 -26 64 15 4 20 13 35 21 35 45 0
59 88 30 184 -8 27 -12 59 -9 72 4 15 0 34 -10 49 -9 14 -14 30 -10 36 8 13
-24 49 -45 50 -10 0 -8 4 7 9 20 9 22 14 16 47 -4 21 -14 48 -22 61 -13 20
-13 22 2 16 20 -8 20 0 -3 72 -10 32 -19 68 -20 79 -3 58 -14 105 -24 105 -7
0 -5 6 4 15 12 13 13 30 6 108 -10 95 -19 119 -46 116 -61 -6 -66 10 -11 33
34 14 40 21 40 47 0 18 -9 40 -20 51 -11 11 -16 20 -10 20 6 0 8 28 5 70 -3
42 -1 70 5 70 15 0 12 17 -7 35 -19 19 -28 71 -13 80 5 3 7 12 4 20 -3 7 -1
22 4 31 6 10 6 27 2 39 -7 19 -14 82 -27 263 -4 49 -8 62 -19 58 -16 -6 -29
10 -14 19 18 11 11 54 -10 65 -15 8 -19 17 -15 31 4 11 1 27 -6 35 -9 11 -9
20 0 40 15 35 15 62 -1 46 -19 -19 -30 -14 -18 7 18 34 12 82 -10 88 -11 3
-20 9 -20 14 0 5 -9 4 -20 -3 -16 -10 -24 -10 -38 0 -31 22 -44 25 -52 12 -10
-16 -22 3 -14 23 3 9 -2 16 -15 20 -13 3 -22 -1 -25 -12z m184 -201 c0 -5 -7
-7 -15 -4 -8 4 -15 8 -15 10 0 2 7 4 15 4 8 0 15 -4 15 -10z m100 -456 c0 -8
-9 -14 -20 -14 -23 0 -25 6 -7 24 14 16 27 11 27 -10z m-83 -206 c-3 -7 -5 -2
-5 12 0 14 2 19 5 13 2 -7 2 -19 0 -25z m-38 -357 c-1 -20 -2 -22 -6 -6 -3 11
-10 26 -15 33 -8 9 -7 11 6 6 10 -4 16 -16 15 -33z m55 23 c4 -11 1 -14 -11
-12 -9 2 -18 9 -21 16 -6 18 25 15 32 -4z m136 -564 c0 -5 -7 -10 -15 -10 -8
0 -15 5 -15 10 0 6 7 10 15 10 8 0 15 -4 15 -10z"/>
<path d="M10490 20295 c0 -44 16 -65 51 -65 18 0 4 82 -17 97 -29 21 -34 16
-34 -32z"/>
<path d="M10611 20203 c-17 -24 -22 -26 -31 -13 -9 13 -11 13 -20 0 -7 -11 -2
-21 22 -42 30 -24 56 -29 43 -7 -4 5 1 12 9 15 17 7 47 60 38 68 -13 14 -42 4
-61 -21z"/>
<path d="M10497 20133 c-12 -12 -7 -22 19 -39 30 -20 50 -7 39 25 -6 20 -43
29 -58 14z"/>
<path d="M10667 20096 c-3 -8 -2 -18 3 -21 13 -8 24 15 12 27 -6 6 -11 4 -15
-6z"/>
<path d="M10572 20055 c-17 -14 -36 -24 -43 -23 -17 4 -24 -29 -7 -35 7 -2 5
-3 -5 -1 -10 1 -20 -4 -23 -12 -2 -8 -7 -22 -11 -31 -10 -29 -11 -73 -2 -79 5
-3 9 -18 9 -33 0 -15 5 -32 12 -39 9 -9 7 -12 -10 -12 -15 0 -22 -6 -22 -18 0
-28 8 -31 47 -20 41 11 52 4 35 -22 -18 -29 -15 -47 10 -54 22 -5 22 -6 3 -20
-13 -9 -25 -11 -37 -5 -23 12 -58 11 -58 -2 0 -6 4 -19 10 -29 6 -11 6 -28 1
-42 -6 -15 -4 -32 5 -50 11 -22 12 -32 3 -46 -24 -38 20 -123 74 -146 41 -17
42 -19 51 -71 6 -35 5 -38 -7 -22 -8 9 -21 17 -30 17 -8 0 -18 11 -21 25 -7
26 -30 25 -40 -1 -8 -21 5 -46 20 -40 10 4 14 -3 14 -23 0 -19 8 -34 24 -45
24 -15 26 -14 45 12 11 15 21 22 21 15 0 -7 8 -17 19 -22 17 -10 18 -7 13 34
-3 30 -1 45 7 45 6 0 11 9 11 20 0 11 -4 20 -9 20 -12 0 -21 39 -10 46 19 12
8 35 -20 40 -42 9 -48 34 -16 62 21 18 30 20 47 11 25 -13 41 4 33 36 -2 11
-5 30 -5 43 0 26 -25 29 -39 5 -10 -17 -12 -17 -26 1 -14 19 -15 18 -36 -7
-23 -30 -46 -34 -75 -12 -17 13 -17 14 -2 15 21 0 37 27 31 51 -4 14 0 19 15
19 12 0 24 -4 27 -10 4 -6 13 -5 25 2 14 9 22 9 34 -2 21 -17 33 -5 16 16 -12
13 -11 21 4 49 16 29 17 38 6 72 -7 21 -23 49 -36 62 -32 32 -40 62 -20 73 22
12 20 28 -3 28 -21 0 -46 -25 -46 -48 0 -8 -5 -17 -11 -19 -16 -5 -27 27 -14
42 11 13 -6 35 -27 35 -7 0 -13 7 -13 15 0 18 21 20 38 3 9 -9 12 -7 12 11 0
16 9 26 30 34 25 9 30 17 30 44 0 17 5 35 11 39 8 4 7 9 -2 15 -22 14 -36 11
-67 -16z m51 -267 c2 -7 2 -21 -1 -31 -4 -15 -7 -16 -13 -5 -12 17 -11 48 0
48 5 0 11 -6 14 -12z m-26 -400 c-3 -8 -6 -5 -6 6 -1 11 2 17 5 13 3 -3 4 -12
1 -19z"/>
<path d="M10636 19967 c-14 -11 -16 -18 -9 -31 9 -16 11 -16 16 -2 4 9 15 16
26 16 14 0 19 5 15 15 -8 19 -25 19 -48 2z"/>
<path d="M10665 19880 c-8 -13 4 -32 16 -25 12 8 12 35 0 35 -6 0 -13 -4 -16
-10z"/>
<path d="M10617 19093 c-4 -3 -7 -16 -7 -28 0 -18 4 -21 25 -17 34 6 41 20 19
37 -22 16 -28 18 -37 8z"/>
<path d="M10690 19080 c0 -5 5 -10 11 -10 5 0 7 5 4 10 -3 6 -8 10 -11 10 -2
0 -4 -4 -4 -10z"/>
<path d="M12893 18448 c-20 -26 -22 -59 -5 -64 9 -3 25 -10 34 -15 24 -12 28
-11 28 6 0 8 4 15 9 15 10 0 19 40 13 58 -2 7 -13 12 -24 12 -14 0 -18 -5 -14
-15 3 -8 1 -15 -4 -15 -6 0 -10 7 -10 15 0 18 -14 20 -27 3z"/>
<path d="M12888 18253 c7 -3 16 -2 19 1 4 3 -2 6 -13 5 -11 0 -14 -3 -6 -6z"/>
<path d="M12920 18010 c0 -5 4 -10 9 -10 6 0 13 5 16 10 3 6 -1 10 -9 10 -9 0
-16 -4 -16 -10z"/>
<path d="M14840 17640 c-24 -8 -23 -8 8 -9 17 -1 32 4 32 9 0 11 -5 11 -40 0z"/>
<path d="M14873 17593 c9 -2 23 -2 30 0 6 3 -1 5 -18 5 -16 0 -22 -2 -12 -5z"/>
<path d="M14860 17551 c-18 -5 -26 -15 -28 -36 -2 -17 -9 -35 -16 -40 -18 -14
-17 -65 0 -72 19 -7 18 -63 0 -63 -8 0 -17 -11 -20 -25 -10 -39 4 -168 21
-194 13 -20 13 -30 3 -65 -13 -42 -23 -227 -14 -258 8 -25 32 -22 36 4 3 22 4
21 21 -6 14 -20 16 -31 8 -39 -8 -8 -11 -8 -11 1 0 19 -48 14 -53 -5 -9 -32
-2 -87 16 -123 11 -21 14 -36 7 -38 -21 -7 -9 -24 15 -20 14 3 25 2 25 -2 0
-4 11 -10 25 -12 22 -5 25 -2 19 14 -6 21 20 58 43 58 11 0 11 -4 -2 -23 -17
-26 -12 -37 17 -37 12 0 18 7 18 21 0 12 4 17 11 13 15 -9 59 16 59 33 0 8 -9
17 -21 21 -19 7 -19 9 -5 21 12 10 14 23 10 50 -4 27 -2 41 10 50 22 18 22
104 0 122 -14 12 -14 14 0 25 11 8 16 27 16 60 0 80 -1 85 -16 91 -8 3 -14 12
-14 20 0 9 -8 22 -17 29 -17 13 -17 13 0 14 14 0 17 5 11 22 -4 13 -7 55 -6
95 0 62 -3 73 -18 78 -10 3 -24 22 -30 41 -9 27 -16 35 -31 31 -12 -3 -20 2
-24 14 -4 10 -13 19 -21 19 -8 0 -20 15 -27 32 -12 31 -12 34 10 51 13 10 21
23 18 28 -7 10 -9 10 -45 0z m90 -190 c0 -11 -32 -31 -49 -31 -6 0 -11 8 -11
18 0 13 9 18 30 20 17 1 30 -2 30 -7z m-13 -333 c-3 -8 -6 -5 -6 6 -1 11 2 17
5 13 3 -3 4 -12 1 -19z m-57 -8 c0 -5 -2 -10 -4 -10 -3 0 -8 5 -11 10 -3 6 -1
10 4 10 6 0 11 -4 11 -10z m55 -59 c6 -10 -65 -34 -74 -26 -2 3 1 5 7 5 7 0
12 7 12 15 0 17 45 21 55 6z"/>
<path d="M14973 17462 c-13 -2 -23 -10 -23 -18 0 -19 28 -30 42 -16 16 16 5
37 -19 34z"/>
<path d="M4370 17114 c0 -6 -7 -15 -16 -18 -15 -6 -15 -8 -2 -24 19 -21 38
-77 38 -108 0 -13 5 -24 10 -24 6 0 10 5 10 10 0 6 5 10 11 10 6 0 0 -17 -12
-37 -16 -27 -18 -34 -7 -25 18 14 38 9 38 -10 0 -5 -7 -25 -16 -44 -19 -40
-12 -84 14 -84 16 -1 16 -1 0 -10 -16 -10 -15 -43 4 -67 5 -6 7 -34 5 -63 -4
-43 -3 -49 10 -39 12 11 13 8 7 -17 -4 -16 -13 -38 -20 -49 -19 -27 -17 -49 6
-76 16 -20 19 -21 20 -6 0 26 17 21 22 -7 4 -18 0 -26 -15 -30 -20 -5 -20 -6
-4 -24 12 -13 14 -21 6 -29 -8 -8 -5 -17 12 -34 21 -21 21 -23 5 -35 -10 -7
-17 -21 -15 -31 1 -10 -2 -27 -6 -37 -5 -13 -3 -29 7 -46 10 -19 12 -30 4 -42
-7 -11 -7 -39 0 -87 7 -54 7 -77 -3 -95 -7 -14 -13 -40 -13 -58 -2 -135 -1
-141 20 -163 l22 -23 -21 -11 c-14 -8 -21 -21 -21 -39 0 -33 19 -64 27 -44 8
21 20 13 16 -12 -7 -35 15 -42 44 -15 l25 24 -4 -25 c-4 -30 23 -63 49 -58 24
4 17 24 -7 20 -11 -2 -20 1 -20 6 0 16 37 21 62 8 41 -21 66 -25 72 -10 3 8
17 14 31 14 24 0 34 11 39 42 1 7 5 18 9 25 4 7 5 34 1 61 -4 32 -2 52 5 56
16 10 14 43 -5 72 -9 13 -14 27 -11 31 15 15 -15 42 -51 45 -20 2 -35 7 -32
13 3 6 12 9 20 8 30 -5 59 7 54 22 -4 8 1 17 10 21 17 7 22 39 7 48 -5 3 -7
15 -4 26 9 32 -21 68 -51 63 -14 -3 -26 -9 -26 -14 0 -5 -7 -9 -15 -9 -8 0
-15 7 -15 15 0 9 6 12 16 8 11 -4 15 0 13 18 -4 47 0 56 24 52 28 -5 48 27 44
72 -2 24 -8 31 -27 33 -14 2 -32 5 -40 8 -22 8 7 23 31 17 16 -5 19 0 19 31 0
26 -4 36 -16 36 -12 0 -14 6 -8 33 4 17 7 40 6 50 -1 9 -2 25 -2 35 -3 62 -24
192 -36 216 -10 21 -11 32 -3 42 8 10 8 15 -3 19 -9 4 -13 16 -10 34 2 16 -1
32 -7 35 -6 4 -11 14 -11 23 0 9 -6 21 -14 27 -9 6 -16 36 -19 74 -5 63 -18
92 -43 92 -19 0 -18 -19 3 -42 21 -23 5 -43 -26 -33 -23 7 -27 25 -9 43 15 15
-51 82 -81 82 -28 0 -71 21 -71 35 0 6 -13 12 -30 12 -17 0 -30 -6 -30 -13z
m100 -249 c0 -14 4 -33 9 -43 5 -9 12 -25 15 -34 7 -22 26 -24 26 -3 0 8 4 15
9 15 11 0 -10 -62 -28 -84 -22 -26 -34 -19 -27 18 8 40 -10 86 -33 87 -10 0
-12 2 -3 6 6 2 12 18 12 34 0 16 5 29 10 29 6 0 10 -11 10 -25z m211 -98 c-6
-6 -6 -16 2 -27 17 -28 -8 -54 -36 -38 -21 11 -21 11 3 20 16 6 20 12 13 19
-15 15 -4 49 14 42 9 -4 11 -9 4 -16z m-81 -42 c0 -16 -9 -19 -34 -9 -25 9
-19 24 9 24 16 0 25 -6 25 -15z m-80 -49 c0 -8 -4 -17 -9 -21 -12 -7 -24 12
-16 25 9 15 25 12 25 -4z m60 -107 c0 -11 -4 -17 -10 -14 -5 3 -10 13 -10 21
0 8 5 14 10 14 6 0 10 -9 10 -21z m63 -16 c-7 -2 -19 -2 -25 0 -7 3 -2 5 12 5
14 0 19 -2 13 -5z m-83 -173 c0 -5 -4 -10 -10 -10 -5 0 -10 5 -10 10 0 6 5 10
10 10 6 0 10 -4 10 -10z m187 -66 c-3 -3 -12 -4 -19 -1 -8 3 -5 6 6 6 11 1 17
-2 13 -5z m-212 -72 c0 -18 -20 -15 -23 4 -3 10 1 15 10 12 7 -3 13 -10 13
-16z m67 -302 c20 -19 26 -30 16 -30 -14 0 -37 21 -52 48 -12 21 3 13 36 -18z
m69 -113 c-1 -12 -15 -9 -19 4 -3 6 1 10 8 8 6 -3 11 -8 11 -12z"/>
<path d="M10937 16564 c-3 -3 -3 -12 -1 -19 3 -7 1 -16 -5 -20 -6 -3 -11 -2
-11 3 0 5 -12 14 -27 21 -23 11 -37 8 -100 -16 -40 -15 -75 -34 -78 -43 -3 -8
-23 -26 -45 -40 -22 -13 -40 -27 -40 -31 0 -4 -7 -14 -15 -22 -8 -8 -16 -27
-19 -43 -6 -31 -14 -41 -48 -58 -26 -13 -48 -52 -52 -94 -2 -15 -4 -30 -5 -33
-2 -12 -57 -67 -78 -78 -28 -15 -68 -14 -94 2 -17 10 -23 10 -26 0 -3 -8 -24
-13 -58 -13 -33 0 -57 -5 -64 -14 -8 -10 -23 -13 -47 -9 -25 4 -38 1 -47 -11
-8 -11 -29 -17 -67 -18 -30 -1 -64 -8 -75 -15 -12 -8 -32 -11 -52 -7 -22 4
-41 1 -58 -10 -27 -18 -71 -21 -80 -6 -4 6 -17 4 -35 -5 -16 -8 -35 -15 -43
-15 -7 0 -24 -11 -37 -25 -13 -14 -31 -25 -41 -25 -10 0 -20 -4 -23 -9 -3 -4
-20 -11 -37 -15 -17 -3 -45 -12 -62 -20 -51 -22 -70 -28 -101 -32 -17 -3 -33
-9 -37 -15 -4 -8 -23 -9 -51 -5 -34 5 -48 3 -57 -8 -7 -8 -20 -14 -29 -14 -9
1 -33 -5 -52 -14 -19 -9 -43 -19 -53 -22 -11 -3 -21 -15 -24 -26 -6 -23 -19
-26 -26 -7 -3 8 -10 6 -21 -8 -16 -20 -16 -20 -22 3 -8 27 -30 29 -46 2 -7
-11 -17 -20 -21 -20 -5 0 -5 9 -2 20 3 11 3 20 -2 20 -4 0 -14 -9 -21 -20 -7
-12 -8 -20 -2 -20 8 0 4 -46 -5 -58 -8 -10 -35 14 -35 30 0 15 -4 18 -17 12
-10 -4 -38 -9 -63 -10 -25 -2 -65 -6 -90 -10 -25 -3 -58 -7 -75 -9 -16 -1 -35
-3 -41 -4 -7 -1 -9 -12 -6 -27 4 -24 3 -25 -17 -14 -19 9 -26 9 -40 -4 -10 -9
-23 -16 -31 -16 -7 0 -19 -8 -26 -17 -16 -22 -65 -24 -82 -4 -10 12 -15 13
-18 4 -3 -7 -19 -13 -35 -13 -18 0 -38 -9 -52 -23 -29 -31 -62 -48 -80 -41
-25 9 -96 -16 -112 -40 -12 -17 -25 -23 -58 -24 -30 -1 -46 -8 -56 -22 -8 -12
-25 -20 -42 -20 -22 0 -29 -5 -29 -19 0 -16 -6 -19 -40 -15 -28 2 -42 -1 -46
-10 -3 -8 -21 -17 -40 -20 -20 -4 -34 -13 -34 -21 0 -8 -6 -12 -13 -9 -8 3
-19 -2 -26 -10 -7 -8 -28 -20 -46 -26 -19 -6 -35 -18 -37 -27 -2 -9 -14 -17
-28 -19 -66 -6 -119 -27 -144 -55 -15 -17 -36 -29 -50 -29 -15 0 -42 -17 -71
-46 -43 -42 -50 -45 -70 -34 -39 21 -62 -10 -28 -36 24 -17 8 -32 -17 -16 -31
19 -68 15 -75 -8 -4 -14 -15 -20 -34 -20 -28 0 -61 -26 -61 -49 0 -7 -13 -11
-33 -9 -37 2 -57 -7 -57 -26 0 -20 -27 -40 -35 -26 -11 18 -59 -2 -97 -42 -21
-21 -45 -38 -53 -38 -30 0 -196 -84 -191 -97 3 -8 -2 -13 -12 -13 -10 0 -25
-9 -35 -20 -9 -11 -25 -20 -35 -20 -11 0 -32 -12 -47 -26 -16 -15 -50 -40 -76
-55 -26 -16 -50 -36 -53 -44 -3 -8 -14 -15 -24 -15 -11 0 -25 -6 -31 -14 -6
-7 -24 -16 -40 -19 -15 -3 -42 -17 -59 -31 -16 -15 -36 -26 -43 -26 -7 0 -22
-9 -33 -19 -12 -10 -37 -27 -56 -38 -48 -26 -130 -85 -130 -94 0 -4 -16 -13
-36 -19 -22 -8 -39 -21 -45 -37 -7 -19 -15 -24 -30 -20 -15 4 -22 -1 -29 -17
-5 -13 -28 -32 -53 -44 -25 -12 -54 -33 -65 -47 -11 -14 -27 -25 -36 -25 -9 0
-25 -14 -34 -30 -9 -17 -28 -33 -40 -37 -33 -8 -102 -78 -102 -103 0 -25 -17
-27 -23 -2 -4 14 -6 14 -12 -5 -4 -13 -11 -23 -15 -23 -5 0 -12 -14 -15 -31
-5 -23 -10 -28 -16 -18 -6 11 -11 11 -21 1 -6 -6 -20 -12 -30 -12 -10 0 -22
-8 -25 -17 -8 -21 -49 -58 -85 -78 -17 -9 -28 -24 -28 -36 0 -14 -5 -19 -14
-16 -8 3 -22 -3 -32 -14 -9 -10 -23 -19 -30 -19 -7 0 -16 -10 -20 -22 -13 -45
-45 -80 -67 -74 -11 2 -31 -2 -44 -11 -19 -13 -23 -22 -18 -42 4 -20 3 -22 -5
-11 -9 13 -13 11 -30 -10 -11 -14 -20 -28 -20 -32 0 -4 -8 -9 -18 -12 -10 -4
-42 -38 -71 -76 -30 -39 -65 -76 -79 -83 -15 -6 -35 -31 -47 -55 -16 -34 -27
-43 -53 -48 -22 -4 -36 -14 -42 -30 -11 -28 -83 -104 -99 -104 -6 0 -27 -17
-47 -37 -20 -21 -48 -50 -62 -65 -23 -24 -24 -28 -9 -34 9 -3 17 -13 17 -21 0
-12 -3 -13 -14 -4 -19 16 -43 4 -50 -24 -4 -17 -11 -22 -22 -18 -10 4 -17 -1
-21 -15 -2 -11 -15 -23 -26 -26 -24 -6 -57 -56 -57 -85 0 -10 -18 -30 -40 -45
-25 -16 -40 -34 -40 -47 0 -11 -4 -18 -9 -15 -12 8 -85 -60 -77 -73 4 -5 -1
-14 -9 -18 -8 -5 -24 -25 -34 -44 -10 -18 -25 -34 -33 -34 -20 0 -50 -25 -45
-38 1 -5 -10 -22 -25 -38 -15 -15 -28 -37 -28 -48 0 -12 -4 -21 -8 -21 -4 0
-21 -22 -37 -50 -17 -27 -35 -50 -42 -50 -7 0 -10 -6 -7 -13 6 -17 -40 -67
-61 -67 -9 0 -15 -9 -15 -25 0 -28 -12 -50 -78 -141 -43 -58 -71 -117 -76
-158 -1 -11 -10 -22 -20 -25 -16 -6 -46 -53 -46 -73 0 -5 -13 -23 -30 -41 -16
-18 -37 -52 -45 -76 -13 -40 -13 -45 2 -56 18 -13 2 -32 -18 -20 -16 10 -59
-35 -59 -61 0 -13 -6 -27 -13 -31 -7 -4 -23 -30 -37 -57 -13 -26 -35 -55 -47
-63 -20 -13 -22 -21 -17 -52 3 -20 13 -42 22 -48 14 -12 14 -13 0 -13 -9 0
-18 5 -20 11 -13 38 -80 -57 -94 -132 -4 -19 -20 -52 -35 -73 -16 -22 -29 -53
-29 -68 0 -15 -4 -28 -10 -28 -5 0 -10 -10 -10 -23 0 -13 -6 -32 -14 -42 -8
-11 -12 -25 -9 -32 3 -7 -14 -32 -37 -54 -31 -30 -40 -46 -36 -62 3 -11 -3
-31 -13 -46 -10 -14 -24 -44 -31 -66 -7 -22 -24 -54 -37 -72 -17 -22 -22 -38
-18 -56 5 -18 0 -34 -16 -56 -12 -17 -24 -47 -26 -67 -2 -20 -9 -46 -15 -57
-8 -16 -8 -22 1 -25 18 -6 13 -29 -14 -58 -17 -18 -26 -40 -27 -65 -1 -22 -2
-47 -2 -56 -1 -10 -9 -26 -19 -36 -12 -12 -17 -28 -14 -44 2 -13 0 -41 -5 -61
-12 -46 -16 -72 -21 -145 -3 -33 -10 -64 -16 -70 -6 -6 -11 -17 -11 -23 0 -16
-38 -57 -66 -72 -12 -6 -35 -32 -52 -57 -23 -35 -30 -55 -27 -85 3 -51 17 -67
57 -68 24 -1 40 -10 65 -39 19 -21 38 -48 43 -60 10 -25 39 -30 58 -11 9 9 12
6 12 -15 0 -47 40 -35 124 38 41 36 77 72 80 80 3 9 17 20 30 25 14 5 33 22
42 37 9 15 25 40 35 55 11 15 19 34 19 43 0 8 5 15 10 15 6 0 10 -8 10 -18 0
-10 3 -21 6 -25 14 -14 113 66 115 92 0 11 2 12 6 4 8 -20 34 -15 91 17 44 26
52 35 52 60 0 32 9 37 28 18 9 -9 12 -9 12 0 0 7 8 12 18 12 11 0 27 9 37 20
11 12 31 20 50 20 37 0 95 54 95 89 0 21 3 22 41 16 23 -4 51 -3 63 3 52 24
104 42 139 48 20 3 37 10 37 15 0 6 15 25 34 43 26 26 39 33 60 29 14 -3 26
-12 26 -20 0 -13 3 -13 25 1 13 9 31 16 39 16 18 0 35 29 29 48 -3 7 4 12 15
12 11 0 33 3 49 6 25 5 31 2 36 -17 5 -19 8 -20 21 -9 9 7 16 21 16 32 0 20 9
21 51 4 9 -4 31 4 53 19 20 14 41 25 45 25 5 0 21 10 35 21 24 19 36 21 89 16
34 -4 80 -13 102 -21 46 -17 95 -20 95 -6 0 19 48 22 79 4 28 -16 31 -16 55 0
14 9 26 21 26 27 0 16 85 2 121 -20 22 -13 26 -20 17 -29 -9 -9 -9 -12 -1 -12
14 0 85 40 94 54 4 5 15 6 24 2 21 -8 55 10 55 29 0 23 56 19 72 -4 16 -23 35
-28 67 -17 14 5 27 4 34 -3 7 -7 21 -6 45 5 57 23 159 22 209 -4 23 -12 44
-18 48 -13 3 5 -1 12 -7 15 -7 4 -2 4 12 0 14 -3 33 -6 43 -5 10 0 23 -9 30
-20 6 -10 19 -19 27 -19 8 0 29 -7 45 -16 19 -11 59 -17 110 -19 44 -1 89 -6
100 -10 39 -17 85 -60 90 -87 7 -29 29 -53 43 -44 5 3 21 -1 36 -9 15 -8 49
-17 77 -21 42 -6 49 -10 49 -29 0 -26 16 -35 44 -25 24 8 88 -24 98 -49 4 -13
14 -17 30 -15 18 3 31 -6 58 -41 21 -27 43 -45 55 -45 26 0 75 -42 75 -64 0
-14 6 -16 28 -11 24 5 37 -3 98 -60 47 -44 68 -71 66 -84 -2 -12 7 -26 22 -37
14 -9 23 -20 20 -25 -3 -5 11 -9 30 -9 22 0 36 -5 36 -12 1 -14 64 -58 83 -58
7 0 17 -8 24 -18 9 -15 22 -18 60 -17 96 3 122 23 107 79 -4 16 -2 26 4 26 6
0 13 9 17 19 3 11 15 23 26 26 12 4 22 19 26 36 3 16 11 29 19 29 21 0 68 46
62 61 -10 25 -4 33 22 31 35 -4 80 14 80 32 0 15 21 26 49 26 10 0 31 16 47
35 16 19 35 35 42 35 13 0 63 29 73 43 3 4 13 5 21 2 20 -8 85 34 92 59 4 14
11 17 33 13 22 -4 34 1 58 27 37 39 88 66 114 59 11 -3 26 3 35 14 66 75 77
84 96 78 25 -8 57 10 78 43 9 15 25 28 34 28 10 1 29 5 42 8 20 5 24 3 20 -9
-8 -20 5 -19 44 5 l33 20 9 -22 c6 -17 9 -19 9 -6 1 26 38 41 82 34 32 -5 39
-3 44 14 5 15 15 19 43 18 20 0 45 -7 54 -15 15 -13 23 -13 64 1 26 9 62 16
80 16 24 0 34 5 39 20 3 11 3 24 0 30 -3 5 -2 10 4 10 5 0 13 -5 16 -10 4 -6
34 -9 68 -8 40 2 62 -2 65 -10 4 -14 110 -6 126 9 6 5 23 9 40 9 16 0 44 11
62 25 37 29 54 32 54 10 0 -17 25 -20 35 -5 3 6 17 10 30 10 19 0 27 7 34 33
5 17 10 24 10 15 1 -25 102 -46 136 -28 14 7 27 22 31 33 4 14 11 17 27 12 12
-4 56 -9 98 -12 59 -3 79 -1 88 11 7 8 19 12 27 9 9 -3 14 2 14 16 0 23 34 45
56 37 8 -3 14 -13 14 -22 0 -23 23 -12 38 19 15 30 37 35 46 11 5 -12 14 -15
37 -10 17 3 38 0 49 -7 16 -9 24 -9 43 3 32 20 117 30 117 13 0 -7 7 -13 15
-13 8 0 12 6 9 14 -3 8 -1 17 5 21 6 3 15 -5 20 -18 12 -32 30 -43 37 -23 17
44 23 2 18 -131 -6 -186 -8 -209 -22 -226 -19 -22 -16 -228 3 -359 5 -32 4
-53 -4 -62 -17 -20 -40 -125 -30 -132 5 -3 2 -18 -6 -34 -16 -32 -20 -110 -6
-126 4 -5 11 -30 14 -55 5 -40 4 -48 -12 -52 -21 -5 -33 -54 -25 -107 2 -19 4
-44 4 -55 0 -11 1 -51 1 -90 1 -38 1 -77 0 -85 0 -8 -3 -57 -6 -109 -5 -82 -3
-95 12 -107 11 -8 13 -13 6 -14 -7 0 -13 -11 -13 -24 0 -14 -4 -27 -9 -30 -5
-3 -7 -88 -6 -188 4 -240 3 -228 19 -228 23 0 27 -29 6 -50 -11 -11 -20 -26
-20 -34 0 -19 27 -39 41 -30 9 5 10 2 6 -9 -10 -25 20 -21 34 4 11 21 11 21
25 -6 19 -37 18 -42 -11 -49 -21 -5 -23 -9 -15 -31 6 -16 6 -27 -1 -31 -6 -3
-8 -12 -5 -20 3 -8 -7 -29 -23 -47 -23 -26 -27 -39 -23 -67 2 -19 8 -39 12
-45 4 -5 7 -30 5 -55 -1 -25 2 -48 8 -52 7 -4 4 -19 -7 -43 -13 -27 -15 -40
-6 -50 7 -8 7 -16 2 -19 -6 -4 -6 -20 0 -43 5 -21 11 -54 13 -73 2 -19 6 -48
9 -64 5 -21 2 -32 -11 -41 -14 -11 -16 -16 -5 -26 6 -7 12 -35 12 -61 0 -41 3
-48 20 -48 14 0 20 -7 20 -21 0 -16 -4 -19 -20 -14 -18 6 -20 2 -20 -30 0 -28
5 -38 20 -42 24 -6 24 -15 5 -78 -8 -27 -12 -52 -9 -57 3 -4 5 -36 5 -70 -1
-35 2 -96 5 -137 6 -61 11 -78 30 -96 28 -26 29 -31 8 -52 -18 -18 -13 -81 7
-93 7 -5 9 -19 4 -40 -4 -19 -3 -35 3 -39 6 -4 6 -26 -1 -64 -9 -47 -8 -60 3
-67 8 -5 14 -30 15 -63 2 -30 6 -61 11 -68 4 -7 8 -38 9 -68 3 -97 12 -144 29
-157 11 -8 13 -14 7 -19 -15 -9 -13 -65 3 -97 10 -19 13 -52 10 -117 -3 -54 0
-92 6 -96 5 -3 10 -24 10 -45 0 -32 4 -39 21 -42 32 -5 49 -36 27 -49 -23 -13
-23 -46 1 -60 17 -11 17 -14 2 -40 -14 -24 -14 -30 -1 -55 8 -15 14 -36 12
-46 -5 -29 30 -118 51 -129 10 -6 27 -7 37 -4 12 4 20 2 20 -4 0 -6 -4 -11 -9
-11 -5 0 -11 -9 -14 -20 -6 -21 -27 -28 -27 -8 0 7 -11 -3 -25 -22 -30 -41
-33 -76 -5 -85 22 -7 26 -25 8 -43 -8 -8 -8 -15 2 -27 10 -12 13 -43 11 -109
-2 -73 1 -95 13 -105 10 -9 13 -19 7 -30 -5 -9 -4 -40 1 -71 5 -30 12 -80 15
-110 3 -30 13 -67 24 -81 13 -19 15 -29 7 -37 -15 -15 -11 -114 6 -167 8 -22
20 -80 27 -130 7 -49 18 -95 24 -102 19 -18 28 -105 13 -115 -10 -6 -10 -8 0
-8 8 0 12 -17 12 -53 0 -29 4 -57 9 -63 6 -5 12 -42 15 -82 3 -39 8 -78 12
-84 4 -7 9 -69 10 -138 5 -211 24 -401 44 -437 21 -35 26 -188 7 -211 -7 -9
-7 -24 1 -50 12 -43 34 -231 37 -317 3 -83 -15 -228 -30 -240 -18 -15 -35 -51
-35 -73 0 -11 -9 -22 -20 -25 -11 -3 -20 -14 -20 -24 0 -10 -7 -28 -15 -40
-21 -30 -23 -202 -2 -218 10 -7 12 -16 6 -26 -13 -25 -19 -112 -7 -126 7 -9 7
-22 -1 -44 -14 -40 -14 -96 -1 -101 6 -2 6 -25 -1 -66 -9 -48 -8 -66 1 -77 10
-12 10 -18 0 -30 -10 -12 -9 -16 3 -21 12 -4 14 -12 7 -28 -9 -24 -3 -73 11
-82 5 -3 3 -14 -4 -25 -10 -17 -9 -22 5 -33 13 -9 15 -22 11 -54 -3 -26 -2
-42 5 -42 10 0 11 -8 11 -98 1 -53 30 -122 52 -122 5 0 13 -10 18 -22 23 -57
84 -116 124 -120 26 -2 36 -10 51 -43 11 -22 28 -46 38 -53 10 -7 18 -21 18
-32 0 -10 14 -30 30 -43 17 -14 30 -33 30 -41 0 -9 6 -16 14 -16 8 0 19 -14
25 -31 10 -28 14 -31 41 -26 27 6 30 4 30 -21 1 -32 21 -62 42 -62 8 0 25 -11
38 -24 18 -20 29 -24 54 -19 17 3 36 10 42 14 14 12 63 -12 70 -33 3 -10 11
-18 18 -18 7 0 23 -11 36 -25 13 -14 29 -25 37 -25 7 0 13 -7 13 -15 0 -19 16
-20 23 -1 7 17 56 9 64 -11 3 -7 13 -11 22 -9 19 7 35 -3 44 -26 3 -10 13 -18
22 -18 9 0 27 -7 41 -16 21 -14 29 -15 49 -4 17 9 31 10 53 2 22 -7 35 -7 49
2 10 7 45 13 78 15 33 1 65 7 72 13 10 8 25 6 56 -5 30 -12 52 -14 77 -8 50
12 70 22 70 33 0 6 11 8 25 6 14 -3 28 -2 30 2 3 5 14 6 25 3 14 -4 20 0 20
12 0 9 6 15 13 12 20 -7 47 12 47 34 0 11 8 22 18 25 9 3 37 15 62 27 35 17
46 28 50 52 5 26 9 30 35 27 30 -3 74 29 74 53 0 5 13 13 28 16 15 3 39 12 53
19 14 8 29 13 34 12 10 -3 36 30 31 39 -3 3 14 19 35 35 22 16 40 37 40 46 0
23 18 32 34 19 19 -16 39 11 38 49 -1 33 13 47 31 31 9 -7 27 -5 59 6 38 12
52 24 82 70 20 30 36 58 36 62 0 4 17 25 38 47 29 30 40 51 45 84 4 29 14 51
28 63 24 19 59 88 59 116 0 9 4 21 9 26 5 6 12 35 16 65 4 40 13 62 31 81 19
20 22 29 13 34 -9 6 -8 11 5 21 13 9 16 20 11 42 -4 19 -1 35 7 43 18 19 60
147 53 160 -4 5 5 33 20 60 14 28 25 63 24 78 -2 14 0 32 5 39 4 7 2 19 -5 28
-13 16 2 64 21 64 6 0 6 7 -2 20 -10 16 -9 23 11 44 13 14 21 32 18 40 -4 9
-1 18 4 22 6 3 9 19 6 34 -3 15 -1 32 4 37 8 8 8 32 0 79 -7 45 -7 72 0 80 5
7 10 34 9 60 -1 92 8 185 19 198 6 7 10 33 10 57 -1 24 1 64 5 88 7 51 -10
108 -35 116 -9 3 -24 14 -34 25 -10 11 -31 20 -47 20 -15 0 -28 5 -28 10 0 6
-12 16 -27 22 -16 7 -42 23 -59 35 -29 22 -33 22 -62 7 -18 -8 -32 -21 -32
-29 0 -7 -12 -20 -26 -30 -15 -9 -40 -32 -56 -51 -36 -41 -86 -46 -118 -14
l-21 21 -19 -23 c-11 -14 -15 -27 -9 -33 19 -19 8 -24 -37 -18 -36 5 -50 3
-58 -9 -7 -9 -23 -18 -36 -20 -20 -2 -25 -9 -25 -30 1 -14 -3 -24 -8 -21 -11
7 -53 -41 -71 -81 -14 -29 -10 -49 20 -121 7 -16 16 -47 19 -68 4 -21 19 -52
32 -68 20 -23 24 -39 24 -86 0 -32 4 -72 10 -89 8 -26 6 -39 -11 -68 -13 -23
-20 -55 -20 -86 0 -28 -4 -50 -9 -50 -5 0 -12 -18 -16 -41 -4 -23 -16 -50 -26
-60 -13 -13 -19 -33 -19 -63 0 -27 -7 -52 -19 -67 -12 -16 -16 -30 -10 -44 11
-29 11 -30 -16 -59 -14 -15 -25 -34 -25 -42 0 -9 -11 -30 -26 -49 -15 -21 -21
-36 -15 -40 16 -9 13 -20 -12 -52 -24 -29 -57 -133 -57 -178 0 -14 -7 -28 -15
-32 -19 -7 -45 -66 -45 -100 0 -16 -7 -27 -20 -30 -19 -5 -50 -54 -50 -80 0
-7 -6 -13 -14 -13 -21 0 -76 -55 -76 -77 -1 -21 -43 -73 -60 -73 -7 0 -23 -9
-37 -20 -14 -11 -31 -20 -38 -20 -7 0 -18 -7 -25 -15 -7 -8 -20 -15 -30 -15
-10 0 -23 -6 -29 -14 -7 -8 -21 -12 -32 -9 -13 4 -29 -3 -45 -18 -20 -19 -28
-21 -43 -12 -13 8 -31 7 -71 -3 -30 -8 -76 -14 -103 -14 -34 0 -58 -7 -79 -21
-51 -37 -196 -43 -255 -11 -12 7 -29 12 -38 12 -8 0 -19 8 -22 18 -4 9 -15 23
-25 31 -11 7 -23 24 -28 37 -7 17 -17 24 -37 24 -16 0 -37 7 -47 15 -10 8 -23
12 -27 9 -5 -3 -15 -2 -21 2 -9 6 -5 10 12 14 29 7 36 34 19 76 -7 16 -11 39
-10 51 1 13 -1 28 -6 35 -4 7 -8 51 -9 98 -1 114 -13 224 -25 228 -13 5 -11
25 7 60 8 18 13 41 9 52 -3 10 -8 73 -9 140 -3 115 -5 121 -30 145 -29 27 -36
61 -10 51 14 -5 15 -1 10 28 -5 24 -3 36 6 39 10 3 9 9 -4 24 -12 12 -16 32
-15 57 2 20 -2 45 -9 54 -17 22 -18 67 -1 92 9 16 9 22 0 28 -7 4 -12 16 -12
27 -1 11 -3 59 -5 107 -4 72 -2 89 11 96 11 7 12 11 4 16 -6 4 -11 23 -11 42
0 19 -4 34 -9 34 -9 0 -18 52 -25 146 -2 28 -7 62 -12 75 -4 13 -7 36 -5 51 1
14 -2 29 -7 32 -5 3 -7 17 -5 31 3 13 2 33 -3 42 -4 10 -8 45 -9 78 0 54 -2
60 -22 63 -28 4 -30 19 -3 27 25 8 27 23 15 100 -3 17 -5 44 -5 61 0 17 -6 37
-15 44 -18 15 -19 54 -4 116 11 41 10 48 -11 76 -18 25 -20 32 -9 39 10 5 14
23 12 56 -4 76 -13 146 -23 168 -11 25 -20 92 -23 165 -1 30 -6 62 -12 70 -19
29 -35 85 -25 88 15 5 12 38 -5 52 -10 9 -12 17 -6 23 5 5 7 15 5 22 -3 7 0
16 6 20 8 5 5 12 -8 21 -18 12 -20 25 -19 102 0 49 -2 93 -5 98 -34 56 -46 84
-37 89 11 7 2 73 -13 92 -6 7 -7 21 -3 30 16 35 -13 87 -41 76 -15 -5 -44 13
-44 28 0 5 8 9 19 9 27 0 39 19 42 70 4 43 3 45 -23 45 -39 1 -45 13 -14 24
41 16 29 71 -15 71 -9 0 -20 7 -23 16 -4 12 -1 14 13 9 24 -7 41 20 41 64 0
25 -4 31 -21 31 -17 0 -20 4 -15 24 4 16 0 30 -9 40 -19 18 -19 26 0 40 23 17
9 86 -19 87 -15 1 -12 3 9 8 28 6 30 9 31 56 0 48 -9 91 -27 128 -6 10 -5 35
2 63 12 48 7 69 -33 123 -13 17 -16 34 -12 62 6 37 6 38 -22 36 -26 -2 -29 1
-32 32 -3 30 -1 33 17 28 19 -5 21 -1 21 47 0 41 -5 57 -21 72 -11 10 -25 27
-31 37 -8 16 -7 18 10 13 25 -8 40 27 22 49 -7 8 -10 21 -7 29 3 8 0 20 -8 26
-8 6 -17 26 -21 43 -3 18 -9 36 -12 42 -12 19 -11 99 0 106 9 6 9 14 1 32 -6
13 -9 43 -6 66 5 33 3 41 -11 41 -19 0 -20 9 -5 47 8 22 7 30 -6 39 -8 6 -21
35 -28 63 -12 52 -27 68 -27 30 0 -30 -24 -18 -28 14 -2 18 1 27 11 27 18 0
33 33 17 38 -6 2 -17 16 -25 32 -13 26 -13 28 3 24 10 -3 22 4 30 16 11 18 13
41 11 130 -1 33 -36 80 -59 80 -32 0 -32 18 0 36 16 10 31 25 31 34 5 56 1 73
-22 91 l-24 18 21 15 c16 12 21 24 19 53 -1 21 -3 60 -4 86 -1 39 -5 49 -23
57 -18 7 -19 9 -6 9 24 1 18 59 -8 78 -15 11 -17 17 -6 33 6 11 12 27 12 35 0
9 7 27 16 40 10 15 13 32 9 42 -5 10 -8 21 -7 25 1 4 -5 5 -13 2 -8 -4 -17 1
-21 10 -8 21 -40 20 -53 -1 -9 -15 -10 -14 -11 9 0 20 4 26 14 22 19 -7 59 33
52 52 -8 21 -25 17 -36 -8 -5 -15 -9 -18 -11 -8 -3 28 3 44 22 58 25 17 36 71
33 167 -1 44 -2 99 -3 122 -1 23 -8 48 -16 57 -8 8 -11 17 -6 20 12 8 21 148
10 169 -6 9 -16 17 -24 17 -16 0 -20 21 -7 34 7 8 12 46 13 105 0 18 -7 41
-15 50 -20 22 -20 40 -1 47 8 4 15 14 15 24 0 11 5 22 10 25 6 3 10 15 10 26
0 14 -7 19 -25 19 -28 0 -34 24 -9 34 13 5 15 15 10 45 -3 21 -3 41 0 44 11
11 12 201 2 215 -6 6 -22 13 -37 13 -20 1 -22 3 -5 6 21 4 39 44 43 93 1 14 3
36 4 50 2 22 -3 25 -32 28 -19 2 -30 7 -25 10 6 4 21 22 33 41 25 35 24 27 16
216 -1 22 -5 48 -10 58 -4 11 -3 28 3 40 12 23 11 94 -1 114 -4 6 2 28 12 47
11 19 16 38 12 40 -5 3 -4 27 1 53 9 40 8 48 -6 59 -12 8 -14 14 -6 19 7 4 9
18 6 31 -4 14 -1 42 5 63 10 34 9 43 -12 80 -20 36 -21 44 -9 65 13 26 7 76
-10 76 -6 0 -10 9 -10 21 0 12 -4 18 -11 13 -6 -3 -15 0 -20 7 -6 10 -1 15 19
19 20 4 26 11 24 25 -2 11 -8 22 -13 23 -13 5 -11 46 2 59 7 7 7 22 -1 50 -9
30 -9 45 -1 62 10 18 9 21 -9 21 -26 0 -35 22 -20 50 6 12 8 29 5 38 -7 16 -9
62 -6 107 2 19 2 19 14 -3 10 -18 15 -20 25 -10 10 10 17 10 33 0 33 -21 95
-25 112 -8 13 14 19 14 46 0 30 -15 53 -14 96 2 12 5 16 2 14 -12 -4 -21 7
-44 22 -44 5 0 9 6 9 13 0 16 31 47 47 47 6 0 14 -15 17 -32 7 -32 7 -32 22
-13 14 18 16 18 27 4 7 -9 22 -19 35 -23 12 -4 25 -18 28 -31 5 -20 10 -23 39
-18 28 4 37 0 61 -26 15 -17 45 -36 66 -43 21 -6 38 -16 38 -22 0 -15 58 -59
100 -76 43 -16 70 -39 70 -57 0 -7 6 -13 14 -13 25 0 27 -16 6 -43 -11 -14
-20 -38 -20 -54 0 -17 -8 -33 -20 -41 -11 -7 -20 -21 -20 -32 0 -15 7 -20 29
-20 23 0 30 -6 35 -25 4 -14 4 -30 1 -35 -4 -6 1 -10 9 -10 9 0 16 5 16 11 0
5 4 8 10 4 6 -4 6 -15 -1 -32 -5 -14 -8 -27 -7 -28 13 -8 118 -43 119 -40 1 3
2 9 3 14 0 5 4 13 9 17 4 4 7 15 7 25 0 10 9 23 19 29 26 13 71 13 71 -1 0 -6
9 -9 20 -6 11 3 22 1 25 -3 11 -17 65 -38 85 -33 12 3 20 0 20 -7 0 -7 11 -22
23 -34 20 -18 29 -20 52 -13 19 7 34 6 47 -2 24 -15 24 -15 42 21 20 38 20 49
3 42 -8 -3 -19 1 -25 9 -10 11 -5 18 23 33 30 16 35 23 35 56 0 26 -4 38 -14
38 -8 0 -16 7 -20 15 -3 8 -11 15 -17 15 -6 0 -27 14 -46 30 -22 20 -28 30
-18 30 25 0 13 34 -13 38 -22 3 -32 32 -10 32 7 0 31 20 55 45 23 25 46 45 50
45 4 0 24 28 43 62 19 33 44 65 56 70 12 6 32 27 45 49 13 21 29 39 34 39 6 0
16 9 23 21 10 15 20 19 37 15 26 -7 51 16 39 35 -5 8 1 10 20 7 26 -5 38 14
16 27 -17 10 -1 25 27 25 16 0 27 7 30 20 6 22 29 27 36 8 3 -10 9 -10 26 0
12 7 26 10 31 7 5 -3 11 -1 15 5 3 5 16 10 29 10 12 0 26 3 30 7 8 8 13 9 40
12 8 0 28 13 45 27 17 14 37 24 45 21 14 -5 92 18 111 33 5 4 43 10 82 12 58
4 79 11 107 32 41 31 52 32 96 9 32 -15 34 -15 50 5 12 14 24 19 39 15 24 -6
28 9 6 27 -19 16 -19 26 1 34 10 4 25 -1 36 -11 16 -14 23 -15 38 -5 16 9 21
8 32 -6 21 -29 36 -34 60 -21 26 15 117 16 127 2 3 -5 21 -15 39 -22 25 -11
38 -11 60 -2 16 7 34 11 40 9 6 -2 17 5 25 16 13 18 15 18 40 2 19 -13 31 -15
44 -7 11 5 49 8 85 6 46 -3 72 1 85 10 22 17 79 19 89 3 5 -8 11 -6 20 7 7 10
20 15 29 12 9 -4 15 -1 15 8 0 8 13 21 30 30 23 12 34 13 55 3 27 -12 32 -23
15 -33 -8 -5 -8 -11 0 -20 17 -20 46 -24 76 -9 33 18 61 18 71 1 4 -8 40 -24
78 -37 39 -13 75 -28 82 -32 6 -5 14 -5 18 2 11 17 43 11 65 -12 17 -18 32
-23 72 -23 32 0 53 -5 56 -12 2 -7 18 -13 36 -13 23 0 42 -9 64 -31 18 -18 35
-29 38 -26 3 3 14 -2 24 -11 54 -51 95 -82 107 -82 7 0 13 -5 13 -11 0 -7 9
-9 23 -5 18 4 27 0 37 -19 15 -29 25 -32 34 -10 7 20 40 19 57 -2 8 -9 37 -27
64 -39 60 -28 78 -42 94 -72 8 -14 18 -21 27 -18 8 3 24 -4 35 -15 15 -15 24
-18 32 -10 21 21 97 6 97 -19 0 -6 10 -21 22 -35 18 -20 27 -24 57 -19 33 5
37 3 48 -25 7 -20 18 -31 31 -31 29 0 69 -36 88 -80 10 -22 25 -40 33 -40 17
0 41 -42 41 -69 0 -9 -9 -31 -20 -49 -13 -22 -18 -42 -14 -55 3 -12 3 -19 -1
-15 -11 10 -43 -55 -33 -66 11 -14 10 -54 -2 -61 -5 -3 -10 -21 -10 -39 0 -37
24 -66 41 -49 15 15 48 4 60 -18 5 -11 16 -19 24 -19 10 0 13 -8 9 -27 -4 -24
0 -31 26 -46 31 -17 32 -17 37 3 3 11 14 20 24 20 11 0 22 0 27 1 4 0 8 -7 10
-15 2 -11 -4 -16 -17 -16 -12 0 -21 -4 -21 -10 0 -21 42 -9 70 20 23 24 29 37
24 55 -5 19 -2 25 10 25 9 0 21 11 26 25 5 14 16 25 25 25 8 0 15 6 15 14 0
45 55 96 104 96 19 0 22 4 18 30 -4 25 0 31 29 43 21 9 38 11 46 5 13 -10 43
42 43 77 0 26 14 40 52 49 18 4 33 18 44 41 16 34 87 115 101 115 4 0 17 9 29
21 20 19 27 20 57 10 37 -13 62 -7 71 15 3 8 17 14 30 14 27 0 62 13 170 66
37 19 83 34 101 34 18 0 38 7 45 15 7 8 20 15 30 15 10 0 23 7 30 15 7 8 21
15 31 15 28 0 89 32 89 47 0 7 11 13 25 13 14 0 25 -5 25 -11 0 -6 9 -9 20 -6
11 3 23 1 26 -4 3 -5 11 -9 17 -8 7 1 19 0 27 -4 33 -12 80 -16 86 -6 3 6 12
8 20 5 8 -3 17 1 20 9 9 22 24 18 24 -6 0 -19 4 -21 35 -16 26 4 35 2 35 -9 0
-16 17 -19 22 -3 2 7 17 7 48 0 64 -15 90 -14 90 4 0 9 9 15 23 15 21 -1 21
-1 3 -15 -11 -8 -16 -21 -13 -30 8 -19 15 -19 62 1 48 20 171 10 185 -15 7
-13 12 -14 29 -3 27 16 25 17 41 -23 10 -26 25 -40 59 -56 25 -11 57 -26 71
-32 46 -21 89 -58 92 -80 2 -15 12 -23 33 -27 19 -3 31 -12 33 -25 6 -29 21
-45 43 -45 12 0 23 -10 29 -25 12 -31 69 -84 92 -85 9 0 20 -4 23 -10 3 -5 15
-10 27 -10 11 0 22 -8 25 -19 8 -32 44 -41 75 -20 18 13 29 16 33 8 4 -6 22
-8 44 -4 28 5 41 2 51 -9 7 -9 21 -16 32 -16 11 0 26 -7 34 -15 18 -17 34 -20
34 -5 0 6 7 10 15 10 8 0 29 10 47 23 32 21 33 25 33 87 0 60 -2 65 -27 78
-38 18 -35 30 9 34 49 4 58 32 11 35 -33 3 -49 18 -42 38 3 6 -3 22 -13 34
l-18 22 -23 -21 c-31 -29 -38 -19 -17 25 19 42 16 51 -13 36 -17 -9 -22 -8
-27 8 -3 10 -16 22 -29 25 -17 4 -27 16 -33 43 -6 26 -15 38 -26 37 -14 -1
-15 5 -10 44 5 34 2 48 -9 56 -8 6 -17 25 -21 42 -8 44 -48 101 -74 108 -15 4
-23 14 -23 28 0 12 -10 32 -22 45 -17 18 -22 36 -23 81 -1 31 -4 64 -7 72 -4
8 -9 31 -12 51 -4 21 -13 42 -21 49 -8 7 -15 20 -15 30 0 10 -7 20 -15 24 -8
3 -15 12 -15 20 0 8 -15 24 -34 36 -43 26 -57 72 -30 101 13 15 15 24 7 42
-29 64 -44 93 -52 107 -15 24 -23 52 -28 99 -2 25 -11 50 -20 56 -9 7 -13 17
-9 23 4 7 1 12 -6 12 -8 0 -28 14 -46 30 -18 17 -45 31 -60 31 -20 1 -22 3 -8
6 26 7 46 28 46 47 0 19 -5 20 -30 6 -26 -14 -80 15 -80 44 0 12 -7 32 -16 44
-12 18 -13 26 -4 37 16 19 6 32 -32 39 -18 4 -44 16 -58 27 l-25 21 24 19 c23
19 23 20 5 33 -10 8 -22 12 -27 9 -4 -2 -12 9 -18 26 -6 17 -14 31 -18 31 -4
0 -15 14 -24 30 -10 16 -24 30 -30 30 -7 0 -20 13 -31 28 -10 15 -36 38 -58
50 -21 13 -36 27 -33 33 4 5 1 26 -6 47 -7 20 -14 31 -16 25 -7 -20 -21 -15
-25 9 -4 25 -28 37 -28 14 0 -9 -8 -16 -20 -16 -20 0 -21 4 -14 60 5 48 4 60
-7 60 -17 0 -79 81 -98 128 -7 17 -18 32 -23 32 -6 0 -7 7 -4 15 4 10 -3 20
-19 27 -13 6 -22 15 -19 20 3 5 -1 20 -10 33 -9 13 -13 31 -10 39 3 9 2 16 -3
16 -25 0 -52 39 -58 83 -5 35 -11 47 -21 43 -11 -4 -13 9 -10 65 4 65 2 73
-23 102 -15 18 -35 50 -45 72 -10 22 -34 54 -52 72 -19 18 -37 46 -40 62 -4
18 -15 33 -26 37 -16 5 -19 12 -14 35 8 40 -2 59 -30 59 -19 0 -24 5 -24 24 0
14 -4 27 -9 30 -5 3 -12 32 -16 63 -10 80 -6 74 -141 224 -16 18 -19 39 -4 39
16 0 11 34 -7 52 -43 41 -53 56 -53 76 0 26 -18 38 -33 23 -15 -15 -37 -14
-37 2 0 8 -9 22 -21 33 -11 10 -26 32 -33 49 -18 40 -51 69 -72 61 -13 -5 -14
-9 -4 -21 18 -22 4 -31 -16 -11 -12 13 -15 27 -10 55 4 28 2 42 -9 51 -8 7
-15 19 -15 26 0 7 -18 24 -40 36 -22 13 -40 26 -40 30 0 3 -14 20 -31 38 -20
19 -29 37 -26 49 7 28 -4 40 -64 69 -43 21 -56 34 -64 60 -7 26 -14 32 -38 32
-16 0 -36 7 -44 16 -9 8 -24 13 -34 11 -14 -4 -19 0 -19 17 0 12 -9 29 -20 39
-11 9 -20 23 -20 31 0 12 -47 38 -75 42 -5 0 -14 2 -19 2 -6 1 -1 9 10 17 19
15 19 15 0 30 -11 8 -24 11 -30 7 -6 -4 -31 -7 -56 -7 -43 0 -45 1 -55 39 -15
54 -47 86 -84 86 -17 0 -31 4 -31 9 0 5 -13 12 -30 16 -16 4 -30 13 -30 21 0
10 -7 13 -25 8 -15 -4 -25 -2 -25 5 0 6 6 11 13 11 16 1 -62 40 -80 40 -7 0
-13 6 -13 13 0 15 -57 62 -88 71 -12 4 -31 17 -42 28 -11 12 -36 22 -64 25
l-45 5 16 25 c13 20 14 24 2 22 -21 -4 -139 50 -139 63 0 5 -9 8 -19 8 -11 0
-40 16 -66 36 -26 19 -63 42 -83 51 -20 9 -54 24 -74 35 -21 11 -42 16 -48 13
-9 -6 -37 4 -115 40 -16 8 -42 17 -57 21 -16 3 -28 10 -28 15 0 5 -4 9 -10 9
-5 0 -10 -7 -10 -15 0 -8 -4 -15 -10 -15 -5 0 -7 7 -3 16 6 17 -28 54 -52 54
-9 0 -18 7 -21 15 -5 11 -10 12 -24 3 -10 -7 -25 -8 -36 -3 -11 4 -25 7 -33 6
-8 -2 -12 3 -8 12 3 9 -1 18 -9 21 -8 3 -14 1 -14 -4 0 -20 -27 -9 -40 15 -8
15 -22 25 -36 25 -12 0 -35 11 -51 23 -35 30 -90 50 -99 36 -4 -6 -11 -6 -20
2 -8 6 -25 9 -39 7 -14 -3 -25 -1 -25 3 0 5 -9 9 -19 9 -14 0 -18 5 -14 20 4
14 -3 24 -26 37 -17 10 -31 23 -31 30 0 7 -9 17 -21 23 -16 9 -26 8 -44 -4
-14 -9 -29 -16 -35 -16 -17 0 -42 28 -31 34 5 4 11 0 14 -6 2 -7 8 -10 12 -5
5 4 2 18 -5 32 -17 32 -70 48 -110 33 -36 -12 -38 -24 -5 -32 16 -4 22 -11 19
-21 -5 -11 -11 -12 -30 -3 -13 6 -24 16 -24 23 0 17 -43 55 -63 55 -11 0 -17
11 -19 38 -3 36 -4 37 -38 34 -19 -1 -39 -7 -43 -11 -12 -12 -65 16 -72 39 -8
25 -41 44 -62 36 -9 -4 -31 3 -51 14 -19 12 -37 18 -40 16 -8 -9 -41 35 -36
48 6 16 -43 51 -84 59 -21 4 -43 2 -61 -7 -25 -13 -30 -13 -57 9 -31 25 -69
24 -89 -2 -15 -20 -52 -5 -60 25 -4 18 -2 28 6 31 17 5 -106 40 -143 41 -15 0
-37 4 -50 9 -43 17 -103 30 -238 51 -74 12 -146 28 -160 34 -25 12 -108 2
-153 -18 -13 -6 -24 -2 -38 13 -11 11 -29 21 -40 21 -11 0 -29 5 -40 10 -14 8
-25 7 -43 -5 -24 -16 -76 -12 -76 6 0 13 -57 11 -80 -3 -15 -10 -22 -9 -39 6
-11 10 -27 16 -36 12 -9 -3 -25 -1 -36 4 -17 10 -20 7 -25 -20 -7 -32 -34 -42
-34 -12 0 13 -2 14 -9 3 -11 -16 -73 -8 -109 15 -13 9 -42 15 -65 13 -23 -1
-49 1 -57 4 -38 14 -105 15 -120 2 -8 -7 -28 -15 -45 -17 -26 -3 -30 0 -29 20
1 23 -10 29 -21 12 -9 -14 -62 -13 -67 2 -3 7 -9 8 -18 3 -33 -20 -148 1 -151
29 -1 6 -3 18 -4 26 -3 31 -27 79 -41 84 -8 3 -14 19 -14 39 0 36 -15 57 -40
57 -8 0 -26 7 -39 17 -21 14 -22 17 -8 28 14 10 12 14 -14 29 -17 10 -28 24
-25 31 2 7 -6 22 -20 34 -13 11 -24 26 -24 33 0 11 -58 68 -70 68 -4 0 -9 -3
-13 -6z m2060 -686 c-3 -8 -6 -5 -6 6 -1 11 2 17 5 13 3 -3 4 -12 1 -19z
m-580 -74 c-3 -3 -12 -4 -19 -1 -8 3 -5 6 6 6 11 1 17 -2 13 -5z m918 -14 c3
-5 -1 -10 -10 -10 -9 0 -13 5 -10 10 3 6 8 10 10 10 2 0 7 -4 10 -10z m-1825
-29 c0 -6 -4 -13 -10 -16 -5 -3 -10 1 -10 9 0 9 5 16 10 16 6 0 10 -4 10 -9z
m318 -40 c-3 -22 1 -27 25 -29 21 -3 27 1 27 16 0 26 26 48 43 35 11 -10 75
-26 107 -28 24 -2 63 -26 86 -53 19 -23 23 -24 54 -14 43 15 76 15 124 -2 40
-14 69 -10 123 16 17 9 20 15 13 34 -6 16 -5 26 6 34 11 10 14 8 14 -10 0 -13
7 -28 17 -35 9 -7 17 -23 18 -36 2 -27 35 -41 35 -15 0 21 16 20 24 -1 6 -15
8 -15 17 -3 8 13 11 13 23 -2 7 -10 26 -18 42 -18 16 0 47 -5 68 -10 26 -5 46
-5 59 1 15 9 22 6 34 -10 9 -13 25 -21 44 -21 16 0 45 -6 63 -14 33 -14 82
-11 92 5 3 5 17 0 32 -11 14 -12 35 -20 46 -19 12 1 39 -3 60 -9 27 -8 45 -8
58 -1 14 8 27 5 53 -11 19 -12 41 -30 48 -39 9 -14 34 -20 101 -27 75 -8 90
-12 92 -28 3 -22 43 -66 60 -66 6 0 15 7 18 16 5 12 14 14 38 9 41 -9 58 -22
51 -41 -5 -14 34 -36 50 -27 4 2 7 -1 7 -6 0 -6 -4 -11 -10 -11 -5 0 -10 -5
-10 -10 0 -17 72 -5 86 15 12 16 15 16 44 -11 16 -16 30 -33 30 -39 1 -5 9
-20 20 -33 14 -17 25 -21 43 -17 19 5 25 2 30 -14 3 -13 13 -21 26 -21 11 0
25 -9 31 -20 13 -24 60 -50 90 -50 13 0 24 -8 27 -20 6 -23 14 -25 30 -9 9 9
18 4 38 -17 20 -22 30 -26 43 -18 26 15 62 6 62 -17 0 -12 7 -19 20 -19 10 0
24 -9 30 -20 13 -24 28 -25 51 -4 24 22 47 12 51 -23 3 -24 7 -28 36 -29 18 0
37 -6 41 -13 6 -9 11 -10 15 -2 11 17 36 13 36 -7 0 -10 14 -30 32 -46 28 -24
33 -26 43 -12 18 23 107 8 120 -21 11 -26 54 -40 67 -21 5 8 6 1 2 -18 -6 -32
17 -66 31 -44 15 24 55 9 107 -41 35 -34 58 -49 71 -45 11 2 21 -2 24 -11 6
-14 8 -14 19 1 8 11 14 13 19 7 3 -6 20 -11 37 -11 21 0 31 -6 35 -19 3 -11
16 -22 30 -26 16 -4 23 -11 20 -20 -3 -7 1 -19 9 -25 8 -7 14 -19 14 -26 0 -8
6 -11 15 -8 11 5 13 2 9 -10 -5 -14 -3 -15 22 -6 20 8 30 8 32 1 2 -6 21 -11
42 -11 32 0 43 -6 74 -45 27 -32 45 -45 64 -45 28 0 112 -37 112 -50 0 -9 51
-7 66 3 6 3 30 -12 55 -33 24 -22 50 -39 58 -40 8 0 11 -6 7 -16 -3 -8 -2 -13
3 -10 12 8 71 -23 71 -38 0 -6 20 -33 45 -60 34 -36 50 -46 65 -41 13 4 20 2
21 -7 1 -7 2 -20 3 -28 0 -8 11 -16 24 -18 12 -2 22 -10 22 -18 0 -9 11 -14
31 -14 28 0 31 -2 25 -25 -6 -22 -3 -25 23 -25 16 0 32 6 34 13 4 7 8 3 12
-10 4 -13 14 -23 22 -23 17 0 52 -39 53 -57 0 -7 6 -13 14 -13 7 0 16 -12 19
-27 4 -17 18 -35 37 -45 20 -12 32 -28 37 -48 4 -20 14 -35 29 -40 12 -5 28
-18 34 -30 6 -11 18 -20 26 -20 8 0 12 5 9 10 -10 16 0 12 30 -14 17 -15 23
-26 16 -30 -33 -21 6 -75 56 -79 18 -1 29 -7 26 -13 -2 -6 10 -17 26 -24 32
-13 42 -40 16 -40 -42 0 -15 -73 31 -84 13 -4 24 -11 24 -18 0 -6 17 -31 38
-57 41 -51 56 -74 72 -112 6 -15 20 -29 31 -32 15 -4 18 -11 14 -29 -4 -16 -1
-29 9 -37 9 -8 16 -21 16 -31 0 -10 10 -20 24 -24 26 -6 39 -37 30 -72 -4 -16
0 -24 14 -28 32 -11 67 -53 54 -68 -7 -9 -7 -18 2 -31 7 -9 11 -27 9 -40 -3
-16 4 -31 21 -48 14 -13 26 -30 26 -37 0 -7 7 -24 16 -38 10 -14 17 -37 18
-51 1 -15 10 -31 21 -37 11 -6 22 -12 24 -13 2 -2 -2 -10 -9 -18 -20 -24 2
-65 36 -65 20 0 25 -4 20 -17 -4 -9 1 -24 11 -34 35 -35 42 -47 57 -98 8 -28
31 -78 50 -111 20 -34 36 -67 36 -75 0 -8 12 -22 26 -31 19 -13 24 -24 21 -41
-3 -16 3 -31 19 -46 13 -12 24 -28 24 -35 0 -7 11 -24 25 -38 30 -30 65 -96
65 -122 0 -26 33 -54 54 -46 15 6 22 -14 17 -53 -1 -7 6 -13 16 -13 20 -1 90
-66 81 -76 -14 -14 14 -63 40 -69 15 -3 35 -12 45 -19 15 -12 16 -17 4 -46
-21 -48 -4 -73 60 -95 38 -13 53 -23 53 -37 0 -10 9 -23 21 -30 25 -16 71 -90
88 -141 7 -20 18 -37 25 -37 26 0 49 -40 53 -92 4 -54 21 -83 54 -93 14 -5 17
-13 12 -36 -4 -20 -1 -29 7 -29 7 0 10 -8 7 -20 -3 -12 1 -24 11 -29 13 -7 14
-12 4 -24 -10 -11 -8 -17 7 -31 11 -10 17 -24 15 -31 -3 -7 4 -23 15 -34 12
-12 21 -26 21 -31 0 -22 31 -70 45 -70 11 0 14 -14 14 -59 -1 -32 4 -68 10
-80 7 -12 10 -30 6 -40 -3 -10 4 -30 17 -47 20 -25 25 -59 12 -73 -3 -3 -24
16 -48 42 -30 33 -48 46 -60 41 -10 -4 -16 -1 -16 8 0 25 -36 58 -64 58 -14 0
-26 -4 -26 -10 0 -22 -29 -8 -63 29 -33 37 -38 39 -61 28 -27 -13 -32 -22 -16
-32 10 -6 2 -35 -10 -35 -5 0 -12 10 -16 23 -8 27 -22 37 -51 37 -27 0 -31 26
-5 34 10 3 7 4 -7 3 -15 -1 -36 9 -54 26 -32 30 -49 34 -65 14 -18 -21 -73
-12 -93 15 -15 19 -21 21 -37 11 -14 -8 -22 -9 -30 -1 -8 8 -15 8 -26 -1 -10
-8 -16 -9 -21 -1 -3 5 -15 10 -26 10 -10 0 -28 5 -38 12 -15 9 -25 9 -46 0
-35 -16 -77 -15 -100 2 -11 8 -25 12 -31 9 -7 -2 -15 0 -18 6 -4 7 -15 7 -31
1 -14 -5 -32 -7 -40 -4 -23 9 -65 -5 -65 -21 0 -20 -16 -19 -24 1 -6 15 -8 15
-26 -1 -12 -11 -41 -19 -77 -22 -39 -3 -65 -10 -79 -24 -15 -14 -29 -18 -50
-14 -19 4 -43 -1 -69 -15 -21 -11 -47 -20 -57 -20 -10 0 -18 -4 -18 -9 0 -5
-12 -13 -27 -19 -100 -37 -124 -49 -128 -63 -4 -11 -13 -15 -25 -12 -10 3 -31
-2 -47 -10 -47 -25 -87 -40 -110 -41 -12 -1 -33 -12 -47 -25 -14 -14 -34 -25
-43 -26 -28 -2 -63 -16 -63 -24 0 -3 -14 -15 -31 -25 -23 -13 -27 -21 -19 -31
8 -10 4 -14 -16 -19 -14 -4 -29 -4 -32 -1 -14 14 -34 83 -33 115 1 19 -4 47
-10 62 -9 22 -9 32 1 43 10 12 10 19 2 27 -7 7 -12 21 -12 33 0 11 -6 29 -14
40 -7 11 -21 49 -30 85 -8 36 -25 91 -36 123 -11 32 -18 62 -15 67 6 10 -11
43 -37 74 -10 11 -18 36 -18 55 -1 39 -21 126 -33 137 -4 4 -7 20 -7 35 0 16
-11 40 -24 54 -14 15 -28 41 -32 58 -7 35 -11 40 -75 105 -32 32 -40 45 -31
54 15 15 -40 86 -65 84 -10 0 -19 7 -21 18 -2 10 -17 30 -33 43 -16 14 -29 30
-29 37 0 7 -16 21 -35 32 -19 10 -35 21 -35 25 0 4 -10 9 -22 12 -12 4 -20 9
-16 12 9 9 -45 65 -63 65 -27 0 -49 11 -49 25 0 21 -41 65 -61 65 -26 0 -55
31 -51 54 3 11 -3 25 -12 31 -19 14 -66 82 -66 95 0 6 -6 10 -12 10 -13 0 -68
63 -68 77 0 5 -20 29 -45 53 -25 24 -45 49 -45 55 0 19 -51 71 -56 58 -7 -15
-44 -18 -44 -4 0 6 11 22 25 37 32 34 31 36 -5 52 -16 8 -30 19 -30 26 0 6 -9
29 -20 51 -11 22 -20 46 -20 55 0 8 -31 51 -70 95 -38 44 -70 84 -70 90 0 6
-9 18 -20 28 -11 9 -20 24 -20 33 0 10 -6 13 -19 9 -21 -6 -51 31 -51 66 0 26
-39 60 -62 53 -10 -3 -18 -1 -18 5 0 6 5 11 12 11 9 0 9 3 0 12 -7 7 -12 22
-12 35 0 13 -10 29 -25 39 -14 9 -25 23 -25 30 0 8 -8 14 -19 14 -10 0 -30 18
-46 40 -15 22 -43 49 -61 61 -19 11 -34 26 -34 33 0 20 -114 136 -134 136 -15
0 -16 3 -6 15 9 11 7 21 -11 47 -30 43 -91 98 -101 92 -4 -3 -13 -2 -19 2 -8
5 -8 9 1 14 25 15 0 55 -60 99 -33 24 -60 51 -60 60 0 9 -9 22 -20 29 -11 7
-20 21 -20 31 0 11 -5 23 -11 26 -6 4 -8 13 -5 20 6 17 -18 27 -33 12 -8 -8
-11 -6 -11 9 0 12 -9 29 -20 39 -11 10 -20 23 -20 30 0 17 -28 41 -81 68 -29
16 -47 33 -54 53 -11 32 -45 68 -118 128 -27 21 -55 55 -64 76 -22 50 -69 74
-113 58 -22 -7 -35 -7 -42 0 -14 14 0 35 18 28 8 -3 14 1 14 9 0 7 -15 16 -32
20 -49 10 -78 32 -78 58 0 30 -36 63 -77 72 -33 7 -63 41 -63 74 0 11 -25 41
-60 71 -33 29 -60 58 -60 66 0 16 -27 19 -32 3 -2 -6 -15 -9 -28 -6 l-25 4 23
8 c25 8 29 20 8 28 -8 3 -16 18 -18 34 -2 23 -13 33 -54 53 -44 22 -54 32 -69
73 -14 38 -24 51 -54 63 -20 8 -44 13 -53 10 -10 -2 -18 0 -18 5 0 5 0 12 0
17 0 4 9 7 20 7 11 0 19 5 17 10 -1 6 -15 10 -31 10 -16 0 -31 6 -33 13 -3 6
-13 12 -24 12 -10 0 -19 4 -19 10 0 5 -10 9 -22 7 -19 -2 -23 3 -23 27 -1 18
-11 37 -29 52 -25 22 -29 23 -49 9 -26 -18 -56 -19 -79 -1 -20 15 -23 26 -8
26 6 0 19 9 30 20 l20 20 -42 -6 c-39 -7 -42 -6 -29 9 16 20 8 47 -14 47 -12
0 -15 6 -10 20 8 24 -16 28 -35 5 -19 -23 -49 -18 -62 10 -6 14 -20 25 -30 25
-13 0 -18 6 -16 18 4 28 -11 42 -46 42 -24 0 -35 5 -39 19 -3 11 -21 23 -51
32 -28 8 -46 19 -46 29 -1 28 -24 47 -87 71 -35 13 -61 29 -59 35 5 14 -21 74
-32 74 -6 0 -13 -7 -16 -16 -5 -12 -13 -14 -33 -9 -27 6 -50 28 -87 79 -11 15
-28 26 -42 26 -36 0 -40 21 -9 48 26 22 30 23 41 8 6 -9 28 -20 48 -23 l36 -6
0 40 c0 44 5 54 26 46 9 -3 13 -16 12 -32z m-178 7 c-1 -44 -60 -62 -60 -19 0
18 6 21 53 30 4 0 7 -5 7 -11z m695 2 c3 -5 1 -10 -4 -10 -6 0 -11 5 -11 10 0
6 2 10 4 10 3 0 8 -4 11 -10z m-1316 -31 c6 -17 20 -33 31 -36 13 -4 19 -11
15 -22 -3 -11 5 -20 25 -29 16 -8 34 -11 38 -8 5 3 17 -3 27 -14 10 -11 28
-20 39 -20 17 0 22 -6 21 -27 0 -21 4 -27 18 -25 11 2 17 -4 17 -16 0 -21 33
-56 43 -45 4 3 7 17 7 30 0 12 4 23 9 23 16 0 22 -18 10 -26 -9 -5 -7 -11 6
-21 29 -20 45 -16 46 15 2 23 2 24 6 5 3 -14 12 -23 22 -23 12 0 20 -10 24
-29 4 -21 13 -30 29 -33 16 -2 22 -9 20 -21 -2 -12 4 -21 17 -24 12 -3 21 -10
21 -15 0 -6 -7 -8 -15 -4 -8 3 -15 1 -15 -3 0 -14 22 -19 52 -10 31 8 46 -12
22 -31 -21 -19 -17 -39 12 -52 22 -10 27 -9 35 4 8 14 14 14 39 5 25 -10 33
-9 40 3 8 12 10 9 10 -12 0 -18 7 -29 20 -33 22 -7 50 9 50 29 0 18 35 35 51
25 11 -7 11 -9 -3 -9 -9 0 -23 -13 -31 -29 -16 -32 -12 -47 8 -31 10 8 16 3
23 -19 7 -20 20 -33 37 -37 33 -8 46 4 22 20 -15 12 -25 46 -12 46 17 0 41
-39 35 -56 -10 -26 6 -54 31 -54 11 0 39 -19 62 -43 23 -24 50 -46 59 -50 10
-3 15 -12 12 -20 -7 -20 23 -47 52 -47 14 0 24 -6 24 -15 0 -16 64 -50 79 -41
5 4 11 -4 13 -16 2 -17 9 -22 26 -21 13 2 33 -2 45 -8 l21 -12 -22 -8 c-26
-10 -29 -27 -4 -36 9 -4 31 -16 47 -29 17 -12 40 -25 53 -29 17 -5 22 -13 20
-32 -2 -21 2 -26 19 -28 23 -2 92 -70 93 -92 0 -6 10 -13 23 -15 16 -2 23 -11
27 -34 3 -19 19 -43 43 -63 20 -18 37 -41 37 -51 0 -10 7 -20 15 -24 8 -3 15
-11 15 -18 1 -13 34 -58 43 -58 3 0 7 10 10 22 6 22 7 22 39 -9 18 -17 43 -36
56 -42 12 -7 22 -21 22 -32 0 -17 6 -19 43 -17 l42 3 -3 -48 c-4 -47 -3 -49
18 -42 19 6 21 4 15 -14 -5 -18 -2 -21 20 -21 20 0 27 -6 32 -30 4 -24 10 -29
24 -25 16 5 19 1 19 -24 0 -32 30 -61 62 -61 10 0 18 -3 18 -7 0 -13 49 -32
56 -22 9 15 27 10 21 -5 -4 -10 7 -23 29 -36 18 -12 34 -27 34 -34 0 -6 7 -22
16 -35 15 -21 18 -21 26 -7 11 19 44 21 51 4 7 -21 20 0 19 32 0 23 4 30 19
30 10 0 19 -7 19 -15 0 -8 -4 -15 -10 -15 -5 0 -10 -9 -10 -20 0 -11 5 -20 11
-20 6 0 8 -8 4 -19 -3 -11 -1 -30 6 -43 26 -49 29 -58 23 -71 -3 -8 2 -20 11
-27 10 -8 15 -9 15 -1 0 6 5 11 10 11 6 0 10 -13 10 -30 0 -16 4 -30 8 -30 5
0 24 -13 42 -30 18 -16 40 -30 47 -30 9 0 13 -14 13 -43 0 -48 25 -82 52 -72
26 10 42 -21 31 -60 -12 -39 6 -78 32 -68 9 3 22 0 29 -6 8 -7 20 -11 28 -10
29 4 39 -1 31 -16 -5 -8 -7 -33 -5 -55 4 -38 6 -40 39 -40 34 0 35 -1 30 -30
-4 -16 -2 -32 3 -35 6 -3 10 -15 10 -25 0 -11 7 -25 16 -32 8 -7 27 -25 41
-41 19 -19 32 -25 46 -21 22 7 37 -10 37 -43 0 -14 13 -29 35 -43 36 -22 55
-20 55 6 0 11 6 14 23 9 34 -11 41 -22 18 -30 -12 -3 -21 -13 -21 -22 0 -10 6
-13 16 -9 26 10 44 -12 37 -44 -4 -23 2 -38 32 -74 20 -25 45 -48 56 -51 15
-5 17 -10 9 -25 -15 -28 -12 -40 10 -40 11 0 20 5 20 10 0 6 5 10 10 10 6 0 5
-8 -2 -19 -9 -15 -9 -25 0 -46 12 -26 16 -29 65 -39 33 -8 45 -31 29 -57 -16
-25 -15 -32 2 -26 10 4 13 1 9 -9 -4 -10 2 -17 15 -21 11 -2 22 -13 25 -24 4
-14 14 -19 39 -19 45 0 49 -6 30 -39 -15 -27 -15 -30 22 -79 21 -29 35 -56 31
-62 -6 -10 25 -75 57 -119 10 -13 18 -34 18 -46 0 -14 9 -26 25 -33 14 -7 30
-23 35 -36 5 -14 19 -26 32 -28 15 -2 24 -11 26 -26 2 -12 8 -20 13 -17 5 4
14 3 21 -1 8 -5 6 -11 -6 -19 -23 -17 -10 -45 23 -46 27 0 75 -17 54 -18 -25
-2 -13 -40 17 -56 17 -9 30 -22 30 -29 0 -8 12 -17 26 -20 16 -4 29 -17 35
-36 14 -38 52 -62 84 -54 22 6 25 3 25 -23 0 -39 27 -75 53 -71 26 3 77 -44
77 -72 0 -10 8 -26 18 -36 9 -10 17 -22 17 -28 1 -23 26 -55 47 -61 33 -11 94
-77 107 -117 7 -20 18 -39 26 -42 8 -3 15 -12 15 -20 0 -7 7 -16 14 -19 8 -3
18 -23 22 -44 8 -45 30 -99 43 -107 4 -3 9 -26 9 -51 1 -25 8 -60 15 -78 8
-17 20 -59 27 -92 8 -33 23 -87 36 -120 29 -79 47 -163 42 -200 -3 -27 -7 -30
-40 -31 -27 -1 -35 2 -31 12 3 8 -1 14 -10 14 -8 0 -20 7 -27 15 -14 17 -56
20 -65 5 -4 -6 -10 -8 -15 -5 -6 4 -4 14 3 25 22 37 -36 81 -66 51 -17 -17
-50 -14 -43 4 3 9 0 15 -8 15 -7 0 -21 9 -31 20 -12 13 -31 20 -57 20 -25 0
-38 5 -38 13 0 7 -12 28 -26 45 -24 28 -33 32 -78 32 -47 0 -53 3 -74 34 -25
36 -64 51 -94 35 -14 -7 -18 -6 -18 6 0 31 -32 65 -71 75 -22 6 -44 8 -49 5
-5 -3 -11 -1 -14 4 -3 5 -15 7 -27 4 -25 -7 -96 26 -102 47 -7 25 -90 44 -214
49 -14 1 -24 11 -32 32 -9 27 -13 30 -26 19 -9 -8 -15 -8 -15 -2 0 9 -37 30
-121 70 -4 1 -9 -7 -12 -19 -5 -17 -9 -20 -20 -11 -7 6 -23 9 -35 5 -13 -3
-22 -1 -22 6 0 6 4 11 10 11 6 0 6 9 1 23 -7 19 -16 22 -69 23 -39 1 -63 -3
-66 -11 -3 -9 -18 -9 -60 -2 -43 8 -62 7 -80 -3 -22 -11 -27 -10 -51 14 -31
31 -29 31 -73 4 -33 -20 -35 -21 -48 -3 -10 13 -21 16 -46 11 -18 -4 -56 -8
-83 -9 -28 -2 -57 -7 -65 -12 -8 -5 -30 -11 -49 -12 -19 -1 -47 -7 -61 -13
-14 -6 -44 -13 -66 -15 -21 -2 -51 -6 -65 -10 -17 -5 -31 -2 -42 9 -21 22 -26
20 -19 -6 5 -20 3 -21 -53 -15 -38 4 -62 11 -67 21 -14 25 -40 19 -82 -20 -21
-19 -42 -31 -45 -26 -9 16 -78 26 -85 13 -4 -6 -18 -11 -32 -11 -14 0 -34 -5
-45 -10 -20 -11 -27 -40 -9 -40 6 0 10 7 10 15 0 16 25 21 35 6 8 -14 -10 -22
-60 -27 -29 -4 -45 -1 -45 6 0 11 -51 3 -60 -11 -3 -4 -18 -11 -33 -14 -33 -9
-44 -23 -23 -31 24 -9 19 -26 -6 -22 -14 2 -22 9 -21 18 1 8 -9 23 -23 34 -21
15 -30 16 -47 7 -12 -7 -35 -11 -52 -10 -16 2 -46 -4 -65 -13 -19 -8 -48 -19
-65 -24 -16 -5 -34 -18 -40 -29 -6 -13 -18 -19 -33 -17 -13 2 -34 -4 -47 -12
-13 -9 -31 -16 -39 -16 -7 0 -16 -7 -20 -15 -3 -8 -14 -15 -25 -15 -11 0 -32
-11 -47 -25 -15 -14 -30 -25 -34 -25 -16 0 -19 -32 -5 -46 8 -9 15 -20 15 -25
0 -14 -30 -11 -36 5 -4 11 -16 8 -57 -14 -29 -15 -52 -34 -52 -41 -1 -8 -6
-23 -12 -35 -9 -16 -19 -20 -43 -16 -27 4 -38 -2 -76 -39 -24 -24 -44 -48 -44
-54 0 -5 -15 -17 -33 -26 -17 -9 -41 -32 -53 -52 -33 -59 -77 -107 -99 -107
-23 0 -84 35 -101 58 -6 8 -16 12 -21 9 -6 -4 -14 0 -17 9 -3 9 -13 14 -21 10
-18 -7 -29 10 -13 20 9 6 5 10 -12 14 -14 3 -26 14 -28 25 -5 23 -31 55 -45
55 -6 0 -19 8 -29 17 -17 15 -21 15 -29 3 -8 -13 -11 -12 -20 3 -8 14 -14 15
-24 7 -10 -8 -15 -6 -20 9 -3 12 -10 21 -15 21 -4 0 -10 10 -13 22 -5 18 -9
19 -21 9 -9 -7 -24 -10 -37 -6 -13 4 -24 2 -29 -4 -4 -8 -21 9 -45 43 -38 55
-60 67 -82 45 -8 -8 -25 -4 -61 16 -47 26 -54 27 -99 16 -35 -9 -57 -9 -76 -2
-33 13 -35 27 -5 34 18 5 19 8 8 22 -9 11 -22 15 -39 10 -68 -17 -118 -22
-138 -14 -15 5 -25 3 -33 -6 -9 -11 -16 -12 -30 -2 -15 9 -23 8 -38 -6 -23
-21 -43 -22 -36 -3 7 19 -10 28 -41 20 -29 -7 -31 -16 -9 -39 33 -32 8 -29
-56 7 -34 19 -66 31 -75 29 -33 -8 -149 -9 -177 -1 -22 7 -52 6 -91 -1 -58
-12 -76 -22 -57 -34 5 -3 10 -11 10 -16 0 -5 -13 0 -28 11 -36 27 -125 23
-147 -6 -8 -11 -14 -14 -15 -6 0 16 -91 17 -107 1 -9 -9 -20 -9 -44 1 -29 12
-33 12 -49 -11 -10 -13 -22 -20 -26 -16 -4 4 -12 2 -19 -3 -7 -6 -23 -6 -44 0
-35 10 -56 5 -83 -17 -12 -11 -24 -12 -50 -5 -25 7 -39 6 -52 -3 -12 -9 -40
-12 -84 -10 -56 3 -72 1 -99 -18 -18 -12 -33 -25 -33 -29 0 -5 -9 -8 -19 -8
-11 0 -23 -5 -26 -10 -4 -7 -12 -7 -25 0 -27 14 -62 12 -105 -6 -21 -8 -48
-13 -61 -10 -12 3 -25 2 -28 -3 -3 -5 -25 -4 -52 1 -31 7 -49 7 -56 0 -6 -6
-26 -8 -45 -5 -37 6 -83 -12 -83 -33 0 -13 -22 -24 -49 -24 -22 0 -71 -23 -71
-33 0 -5 -10 -1 -22 7 -22 16 -61 13 -85 -6 -7 -6 -33 -8 -58 -6 -29 2 -45 -1
-45 -8 0 -7 -12 -15 -26 -18 -21 -6 -24 -9 -13 -22 15 -19 4 -31 -15 -15 -8 7
-23 11 -33 9 -10 -1 -24 1 -31 6 -9 5 -23 -1 -41 -18 -15 -15 -39 -26 -53 -26
-15 0 -30 -5 -34 -11 -4 -6 -19 -9 -36 -5 -33 7 -48 -15 -30 -44 14 -23 6 -30
-35 -30 -18 0 -33 -4 -33 -10 0 -5 7 -10 15 -10 8 0 15 -4 15 -10 0 -27 -40
-1 -53 34 -6 15 -10 17 -19 8 -7 -7 -26 -12 -43 -12 -32 0 -56 -19 -68 -53 -4
-10 -11 -16 -17 -12 -15 9 -89 -14 -123 -38 -16 -12 -36 -35 -43 -52 -7 -16
-13 -25 -14 -18 0 17 -79 4 -118 -19 -18 -11 -37 -28 -42 -38 -5 -10 -25 -21
-44 -24 -19 -4 -37 -13 -40 -21 -3 -8 -15 -15 -27 -15 -14 0 -19 -5 -16 -15 5
-10 -4 -16 -29 -21 -19 -3 -39 -14 -44 -24 -6 -10 -19 -21 -29 -25 -11 -3 -24
-18 -31 -33 -25 -61 -35 -72 -60 -72 -14 0 -35 -7 -47 -15 -20 -14 -23 -13
-39 14 -10 16 -26 32 -36 34 -21 6 -24 52 -6 92 9 21 9 29 -5 42 -14 14 -14
19 -1 45 8 15 19 28 23 28 5 0 12 30 15 68 2 37 8 87 11 112 6 41 5 43 -8 26
-9 -12 -16 -15 -21 -8 -3 6 4 22 16 35 70 77 80 93 90 152 6 33 17 67 24 76 8
8 14 25 14 36 0 25 27 81 52 110 11 11 22 41 25 65 3 23 11 48 18 53 20 17 28
55 14 72 -11 12 -11 17 2 27 27 19 70 94 58 102 -6 3 2 14 20 25 17 10 31 24
32 31 4 86 25 141 49 133 13 -4 22 5 36 37 10 24 17 52 16 64 -2 16 3 20 20
20 19 -1 24 6 29 34 4 19 7 31 8 26 0 -6 10 0 21 12 12 12 25 22 30 22 16 0
12 32 -6 52 -16 16 -16 18 0 24 9 3 16 15 16 25 0 12 7 19 19 19 29 0 52 11
45 22 -3 5 4 19 16 30 11 11 25 31 30 44 5 13 15 24 22 24 12 0 51 68 77 134
10 24 9 30 -5 41 -13 9 -14 14 -4 20 10 6 8 11 -8 19 -20 11 -20 11 4 39 l24
28 7 -31 c5 -26 8 -29 15 -16 5 9 16 16 23 16 8 0 15 7 15 15 0 8 11 17 25 21
13 3 27 15 30 25 4 10 9 19 13 19 4 0 18 18 32 40 14 22 28 40 33 40 5 0 7 12
6 28 -2 15 2 37 9 49 7 12 9 29 5 39 -5 15 -2 16 25 11 28 -6 33 -2 61 40 17
26 31 54 31 62 0 9 8 38 19 66 14 36 16 54 8 66 -11 18 -3 49 13 49 5 0 10 -6
10 -14 0 -30 21 -26 35 6 12 29 12 34 -2 45 -13 10 -11 13 13 18 16 4 34 8 41
10 7 2 21 24 32 49 12 25 26 48 32 51 6 4 8 13 5 21 -3 7 3 18 13 24 11 5 24
24 30 42 7 18 23 43 38 55 31 27 46 119 22 134 -11 7 -10 9 4 9 9 0 17 -5 17
-11 0 -6 6 -9 12 -7 7 3 13 11 13 19 1 24 16 59 26 59 5 0 23 15 39 33 29 31
32 49 15 90 -5 12 -3 17 9 17 22 0 56 31 56 52 0 12 8 18 23 18 17 0 34 15 60
53 21 30 37 61 37 70 0 9 4 18 9 21 4 3 11 19 14 36 5 22 12 30 27 30 15 0 27
12 41 45 11 25 24 45 29 45 17 0 11 39 -7 49 -16 9 -16 12 -3 21 8 5 20 8 25
7 6 -2 18 4 27 14 14 15 15 19 2 30 -22 18 -17 32 10 25 20 -5 25 -2 28 16 2
13 17 32 35 43 18 11 36 32 42 48 6 16 17 27 28 27 36 0 107 95 133 178 7 23
17 42 22 42 4 0 8 11 8 25 0 17 6 25 18 25 9 0 39 16 65 36 35 26 48 41 44 54
-3 13 2 20 17 24 11 3 28 20 36 38 10 22 26 37 49 44 23 7 38 21 47 42 7 18
20 32 29 32 8 0 20 10 25 23 6 12 24 40 40 62 16 22 29 47 30 56 0 9 7 22 15
29 18 15 20 61 3 78 -9 9 -8 12 4 12 9 0 19 -6 21 -12 4 -9 16 0 36 22 17 19
31 39 31 43 0 4 16 22 35 39 29 25 35 37 33 63 -1 18 4 41 12 50 12 14 12 18
-1 26 -25 16 2 9 31 -8 28 -16 29 -16 54 13 14 16 31 41 38 57 7 15 16 27 20
27 5 0 8 7 8 15 0 8 9 19 20 25 11 6 20 15 20 21 0 5 16 23 35 40 19 17 43 44
52 59 9 16 27 31 39 34 20 5 22 10 14 30 -7 20 -6 23 9 19 11 -3 36 13 67 41
27 26 59 49 72 52 12 4 22 10 22 15 0 5 11 9 25 9 22 0 25 4 25 34 0 37 15 55
32 38 13 -13 96 27 103 50 3 9 22 29 42 44 33 25 34 28 19 40 -15 11 -10 16
47 43 36 17 69 31 75 31 13 0 23 80 11 102 -7 13 -4 20 12 28 12 7 30 10 40 7
10 -3 22 -1 25 4 3 5 15 9 27 9 16 0 18 3 9 12 -17 17 -15 28 7 28 11 0 23 5
26 10 5 8 11 7 21 -1 7 -6 21 -9 29 -5 18 7 20 42 3 50 -7 3 2 3 20 0 26 -5
38 -1 53 15 15 16 32 21 73 21 51 0 55 -2 65 -31z m535 16 c11 -8 18 -16 15
-19 -26 -23 -94 -37 -71 -14 7 7 8 17 1 30 -8 15 -6 18 13 18 13 0 32 -7 42
-15z m-1308 -27 c-10 -6 -20 -7 -24 -3 -9 8 20 25 31 18 5 -3 2 -10 -7 -15z
m2304 -3 c0 -8 -4 -15 -10 -15 -5 0 -10 7 -10 15 0 8 5 15 10 15 6 0 10 -7 10
-15z m-2339 -12 c16 -16 3 -62 -19 -70 -21 -7 -72 -54 -72 -66 0 -15 -59 -68
-72 -66 -22 5 -58 -12 -58 -26 0 -9 -6 -12 -15 -9 -9 4 -15 0 -15 -9 0 -18
-21 -27 -61 -27 -22 0 -34 -8 -53 -37 -13 -21 -51 -63 -85 -95 -33 -31 -61
-60 -61 -66 0 -5 -14 -12 -30 -16 -22 -4 -38 -19 -60 -53 -17 -27 -54 -74 -82
-106 -29 -33 -53 -68 -53 -80 -2 -22 -39 -57 -60 -57 -7 0 -22 -15 -34 -32
-11 -18 -25 -40 -30 -48 -15 -24 -25 -53 -25 -80 -1 -18 -13 -33 -48 -55 -26
-16 -48 -38 -48 -47 0 -9 -10 -27 -23 -40 -13 -13 -36 -42 -52 -66 -15 -24
-34 -46 -40 -50 -7 -4 -20 -21 -28 -38 -9 -18 -32 -47 -52 -65 -19 -18 -35
-39 -35 -45 0 -7 -8 -10 -19 -7 -19 5 -61 -38 -61 -62 0 -7 -11 -20 -25 -29
-14 -9 -33 -34 -42 -56 -10 -21 -25 -41 -35 -43 -9 -3 -20 -18 -23 -33 -3 -16
-10 -37 -15 -46 -6 -10 -7 -25 -3 -34 5 -13 2 -16 -9 -12 -10 4 -28 -6 -49
-28 -18 -19 -39 -34 -46 -34 -7 0 -13 -8 -13 -18 0 -10 -14 -31 -30 -47 -17
-16 -28 -35 -26 -42 3 -6 -4 -15 -15 -18 -10 -4 -19 -15 -19 -25 0 -10 -4 -21
-8 -24 -4 -2 -7 -32 -6 -65 2 -47 -1 -61 -14 -67 -10 -4 -20 -6 -24 -6 -5 1
-8 -4 -8 -12 0 -8 -15 -17 -35 -20 -21 -4 -35 -13 -35 -22 0 -8 -11 -19 -25
-24 -14 -5 -25 -16 -25 -24 0 -7 -7 -16 -15 -20 -8 -3 -15 -17 -15 -30 0 -34
-20 -74 -39 -81 -33 -11 -82 -67 -100 -113 -10 -26 -28 -52 -41 -59 -22 -11
-59 -74 -60 -101 0 -7 -13 -20 -30 -30 -23 -14 -27 -21 -18 -30 9 -9 9 -15 0
-24 -7 -7 -12 -25 -12 -40 0 -15 -4 -28 -9 -28 -14 0 -62 -50 -57 -59 3 -5 -1
-14 -9 -21 -8 -7 -15 -23 -15 -36 0 -16 -6 -24 -17 -24 -21 -1 -73 -65 -73
-90 0 -9 -9 -25 -20 -35 -11 -10 -20 -22 -20 -27 0 -4 -16 -31 -35 -58 -19
-27 -35 -56 -35 -63 0 -7 -5 -18 -11 -24 -6 -6 -12 -30 -13 -54 -2 -35 -7 -46
-24 -54 -12 -5 -22 -15 -22 -21 0 -6 -9 -19 -20 -29 -11 -10 -20 -22 -20 -27
0 -5 -12 -27 -26 -49 -14 -23 -23 -47 -20 -55 3 -9 -1 -14 -12 -14 -19 0 -67
-55 -82 -95 -5 -14 -14 -25 -20 -25 -5 0 -10 -13 -10 -28 0 -16 -9 -37 -20
-47 -15 -14 -17 -21 -9 -31 9 -11 5 -16 -15 -24 -14 -5 -26 -16 -26 -25 0 -9
-20 -28 -45 -43 -33 -20 -43 -31 -39 -45 3 -11 -6 -32 -25 -56 -17 -21 -31
-43 -31 -48 0 -5 -11 -20 -25 -33 -18 -17 -22 -27 -14 -36 8 -9 3 -17 -18 -31
-36 -23 -44 -34 -39 -55 2 -10 -3 -23 -11 -30 -17 -14 -76 -103 -86 -130 -3
-10 -13 -18 -22 -18 -9 0 -15 -9 -15 -25 0 -14 -4 -25 -8 -25 -4 0 -14 -17
-21 -37 -7 -21 -21 -47 -31 -58 -9 -11 -27 -36 -39 -57 -12 -20 -28 -39 -37
-42 -12 -4 -14 -14 -9 -36 5 -23 3 -30 -9 -30 -9 0 -16 -8 -16 -20 0 -26 -17
-55 -58 -103 -21 -24 -32 -47 -30 -61 1 -12 -5 -35 -15 -50 -12 -18 -16 -37
-12 -54 4 -20 -1 -34 -20 -54 -27 -29 -33 -58 -12 -58 6 0 4 -5 -6 -11 -12 -7
-16 -17 -12 -30 4 -11 2 -19 -4 -19 -6 0 -11 -12 -11 -26 0 -14 -12 -40 -26
-57 -22 -26 -25 -36 -19 -75 5 -33 3 -47 -9 -55 -12 -10 -22 -50 -16 -67 9
-26 5 -70 -6 -74 -20 -8 -17 -27 3 -24 21 4 31 -31 12 -43 -10 -6 -10 -10 0
-23 12 -14 10 -16 -12 -16 -31 0 -48 -40 -36 -84 5 -16 5 -49 2 -73 -6 -42 -7
-44 -37 -41 -23 2 -30 7 -28 21 2 10 -3 17 -12 17 -8 0 -53 20 -100 45 -48 25
-92 45 -100 45 -7 0 -23 11 -36 25 -13 14 -34 25 -47 25 -13 0 -23 5 -23 10 0
6 5 10 11 10 5 0 7 5 4 10 -5 8 -11 7 -21 -1 -11 -9 -14 -8 -14 4 0 18 -29 37
-55 37 -9 0 -41 11 -71 25 -30 14 -63 25 -74 25 -10 0 -22 5 -25 10 -3 6 -25
10 -48 10 -54 0 -114 17 -120 34 -3 7 -18 16 -34 19 -16 3 -44 20 -62 36 -37
35 -59 39 -68 15 -6 -15 -7 -15 -19 0 -10 14 -16 15 -34 6 -22 -12 -76 -5 -97
12 -11 9 -95 -2 -135 -17 -11 -4 -18 0 -23 15 -6 19 -8 20 -23 6 -23 -20 -60
-2 -41 20 9 11 6 14 -17 16 -86 5 -168 -12 -178 -38 -9 -22 -89 -18 -111 6
-16 18 -20 18 -47 4 -16 -9 -36 -13 -43 -10 -8 3 -19 -2 -25 -10 -8 -9 -31
-14 -61 -14 -27 0 -49 -4 -49 -10 0 -5 -7 -10 -15 -10 -8 0 -15 9 -15 20 0 11
-7 20 -15 20 -8 0 -15 -4 -15 -10 0 -5 5 -10 10 -10 6 0 10 -4 10 -10 0 -5
-16 -10 -36 -10 -33 0 -35 2 -23 17 13 15 12 16 -8 11 -13 -4 -23 -3 -23 2 0
17 -55 20 -163 9 -91 -10 -115 -15 -128 -32 -13 -15 -23 -19 -47 -14 -17 4
-34 2 -37 -3 -8 -12 -42 -13 -47 -1 -1 4 -13 12 -26 15 -15 5 -24 3 -28 -8 -3
-9 -16 -16 -29 -16 -12 0 -30 -9 -40 -20 -16 -18 -19 -18 -42 -2 -25 15 -26
15 -47 -11 -12 -15 -29 -27 -37 -27 -9 0 -33 -11 -53 -25 -20 -14 -39 -25 -42
-25 -3 0 -18 -9 -33 -21 -27 -20 -30 -20 -53 -5 -23 15 -26 15 -46 -4 -12 -12
-22 -16 -22 -10 0 13 -27 13 -32 -1 -2 -6 -19 -12 -38 -13 -53 -5 -53 -5 -39
-22 12 -15 11 -16 -7 -10 -33 10 -151 -37 -185 -74 -26 -28 -34 -31 -65 -26
-31 6 -36 4 -52 -23 -9 -17 -22 -31 -27 -31 -6 0 -32 -16 -59 -35 -27 -19 -62
-35 -76 -35 -15 0 -39 -11 -54 -25 -15 -14 -29 -25 -32 -25 -11 0 -2 49 16 78
11 17 20 42 20 55 2 109 6 132 22 129 10 -1 22 12 34 40 9 24 18 48 19 53 0 6
7 23 15 38 17 34 4 47 -47 47 -18 0 -33 5 -33 10 0 6 18 10 39 10 22 0 43 5
46 10 3 6 18 7 33 4 18 -4 23 -2 14 3 -16 12 -5 43 20 61 10 7 18 21 18 31 0
10 7 24 15 31 8 7 15 18 15 24 1 15 46 66 60 66 5 0 10 6 10 14 0 7 7 19 15
26 8 7 15 21 15 31 0 10 16 39 35 65 19 25 35 53 35 62 0 9 7 25 15 36 10 13
11 25 5 42 -9 22 -6 26 25 41 19 9 35 23 35 30 0 8 11 34 25 59 14 25 25 51
25 59 0 8 5 15 10 15 6 0 10 13 10 30 0 19 7 33 20 40 11 6 20 19 20 28 0 10
11 33 25 52 14 19 23 41 20 49 -3 9 -3 12 1 8 11 -11 43 23 38 38 -3 7 12 31
33 52 38 38 69 108 52 118 -4 3 -6 12 -3 20 4 8 10 12 16 9 15 -10 46 25 41
46 -4 14 2 23 21 31 19 9 25 17 20 31 -3 10 0 18 6 18 6 0 13 8 17 18 3 9 15
27 26 39 19 21 19 24 4 47 -20 30 -8 42 35 37 20 -2 28 2 28 13 0 8 9 20 20
26 27 15 25 46 -5 66 -14 9 -25 22 -25 29 0 16 27 27 36 14 4 -6 11 -6 20 2 7
6 11 15 8 20 -3 5 2 6 10 3 10 -4 33 13 68 51 29 32 55 63 58 70 3 6 31 41 63
77 32 36 66 79 75 96 25 44 79 102 96 102 7 0 17 12 20 26 4 14 20 37 36 51
17 14 30 31 30 39 0 8 7 17 16 21 22 8 64 51 64 66 0 7 36 44 80 82 44 39 80
73 80 77 0 12 54 58 67 58 6 0 14 9 18 20 3 10 20 31 38 45 70 56 97 81 97 92
0 6 9 14 20 18 11 3 50 44 86 91 37 46 72 84 77 84 5 0 6 15 2 36 -5 32 -4 36
10 30 12 -4 19 0 22 15 3 11 16 25 29 30 13 4 24 15 24 24 0 8 12 18 28 21 39
10 53 24 46 46 -4 15 -1 19 13 16 11 -2 22 6 28 20 6 14 19 22 35 23 14 1 36
4 50 8 l25 7 -28 26 c-17 16 -24 29 -17 33 13 8 30 -3 30 -21 0 -19 16 -18 24
1 3 8 12 15 21 15 18 0 29 8 93 69 26 24 58 51 71 59 21 14 22 17 6 28 -21 15
-4 27 28 19 16 -4 30 0 42 12 10 10 30 25 45 33 58 32 110 71 120 90 6 11 19
20 29 20 21 0 47 27 53 55 2 12 10 19 20 17 17 -3 78 49 78 68 0 6 4 8 10 5
19 -12 120 52 120 76 0 8 32 29 70 48 39 18 71 37 71 42 1 5 2 15 3 22 0 6 14
12 30 13 16 1 33 8 38 18 5 9 22 16 41 17 18 0 50 13 73 27 22 15 57 38 77 50
20 13 37 28 37 33 0 5 8 9 18 9 11 0 27 9 37 20 10 11 22 17 26 14 13 -8 98
68 99 88 0 15 4 16 25 6 23 -10 29 -8 63 23 69 64 83 73 125 78 23 3 40 8 38
11 -6 7 19 53 26 47 11 -12 63 16 63 34 0 10 6 19 14 19 7 0 19 7 26 15 8 9
21 13 35 9 17 -4 26 0 35 16 6 12 17 19 25 16 15 -5 28 41 14 50 -14 9 -10 24
6 24 9 0 18 -6 21 -13 2 -7 20 -13 39 -13 26 0 35 5 37 20 3 22 44 30 65 14
16 -13 43 -3 43 16 0 10 16 17 54 21 49 6 56 10 65 36 5 16 16 29 24 29 22 0
51 36 36 45 -8 6 -5 13 12 26 42 32 63 21 37 -21 -25 -40 15 -32 69 14 12 10
36 20 53 22 17 2 46 15 64 29 18 14 43 25 55 25 36 0 81 28 81 51 0 16 3 18
19 9 12 -6 22 -6 25 -1 3 5 14 7 25 4 11 -3 38 8 62 24 24 15 53 30 64 33 13
4 21 16 23 33 2 19 9 27 23 27 10 0 19 -4 19 -9 0 -12 39 -21 46 -10 3 5 13 9
23 9 10 0 26 9 35 19 9 10 25 17 35 14 19 -5 73 45 94 87 15 30 33 36 39 13 4
-14 14 -18 47 -17 46 2 73 18 64 40 -3 9 1 14 12 14 13 0 15 -6 10 -29 -3 -17
-2 -32 4 -36 6 -3 11 -1 11 5 0 5 16 18 35 27 30 14 38 15 59 3 21 -11 29 -11
50 4 14 9 39 16 56 16 33 0 51 13 63 43 6 16 14 17 54 11 27 -3 56 -11 66 -16
14 -7 24 -4 42 16 13 14 31 26 40 26 8 0 15 7 15 15 0 20 19 19 41 -1 22 -20
39 -11 40 24 1 17 3 21 6 10 6 -22 6 -22 45 2 18 11 48 20 66 20 17 0 32 5 32
10 0 6 9 10 19 10 11 0 23 5 26 10 10 16 35 12 35 -5 0 -24 29 -29 50 -10 11
10 23 15 27 12 3 -4 26 9 50 29 32 26 47 33 56 26 8 -7 18 -7 27 -2 8 6 23 10
33 10 11 0 31 9 46 19 14 10 45 24 69 30 24 7 46 19 49 27 5 12 7 12 18 -2 11
-16 14 -16 31 4 12 14 25 20 40 16 12 -3 24 -2 27 3 8 13 125 9 138 -4z m126
1 c-3 -3 -12 -4 -19 -1 -8 3 -5 6 6 6 11 1 17 -2 13 -5z m2456 -1 c-7 -2 -19
-2 -25 0 -7 3 -2 5 12 5 14 0 19 -2 13 -5z m-4033 -39 c0 -16 -9 -18 -29 -5
-7 5 -11 14 -7 19 9 15 36 4 36 -14z m-130 1 c0 -2 -10 -10 -22 -16 -21 -11
-22 -11 -9 4 13 16 31 23 31 12z m240 -5 c0 -5 -4 -10 -10 -10 -5 0 -10 5 -10
10 0 6 5 10 10 10 6 0 10 -4 10 -10z m485 -130 c3 -5 1 -10 -4 -10 -6 0 -11 5
-11 10 0 6 2 10 4 10 3 0 8 -4 11 -10z m4018 0 c38 0 26 -16 -19 -24 -22 -5
-41 -3 -50 5 -19 16 -7 32 20 25 11 -3 34 -6 49 -6z m-4613 -90 c0 -5 -2 -10
-4 -10 -3 0 -8 5 -11 10 -3 6 -1 10 4 10 6 0 11 -4 11 -10z m3135 0 c3 -5 -1
-10 -9 -10 -9 0 -16 5 -16 10 0 6 4 10 9 10 6 0 13 -4 16 -10z m-180 -60 c3
-5 -1 -10 -10 -10 -9 0 -13 5 -10 10 3 6 8 10 10 10 2 0 7 -4 10 -10z m-3701
-15 c4 -10 -1 -15 -14 -15 -20 0 -26 11 -13 23 10 11 20 8 27 -8z m2096 -230
c0 -8 -7 -15 -15 -15 -8 0 -15 -5 -15 -12 0 -6 -3 -9 -6 -6 -8 8 14 48 26 48
6 0 10 -7 10 -15z m-143 -71 c-3 -3 -12 -4 -19 -1 -8 3 -5 6 6 6 11 1 17 -2
13 -5z m2563 -2 c0 -14 -11 -21 -26 -15 -21 8 -17 23 6 23 11 0 20 -4 20 -8z
m-5020 -36 c0 -3 -4 -8 -10 -11 -5 -3 -10 -1 -10 4 0 6 5 11 10 11 6 0 10 -2
10 -4z m7637 -21 c-7 -16 -37 -21 -37 -5 0 10 32 31 39 25 2 -2 1 -11 -2 -20z
m-7312 -5 c3 -5 1 -10 -4 -10 -6 0 -11 5 -11 10 0 6 2 10 4 10 3 0 8 -4 11
-10z m4535 -110 c0 -5 -7 -10 -16 -10 -8 0 -12 5 -9 10 3 6 10 10 16 10 5 0 9
-4 9 -10z m2647 -156 c-3 -3 -12 -4 -19 -1 -8 3 -5 6 6 6 11 1 17 -2 13 -5z
m73 -24 c0 -5 -2 -10 -4 -10 -3 0 -8 5 -11 10 -3 6 -1 10 4 10 6 0 11 -4 11
-10z m-8090 -130 c0 -5 -4 -10 -10 -10 -5 0 -10 5 -10 10 0 6 5 10 10 10 6 0
10 -4 10 -10z m5950 6 c0 -3 -4 -8 -10 -11 -5 -3 -10 -1 -10 4 0 6 5 11 10 11
6 0 10 -2 10 -4z m-3840 -182 c0 -8 -5 -12 -10 -9 -6 4 -8 11 -5 16 9 14 15
11 15 -7z m3890 -209 c0 -19 -9 -19 -34 0 -19 14 -19 15 7 15 17 0 27 -5 27
-15z m-6680 -34 c0 -5 -9 -11 -20 -14 -20 -5 -26 3 -13 16 9 10 33 8 33 -2z
m2401 -234 c-13 -13 -26 -3 -16 12 3 6 11 8 17 5 6 -4 6 -10 -1 -17z m39 19
c0 -3 -4 -8 -10 -11 -5 -3 -10 -1 -10 4 0 6 5 11 10 11 6 0 10 -2 10 -4z
m-2800 -66 c0 -5 -5 -10 -11 -10 -5 0 -7 5 -4 10 3 6 8 10 11 10 2 0 4 -4 4
-10z m7879 -124 c9 -10 9 -16 1 -21 -17 -11 -40 3 -34 20 8 19 18 19 33 1z
m2724 -21 c4 -8 2 -17 -3 -20 -6 -4 -10 3 -10 14 0 25 6 27 13 6z m-11283 -10
c0 -3 -9 -15 -20 -27 -21 -23 -28 -7 -7 17 12 14 27 20 27 10z m8270 -69 c0
-11 -19 -15 -25 -6 -3 5 1 10 9 10 9 0 16 -2 16 -4z m494 -128 c8 -6 8 -8 0
-8 -20 0 -37 29 -28 47 6 15 8 14 12 -7 2 -14 9 -28 16 -32z m-8810 -169 c-3
-5 -10 -7 -15 -3 -5 3 -7 10 -3 15 3 5 10 7 15 3 5 -3 7 -10 3 -15z m2947
-282 c-12 -12 -45 -1 -37 12 3 5 15 7 27 4 13 -4 17 -9 10 -16z m-3591 -17 c0
-5 -5 -10 -11 -10 -5 0 -7 5 -4 10 3 6 8 10 11 10 2 0 4 -4 4 -10z m3620 -30
c0 -5 -4 -10 -10 -10 -5 0 -10 5 -10 10 0 6 5 10 10 10 6 0 10 -4 10 -10z m90
-11 c0 -5 -4 -9 -10 -9 -5 0 -10 7 -10 16 0 8 5 12 10 9 6 -3 10 -10 10 -16z
m5950 -105 c0 -12 -4 -13 -21 -3 -17 9 -19 13 -8 19 16 11 29 4 29 -16z
m-9870 -8 c0 -11 -19 -15 -25 -6 -3 5 1 10 9 10 9 0 16 -2 16 -4z m280 -47 c0
-10 -4 -19 -10 -19 -5 0 -10 12 -10 26 0 14 4 23 10 19 6 -3 10 -15 10 -26z
m9620 17 c0 -16 -18 -31 -27 -22 -8 8 5 36 17 36 5 0 10 -6 10 -14z m-9885
-27 c0 -7 -8 -15 -17 -17 -18 -3 -25 18 -11 32 10 10 28 1 28 -15z m223 -20
c3 -18 -54 -54 -63 -39 -8 12 35 61 50 56 6 -1 11 -9 13 -17z m3477 -8 c3 -5
1 -12 -5 -16 -5 -3 -10 1 -10 9 0 18 6 21 15 7z m6205 -65 c0 -3 -4 -8 -10
-11 -5 -3 -10 -1 -10 4 0 6 5 11 10 11 6 0 10 -2 10 -4z m81 -139 c-1 -12 -15
-9 -19 4 -3 6 1 10 8 8 6 -3 11 -8 11 -12z m-10254 -43 c-3 -3 -12 -4 -19 -1
-8 3 -5 6 6 6 11 1 17 -2 13 -5z m273 -94 c0 -5 -4 -10 -10 -10 -5 0 -10 5
-10 10 0 6 5 10 10 10 6 0 10 -4 10 -10z m3577 4 c-3 -3 -12 -4 -19 -1 -8 3
-5 6 6 6 11 1 17 -2 13 -5z m-3609 -92 c3 -9 -2 -13 -14 -10 -9 1 -19 9 -22
16 -3 9 2 13 14 10 9 -1 19 -9 22 -16z m-61 2 c-3 -3 -12 -4 -19 -1 -8 3 -5 6
6 6 11 1 17 -2 13 -5z m3648 -83 c-8 -13 -35 -15 -35 -2 0 5 8 11 18 13 21 5
26 2 17 -11z m-115 -201 c0 -5 -4 -10 -10 -10 -5 0 -10 5 -10 10 0 6 5 10 10
10 6 0 10 -4 10 -10z m-321 -97 c-7 -10 -14 -20 -16 -22 -1 -1 -7 0 -13 4 -8
5 -5 11 7 21 25 19 38 17 22 -3z m7301 -33 c0 -5 -4 -10 -10 -10 -5 0 -10 5
-10 10 0 6 5 10 10 10 6 0 10 -4 10 -10z m-7120 -20 c0 -5 -5 -10 -11 -10 -5
0 -7 5 -4 10 3 6 8 10 11 10 2 0 4 -4 4 -10z m-3733 -72 c-3 -7 -5 -2 -5 12 0
14 2 19 5 13 2 -7 2 -19 0 -25z m11433 -102 c0 -11 -19 -15 -25 -6 -3 5 1 10
9 10 9 0 16 -2 16 -4z m-8047 -62 c11 -11 -3 -24 -18 -18 -8 4 -12 10 -9 15 6
11 18 12 27 3z m-46 -100 c-3 -3 -12 -4 -19 -1 -8 3 -5 6 6 6 11 1 17 -2 13
-5z m70 -130 c-3 -3 -12 -4 -19 -1 -8 3 -5 6 6 6 11 1 17 -2 13 -5z m-252 -24
c3 -5 1 -10 -4 -10 -6 0 -11 5 -11 10 0 6 2 10 4 10 3 0 8 -4 11 -10z m225 6
c0 -3 -4 -8 -10 -11 -5 -3 -10 -1 -10 4 0 6 5 11 10 11 6 0 10 -2 10 -4z
m-166 -12 c24 -9 19 -21 -14 -32 -36 -13 -53 4 -25 25 22 15 19 15 39 7z m-74
-29 c0 -8 -4 -15 -10 -15 -5 0 -10 7 -10 15 0 8 5 15 10 15 6 0 10 -7 10 -15z
m11150 -60 c0 -8 -7 -15 -15 -15 -9 0 -12 6 -9 15 4 8 10 15 15 15 5 0 9 -7 9
-15z m-10950 -15 c0 -5 -4 -10 -9 -10 -6 0 -13 5 -16 10 -3 6 1 10 9 10 9 0
16 -4 16 -10z m10 -130 c0 -5 -7 -10 -15 -10 -8 0 -15 5 -15 10 0 6 7 10 15
10 8 0 15 -4 15 -10z m6687 -156 c-3 -3 -12 -4 -19 -1 -8 3 -5 6 6 6 11 1 17
-2 13 -5z m-1075 -116 c-9 -9 -15 -9 -24 0 -9 9 -7 12 12 12 19 0 21 -3 12
-12z m-9732 -15 c-8 -3 -18 -11 -22 -17 -5 -7 -8 -4 -8 7 0 11 7 17 23 16 15
0 17 -2 7 -6z m11405 -23 c-3 -5 -12 -7 -20 -3 -21 7 -19 13 6 13 11 0 18 -4
14 -10z m-1875 -20 c0 -5 -7 -10 -15 -10 -8 0 -15 5 -15 10 0 6 7 10 15 10 8
0 15 -4 15 -10z m-9357 -67 c-7 -2 -19 -2 -25 0 -7 3 -2 5 12 5 14 0 19 -2 13
-5z m3427 -43 c0 -5 -4 -10 -10 -10 -5 0 -10 5 -10 10 0 6 5 10 10 10 6 0 10
-4 10 -10z m5520 -65 c7 -14 11 -28 7 -31 -3 -3 -13 8 -22 25 -8 17 -12 31 -7
31 5 0 15 -11 22 -25z m-1660 0 c0 -8 -4 -15 -10 -15 -5 0 -10 7 -10 15 0 8 5
15 10 15 6 0 10 -7 10 -15z m6740 -45 c0 -5 -7 -10 -15 -10 -8 0 -15 5 -15 10
0 6 7 10 15 10 8 0 15 -4 15 -10z m740 -154 c0 -11 -19 -15 -25 -6 -3 5 1 10
9 10 9 0 16 -2 16 -4z m-6796 -51 c9 -14 12 -25 6 -25 -18 0 -60 32 -54 41 10
16 32 9 48 -16z m811 16 c3 -5 1 -12 -5 -16 -5 -3 -10 1 -10 9 0 18 6 21 15 7z
m-3540 -21 c0 -22 -29 -18 -33 3 -3 14 1 18 15 15 10 -2 18 -10 18 -18z
m-3335 -30 c0 -5 -4 -10 -10 -10 -5 0 -10 5 -10 10 0 6 5 10 10 10 6 0 10 -4
10 -10z m400 0 c0 -5 -10 -10 -22 -10 -19 0 -20 2 -8 10 19 13 30 13 30 0z
m3587 -75 c1 -19 -3 -38 -8 -41 -5 -3 -9 9 -9 25 0 17 -4 31 -10 31 -5 0 -10
5 -10 10 0 6 8 10 18 10 14 0 18 -8 19 -35z m-2343 2 c15 -24 -2 -34 -19 -11
-8 10 -15 23 -15 27 0 13 22 3 34 -16z m4291 3 c-3 -5 -15 -10 -26 -10 -10 0
-19 5 -19 10 0 6 12 10 26 10 14 0 23 -4 19 -10z m-4359 -48 c-11 -10 -15 4
-8 28 l7 25 3 -23 c2 -13 1 -26 -2 -30z m-3786 -45 c0 -20 -59 -70 -75 -63
-26 9 -17 31 23 54 43 25 52 27 52 9z m3810 -43 c0 -8 -4 -12 -10 -9 -5 3 -10
10 -10 16 0 5 5 9 10 9 6 0 10 -7 10 -16z m4367 0 c-3 -3 -12 -4 -19 -1 -8 3
-5 6 6 6 11 1 17 -2 13 -5z m-8283 -36 c9 -33 8 -35 -14 -41 -17 -4 -20 -1
-17 29 2 38 22 46 31 12z m-133 -11 c-13 -13 -26 -3 -16 12 3 6 11 8 17 5 6
-4 6 -10 -1 -17z m2239 -17 c0 -5 -7 -10 -16 -10 -8 0 -12 5 -9 10 3 6 10 10
16 10 5 0 9 -4 9 -10z m-395 -20 c3 -5 -3 -10 -15 -10 -12 0 -18 5 -15 10 3 6
10 10 15 10 5 0 12 -4 15 -10z m-55 -21 c0 -5 -4 -9 -10 -9 -5 0 -10 7 -10 16
0 8 5 12 10 9 6 -3 10 -10 10 -16z m2290 1 c0 -5 -9 -10 -20 -10 -10 0 -24 -8
-29 -17 -10 -17 -10 -17 -11 0 0 9 -6 17 -12 18 -16 1 31 17 55 18 9 1 17 -3
17 -9z m-4153 -26 c-3 -3 -12 -4 -19 -1 -8 3 -5 6 6 6 11 1 17 -2 13 -5z
m4102 -55 c-13 -10 -26 -15 -29 -12 -3 3 1 8 8 10 6 3 12 11 12 19 0 8 6 11
16 7 14 -5 13 -9 -7 -24z m3548 -31 c-3 -8 -6 -5 -6 6 -1 11 2 17 5 13 3 -3 4
-12 1 -19z m6030 16 c-3 -3 -12 -4 -19 -1 -8 3 -5 6 6 6 11 1 17 -2 13 -5z
m-9612 -34 c3 -6 -1 -13 -10 -16 -19 -8 -30 0 -20 15 8 14 22 14 30 1z m675
-20 c0 -5 -5 -10 -11 -10 -5 0 -7 5 -4 10 3 6 8 10 11 10 2 0 4 -4 4 -10z
m-4780 -50 c0 -5 -5 -10 -11 -10 -5 0 -7 5 -4 10 3 6 8 10 11 10 2 0 4 -4 4
-10z m220 0 c0 -5 -4 -10 -10 -10 -5 0 -10 5 -10 10 0 6 5 10 10 10 6 0 10 -4
10 -10z m-195 -40 c3 -6 3 -20 0 -31 -6 -19 -9 -20 -22 -6 -9 9 -13 23 -10 31
7 18 23 21 32 6z m4865 -22 c0 -19 -2 -20 -10 -8 -13 19 -13 30 0 30 6 0 10
-10 10 -22z m3887 16 c-3 -3 -12 -4 -19 -1 -8 3 -5 6 6 6 11 1 17 -2 13 -5z
m-977 -30 c0 -8 -6 -11 -15 -8 -8 4 -15 12 -15 20 0 8 6 11 15 8 8 -4 15 -12
15 -20z m1445 -114 c8 -13 -13 -40 -31 -40 -17 0 -18 22 -2 38 15 15 25 15 33
2z m-4725 -140 c0 -5 -4 -10 -10 -10 -5 0 -10 5 -10 10 0 6 5 10 10 10 6 0 10
-4 10 -10z m3264 -819 c4 -5 2 -19 -2 -32 -9 -22 -9 -22 -20 9 -9 26 -8 32 3
32 8 0 16 -4 19 -9z m-264 -112 c0 -5 -4 -9 -10 -9 -5 0 -10 7 -10 16 0 8 5
12 10 9 6 -3 10 -10 10 -16z m37 -31 c-3 -8 -6 -5 -6 6 -1 11 2 17 5 13 3 -3
4 -12 1 -19z m-17 -78 c0 -5 -2 -10 -4 -10 -3 0 -8 5 -11 10 -3 6 -1 10 4 10
6 0 11 -4 11 -10z m0 -110 c0 -5 -4 -10 -10 -10 -5 0 -10 5 -10 10 0 6 5 10
10 10 6 0 10 -4 10 -10z m200 -471 c0 -5 -4 -9 -10 -9 -5 0 -10 7 -10 16 0 8
5 12 10 9 6 -3 10 -10 10 -16z m-163 -35 c-3 -3 -12 -4 -19 -1 -8 3 -5 6 6 6
11 1 17 -2 13 -5z m273 -67 c0 -16 -35 -1 -38 16 -3 16 -1 17 17 5 12 -7 21
-17 21 -21z m-81 -68 c32 18 43 13 39 -16 -2 -17 -10 -29 -20 -31 -23 -5 -98
29 -98 43 0 21 12 24 35 9 18 -12 29 -13 44 -5z m-9 -113 c-12 -12 -40 0 -40
18 0 11 5 12 24 3 15 -7 21 -16 16 -21z m90 -396 c0 -5 -4 -10 -10 -10 -5 0
-10 5 -10 10 0 6 5 10 10 10 6 0 10 -4 10 -10z m-30 -190 c0 -5 -5 -10 -11
-10 -5 0 -7 5 -4 10 3 6 8 10 11 10 2 0 4 -4 4 -10z m-107 -91 c-13 -13 -59
-8 -56 6 1 6 12 13 25 16 28 7 47 -6 31 -22z m160 -234 c-3 -8 -9 -15 -14 -15
-10 0 -12 24 -3 33 11 11 24 -3 17 -18z m14 -127 c-3 -8 -6 -5 -6 6 -1 11 2
17 5 13 3 -3 4 -12 1 -19z m-37 -58 c0 -5 -2 -10 -4 -10 -3 0 -8 5 -11 10 -3
6 -1 10 4 10 6 0 11 -4 11 -10z m-260 -64 c0 -11 -19 -15 -25 -6 -3 5 1 10 9
10 9 0 16 -2 16 -4z m238 -84 c2 -7 -3 -12 -12 -12 -9 0 -16 7 -16 16 0 17 22
14 28 -4z m-118 -382 c0 -5 -6 -10 -14 -10 -8 0 -18 5 -21 10 -3 6 3 10 14 10
12 0 21 -4 21 -10z m115 -170 c3 -5 1 -10 -4 -10 -6 0 -11 5 -11 10 0 6 2 10
4 10 3 0 8 -4 11 -10z m302 -736 c-3 -3 -12 -4 -19 -1 -8 3 -5 6 6 6 11 1 17
-2 13 -5z m-229 -66 c-6 -18 -28 -21 -28 -4 0 9 7 16 16 16 9 0 14 -5 12 -12z
m-68 -122 c0 -3 -4 -8 -10 -11 -5 -3 -10 -1 -10 4 0 6 5 11 10 11 6 0 10 -2
10 -4z m453 -913 c-7 -2 -19 -2 -25 0 -7 3 -2 5 12 5 14 0 19 -2 13 -5z m-310
-240 c-7 -2 -19 -2 -25 0 -7 3 -2 5 12 5 14 0 19 -2 13 -5z m47 -2073 c0 -5
-2 -10 -4 -10 -3 0 -8 5 -11 10 -3 6 -1 10 4 10 6 0 11 -4 11 -10z m510 -1230
c0 -5 -5 -10 -11 -10 -5 0 -7 5 -4 10 3 6 8 10 11 10 2 0 4 -4 4 -10z m1113
-337 c-7 -2 -19 -2 -25 0 -7 3 -2 5 12 5 14 0 19 -2 13 -5z m-403 -87 c0 -3
-4 -8 -10 -11 -5 -3 -10 -1 -10 4 0 6 5 11 10 11 6 0 10 -2 10 -4z"/>
<path d="M12435 15080 c3 -5 8 -10 11 -10 2 0 4 5 4 10 0 6 -5 10 -11 10 -5 0
-7 -4 -4 -10z"/>
<path d="M12882 14190 c0 -14 2 -19 5 -12 2 6 2 18 0 25 -3 6 -5 1 -5 -13z"/>
<path d="M7320 11070 c0 -5 5 -10 11 -10 5 0 7 5 4 10 -3 6 -8 10 -11 10 -2 0
-4 -4 -4 -10z"/>
<path d="M12785 10980 c-17 -7 -15 -9 13 -9 17 -1 32 4 32 9 0 12 -17 12 -45
0z"/>
<path d="M8505 13674 c-9 -14 -14 -29 -10 -32 3 -4 9 -1 13 5 4 6 15 12 24 14
14 3 15 7 4 22 -13 16 -15 16 -31 -9z"/>
<path d="M3085 10151 c-6 -11 9 -23 19 -14 9 9 7 23 -3 23 -6 0 -12 -4 -16 -9z"/>
<path d="M4740 16120 c0 -5 7 -10 16 -10 8 0 12 5 9 10 -3 6 -10 10 -16 10 -5
0 -9 -4 -9 -10z"/>
<path d="M18261 15516 c-22 -23 -15 -46 10 -31 6 4 21 -3 34 -15 20 -18 28
-21 52 -13 23 8 27 15 25 39 -2 16 -4 29 -5 30 -1 1 -22 4 -47 8 -40 6 -49 4
-69 -18z"/>
<path d="M18407 15484 c-3 -3 -3 -12 0 -20 4 -10 -3 -14 -25 -14 -17 0 -32 -6
-36 -15 -6 -17 -26 -20 -26 -4 0 6 -7 18 -16 27 -15 15 -17 14 -29 -2 -13 -16
-14 -17 -23 0 -9 15 -12 14 -26 -14 -9 -17 -16 -44 -16 -61 0 -16 -4 -32 -9
-35 -5 -3 -8 -71 -8 -151 0 -122 3 -147 17 -160 20 -18 15 -75 -6 -75 -15 0
-19 -22 -7 -34 4 -4 9 -40 10 -79 4 -106 8 -145 16 -153 4 -4 1 -14 -6 -22
-10 -13 -9 -14 9 -8 15 5 24 2 28 -10 7 -20 -1 -34 -19 -34 -8 0 -12 -6 -9
-13 3 -8 -2 -20 -11 -27 -19 -16 -19 -34 0 -50 16 -13 20 -55 7 -64 -15 -9
-12 -159 3 -182 8 -12 11 -24 8 -28 -3 -3 -6 -24 -7 -46 -1 -35 2 -42 22 -47
l23 -5 -22 -12 c-28 -14 -46 -63 -31 -86 5 -9 6 -23 2 -31 -4 -8 -10 -42 -12
-77 -2 -54 0 -66 17 -78 15 -11 17 -18 9 -32 -7 -10 -8 -23 -3 -32 5 -8 13
-27 19 -42 5 -16 16 -28 25 -28 16 0 32 -46 20 -58 -3 -4 -13 2 -21 13 -13 17
-16 18 -24 5 -20 -31 -2 -149 23 -151 7 -1 21 -2 32 -3 16 -1 20 -9 21 -41 1
-22 2 -46 3 -52 2 -20 22 -15 28 7 6 22 23 26 41 8 9 -9 16 -7 31 6 17 16 18
21 7 37 -7 10 -11 32 -8 49 4 28 6 29 17 13 23 -31 43 0 48 75 3 37 8 80 12
95 6 22 3 33 -15 52 -24 26 -21 61 5 51 12 -4 15 3 15 33 0 34 -3 40 -27 46
l-28 7 25 21 c30 26 39 91 15 101 -19 7 -19 35 0 56 23 25 24 106 1 123 -16
12 -16 14 -2 26 21 18 22 73 1 65 -21 -9 -19 14 7 63 l22 42 -27 27 c-27 27
-27 27 -8 48 22 25 36 91 21 101 -5 3 -17 -1 -26 -9 -20 -20 -34 -20 -34 -1 0
8 7 15 15 15 8 0 15 6 16 13 8 90 4 102 -21 72 -7 -8 -21 -15 -32 -15 -17 0
-18 3 -8 15 7 8 20 15 30 15 10 0 21 7 24 16 5 14 9 14 23 3 15 -13 16 -10 11
27 -3 22 -1 48 4 57 6 12 4 28 -8 52 -10 22 -14 47 -10 67 6 35 -5 64 -22 54
-17 -10 -23 26 -8 49 11 17 14 38 9 82 -4 32 -6 85 -5 118 1 33 0 70 -3 83 -5
19 -8 21 -26 11 -29 -15 -34 -4 -10 20 22 22 28 65 11 76 -14 9 -12 45 3 45 8
0 7 4 -3 10 -18 11 -24 12 -33 4z m-94 -111 c-5 -14 -35 -2 -60 23 -18 18 -16
22 10 26 25 3 58 -29 50 -49z m84 0 c-3 -10 -5 -4 -5 12 0 17 2 24 5 18 2 -7
2 -21 0 -30z m-72 -329 c-9 -9 -19 -13 -23 -10 -3 4 0 11 8 16 24 15 33 11 15
-6z m-70 -4 c3 -5 -1 -10 -10 -10 -9 0 -13 5 -10 10 3 6 8 10 10 10 2 0 7 -4
10 -10z m220 -90 c3 -5 1 -10 -4 -10 -6 0 -11 5 -11 10 0 6 2 10 4 10 3 0 8
-4 11 -10z m-185 -270 c0 -5 -4 -10 -10 -10 -5 0 -10 5 -10 10 0 6 5 10 10 10
6 0 10 -4 10 -10z m184 -225 c3 -8 1 -15 -4 -15 -6 0 -10 7 -10 15 0 8 2 15 4
15 2 0 6 -7 10 -15z m-10 -344 c3 -5 0 -11 -8 -14 -15 -6 -26 1 -26 15 0 11
27 10 34 -1z m-162 -171 c6 0 9 -3 5 -6 -3 -3 -15 1 -27 9 -15 10 -18 16 -8
19 7 3 14 -1 16 -9 2 -7 8 -13 14 -13z m158 -50 c0 -5 -7 -10 -15 -10 -8 0
-15 5 -15 10 0 6 7 10 15 10 8 0 15 -4 15 -10z m-133 -66 c-3 -3 -12 -4 -19
-1 -8 3 -5 6 6 6 11 1 17 -2 13 -5z m90 -9 c9 -24 -1 -27 -15 -5 -8 13 -8 20
-2 20 6 0 13 -7 17 -15z m-39 -27 c-7 -13 -14 -25 -15 -27 -1 -1 -7 0 -13 4
-8 5 -6 13 6 26 24 26 37 24 22 -3z m-8 -83 c-7 -8 -20 -15 -30 -15 -10 0 -20
7 -24 15 -4 12 3 15 31 15 30 0 34 -2 23 -15z m34 -161 c5 -13 1 -15 -21 -9
-43 10 -52 25 -16 25 19 0 33 -6 37 -16z"/>
<path d="M14260 15410 c0 -5 5 -10 10 -10 6 0 10 5 10 10 0 6 -4 10 -10 10 -5
0 -10 -4 -10 -10z"/>
<path d="M1567 13942 c-29 -12 -30 -14 -14 -26 9 -7 17 -18 17 -25 0 -16 17
-14 24 4 3 8 13 15 21 15 27 0 14 -43 -15 -50 -18 -4 -25 -12 -25 -30 0 -14
-10 -33 -23 -44 -14 -11 -21 -25 -17 -33 3 -9 0 -22 -7 -30 -9 -11 -9 -22 0
-47 7 -18 10 -56 7 -86 -3 -35 0 -57 7 -62 9 -5 7 -12 -5 -26 -27 -30 -19 -86
11 -75 13 6 12 0 -5 -28 -21 -34 -22 -109 -2 -109 5 0 9 -7 9 -15 0 -9 7 -18
15 -21 9 -4 12 -15 9 -33 -7 -34 13 -52 60 -54 29 -2 35 -5 30 -19 -3 -12 0
-18 10 -18 20 0 29 -16 21 -40 -7 -22 -25 -27 -25 -7 0 9 -16 13 -52 12 -51 0
-52 -1 -62 -34 -7 -26 -7 -36 2 -39 7 -2 10 -13 6 -27 -3 -12 -1 -26 4 -29 5
-3 12 4 16 17 5 21 6 21 23 4 17 -17 17 -19 1 -28 -10 -6 -18 -19 -18 -29 0
-11 -4 -20 -10 -20 -5 0 -10 -4 -10 -10 0 -5 7 -10 15 -10 18 0 43 -48 38 -72
-4 -14 2 -18 26 -18 16 0 33 5 36 11 4 5 19 7 34 4 32 -7 81 26 81 54 0 22
-19 41 -42 41 -24 0 -23 19 1 28 11 4 20 9 19 12 0 3 3 26 7 52 7 43 1 75 -27
147 -7 19 -4 28 16 48 21 20 23 29 15 45 -6 10 -11 32 -11 48 -1 24 -6 29 -34
35 -19 3 -34 10 -34 14 0 5 -9 11 -20 14 -11 3 -20 12 -20 20 0 22 19 31 26
13 13 -34 62 -2 56 36 -2 11 1 25 7 32 7 8 8 38 2 87 -4 41 -6 88 -4 105 4 28
1 33 -24 42 -17 6 -21 11 -11 11 27 1 34 47 13 90 -10 20 -17 46 -16 59 3 29
-26 40 -43 17 -18 -26 -28 -4 -15 34 19 54 -22 74 -94 43z m53 -286 c0 -6 -4
-17 -9 -25 -10 -16 -31 -6 -31 14 0 7 -6 15 -12 18 -9 3 -7 10 7 20 18 15 21
15 33 0 6 -9 12 -22 12 -27z m75 -6 c3 -5 -1 -10 -10 -10 -9 0 -13 5 -10 10 3
6 8 10 10 10 2 0 7 -4 10 -10z m-37 -72 c-6 -18 -28 -21 -28 -4 0 9 7 16 16
16 9 0 14 -5 12 -12z m2 -98 c0 -11 -7 -20 -15 -20 -15 0 -21 21 -8 33 12 13
23 7 23 -13z m-8 -103 c-9 -18 -24 12 -16 34 l8 24 6 -25 c4 -14 5 -29 2 -33z
m-55 27 c-3 -3 -12 -4 -19 -1 -8 3 -5 6 6 6 11 1 17 -2 13 -5z m62 -105 c-20
-12 -22 -4 -8 23 12 21 13 21 17 4 2 -10 -2 -22 -9 -27z m78 -151 c-3 -8 -6
-5 -6 6 -1 11 2 17 5 13 3 -3 4 -12 1 -19z"/>
<path d="M1525 13800 c3 -5 8 -10 11 -10 2 0 4 5 4 10 0 6 -5 10 -11 10 -5 0
-7 -4 -4 -10z"/>
<path d="M1737 12664 c-8 -8 1 -24 14 -24 5 0 9 7 9 15 0 15 -12 20 -23 9z"/>
<path d="M17436 12571 c-4 -5 -2 -12 3 -15 5 -4 12 -2 15 3 4 5 2 12 -3 15 -5
4 -12 2 -15 -3z"/>
<path d="M18918 9723 c7 -3 16 -2 19 1 4 3 -2 6 -13 5 -11 0 -14 -3 -6 -6z"/>
</g>
</svg>
