<svg version="1.1" id="Layer_1" xmlns="http://www.w3.org/2000/svg" xmlns:xlink="http://www.w3.org/1999/xlink" x="0px" y="0px"
	 width="100%" viewBox="0 0 1024 1024" enable-background="new 0 0 1024 1024" xml:space="preserve">
<path fill="#000000" opacity="1.000000" stroke="none" 
	d="
M569.333313,1025.000000 
	C567.626526,1022.548645 565.195496,1023.137817 563.181335,1023.285767 
	C557.443787,1023.707031 551.858765,1023.155212 546.531494,1021.034546 
	C544.384705,1020.179932 542.490784,1021.000732 540.704041,1021.464172 
	C534.646790,1023.035522 528.417969,1020.256104 522.298157,1022.761475 
	C519.534729,1023.892700 517.833496,1019.674683 514.326660,1019.184448 
	C508.141174,1018.319641 501.971436,1018.314636 495.809540,1017.800110 
	C491.684479,1017.455688 487.834686,1016.831360 483.851013,1015.012329 
	C479.580078,1013.062073 474.396362,1012.867065 469.564819,1012.475220 
	C466.422546,1012.220459 463.712006,1012.267456 460.840912,1010.089417 
	C458.253113,1008.126221 454.184387,1009.543518 450.919342,1007.407104 
	C443.266113,1002.399231 433.630463,1003.641296 425.426849,1000.079834 
	C423.022675,999.036072 420.456451,998.634888 418.985229,995.879517 
	C417.563019,993.215942 414.345856,994.994873 412.119690,993.921265 
	C405.358795,990.660767 398.246460,988.012268 391.831024,984.186340 
	C385.868958,980.630859 379.721924,977.276489 373.743866,973.816956 
	C369.412933,971.310486 366.519409,967.043030 361.488739,965.399597 
	C358.055389,964.277832 355.010437,961.248535 354.313354,957.117310 
	C353.892578,954.623413 351.758209,954.871948 350.283112,954.026917 
	C347.665405,952.527405 343.979156,951.889709 345.802246,947.243286 
	C346.666962,945.039551 344.659149,944.305420 342.952850,944.187561 
	C339.662598,943.960327 338.530457,942.376221 339.189240,939.226990 
	C339.315613,938.622742 339.291626,937.677490 338.921997,937.325745 
	C334.067230,932.707336 333.147156,925.663940 328.681458,920.826477 
	C325.208282,917.064148 324.486542,912.345032 325.525055,907.775452 
	C326.229523,904.675842 325.804779,902.289551 324.440033,899.757019 
	C323.481110,897.977600 322.714203,896.162781 322.782654,894.077148 
	C323.240570,880.128784 320.924927,866.074768 323.863068,852.239868 
	C325.573273,844.187012 326.463470,835.977844 328.992706,828.061340 
	C330.835815,822.292419 330.617188,815.956787 332.140869,810.159851 
	C334.832794,799.918152 339.561401,790.342712 343.710663,780.585266 
	C349.108093,767.892700 356.737793,756.530396 363.994995,744.933716 
	C365.395752,742.695312 367.074493,740.642883 369.327576,739.053345 
	C371.523987,737.503845 373.218475,735.435059 373.728149,732.613403 
	C374.545044,728.091003 377.723724,725.375305 380.996643,722.484924 
	C386.441925,717.676025 391.161072,712.018616 396.758911,707.415161 
	C404.444366,701.095032 410.487946,693.072449 418.650665,686.955750 
	C416.746246,685.174866 414.964996,683.940308 411.936523,683.810852 
	C408.633636,683.669617 406.162018,680.800476 403.649933,678.637695 
	C403.026581,678.100952 402.644348,676.937317 402.007294,676.815552 
	C392.700958,675.037476 387.778290,665.793335 378.936462,663.348145 
	C377.007416,662.814636 375.459869,662.189575 374.943878,660.142639 
	C374.493958,658.357910 372.957520,657.568726 371.803284,656.396057 
	C368.995941,653.543823 365.398712,651.832275 363.450012,647.603699 
	C362.134552,644.749023 357.333344,643.463501 354.031250,641.581543 
	C352.857452,640.912537 351.485718,640.512085 351.465759,638.875793 
	C351.399567,633.452698 348.087006,630.916809 343.512482,628.849548 
	C339.091003,626.851440 339.057983,625.013367 342.791260,622.031921 
	C340.301483,618.797974 338.875092,614.645508 333.989105,613.733154 
	C332.518250,613.458435 332.835876,611.484558 332.350983,610.299988 
	C331.092438,607.225403 331.409546,603.188171 327.093292,602.074646 
	C327.632324,596.142151 323.565430,592.677612 320.175507,588.750549 
	C319.087921,587.490662 321.411346,586.172791 321.152832,584.242126 
	C317.306915,583.496521 316.042084,579.491211 315.403107,576.822876 
	C313.744476,569.896179 310.927368,563.795715 306.736633,558.184265 
	C303.468231,553.807922 304.029266,548.493042 303.357300,543.537476 
	C302.451660,536.858215 297.437012,531.711975 297.109497,524.757751 
	C296.756927,517.272400 295.719513,509.801056 294.622498,502.376587 
	C294.065826,498.609161 292.798706,494.962219 295.761322,491.298126 
	C291.683197,489.225891 292.320557,485.845764 292.026398,482.285645 
	C291.411041,474.838470 291.763550,467.454834 291.867188,460.033783 
	C292.023163,448.865417 294.276581,437.969818 296.311005,427.102814 
	C298.376190,416.071808 302.848541,405.782715 307.882019,395.668304 
	C312.156219,387.079590 315.601166,378.037018 321.338623,370.291260 
	C326.228485,363.689880 330.977570,356.923401 337.020203,351.237610 
	C340.859894,347.624664 343.063263,342.767029 347.254730,339.214081 
	C364.379639,324.697632 382.146637,311.328003 402.180786,300.890625 
	C417.815735,292.745117 433.854858,285.682281 450.647430,280.648712 
	C459.114288,278.110718 467.629089,275.617676 476.157867,273.278076 
	C480.503784,272.085938 485.414490,273.740509 490.058228,271.839539 
	C499.569550,267.945923 509.699982,270.348999 519.534485,269.640472 
	C523.813538,269.332214 527.869690,267.765656 532.300171,268.193359 
	C536.207825,268.570526 540.418396,269.755066 543.836182,269.479492 
	C550.259338,268.961639 555.729126,270.418671 561.507446,272.386017 
	C563.420288,273.037262 565.883545,271.948639 568.120728,271.372040 
	C571.987915,270.375336 576.407288,268.723450 580.267456,272.228760 
	C583.202515,274.894104 587.424316,273.750488 590.615112,273.994385 
	C595.249268,274.348541 599.249756,278.245361 604.093384,276.241791 
	C604.216431,276.190887 604.428650,276.280701 604.569641,276.358521 
	C611.304749,280.076660 619.095764,280.254944 626.200439,282.833282 
	C633.775085,285.582153 641.416687,288.171143 649.199341,290.393250 
	C654.171814,291.812958 658.775574,294.689819 663.963013,295.921326 
	C667.770081,296.825104 672.769592,296.945953 674.994263,299.427216 
	C680.266296,305.307404 687.163696,307.456085 693.609375,311.013062 
	C698.531494,313.729187 705.349426,315.820343 706.944336,322.999481 
	C707.175598,324.040497 708.715759,325.389069 709.796814,325.539124 
	C714.411560,326.179596 715.971008,329.891205 717.639954,333.199707 
	C720.602356,339.072357 724.674072,343.777863 730.253296,347.215149 
	C731.528076,348.000549 731.622253,349.426880 732.059814,350.659790 
	C733.668579,355.192932 736.182007,359.199127 738.552551,363.362427 
	C742.148254,369.677277 747.838196,375.130096 748.142395,383.229004 
	C748.502686,392.821259 752.542725,401.734406 754.742310,410.929321 
	C757.242859,421.382446 757.353149,431.742981 756.910950,441.906860 
	C756.579529,449.524536 757.226624,457.436005 754.586487,465.209473 
	C749.183350,481.118408 743.066895,496.749451 736.500916,512.156921 
	C732.580872,521.355652 726.743774,529.800781 721.241333,538.241028 
	C717.066589,544.644592 714.726562,552.226074 709.339233,557.757935 
	C702.005127,565.288757 698.269043,575.711060 689.513916,582.033875 
	C686.756714,584.025085 685.067566,587.113831 683.387573,589.736450 
	C679.244141,596.204346 672.949219,600.579956 668.342712,606.658203 
	C664.612671,611.580078 658.256714,614.796509 653.921448,619.855103 
	C648.855713,625.766113 642.025208,629.882263 636.621826,635.318726 
	C631.595093,640.376282 627.158997,646.173035 620.926758,649.629150 
	C611.443359,654.888184 603.978821,662.980103 594.211304,667.788635 
	C590.041565,669.841370 586.759888,673.433838 582.876038,675.894470 
	C573.272156,681.978882 563.474670,687.813782 552.896912,692.166260 
	C549.995178,693.360291 547.878357,692.959106 546.098633,690.178589 
	C545.038513,688.522400 543.365417,687.271729 542.084473,685.741211 
	C538.441345,681.388184 534.997559,681.412903 530.251953,684.804260 
	C520.529846,691.751953 509.799316,695.672791 497.591339,693.768433 
	C496.257507,693.560303 495.029358,693.369080 493.675171,693.639282 
	C485.938629,695.182983 478.211365,697.053284 470.255249,695.079590 
	C465.377594,699.314880 460.632965,694.784424 456.053009,695.028687 
	C449.335144,695.386902 441.364899,694.011658 436.975952,702.730164 
	C434.736542,707.178650 429.828491,710.342957 426.512177,714.536804 
	C417.377411,726.088745 406.299469,736.118408 398.852295,748.987671 
	C390.687134,763.097717 378.816620,775.093811 373.120087,790.409790 
	C369.997101,798.806274 365.585114,806.634949 363.216736,815.504333 
	C360.156158,826.965515 359.102814,838.647461 356.545135,850.021301 
	C354.821747,857.685242 355.586517,865.612122 352.871216,872.960083 
	C351.299438,877.213623 352.363098,881.839966 352.937805,885.606567 
	C354.164825,893.648621 352.702911,902.373474 357.365723,909.763733 
	C358.689819,911.862488 357.139404,914.109131 358.476715,916.412354 
	C363.035095,924.262878 368.714691,931.306213 373.715881,938.772766 
	C377.940948,945.080750 384.013580,948.081116 389.295197,952.535645 
	C400.067932,961.621521 412.288666,967.782654 425.811584,971.609009 
	C429.872894,972.758057 433.485779,975.141357 437.457397,976.712097 
	C446.136078,980.144470 454.940277,982.692566 464.162994,983.803467 
	C467.921570,984.256104 470.226440,987.043213 473.133118,988.838318 
	C476.477478,990.903748 479.478516,991.946167 483.187836,989.344788 
	C486.089630,987.309692 489.106537,989.575073 491.418854,990.969360 
	C495.870789,993.653564 499.905212,996.408752 504.860535,992.195068 
	C505.305237,991.816833 506.230530,991.577454 506.743530,991.772095 
	C511.646820,993.632202 517.619751,991.740112 521.736328,994.254272 
	C527.223389,997.605469 532.710815,996.918030 538.034058,996.449219 
	C546.609802,995.693970 555.033081,996.898071 563.420532,996.840332 
	C569.900269,996.795776 577.033997,996.599731 583.586914,994.441956 
	C585.678955,993.753113 587.854492,993.965027 590.023438,993.926758 
	C595.319519,993.833313 600.261353,993.546326 605.525146,991.080322 
	C612.698364,987.719727 620.931396,986.526794 628.787964,984.749634 
	C634.746033,983.401855 640.596008,982.039490 646.413269,979.939697 
	C652.838989,977.620178 658.393188,973.188293 664.761719,971.683899 
	C673.716919,969.568542 682.012695,965.659058 690.009155,961.921631 
	C696.648315,958.818665 704.117004,956.495728 709.937256,951.542358 
	C711.364563,950.327576 712.825378,949.142456 714.674866,948.914551 
	C720.055481,948.251587 724.126587,944.940857 728.325806,942.078308 
	C731.945618,939.610840 735.412964,937.121887 739.910156,936.652344 
	C741.374573,936.499451 742.185730,935.378784 743.128784,934.447998 
	C748.577026,929.070740 755.053467,925.146667 761.439636,921.010071 
	C768.956116,916.141235 775.957336,910.483521 783.281494,905.308777 
	C788.491455,901.627625 792.822083,897.259277 796.216797,891.794983 
	C799.909668,885.850769 805.562744,881.498535 809.787109,875.883728 
	C813.331970,871.172119 815.866516,865.992920 818.314331,860.841858 
	C821.514282,854.107727 824.730347,847.385803 827.953796,840.664673 
	C830.335022,835.699524 831.850159,830.043945 832.437378,824.555420 
	C833.419739,815.374084 837.081909,806.743408 837.140503,797.375183 
	C837.197021,788.343262 838.263306,779.370178 837.684387,770.254089 
	C837.376282,765.402405 837.269287,760.242065 838.166199,755.292725 
	C839.193909,749.621887 837.698547,744.867737 834.785339,739.822571 
	C832.964722,736.669739 831.018982,732.620850 831.867981,728.326660 
	C832.023743,727.539185 832.109070,726.138855 831.731384,725.933777 
	C825.152588,722.360718 826.357361,713.393066 820.261841,709.501099 
	C819.177124,708.808594 817.972717,707.741699 817.593811,706.593567 
	C814.221313,696.373657 805.539795,691.194580 797.324158,685.953369 
	C794.387573,684.079895 794.306396,681.012878 792.075195,679.281494 
	C787.310242,675.583923 782.341797,672.147217 777.604248,668.416321 
	C773.628052,665.285095 768.921326,663.923035 764.323425,662.173096 
	C755.227234,658.710999 746.151611,655.602112 736.262024,654.864319 
	C728.935669,654.317810 720.918640,655.244080 714.570557,650.888000 
	C710.111511,647.828125 704.085449,648.929932 700.374756,644.451477 
	C699.638611,643.562927 697.528687,642.811768 696.177063,643.656799 
	C691.404297,646.641235 688.553650,644.524719 684.865906,641.065491 
	C679.255066,635.802368 673.174377,630.755127 665.055847,629.337952 
	C660.083496,628.469910 658.399658,624.831238 660.985718,620.726379 
	C664.659851,614.894348 671.385498,614.101135 676.983276,611.469971 
	C677.333618,611.305237 678.073059,611.496643 678.382996,611.787292 
	C684.500916,617.524841 692.768921,615.794312 699.904175,617.982239 
	C704.603027,619.423096 709.530945,620.156433 713.453308,623.511353 
	C714.325562,624.257446 715.935974,625.109192 716.643616,624.295349 
	C720.918396,619.379456 724.432556,624.209351 728.157043,625.103271 
	C730.321716,625.622742 732.102234,627.522583 734.532532,625.428467 
	C736.057068,624.114807 737.457825,625.351196 738.059143,626.846130 
	C739.353699,630.064331 741.760254,629.973022 744.632751,629.749390 
	C748.234680,629.469055 751.915344,629.644043 754.306885,633.108643 
	C755.036926,634.166382 756.035339,634.973328 757.230530,634.486145 
	C759.745361,633.460815 761.841980,635.742249 763.457825,635.642273 
	C770.600037,635.200378 774.210266,643.233337 782.096741,642.105835 
	C786.056763,641.539612 790.049316,647.411804 793.727417,650.751709 
	C794.329346,651.298340 794.705566,652.335999 795.369629,652.535278 
	C804.679993,655.329895 810.995422,662.719727 817.527100,668.866821 
	C823.121033,674.131409 831.064209,678.392700 832.668945,687.270203 
	C832.697632,687.429016 832.696533,687.711121 832.763000,687.728333 
	C840.151672,689.640869 838.938293,700.234985 846.810059,701.645325 
	C847.724609,705.808228 853.481018,707.101990 852.518005,712.817993 
	C851.669373,717.855469 856.316406,721.119934 859.554016,724.285400 
	C861.686035,726.369934 862.737976,728.393555 863.683777,731.198303 
	C868.012634,744.035706 869.382202,757.015076 869.446533,770.600037 
	C869.490662,779.926758 869.193237,789.103271 868.409668,798.370239 
	C867.268555,811.866821 863.490845,824.858948 861.494934,838.168457 
	C859.591064,850.864197 851.752258,860.916870 847.146179,872.392212 
	C844.315125,879.445251 840.305481,885.508179 835.470642,891.612854 
	C830.491516,897.899719 825.841858,904.741760 820.569397,910.907959 
	C812.242615,920.646423 802.916016,929.295593 792.052002,936.388977 
	C786.407593,940.074280 781.170471,944.501831 775.593933,948.412659 
	C768.662659,953.273560 761.518494,957.798096 754.193237,961.959534 
	C741.208923,969.335815 728.151794,976.662170 714.684998,983.086853 
	C703.205322,988.563538 691.939514,994.607178 679.653809,998.416260 
	C675.525574,999.696167 671.041321,1000.900146 667.555786,1004.030518 
	C664.482666,1006.790588 660.266968,1005.404541 656.621765,1006.585632 
	C649.666809,1008.839111 643.599854,1013.209900 636.233337,1014.430908 
	C623.535217,1016.535645 611.052063,1019.688538 598.291321,1021.699097 
	C589.687073,1023.054871 581.232178,1021.800720 572.856445,1023.354309 
	C572.281799,1023.460815 571.794250,1024.036499 571.133118,1024.697021 
	C570.555542,1025.000000 570.111084,1025.000000 569.333313,1025.000000 
M328.729919,424.406891 
	C325.578918,434.063324 325.486176,444.236145 323.666962,454.105865 
	C321.935577,463.499084 321.992828,472.928955 322.803986,482.240173 
	C323.335846,488.345245 323.537384,494.535034 324.483978,500.667633 
	C325.155090,505.015625 327.402740,509.038269 326.970306,513.571716 
	C326.319824,520.391602 328.579407,526.923401 329.924408,533.383728 
	C331.335999,540.163818 335.382996,546.433044 335.671356,553.602051 
	C335.861023,558.316895 341.682953,561.729614 338.594147,567.114075 
	C338.478149,567.316223 339.257446,568.347046 339.790741,568.557068 
	C344.370026,570.360657 345.148712,574.341858 345.809265,578.515320 
	C346.035309,579.943665 346.425110,581.744141 347.412567,582.582214 
	C350.960999,585.593567 352.173157,589.940613 354.379639,593.709778 
	C357.796661,599.546692 361.182190,605.401978 364.581055,611.249512 
	C365.895477,613.510864 368.792206,614.134766 369.663055,617.135681 
	C371.999908,625.188293 381.047577,628.683289 383.539093,636.771301 
	C383.614075,637.014771 384.089844,637.111633 384.328949,637.331177 
	C389.523651,642.102539 398.349396,641.515808 401.699585,649.136353 
	C402.042084,649.915405 403.726349,650.117798 404.799255,650.560486 
	C412.624664,653.789124 420.033081,657.634949 427.252808,662.196533 
	C430.596893,664.309387 435.163452,665.268372 438.652313,667.988403 
	C439.609528,668.734680 440.847473,667.691040 441.959503,667.412292 
	C444.834656,666.691467 447.656311,665.935425 450.732330,666.897949 
	C456.075653,668.570007 461.477386,670.506165 467.024719,667.308899 
	C467.779358,666.873901 469.030426,666.907043 469.921753,667.167664 
	C474.835541,668.604797 479.386719,668.345886 484.344391,666.453552 
	C492.363464,663.392761 501.128326,664.339050 509.544067,663.546265 
	C515.149109,663.018311 520.710327,662.664795 526.207886,661.359436 
	C533.411133,659.649048 540.763428,658.987732 548.137390,658.445984 
	C551.948059,658.166077 556.333008,658.469910 559.386292,656.680481 
	C565.044800,653.364258 569.879089,648.656799 575.124146,644.616455 
	C582.049866,639.281372 588.682129,633.438477 596.120178,628.936768 
	C601.769470,625.517639 606.244629,621.053528 611.067383,616.813171 
	C615.671204,612.765320 619.913025,608.370972 624.291199,604.101929 
	C630.638184,597.913208 638.313599,592.975830 644.102295,586.351196 
	C653.115295,576.036621 663.051208,566.488647 671.053284,555.313293 
	C675.774719,548.719604 681.742004,543.127991 685.578186,535.782959 
	C689.594849,528.092285 694.429749,520.825745 698.975647,513.415955 
	C701.666931,509.029175 704.398193,504.671570 707.016968,500.239166 
	C710.614258,494.150452 712.035461,487.355103 714.781311,481.025024 
	C720.413696,468.040558 728.637512,455.786743 726.103149,440.493439 
	C725.967346,439.674194 726.736511,438.657440 727.203552,437.797363 
	C727.845337,436.615448 728.507935,435.477997 728.274292,434.047791 
	C727.223999,427.618439 727.687256,421.125977 726.452698,414.564728 
	C725.298218,408.429016 727.855652,402.204468 723.329834,395.698181 
	C721.124817,392.528168 720.050293,387.583710 717.132874,384.171753 
	C715.839966,382.659668 715.295654,381.043213 716.279480,379.680145 
	C719.424622,375.322815 716.867615,372.610443 713.750488,370.177551 
	C711.938110,368.763031 710.456848,367.171661 710.214722,364.977142 
	C709.802002,361.235596 707.177490,359.031250 705.047668,356.407074 
	C702.962524,353.837921 699.991638,352.393524 697.137573,350.213623 
	C701.211609,346.374359 699.302063,344.389343 695.272705,343.114838 
	C693.924011,342.688293 693.256958,341.420349 692.224304,340.651245 
	C688.111511,337.588287 685.032104,333.646271 679.307495,332.122894 
	C672.397705,330.284119 665.366638,328.006744 658.811523,324.550446 
	C652.286865,321.110291 645.167603,318.787842 638.278015,316.053894 
	C634.642578,314.611267 630.763123,314.314056 626.998230,312.739716 
	C618.854431,309.334259 611.034851,304.015442 601.353455,305.470551 
	C599.168945,305.798920 596.812195,305.068207 594.554688,304.231110 
	C585.736938,300.961426 576.443970,299.467926 567.351074,297.214172 
	C562.802673,296.086792 558.289124,298.401672 553.794189,296.394501 
	C550.371887,294.866333 546.851318,295.875183 543.213013,296.771423 
	C538.917725,297.829590 534.529236,299.092499 529.804382,298.067413 
	C526.609009,297.374146 523.108826,297.672333 519.795837,298.016388 
	C511.638977,298.863434 503.581970,301.178619 495.280975,299.473206 
	C494.325409,299.276886 493.584839,299.078278 492.491516,299.493561 
	C484.637756,302.477051 476.860474,305.831207 468.771057,307.988403 
	C453.722473,312.001312 438.505432,315.278992 425.040741,323.721680 
	C420.000702,326.881897 414.272400,328.830292 409.330902,332.269867 
	C402.980133,336.690338 396.569244,341.043335 389.990662,345.112366 
	C383.091400,349.379700 376.935699,354.395844 371.291595,360.252899 
	C366.700714,365.017029 362.560272,370.153809 358.073120,374.949615 
	C350.605316,382.931061 343.853851,391.189240 340.011292,401.544983 
	C337.130188,409.309570 332.494751,416.207062 328.729919,424.406891 
z"/>
<path fill="#000000" opacity="1.000000" stroke="none" 
	d="
M854.447754,484.644531 
	C858.727722,487.041687 862.652161,486.643494 866.582703,484.742615 
	C868.086975,484.015106 869.372375,483.968292 870.479919,485.555756 
	C872.626404,488.632233 876.149780,489.642090 879.418945,490.510498 
	C882.276917,491.269684 884.990601,491.361389 885.318237,495.167542 
	C885.408997,496.222107 886.586426,496.715027 887.658936,496.592651 
	C889.853699,496.342255 891.913452,495.139557 893.638428,498.127197 
	C896.383301,502.881134 899.204651,507.530426 897.674866,513.238342 
	C896.756897,516.663574 894.719971,519.771179 897.032959,523.501160 
	C897.677795,524.541016 897.399536,526.579041 896.851685,527.863525 
	C893.332031,536.114197 888.654602,543.750854 882.625427,550.341797 
	C880.310425,552.872559 878.384216,555.767029 875.655334,558.048157 
	C872.904602,560.347595 870.786377,563.157471 866.667542,561.679565 
	C866.523560,561.627808 866.234253,561.630676 866.186584,561.711121 
	C861.980652,568.814636 854.053650,564.671570 848.442810,567.572327 
	C846.112793,568.776917 842.842163,568.824707 841.186401,567.743896 
	C837.114990,565.086304 831.259949,565.482727 828.633423,560.469177 
	C827.774353,558.829468 826.228760,559.202515 824.746277,558.984985 
	C820.594910,558.375549 817.819275,556.311035 817.287842,551.673523 
	C815.962769,540.110596 818.304626,529.205444 823.917725,519.249207 
	C827.045349,513.701599 829.678650,507.374390 836.209351,504.371094 
	C837.873169,503.605957 837.026672,501.745239 836.724915,500.287933 
	C835.365234,493.721588 837.460938,490.000763 843.536987,487.663361 
	C845.046265,487.082733 846.425354,486.035217 847.698730,484.998840 
	C849.784546,483.301361 851.855286,483.180878 854.447754,484.644531 
M866.775269,514.827942 
	C866.096863,512.572754 866.340271,508.771637 862.962219,509.550476 
	C859.084717,510.444489 855.854187,508.786713 852.794678,508.622314 
	C848.306519,515.993958 848.707642,524.490784 846.474609,532.341919 
	C845.814148,534.664185 846.255310,537.697571 848.579285,539.036682 
	C851.099792,540.489136 852.812256,538.056213 854.431335,536.461365 
	C855.848511,535.065430 857.219238,533.594788 858.422241,532.013916 
	C862.191345,527.061035 866.192078,522.204285 866.775269,514.827942 
z"/>
<path fill="#000000" opacity="1.000000" stroke="none" 
	d="
M342.570190,79.469391 
	C335.440277,77.189186 334.393250,73.827820 334.182281,66.787926 
	C333.900940,57.399067 338.539032,49.189449 338.951080,40.088085 
	C339.068848,37.487038 340.881042,35.146751 341.965271,32.828781 
	C344.042480,28.388046 344.298126,24.063169 343.809387,19.430830 
	C343.712158,18.508722 343.915619,17.285294 344.473358,16.604935 
	C350.791992,8.897513 358.130188,3.057933 368.904724,3.751978 
	C371.052795,3.890347 373.179718,3.766460 375.350739,3.412997 
	C378.852417,2.842896 382.524689,2.130100 385.416260,5.384314 
	C386.322266,6.403918 387.782593,6.867250 389.099060,6.220213 
	C393.242462,4.183784 395.958832,5.486745 397.960876,9.454390 
	C399.399414,12.305301 403.370239,11.292228 405.225372,14.158880 
	C409.358948,20.546301 410.393311,26.866608 408.907318,34.564087 
	C407.610443,41.281857 404.599426,47.166668 400.850037,51.894737 
	C393.645081,60.980370 387.842438,71.313850 378.063202,78.449211 
	C373.826050,81.540810 370.243408,85.254280 365.126007,87.272530 
	C357.681396,90.208611 352.392548,87.325577 347.681427,82.083908 
	C346.337402,80.588509 344.688354,80.085457 342.570190,79.469391 
M370.011658,42.621220 
	C370.954285,41.262241 371.998230,39.961105 372.815094,38.530323 
	C373.954681,36.534306 376.504700,34.409061 372.869690,32.384418 
	C369.942078,30.753788 366.990143,30.426094 365.178101,33.841854 
	C362.144073,39.561203 362.326874,46.016449 361.295929,52.362076 
	C365.493256,50.427860 368.109650,47.327015 370.011658,42.621220 
z"/>
<path fill="#000000" opacity="1.000000" stroke="none" 
	d="
M810.715637,357.242889 
	C809.171265,353.925415 808.978577,351.297455 811.081726,348.162109 
	C813.303650,344.849854 811.152283,340.573639 812.540588,336.605499 
	C814.967224,329.669434 817.223083,322.676788 818.407410,315.237091 
	C819.564026,307.971222 829.835693,303.668762 835.601746,303.022247 
	C837.988037,302.754669 838.401489,307.785126 841.304321,304.730499 
	C846.967163,309.308868 855.125061,305.870514 860.714722,310.785858 
	C862.034607,311.946472 863.735779,312.029633 865.453125,311.604065 
	C870.195618,310.428802 874.273804,311.819550 877.678833,315.122681 
	C879.859985,317.238617 882.019836,319.202026 885.198669,319.612640 
	C885.794189,319.689575 886.805725,320.121704 886.836670,320.461639 
	C887.355896,326.169373 892.150146,326.068817 895.927612,327.958099 
	C899.804565,329.897186 899.372253,334.924713 900.191284,338.822144 
	C900.352173,339.587830 900.135864,340.498688 899.884888,341.275177 
	C895.333496,355.358276 887.589783,366.906342 873.953064,373.733856 
	C870.260803,375.582458 866.556274,377.406738 862.853271,379.233704 
	C857.596863,381.826965 852.245239,382.251648 846.306213,381.743134 
	C841.007812,381.289459 835.963501,380.377960 830.890686,379.040405 
	C829.015320,378.545898 827.406372,377.623962 826.280273,376.248016 
	C823.028992,372.275208 819.512878,369.665955 813.971436,368.808746 
	C809.973572,368.190308 810.625244,362.986389 810.310669,359.436768 
	C810.256714,358.827850 810.648682,358.179382 810.715637,357.242889 
M841.847839,359.562164 
	C844.348572,360.254211 846.303467,359.408691 848.193604,357.708405 
	C849.651001,356.397278 851.351440,354.853210 853.151978,354.512421 
	C861.605713,352.912415 866.274597,346.680054 871.209778,340.731598 
	C870.616638,338.842102 869.438843,337.557495 867.818970,337.122650 
	C858.376404,334.587891 849.120178,331.129517 839.046387,331.741333 
	C836.352539,331.904938 835.120850,333.145233 834.404053,335.363281 
	C833.741211,337.414551 833.147644,339.491882 832.616089,341.581268 
	C830.020935,351.780457 832.534485,356.995209 841.847839,359.562164 
z"/>
<path fill="#000000" opacity="1.000000" stroke="none" 
	d="
M528.130249,870.538696 
	C529.333435,859.926270 536.382690,852.450562 542.163452,845.174744 
	C547.249023,838.773865 555.711304,835.533997 564.932678,834.342041 
	C573.186890,833.275146 580.927368,835.631836 588.968506,835.098633 
	C592.556213,834.860657 596.291077,836.797546 599.953918,837.767151 
	C600.917664,838.022217 601.903503,838.258545 602.806641,838.664734 
	C604.979858,839.642151 607.753052,835.942871 609.166382,838.804321 
	C611.356079,843.237488 616.114746,847.078613 615.276428,852.222595 
	C614.234192,858.617676 613.501892,865.380859 609.453613,870.954285 
	C603.677551,878.906311 597.019714,885.852783 589.061829,891.815979 
	C585.606873,894.404968 581.387573,895.705383 578.416870,898.878479 
	C577.326721,900.042786 576.129272,899.895020 574.767456,899.417664 
	C569.466614,897.559570 564.148071,897.473755 558.710693,899.029053 
	C554.464600,900.243652 550.665955,899.019226 547.334106,895.882874 
	C546.283020,896.634094 545.235107,897.382996 543.801025,898.407898 
	C541.480957,892.168213 533.521179,896.909180 531.053894,891.674194 
	C527.986572,885.166077 525.482971,878.318909 528.130249,870.538696 
z"/>
<path fill="#000000" opacity="1.000000" stroke="none" 
	d="
M149.788055,378.233459 
	C144.606873,378.946289 142.376816,376.889740 141.723984,372.132812 
	C141.237289,368.586365 139.601089,365.210205 138.944504,361.671387 
	C138.109116,357.168823 141.243256,353.506165 142.572296,349.571991 
	C147.196625,335.883270 154.941055,324.179840 166.825150,315.354584 
	C169.847504,313.110168 172.681900,310.599274 175.886047,308.519867 
	C177.801910,307.276520 179.278885,306.109833 181.674698,307.359253 
	C183.233917,308.172424 184.567261,307.038666 185.578857,305.885498 
	C188.187744,302.911499 192.009583,303.212250 194.180389,304.942657 
	C199.838409,309.452789 206.761765,309.617432 213.110855,311.543182 
	C216.956848,312.709747 219.368683,315.277771 219.522522,318.287750 
	C219.792130,323.563049 221.941833,328.459290 219.508972,334.489471 
	C217.259796,340.064362 214.471970,345.656708 211.933884,350.947235 
	C209.430222,356.166077 205.825607,361.937958 200.441742,365.542023 
	C198.093323,367.114105 197.397095,369.856049 195.683807,371.797485 
	C188.918732,379.463531 180.209747,383.477875 170.134903,384.728546 
	C168.208588,384.967682 166.453659,384.657806 164.975662,383.431122 
	C160.688507,379.872772 155.266510,379.611328 149.788055,378.233459 
M179.553543,347.047241 
	C182.785141,342.859650 186.156403,338.769318 189.176071,334.434082 
	C190.303101,332.816071 191.722214,330.590271 189.278809,328.696228 
	C187.019012,326.944550 184.875793,326.863251 182.643692,329.021149 
	C176.138794,335.309845 173.228180,343.527344 170.191147,351.694794 
	C169.786224,352.783691 170.052200,353.670807 171.117065,354.178314 
	C172.173157,354.681641 173.140579,354.199402 173.811890,353.471924 
	C175.601425,351.532623 177.277161,349.488312 179.553543,347.047241 
z"/>
<path fill="#000000" opacity="1.000000" stroke="none" 
	d="
M657.128906,229.249329 
	C649.486206,234.398361 641.090698,235.196762 632.607788,235.696320 
	C631.447144,235.764664 630.685425,235.256943 630.095032,234.421448 
	C628.450989,232.094940 625.910522,231.168793 623.425781,230.292725 
	C621.085327,229.467545 619.005493,228.621658 617.293335,226.564987 
	C616.228699,225.286163 614.768250,224.251358 612.332581,224.129013 
	C605.906372,223.806290 602.331482,218.765152 602.913452,211.116989 
	C603.757812,200.021011 605.210876,188.979935 612.303162,179.725052 
	C613.794373,177.779099 614.399597,175.585297 614.814758,173.303101 
	C616.327454,164.987885 628.093628,157.899109 636.195007,160.344955 
	C642.430298,162.227402 648.774292,163.788315 654.570435,166.869675 
	C655.856567,167.553452 657.027100,167.736572 658.363037,167.210007 
	C659.342468,166.823990 660.675293,166.689728 661.174866,167.492081 
	C663.925781,171.910202 669.494202,173.229828 672.164856,177.675995 
	C672.420044,178.100876 672.540161,178.655594 672.886536,178.969894 
	C681.524536,186.809006 680.594971,196.535278 677.574280,206.156601 
	C675.215637,213.669464 669.963013,219.521973 663.467651,223.981339 
	C661.261230,225.496185 659.173889,227.024414 657.128906,229.249329 
M638.074829,204.596878 
	C642.716614,200.991943 647.785461,197.699615 649.033203,190.587433 
	C645.813843,190.815323 643.636902,190.675003 641.658264,189.143250 
	C639.992065,187.853439 637.381897,188.406372 636.762512,189.864594 
	C634.629517,194.886002 629.584656,199.303253 632.577576,205.677979 
	C634.448120,206.366043 635.903320,205.438263 638.074829,204.596878 
z"/>
<path fill="#000000" opacity="1.000000" stroke="none" 
	d="
M574.325806,27.282379 
	C581.019958,32.515064 588.620850,35.171463 595.938599,38.380875 
	C599.924072,40.128803 602.160339,42.338562 602.476562,47.546307 
	C602.864136,53.929348 602.771240,60.267628 600.335266,65.787766 
	C598.513794,69.915039 594.790222,73.462677 591.978760,77.329903 
	C586.320984,85.112152 578.059753,89.402008 569.748596,93.866280 
	C566.162109,95.792725 563.517700,96.556023 560.015137,94.978706 
	C559.595459,94.789703 558.841431,94.678955 558.575012,94.912071 
	C553.557007,99.302780 549.815613,94.712578 545.657593,93.125732 
	C541.693970,91.613106 538.130920,89.123817 533.397400,89.726501 
	C531.615112,89.953430 529.577209,88.022133 527.629150,87.133247 
	C524.754883,85.821716 526.904419,83.116241 526.090576,81.525238 
	C522.841675,75.174042 525.240540,69.149757 526.505432,63.030972 
	C528.025879,55.675991 530.482544,48.692993 535.390320,42.853333 
	C536.765259,41.217293 538.017639,39.989758 536.395264,37.741959 
	C535.270447,36.183483 535.907837,34.195343 537.226562,33.211288 
	C540.978882,30.411289 544.073853,26.156368 549.548950,26.635534 
	C555.334717,27.141882 561.259277,24.935883 566.970398,28.029705 
	C569.025879,29.143196 571.347473,25.596252 574.325806,27.282379 
M553.676941,60.751488 
	C554.272583,62.723866 553.494446,65.423111 555.881042,66.455437 
	C558.529724,67.601120 559.498718,64.831108 561.104919,63.589447 
	C562.677002,62.374107 564.260010,61.172440 565.855713,59.988293 
	C568.548157,57.990223 567.970337,56.184929 565.534180,54.514210 
	C561.670349,51.864365 556.541199,54.295692 553.676941,60.751488 
z"/>
<path fill="#000000" opacity="1.000000" stroke="none" 
	d="
M806.976807,212.953918 
	C804.071472,218.489166 798.331543,219.954727 794.092590,223.260544 
	C791.808289,225.042007 788.916748,225.935898 785.693848,224.516174 
	C780.636597,222.288483 774.540344,223.358032 769.846741,219.659973 
	C769.299622,219.228958 767.963074,219.874023 766.990479,219.889557 
	C765.844421,219.907867 763.977112,220.197464 763.664856,219.654709 
	C761.563477,216.002029 757.425659,214.217010 755.371521,210.853653 
	C753.435486,207.683701 752.818176,204.082870 752.933105,199.751389 
	C753.211853,189.239685 758.750061,181.301376 763.086731,172.673050 
	C763.836792,171.180725 764.941895,169.848572 764.822266,168.103836 
	C764.138733,158.136002 771.330688,154.005432 778.385254,149.818024 
	C779.492493,149.160797 781.175171,148.465591 782.170227,149.470261 
	C788.016907,155.373322 796.222473,152.682907 802.859375,155.361023 
	C809.936951,158.216934 817.126404,161.081940 821.979126,167.618851 
	C823.740784,169.991837 822.893555,172.560974 822.824768,174.835449 
	C822.634094,181.139435 822.275696,187.199097 819.718323,193.543823 
	C816.702271,201.026459 811.420959,206.362976 806.976807,212.953918 
M785.760376,190.200577 
	C787.262329,187.638565 788.787842,185.089920 790.253479,182.507248 
	C790.767822,181.600891 790.951782,180.544327 790.023010,179.808594 
	C789.008362,179.004929 787.395203,178.958221 786.850830,179.863388 
	C784.396423,183.944122 781.582886,187.967194 781.464111,193.094818 
	C783.912415,193.446091 784.596436,192.025391 785.760376,190.200577 
z"/>
<path fill="#000000" opacity="1.000000" stroke="none" 
	d="
M632.973145,949.512939 
	C629.015015,955.939148 626.446228,963.048828 618.798401,965.812317 
	C617.775391,966.182068 617.305298,967.924133 616.432861,968.899902 
	C614.365784,971.211365 612.580322,974.143738 608.627258,972.730774 
	C607.421448,972.299744 605.967773,972.769409 605.449951,973.672668 
	C602.128723,979.466919 595.533264,979.203247 591.049377,979.004700 
	C582.178406,978.612061 573.225159,983.047607 564.141235,977.816589 
	C564.171875,976.468506 563.718445,974.719666 560.835388,973.923523 
	C557.318115,972.952209 555.686890,969.620972 554.197144,966.411072 
	C549.866333,957.079468 552.605408,948.640198 557.083252,940.258606 
	C558.904480,936.849670 561.375671,933.946838 563.457092,930.751343 
	C564.212524,929.591614 565.314880,928.336365 566.595337,928.537964 
	C575.340698,929.915039 580.934753,922.220154 588.811951,920.884094 
	C590.876160,920.534058 592.344971,919.935364 594.109558,921.229614 
	C596.800964,923.203491 599.366150,923.651489 602.861877,922.359863 
	C607.412781,920.678406 612.252930,922.738770 616.970032,923.190369 
	C622.349426,923.705322 624.804993,929.605774 630.347107,930.202820 
	C632.691406,930.455444 633.555542,933.620972 633.731140,935.882202 
	C634.073547,940.291199 634.947815,944.798645 632.973145,949.512939 
z"/>
<path fill="#000000" opacity="1.000000" stroke="none" 
	d="
M388.601624,188.922607 
	C391.887634,183.392288 397.126648,180.910950 402.509369,180.705093 
	C409.361725,180.443024 416.609650,178.917847 423.165375,182.672089 
	C424.302338,183.323196 425.368256,183.198837 426.520660,182.859207 
	C428.819336,182.181763 430.273407,182.463394 431.707581,185.015671 
	C433.728516,188.612152 438.354950,189.080688 441.622314,191.335312 
	C444.922760,193.612762 447.223633,196.821182 450.310059,199.271790 
	C452.005920,200.618301 450.613525,212.443527 449.230835,214.394501 
	C445.041901,220.304886 441.153351,226.375198 435.896210,231.533447 
	C430.708679,236.623413 424.647797,240.052719 418.197357,243.009399 
	C417.030640,243.544205 415.383820,243.196289 414.614014,244.475418 
	C411.261719,250.045853 405.596375,250.129257 400.143524,250.590668 
	C398.711212,250.711868 396.680603,250.693207 395.851440,249.839127 
	C391.779541,245.644775 385.636658,244.238953 382.105499,239.404999 
	C381.813385,239.005142 381.508362,238.407852 381.115295,238.319199 
	C373.221375,236.538727 375.654053,230.317566 375.331757,225.191696 
	C374.958130,219.249100 377.337708,213.851425 378.393311,208.195786 
	C379.179291,203.984512 381.338715,200.437088 384.398956,197.487900 
	C386.764252,195.208450 388.222076,192.563980 388.601624,188.922607 
M397.640778,209.560959 
	C398.885040,213.089493 398.361084,216.342834 396.433807,219.547577 
	C394.826050,222.221008 395.764740,224.786133 397.776581,226.783951 
	C399.648651,228.643036 401.381042,226.669998 403.217560,226.188278 
	C408.363190,224.838577 412.506073,221.458496 416.281891,218.313995 
	C420.263763,214.997894 424.846039,211.123840 425.510315,205.017029 
	C421.656158,203.163345 418.213989,204.958847 414.821503,204.603394 
	C408.655731,203.957367 402.227600,202.484253 397.640778,209.560959 
z"/>
<path fill="#000000" opacity="1.000000" stroke="none" 
	d="
M181.589966,190.739639 
	C186.183105,179.101501 195.014404,170.530151 200.839935,160.046005 
	C202.601227,156.876190 206.045898,155.603180 210.135696,155.343307 
	C215.869125,154.979019 221.229370,156.622070 226.773956,157.137451 
	C230.767609,157.508667 234.080338,160.210953 236.211670,163.170532 
	C239.602905,167.879639 243.247421,172.349197 246.914688,176.819168 
	C248.603760,178.877960 249.237442,181.669174 248.935898,183.819916 
	C248.188538,189.150726 246.722992,194.421005 245.118347,199.582672 
	C242.270538,208.743240 234.650391,213.633347 227.446960,218.991852 
	C222.461349,222.700592 217.045380,224.646393 211.009109,225.267654 
	C208.790924,225.495956 206.803894,226.104706 204.475784,224.352493 
	C203.351730,223.506485 200.269745,222.473434 198.077744,224.121307 
	C197.203537,224.778488 195.594711,225.093460 195.421890,224.310165 
	C194.144882,218.522018 188.486862,220.442581 185.114578,218.448929 
	C181.456360,216.286209 180.096710,213.775528 179.761154,209.747421 
	C179.230103,203.372467 181.260040,197.320206 181.589966,190.739639 
M217.773148,176.790298 
	C215.941650,176.089264 214.110153,175.388229 211.962692,174.566254 
	C210.273209,179.883820 208.121552,184.669861 205.479752,189.257797 
	C203.857544,192.074997 203.688538,195.357285 204.283432,198.515106 
	C204.841843,201.479294 207.326767,202.587067 209.461548,200.927902 
	C214.143402,197.289093 219.280182,193.925278 221.782516,188.122299 
	C224.679626,181.403870 224.213242,179.853348 217.773148,176.790298 
z"/>
<path fill="#000000" opacity="1.000000" stroke="none" 
	d="
M214.852570,614.420044 
	C216.707977,614.584595 218.234924,614.833801 219.688675,614.609314 
	C229.438828,613.103271 242.701431,623.871582 243.333694,633.782593 
	C243.582977,637.690369 241.329865,640.953369 241.135605,644.898560 
	C240.659454,654.569824 238.155258,663.818054 231.999725,671.726440 
	C231.028061,672.974792 230.745499,674.757385 230.134354,676.289001 
	C228.615112,680.096375 223.957794,682.131165 219.771530,681.737915 
	C212.363083,681.041992 205.445541,677.667358 197.884521,677.966858 
	C196.875061,678.006836 195.443527,677.596130 195.407425,676.664795 
	C195.262985,672.938232 191.572769,670.382996 191.317627,667.618286 
	C190.645004,660.329956 189.069061,652.806580 191.796707,645.489990 
	C192.836746,642.700256 193.569809,639.796082 194.444153,636.944519 
	C194.961685,635.256714 194.095184,634.300537 192.937210,633.115662 
	C188.340424,628.412170 188.932434,621.990173 194.112839,617.706482 
	C195.261978,616.756165 196.674118,615.856201 197.306946,614.601196 
	C198.981705,611.280151 200.689590,609.617188 203.963654,612.955505 
	C204.998398,614.010620 206.524780,613.777405 207.713470,613.061035 
	C210.388489,611.449036 212.461426,612.617432 214.852570,614.420044 
z"/>
<path fill="#000000" opacity="1.000000" stroke="none" 
	d="
M184.259033,520.239685 
	C181.146011,522.486938 178.340973,524.553650 176.172607,527.325806 
	C171.145432,533.752625 163.107819,535.121094 156.494461,538.842651 
	C153.967682,540.264587 150.388611,539.867126 147.288406,539.104126 
	C139.979645,537.305298 134.539810,531.922424 127.911972,528.726074 
	C124.321472,526.994507 125.637863,521.352783 125.936310,517.653809 
	C127.076820,503.518127 133.679260,492.485352 146.073837,485.136047 
	C147.456406,484.316254 148.449539,482.854980 149.669281,481.741547 
	C151.350525,480.206818 153.327347,479.217773 155.586578,480.010040 
	C158.079773,480.884338 160.342331,482.315552 162.813248,479.740204 
	C163.581192,478.939789 164.916260,480.215637 165.998688,480.518127 
	C169.754929,481.567810 172.559662,485.493835 177.256775,483.924988 
	C178.801651,483.409027 179.652191,485.357330 180.340103,486.703339 
	C182.014267,489.979065 183.969116,492.782440 187.411377,494.745483 
	C191.598648,497.133423 192.245468,504.102417 190.377609,508.796112 
	C188.791077,512.782959 187.767105,516.917786 184.259033,520.239685 
M156.763367,509.149902 
	C158.240005,508.122131 159.787247,507.180511 161.174423,506.043579 
	C162.717392,504.778961 162.717865,503.159821 161.487686,501.696808 
	C160.162308,500.120514 158.492813,498.908844 156.332260,499.977478 
	C151.678802,502.279144 150.249268,506.639648 152.311722,512.005859 
	C154.278061,512.326416 155.135300,510.747772 156.763367,509.149902 
z"/>
<path fill="#000000" opacity="1.000000" stroke="none" 
	d="
M533.471802,777.091003 
	C532.434387,772.139282 533.002869,767.432678 531.766418,762.895508 
	C530.838257,759.489624 533.232178,756.994141 534.640564,754.230713 
	C538.363220,746.926819 543.658630,741.064270 550.716858,736.939026 
	C554.240173,734.879761 556.043945,735.467407 559.359070,738.779480 
	C562.963501,736.623474 573.629761,737.204895 576.834412,739.888794 
	C579.322571,741.972656 581.977722,743.589294 585.263489,743.818176 
	C588.907959,744.072021 591.081909,746.262207 592.215027,749.381958 
	C594.615662,755.991699 594.539185,762.226379 591.565613,769.094849 
	C589.546936,773.757751 586.557495,777.584229 583.943787,781.620483 
	C580.854187,786.391663 576.112122,789.871094 570.120789,791.180664 
	C562.162720,792.920044 554.179932,791.746582 546.688904,789.896240 
	C540.819092,788.446289 536.128296,783.574097 533.471802,777.091003 
z"/>
<path fill="#000000" opacity="1.000000" stroke="none" 
	d="
M675.839355,435.863281 
	C676.611755,436.668579 677.616882,437.466064 677.488586,437.981140 
	C676.158081,443.321564 676.017700,449.537292 672.442444,453.542816 
	C669.432800,456.914642 664.903381,459.486542 661.444031,462.570648 
	C657.364197,466.207886 651.307922,467.450989 648.811218,472.901306 
	C648.679138,473.189484 648.429443,473.505615 648.153320,473.634003 
	C640.552490,477.168793 632.951538,480.703918 625.317139,484.165100 
	C624.447693,484.559265 623.108215,484.185272 622.446106,484.727936 
	C613.482544,492.075165 602.181335,493.276367 591.777588,496.947968 
	C586.057678,498.966553 580.227844,501.102570 574.706116,503.636566 
	C567.291748,507.039124 559.369507,507.931458 551.684265,509.926086 
	C545.054993,511.646667 541.706665,510.097809 537.900269,504.316040 
	C535.678345,500.940979 531.458557,501.245239 528.631104,498.780457 
	C524.381897,495.076385 524.891479,488.729584 529.307983,485.051514 
	C534.659180,480.595001 541.731201,481.938019 547.206787,478.674377 
	C554.146179,474.538239 562.168823,475.105042 569.538025,472.930328 
	C570.238770,472.723541 571.257874,472.915344 571.696045,470.892914 
	C564.687012,472.508575 557.762390,471.323090 551.066223,473.381531 
	C548.730347,474.099579 546.380249,474.594238 543.877075,474.880280 
	C536.228088,475.754272 532.479065,469.827728 528.237061,465.810333 
	C522.673706,460.541687 525.365234,453.135803 532.653870,450.456177 
	C537.804749,448.562561 543.344849,447.488342 547.621216,443.570190 
	C548.342529,442.909302 549.799500,442.944366 550.932007,442.856232 
	C558.542053,442.264221 565.794128,439.271393 573.241699,438.690002 
	C581.195740,438.069031 588.739258,435.972229 596.446777,434.555664 
	C609.925781,432.078430 623.783630,431.795563 636.814026,426.487091 
	C644.252563,423.456665 652.420105,422.225647 660.193420,419.901306 
	C663.895874,418.794250 664.716858,422.732178 665.802551,425.409576 
	C667.711609,430.117340 670.296265,434.176727 675.839355,435.863281 
z"/>
<path fill="#000000" opacity="1.000000" stroke="none" 
	d="
M424.554199,384.145172 
	C426.946259,381.945618 429.618195,382.471039 431.937775,382.957428 
	C439.266968,384.494354 447.139130,385.074554 451.648499,392.553070 
	C452.538025,394.028259 454.300507,394.455872 455.840332,395.112976 
	C457.454315,395.801697 459.016785,396.948303 457.994049,398.900757 
	C456.797943,401.184052 458.008179,402.715088 459.497467,403.551056 
	C466.873383,407.691254 465.554535,415.317505 466.372955,421.649536 
	C467.234894,428.318573 465.091370,434.811310 461.481750,440.797363 
	C456.153748,449.633179 447.563721,453.926422 438.322723,454.994904 
	C433.001740,455.610138 426.564240,453.673981 421.747406,448.715851 
	C417.582733,444.428986 412.607025,440.581329 406.971375,438.048340 
	C404.177124,436.792419 402.760681,435.310333 402.311951,431.872620 
	C401.244934,423.698669 402.104187,415.993927 405.358185,408.478973 
	C405.677856,407.740784 406.085114,406.597839 405.757751,406.090424 
	C402.349792,400.807037 406.679199,396.874084 408.423889,392.849152 
	C411.277679,386.265686 417.813293,385.025940 424.554199,384.145172 
z"/>
<path fill="#000000" opacity="1.000000" stroke="none" 
	d="
M540.220459,401.129333 
	C540.081909,399.995575 540.292236,399.004852 539.898682,398.421570 
	C538.273743,396.013245 534.340942,393.624603 535.621765,391.143707 
	C538.117004,386.310760 538.854187,380.155396 544.329956,377.104034 
	C546.094727,376.120575 547.382324,374.608948 548.571350,372.959076 
	C554.265564,365.058197 561.358826,359.776550 571.767090,360.679688 
	C573.732849,360.850281 575.741638,360.697174 577.561584,359.586060 
	C578.933472,358.748505 580.877258,358.462219 581.702148,359.746887 
	C583.200134,362.079926 584.736877,361.624664 586.758850,360.868591 
	C589.998108,359.657288 591.382080,362.348999 592.562134,364.347900 
	C595.696594,369.657074 597.429626,375.597137 601.174133,380.788635 
	C603.377930,383.843964 604.342102,389.178619 601.284363,393.526459 
	C599.192871,396.500336 599.742126,400.308624 597.803955,403.676514 
	C592.575500,412.761780 578.410217,421.434784 567.991455,420.667877 
	C567.332825,420.619385 566.586914,420.595306 566.046936,420.278351 
	C561.158691,417.408783 556.376099,414.291595 551.564453,411.376434 
	C547.598877,408.973877 543.201904,405.718109 540.220459,401.129333 
z"/>
</svg>