<?xml version="1.0" standalone="no"?>
<!DOCTYPE svg PUBLIC "-//W3C//DTD SVG 20010904//EN"
 "http://www.w3.org/TR/2001/REC-SVG-20010904/DTD/svg10.dtd">
<svg version="1.0" xmlns="http://www.w3.org/2000/svg"
 width="2048.000000pt" height="2048.000000pt" viewBox="0 0 2048.000000 2048.000000"
 preserveAspectRatio="xMidYMid meet">

<g transform="translate(0.000000,2048.000000) scale(0.100000,-0.100000)"
fill="#000000" stroke="none">
<path d="M16949 17464 c-30 -16 -64 -18 -91 -3 -15 8 -26 8 -42 0 -11 -6 -51
-12 -88 -14 -37 -2 -71 -6 -74 -10 -4 -4 -21 -7 -38 -7 -30 0 -138 -39 -144
-51 -2 -4 -12 -5 -23 -2 -11 3 -27 -1 -37 -9 -23 -20 -78 -38 -117 -38 -19 0
-39 -8 -49 -19 -10 -10 -37 -24 -62 -30 -25 -7 -44 -17 -44 -25 0 -17 -25 -27
-45 -20 -8 4 -15 1 -15 -6 0 -6 -4 -9 -8 -6 -12 7 -53 -24 -47 -35 10 -15 -24
-22 -50 -11 -21 10 -26 8 -36 -9 -8 -17 -17 -20 -39 -15 -23 4 -30 1 -35 -14
-4 -11 -13 -20 -21 -20 -25 0 -87 -37 -117 -69 -16 -17 -36 -31 -44 -31 -17 0
-58 -28 -183 -127 -43 -35 -83 -63 -87 -63 -5 0 -14 -9 -21 -20 -7 -11 -18
-20 -26 -20 -7 0 -21 -9 -31 -20 -10 -11 -23 -20 -30 -20 -6 0 -17 -11 -25
-24 -11 -22 -85 -82 -115 -96 -19 -8 -105 -87 -106 -96 0 -5 -20 -25 -44 -44
-24 -19 -49 -45 -56 -57 -7 -13 -19 -23 -26 -23 -8 0 -11 -4 -8 -10 3 -5 -5
-15 -19 -22 -14 -6 -26 -17 -26 -25 0 -7 -8 -17 -17 -20 -25 -10 -103 -94
-103 -112 0 -9 -16 -29 -35 -45 -26 -22 -33 -34 -29 -51 4 -18 0 -24 -20 -29
-14 -3 -26 -13 -26 -21 0 -8 -7 -15 -16 -15 -12 0 -15 -7 -12 -29 3 -21 0 -27
-11 -25 -17 4 -111 -109 -111 -132 0 -8 -4 -14 -10 -14 -5 0 -12 -11 -16 -24
-3 -14 -12 -27 -20 -30 -8 -3 -14 -13 -14 -22 0 -9 -9 -27 -20 -41 -11 -14
-20 -31 -20 -37 0 -6 -9 -17 -21 -24 -14 -9 -18 -19 -13 -34 4 -13 2 -18 -5
-14 -6 4 -13 -5 -17 -21 -4 -15 -22 -47 -41 -71 -18 -24 -33 -50 -33 -58 0 -8
-4 -14 -8 -14 -4 0 -16 -13 -25 -30 -17 -29 -17 -29 0 -23 13 4 11 -2 -9 -23
-15 -16 -39 -51 -53 -79 -15 -27 -35 -59 -46 -71 -13 -13 -17 -27 -13 -39 5
-13 4 -16 -4 -11 -7 4 -12 2 -12 -4 0 -6 -12 -28 -26 -50 -14 -21 -23 -44 -19
-49 3 -6 2 -11 -3 -11 -14 0 -52 -81 -45 -94 3 -6 3 -8 -2 -4 -11 10 -35 -11
-35 -31 0 -9 -12 -27 -25 -40 -14 -13 -25 -28 -25 -34 0 -6 -8 -20 -19 -31
-10 -12 -28 -48 -40 -81 -12 -33 -30 -72 -40 -86 -11 -14 -26 -45 -34 -70 -9
-24 -25 -62 -36 -84 -12 -21 -21 -46 -21 -55 0 -9 -5 -21 -12 -28 -6 -6 -11
-25 -10 -42 0 -18 -5 -33 -13 -36 -23 -9 -57 -84 -50 -111 3 -15 1 -23 -8 -23
-14 0 -40 -59 -35 -81 2 -7 -9 -18 -23 -25 -14 -8 -32 -26 -40 -41 -17 -33
-45 -63 -59 -63 -5 0 -10 -4 -10 -10 0 -5 -28 -37 -62 -70 -33 -33 -57 -60
-52 -60 5 0 -5 -8 -22 -19 -16 -10 -51 -38 -76 -62 -25 -24 -65 -59 -87 -78
-23 -19 -41 -41 -41 -48 0 -7 -7 -13 -15 -13 -19 0 -21 -29 -11 -120 3 -19 2
-27 -1 -17 -3 11 -11 16 -20 13 -8 -3 -18 -6 -23 -6 -4 0 -10 -9 -13 -20 -6
-23 -35 -27 -43 -5 -4 8 -18 15 -33 15 -27 0 -51 16 -51 33 0 4 5 5 10 2 6 -3
10 0 10 8 0 9 -14 17 -35 21 -21 4 -35 13 -35 21 0 8 -4 15 -10 15 -5 0 -7 6
-4 14 6 15 -41 46 -68 46 -7 0 -19 14 -26 30 -11 23 -20 30 -42 30 -32 0 -57
21 -66 54 -7 30 -58 60 -90 52 -17 -5 -24 -2 -24 8 0 8 6 17 13 19 6 3 2 6
-10 6 -12 1 -31 10 -41 21 -10 11 -33 22 -51 24 -17 2 -33 5 -34 7 -1 2 -7 13
-13 24 -11 19 -46 27 -122 25 -12 0 -25 7 -28 15 -4 8 -15 15 -25 15 -11 0
-22 7 -25 15 -4 8 -15 15 -26 15 -12 0 -26 7 -32 15 -7 8 -42 18 -88 24 -42 5
-89 17 -105 26 -28 16 -32 16 -62 0 -31 -15 -34 -15 -52 1 -30 27 -156 34
-222 13 -30 -10 -42 -10 -64 2 -14 8 -34 13 -45 11 -10 -2 -25 3 -33 11 -11
11 -39 14 -125 12 -62 -1 -116 -7 -122 -13 -8 -8 -17 -6 -33 4 -21 13 -121 14
-165 2 -8 -3 -12 -3 -7 -1 4 3 7 12 7 20 0 12 -8 14 -35 10 -19 -3 -37 -2 -40
3 -8 13 -121 6 -139 -9 -14 -11 -16 -11 -16 3 0 17 0 18 -47 22 -18 1 -35 -2
-39 -7 -8 -14 -40 -11 -54 6 -7 9 -20 13 -28 10 -8 -3 -20 -1 -26 3 -6 5 -18
10 -26 10 -8 1 -27 4 -41 7 -17 5 -31 1 -42 -9 -19 -20 -27 -20 -27 -2 0 20
-29 24 -65 10 -16 -6 -54 -10 -82 -9 -34 2 -50 -1 -46 -8 4 -6 -3 -8 -18 -4
-13 3 -45 9 -72 12 -26 4 -50 11 -53 16 -3 5 -13 5 -24 -1 -12 -6 -21 -6 -25
-1 -3 6 -18 4 -38 -4 -32 -13 -82 -10 -104 7 -7 5 -14 5 -18 -2 -3 -5 -17 -7
-31 -4 -17 4 -32 0 -46 -12 -15 -14 -22 -16 -25 -6 -6 15 -63 16 -63 1 0 -8
-4 -8 -14 0 -18 15 -124 10 -130 -6 -4 -9 -12 -9 -33 2 -16 9 -31 11 -38 5 -6
-5 -34 -11 -63 -13 -47 -4 -87 -17 -53 -17 7 0 10 -4 6 -9 -3 -5 -36 -8 -73
-7 -37 1 -90 -3 -119 -9 -29 -7 -57 -8 -65 -4 -21 14 -56 10 -91 -8 -23 -12
-50 -16 -94 -14 -60 3 -63 2 -63 -20 0 -20 -1 -21 -12 -6 -11 14 -22 15 -88 6
-41 -6 -86 -12 -100 -14 -14 -1 -25 -3 -25 -4 0 -1 -30 -4 -68 -6 -37 -2 -88
-10 -115 -18 -26 -9 -60 -15 -77 -16 -16 0 -50 -7 -74 -15 -24 -9 -58 -16 -77
-16 -18 0 -36 -4 -39 -10 -3 -5 -22 -10 -41 -10 -22 0 -37 -6 -41 -16 -4 -12
-14 -14 -35 -10 -18 3 -41 0 -59 -9 -16 -9 -30 -15 -31 -15 -8 3 -45 -15 -60
-28 -10 -8 -18 -11 -18 -5 0 8 -32 10 -50 3 -3 -1 -9 -2 -13 -1 -11 2 -78 -20
-92 -30 -13 -9 -42 -16 -155 -35 -47 -8 -86 -19 -88 -24 -2 -6 -13 -10 -25
-10 -22 0 -141 -39 -164 -53 -7 -4 -24 -5 -39 -1 -18 5 -25 3 -21 -3 9 -14
-26 -23 -46 -12 -11 7 -22 1 -41 -23 -14 -18 -26 -27 -26 -20 0 7 -13 12 -30
12 -21 0 -30 -5 -30 -16 0 -14 -3 -14 -15 -4 -12 10 -18 10 -30 0 -9 -7 -29
-13 -45 -12 -16 0 -32 -4 -35 -9 -4 -5 -17 -9 -30 -9 -13 0 -27 -4 -30 -10 -3
-5 -14 -10 -24 -10 -10 0 -24 -7 -31 -15 -7 -9 -19 -14 -26 -11 -7 3 -16 1
-20 -5 -3 -6 -12 -8 -20 -5 -8 3 -17 -1 -20 -9 -4 -10 -20 -15 -46 -15 -31 0
-39 -3 -35 -15 9 -21 -9 -28 -27 -9 -16 16 -48 12 -74 -9 -13 -10 -68 -19
-117 -18 -11 0 -42 -6 -70 -14 -27 -8 -67 -16 -88 -18 -24 -3 -46 -14 -62 -31
-13 -14 -30 -26 -37 -26 -9 0 -9 3 2 10 8 5 11 12 8 16 -9 9 -78 -5 -78 -15 0
-5 -16 -9 -36 -8 -20 1 -39 -5 -44 -12 -4 -8 -13 -11 -18 -7 -11 7 -17 5 -77
-27 -22 -11 -35 -13 -48 -5 -12 6 -28 6 -49 -1 -17 -6 -44 -11 -59 -11 -15 0
-31 -4 -34 -10 -3 -5 -21 -10 -40 -10 -19 0 -36 -4 -40 -9 -3 -6 -13 -10 -23
-11 -129 -8 -153 -13 -166 -32 -9 -13 -15 -15 -18 -7 -3 9 -12 8 -38 -4 -18
-9 -50 -17 -70 -17 -20 0 -40 -3 -43 -7 -15 -14 -114 -45 -155 -49 -24 -1 -49
-7 -55 -13 -7 -5 -29 -12 -50 -16 -21 -4 -50 -18 -65 -32 -14 -13 -32 -21 -39
-18 -8 2 -11 0 -8 -5 3 -6 -4 -10 -17 -10 -13 0 -29 -5 -35 -11 -5 -5 -25 -18
-44 -27 -21 -10 -33 -24 -33 -34 1 -14 -4 -16 -21 -12 -18 4 -24 0 -29 -20 -3
-14 -11 -26 -17 -26 -6 0 -6 -7 1 -20 9 -17 8 -20 -10 -20 -12 0 -18 5 -15 10
3 6 2 10 -4 10 -5 0 -11 -10 -13 -22 -2 -13 -13 -27 -26 -33 -20 -9 -22 -15
-17 -45 6 -32 5 -34 -8 -15 -13 16 -17 17 -31 6 -9 -7 -16 -19 -16 -26 0 -8
-5 -15 -12 -17 -9 -3 -9 -6 0 -12 7 -4 12 -2 12 3 0 6 7 11 15 11 9 0 12 -6 9
-15 -4 -10 0 -15 14 -15 25 0 39 -19 22 -30 -9 -5 -9 -9 -1 -14 6 -4 15 -5 20
-1 5 3 12 1 16 -5 11 -18 32 -11 39 13 6 21 7 21 20 4 14 -18 15 -17 21 4 5
14 2 25 -6 30 -10 7 -9 8 6 6 11 -1 26 -6 33 -10 8 -6 12 -2 12 12 0 16 9 21
44 26 34 5 46 12 50 28 4 17 8 19 18 9 16 -16 28 -15 28 1 0 21 49 40 66 26
10 -8 18 -8 27 -1 7 6 27 10 45 10 20 -1 37 6 45 16 7 10 28 19 47 21 87 10
214 47 239 69 13 12 30 17 46 14 14 -3 54 1 88 9 85 19 95 21 152 30 43 7 50
12 49 31 0 18 5 22 33 22 18 0 33 -4 33 -10 0 -5 16 -10 36 -10 27 0 37 5 41
20 6 24 12 25 40 5 12 -8 24 -11 27 -6 5 8 43 18 96 26 8 2 35 10 59 19 24 9
56 16 71 16 15 0 30 6 33 13 3 8 42 18 98 26 119 16 119 16 119 41 0 24 9 26
25 4 9 -13 16 -14 33 -5 11 6 34 11 49 11 16 0 33 4 39 10 5 5 38 13 72 16 51
6 67 12 83 32 11 14 30 27 42 29 11 2 24 7 27 12 3 5 15 12 28 16 15 4 21 12
18 21 -4 9 2 14 15 14 26 0 20 -22 -9 -35 -25 -11 -29 -25 -7 -25 8 0 15 4 15
10 0 5 10 10 23 10 98 2 192 25 269 66 14 8 35 14 46 14 12 0 24 5 27 10 4 6
14 10 23 9 10 -1 19 0 22 1 16 6 52 12 108 17 34 3 65 10 68 14 3 5 16 9 30 9
14 0 22 4 19 10 -3 5 0 8 7 5 7 -3 27 -1 43 3 25 7 30 14 27 35 -2 21 1 24 18
20 11 -3 20 -9 20 -14 0 -5 8 -5 18 0 9 5 26 12 37 16 16 5 17 8 5 15 -8 5
-11 13 -6 17 4 4 13 0 20 -10 16 -21 26 -22 26 -3 0 7 11 16 24 18 17 4 23 1
19 -9 -6 -15 32 -19 42 -3 3 6 22 10 41 10 19 0 34 4 34 10 0 5 9 14 20 20 16
8 18 8 14 -4 -6 -16 15 -33 25 -19 3 6 19 13 36 17 29 7 29 8 11 22 -19 13
-14 20 9 14 6 -2 38 -2 72 -1 61 2 126 21 138 41 3 5 19 8 35 6 23 -3 30 1 30
14 0 16 8 18 53 15 28 -1 56 0 61 2 4 3 38 6 75 8 36 1 82 7 101 13 37 12 139
24 202 23 20 0 40 4 43 9 3 6 35 10 71 10 36 0 80 7 99 14 19 8 61 16 92 16
111 3 154 12 178 36 14 14 27 20 30 14 3 -6 17 -7 30 -4 12 3 26 1 29 -5 9
-15 78 -14 113 1 15 6 60 13 98 14 200 9 232 11 250 21 11 6 29 7 39 3 11 -3
38 -3 60 1 56 11 56 11 50 -6 -7 -17 13 -20 35 -6 12 8 12 12 -2 26 -10 9 -17
18 -17 20 0 10 36 -10 48 -27 14 -20 57 -24 67 -8 5 8 12 7 22 -2 12 -10 18
-9 29 7 12 15 17 17 23 7 10 -16 71 -25 71 -10 0 7 4 7 13 0 6 -6 28 -10 47
-10 19 1 42 -1 50 -3 9 -3 15 3 15 15 0 24 20 31 48 19 50 -23 135 -45 163
-42 16 2 34 0 41 -4 6 -4 18 -4 26 -1 9 3 31 -1 49 -10 37 -17 305 -29 314
-14 7 11 44 0 66 -19 16 -15 39 -14 82 3 10 4 16 1 16 -7 0 -8 11 -15 25 -15
16 -1 25 3 25 13 0 9 -6 13 -15 9 -8 -3 -15 -1 -15 4 0 15 79 12 125 -4 22 -8
54 -12 70 -9 24 4 27 2 15 -7 -12 -9 -8 -10 18 -5 25 5 32 3 32 -9 0 -13 18
-15 123 -14 67 1 140 -2 162 -6 22 -4 72 -8 110 -10 44 -3 88 -12 117 -25 37
-17 62 -21 112 -18 63 3 65 3 68 -22 2 -22 9 -27 38 -29 19 -2 40 -8 47 -14 7
-5 21 -7 31 -4 13 4 29 -4 51 -25 24 -23 39 -29 56 -25 13 3 27 2 30 -4 3 -5
15 -10 26 -10 10 0 19 -7 19 -15 0 -9 7 -18 15 -21 8 -3 17 -14 20 -23 3 -9
21 -23 41 -30 20 -7 40 -23 46 -37 9 -20 17 -24 35 -19 18 4 23 1 23 -15 0
-11 7 -23 16 -27 9 -3 29 -18 44 -32 33 -30 104 -91 123 -104 9 -7 9 -10 0
-14 -7 -2 -13 -9 -13 -14 0 -6 4 -8 9 -5 13 8 51 -74 51 -109 0 -25 2 -27 13
-12 7 10 20 15 32 11 17 -4 20 -12 17 -39 -4 -35 -4 -35 26 -24 38 13 66 0 87
-41 9 -17 20 -30 25 -30 6 0 10 -11 10 -24 0 -13 7 -27 16 -30 8 -3 12 -10 9
-16 -3 -5 -2 -10 4 -10 5 0 12 6 15 13 3 6 4 -1 2 -17 -3 -23 6 -41 43 -87 25
-32 52 -58 59 -58 7 -1 11 -5 8 -10 -5 -7 7 -49 47 -163 5 -16 15 -28 23 -28
13 0 36 -33 40 -55 0 -5 2 -16 2 -22 1 -7 8 -13 16 -13 16 0 28 -38 14 -42 -7
-3 -7 -10 0 -23 30 -53 53 -120 49 -141 -2 -13 0 -22 6 -21 5 1 19 -23 29 -53
11 -30 23 -57 27 -60 12 -8 24 -43 26 -76 1 -16 11 -43 22 -60 30 -42 36 -69
18 -84 -18 -15 -20 -50 -2 -50 18 0 57 -55 57 -81 0 -15 5 -19 15 -15 10 4 15
-1 15 -14 0 -10 8 -24 18 -29 9 -6 12 -11 6 -11 -15 0 -10 -110 6 -141 14 -26
17 -83 5 -112 -5 -11 2 -31 19 -57 30 -46 36 -66 19 -63 -18 4 -16 -24 2 -31
8 -3 15 -17 15 -31 0 -15 4 -24 10 -20 6 3 10 -2 10 -12 0 -11 4 -23 10 -29 6
-6 5 -18 -3 -34 -10 -18 -11 -37 -4 -69 6 -29 5 -51 -2 -68 -13 -28 -6 -47 16
-39 10 4 13 1 9 -12 -2 -9 -8 -36 -11 -60 -6 -39 -5 -44 16 -49 22 -6 22 -7 3
-14 -15 -6 -15 -8 -3 -8 19 -1 33 -41 19 -55 -12 -12 -13 -46 -2 -46 4 0 8 -9
8 -21 0 -16 -5 -19 -22 -15 -18 5 -21 2 -17 -14 3 -11 11 -25 19 -31 10 -9 11
-15 3 -25 -7 -9 -7 -18 0 -33 14 -26 14 -31 -4 -31 -19 0 -19 -28 0 -74 17
-40 16 -69 -3 -103 -10 -19 -9 -24 9 -36 13 -10 17 -17 9 -22 -8 -5 -8 -11 1
-21 6 -8 9 -23 6 -33 -3 -13 1 -21 12 -24 11 -3 9 -5 -6 -6 -27 -1 -29 -22 -7
-57 13 -20 15 -30 6 -49 -9 -19 -7 -38 9 -87 12 -40 16 -64 9 -66 -11 -4 -14
-62 -2 -62 4 0 6 -34 4 -75 -3 -65 -1 -74 12 -69 16 6 18 3 21 -62 0 -17 11
-41 22 -53 21 -23 21 -24 3 -55 -21 -39 -23 -83 -4 -113 7 -12 11 -29 8 -38
-4 -10 3 -27 20 -44 23 -24 25 -31 16 -61 -9 -31 -8 -37 10 -49 20 -13 20 -15
3 -33 -20 -22 -29 -123 -12 -134 6 -4 5 -11 -2 -20 -9 -11 -9 -18 -1 -26 15
-15 15 -45 1 -50 -7 -2 -7 -29 1 -91 9 -64 9 -96 1 -119 -15 -42 -15 -168 0
-168 8 0 7 -6 -2 -17 -25 -29 -35 -76 -25 -105 6 -16 15 -28 20 -28 5 0 1 -9
-8 -19 -10 -10 -16 -25 -15 -33 1 -7 -6 -30 -15 -52 -10 -21 -16 -50 -15 -65
1 -14 -1 -33 -5 -41 -3 -8 -7 -39 -9 -68 -2 -30 -9 -57 -16 -62 -8 -4 -10 -13
-6 -19 4 -7 2 -17 -3 -24 -5 -7 -15 -37 -23 -67 -7 -30 -19 -62 -26 -71 -7 -8
-13 -29 -13 -45 0 -17 -7 -39 -15 -50 -8 -10 -15 -27 -15 -36 0 -9 -11 -29
-24 -45 -13 -15 -27 -39 -31 -53 -4 -14 -18 -40 -32 -57 -24 -33 -24 -33 -3
-33 12 0 18 -4 15 -10 -4 -6 -15 -8 -26 -5 -15 5 -22 -1 -34 -28 -7 -18 -21
-39 -29 -46 -23 -19 -57 -81 -44 -81 7 0 6 -5 -2 -15 -7 -8 -18 -15 -25 -15
-8 0 -16 -13 -20 -29 -3 -16 -13 -32 -21 -35 -8 -3 -14 -14 -14 -24 0 -10 -11
-24 -25 -30 -14 -7 -25 -20 -25 -31 0 -11 -9 -25 -20 -31 -11 -6 -20 -17 -20
-25 0 -8 -4 -15 -10 -15 -5 0 -21 -17 -35 -37 -14 -21 -25 -34 -25 -29 0 5
-11 -1 -25 -14 -14 -13 -25 -27 -25 -32 0 -5 -13 -21 -30 -35 -16 -13 -30 -29
-30 -34 0 -6 -12 -20 -26 -32 -14 -13 -27 -34 -27 -48 -1 -16 -7 -25 -14 -22
-15 6 -63 -26 -63 -42 0 -7 -7 -15 -15 -19 -8 -3 -15 -11 -15 -17 0 -13 -6
-21 -62 -78 -18 -18 -32 -37 -31 -41 1 -5 -11 -11 -27 -15 -31 -7 -49 -42 -34
-66 5 -9 2 -10 -9 -6 -12 4 -14 2 -10 -10 4 -10 2 -14 -4 -10 -14 9 -63 -15
-63 -32 0 -7 -6 -11 -15 -7 -18 6 -45 -41 -45 -79 0 -27 -17 -34 -26 -10 -8
19 -23 10 -34 -21 -5 -13 -16 -24 -25 -24 -8 0 -15 -7 -15 -15 0 -8 -6 -12
-14 -9 -19 7 -32 -16 -15 -27 12 -7 11 -9 -1 -9 -8 0 -26 -9 -39 -19 l-24 -19
21 -7 c29 -9 18 -25 -17 -25 -15 0 -32 -5 -39 -12 -15 -15 -16 -45 -1 -50 17
-6 -26 -48 -49 -48 -31 0 -35 -16 -10 -40 19 -17 20 -22 8 -30 -8 -5 -19 -6
-24 -2 -19 11 -80 1 -98 -16 -9 -9 -23 -22 -30 -29 -23 -22 -38 -42 -38 -53 0
-5 -4 -10 -10 -10 -5 0 -10 -6 -10 -12 0 -7 -16 -26 -35 -41 -19 -15 -35 -35
-35 -43 0 -8 -20 -29 -45 -46 -25 -18 -45 -39 -45 -47 -1 -22 -35 -61 -53 -61
-18 0 -60 -54 -50 -64 3 -3 1 -6 -5 -6 -7 0 -12 -7 -12 -16 0 -13 -7 -15 -30
-10 -33 6 -52 -16 -32 -36 8 -8 4 -16 -13 -29 -13 -11 -28 -19 -34 -19 -6 0
-11 -8 -11 -19 0 -10 -7 -24 -15 -31 -12 -10 -15 -10 -15 3 0 13 -7 12 -39 -6
-30 -17 -37 -25 -29 -35 6 -7 7 -16 3 -20 -4 -4 -10 -1 -12 6 -7 19 -35 14
-76 -13 -26 -18 -36 -32 -34 -48 1 -15 -3 -21 -13 -18 -42 11 -96 -1 -116 -25
-12 -14 -26 -24 -30 -23 -23 4 -44 -2 -42 -12 2 -6 -6 -16 -17 -22 -11 -7 -22
-15 -25 -19 -3 -4 -14 -7 -25 -7 -58 -1 -95 -14 -95 -32 0 -11 -7 -19 -17 -19
-15 0 -16 2 -4 9 10 6 -1 8 -30 4 -24 -3 -57 -14 -73 -25 -20 -15 -38 -19 -62
-15 -28 5 -40 1 -66 -24 -18 -16 -43 -29 -55 -29 -13 0 -41 -11 -62 -25 -30
-20 -49 -25 -91 -24 -41 2 -56 -2 -66 -16 -8 -11 -25 -18 -44 -17 -16 0 -32
-4 -36 -9 -3 -5 -21 -7 -40 -3 -25 5 -34 3 -34 -8 0 -24 -62 -48 -140 -54 -41
-3 -99 -12 -129 -20 -44 -11 -57 -11 -63 -1 -6 9 -12 8 -22 -6 -8 -11 -30 -20
-50 -22 -19 -2 -40 -6 -46 -10 -6 -4 -18 -1 -27 7 -13 10 -17 10 -20 1 -3 -7
-20 -13 -39 -13 -19 0 -42 -5 -53 -11 -12 -8 -23 -9 -36 -1 -14 7 -28 6 -53
-7 -27 -12 -36 -13 -39 -4 -4 10 -10 10 -25 2 -14 -8 -23 -8 -31 0 -6 6 -16 7
-27 1 -10 -5 -58 -9 -106 -8 -98 1 -154 -8 -154 -24 0 -8 -27 -9 -87 -3 -49 4
-99 6 -113 5 -14 0 -67 -2 -117 -3 -59 -1 -94 -6 -97 -13 -7 -17 -256 -16
-276 1 -11 9 -31 10 -75 4 -106 -15 -362 -22 -369 -10 -10 16 -29 14 -23 -2 4
-11 -7 -13 -51 -11 -61 3 -91 4 -160 3 -26 0 -51 6 -61 15 -22 20 -30 20 -50
2 -21 -19 -89 -22 -123 -6 -24 12 -30 11 -48 -5 -19 -17 -26 -18 -103 -5 -45
7 -104 14 -132 15 -27 0 -55 4 -61 8 -21 12 -103 11 -119 -3 -20 -17 -120 -17
-140 0 -9 7 -37 12 -68 11 -77 -3 -122 -2 -227 4 -52 3 -105 6 -117 6 -13 1
-23 5 -23 10 0 5 -12 9 -27 9 -22 0 -25 -2 -13 -10 13 -9 13 -10 0 -11 -34 -2
-105 3 -115 9 -5 3 -25 7 -45 9 -19 2 -45 5 -58 8 -12 3 -31 1 -42 -5 -16 -9
-20 -8 -20 5 0 20 -26 19 -40 -2 -10 -15 -11 -15 -6 -2 6 22 -30 29 -90 18
-36 -7 -49 -6 -61 7 -11 11 -24 13 -42 8 -14 -4 -46 -8 -71 -8 -25 -1 -51 -5
-59 -10 -10 -7 -20 -2 -34 15 -18 22 -20 23 -32 6 -11 -15 -17 -16 -34 -8 -12
6 -29 15 -40 20 -35 18 -91 24 -91 11 0 -9 -6 -8 -19 4 -15 14 -26 15 -62 7
-32 -7 -51 -6 -77 5 -19 8 -60 17 -91 20 -31 3 -63 8 -71 12 -8 3 -26 7 -40 8
-14 2 -49 5 -79 8 -29 3 -74 15 -98 27 -27 13 -54 19 -71 16 -31 -7 -104 12
-96 24 3 5 -3 10 -13 10 -59 4 -88 11 -104 25 -10 9 -28 14 -41 12 -14 -1 -36
5 -51 15 -14 9 -31 17 -36 17 -5 0 -11 4 -13 10 -2 5 -24 14 -50 19 -52 9 -78
25 -78 48 0 11 -7 14 -21 10 -33 -9 -81 3 -75 19 3 8 -5 14 -22 16 -15 2 -26
8 -25 15 1 6 -11 14 -27 18 -17 4 -30 13 -30 21 0 8 -11 19 -25 24 -14 5 -29
20 -34 33 -7 17 -30 32 -79 53 -39 16 -68 32 -66 36 3 4 -6 13 -19 19 -13 6
-37 34 -53 62 -23 40 -37 53 -59 57 -18 3 -30 11 -30 20 0 20 -26 55 -47 63
-9 3 -27 24 -40 46 -19 33 -29 41 -57 43 -27 2 -38 10 -52 35 -10 18 -16 40
-13 48 6 15 -5 20 -34 16 -10 -2 -12 6 -7 27 5 26 2 31 -25 42 -18 8 -27 16
-20 20 6 4 -7 12 -30 19 -39 12 -70 49 -70 86 0 8 -8 15 -18 15 -10 0 -24 8
-33 18 -8 9 -25 24 -37 32 -13 8 -29 32 -36 53 -7 21 -16 38 -19 38 -29 -3
-37 2 -37 19 0 11 -7 20 -15 20 -8 0 -14 3 -13 7 3 15 -25 64 -35 60 -6 -2
-20 7 -32 19 -11 11 -28 23 -36 26 -11 4 -12 8 -1 20 19 23 7 39 -58 83 -33
22 -60 43 -60 47 0 5 -1 11 -1 16 -2 11 -58 62 -68 62 -5 0 -11 15 -13 32 -2
25 -8 33 -21 32 -10 -1 -16 3 -14 9 4 13 -6 27 -46 67 -16 15 -28 34 -27 41 5
34 -2 47 -30 59 -16 7 -28 15 -26 19 2 3 -5 15 -15 25 -11 11 -19 14 -19 8 0
-7 -5 -12 -11 -12 -6 0 -9 7 -5 15 3 8 0 15 -5 15 -6 0 -9 9 -6 20 3 11 0 18
-6 17 -6 -1 -14 17 -19 41 -7 32 -14 42 -28 42 -11 0 -29 8 -40 17 -26 23 -26
53 0 53 11 0 20 4 20 8 0 4 -9 14 -20 22 -11 8 -20 20 -20 27 0 7 -4 13 -10
13 -5 0 -16 16 -24 35 -8 19 -21 35 -29 35 -27 0 -41 30 -40 90 1 49 -3 60
-17 65 -10 3 -21 17 -24 31 -4 14 -20 40 -36 57 -22 24 -27 37 -23 62 3 19 0
35 -6 39 -6 4 -11 14 -11 23 0 9 -8 25 -18 36 -9 10 -18 29 -19 41 -6 65 -36
115 -70 116 -7 0 -11 14 -11 33 0 17 -2 41 -6 52 -6 16 -1 22 22 31 29 11 78
87 67 105 -4 5 -3 15 2 22 14 22 13 47 -1 47 -8 0 -17 13 -21 30 -4 16 -16 36
-26 44 -15 10 -17 15 -7 18 9 3 5 14 -15 37 -15 18 -27 41 -27 51 0 11 -8 24
-19 29 -15 8 -20 27 -26 98 -12 137 -13 173 -4 179 14 8 10 24 -6 24 -8 0 -15
9 -15 20 0 11 -4 20 -10 20 -5 0 -10 5 -10 11 0 6 6 9 14 6 25 -10 36 36 25
100 -13 73 -15 115 -6 130 4 6 3 23 -3 38 -13 34 -13 35 6 35 11 0 14 5 9 18
-20 48 -22 71 -11 93 9 17 9 29 2 42 -8 12 -7 23 2 37 16 26 15 40 -3 40 -19
0 -19 26 0 34 20 7 19 32 -3 54 -21 21 -23 61 -5 80 17 18 16 32 -2 32 -8 0
-15 5 -15 10 0 6 6 10 13 10 7 0 20 9 30 20 15 18 15 24 3 60 -7 22 -10 40 -6
40 11 0 29 56 32 95 1 17 8 38 16 47 9 11 13 33 10 62 -2 26 0 46 4 46 18 0 7
42 -12 47 -24 6 -26 26 -5 43 8 7 15 25 15 41 0 19 5 29 15 29 17 0 19 14 5
40 -7 13 -6 22 4 32 13 14 22 47 32 131 4 26 10 47 14 47 11 0 33 77 26 89 -4
6 2 23 12 38 11 16 25 56 32 91 7 34 17 62 21 62 5 0 9 15 9 34 0 19 4 37 8
40 5 3 14 29 22 59 9 41 10 59 1 76 -9 17 -9 22 1 25 47 14 48 15 42 44 -4 21
-2 31 10 35 9 4 16 17 16 30 0 28 37 124 57 148 7 8 13 21 13 27 0 7 5 12 10
12 6 0 10 7 10 16 0 24 39 104 51 104 6 0 9 8 8 18 -2 24 12 81 22 88 18 11 9
44 -11 44 -27 0 -25 11 6 33 20 15 28 16 40 6 9 -7 18 -8 23 -3 7 7 53 136 56
154 0 3 15 19 33 37 31 30 37 46 32 87 -1 14 3 17 15 12 13 -5 15 -2 10 14 -4
14 -2 20 9 20 18 0 36 30 36 58 0 11 7 22 15 26 8 3 15 13 15 23 0 10 16 42
35 70 19 29 35 56 35 60 0 5 9 16 20 26 11 9 20 26 20 37 0 11 18 40 40 64 22
24 40 47 40 51 0 4 16 27 35 51 19 23 35 45 35 49 0 3 18 33 40 65 22 32 40
66 40 74 0 9 7 16 15 16 8 0 25 11 37 25 12 14 27 25 35 25 7 0 15 11 19 25 7
27 52 78 79 88 8 4 15 15 15 26 0 11 8 26 19 33 10 7 21 23 25 35 4 13 18 24
36 28 17 4 30 10 30 15 0 5 6 15 13 22 7 7 23 27 35 45 13 18 49 45 81 61 31
17 73 44 91 61 19 17 39 31 45 31 14 0 120 101 128 123 3 9 18 22 32 29 14 6
25 17 25 25 0 7 17 32 38 56 20 23 55 77 76 119 29 58 46 79 67 87 22 7 26 14
22 31 -5 19 -3 21 15 16 16 -5 24 0 38 24 10 16 21 30 25 30 14 0 79 73 79 88
1 15 2 15 15 -1 20 -27 49 -18 53 16 2 20 8 27 18 23 18 -7 18 8 -1 24 -8 7
-13 16 -10 20 9 14 -19 18 -35 5 -20 -18 -68 -7 -75 15 -6 18 -8 18 -50 2 -25
-9 -45 -22 -45 -28 0 -7 -7 -14 -15 -18 -8 -3 -15 -11 -15 -17 0 -9 3 -9 14 0
11 9 16 6 25 -19 8 -25 7 -32 -4 -36 -20 -8 -35 4 -28 21 4 11 1 13 -12 9 -14
-6 -16 -3 -10 16 6 19 4 22 -10 17 -9 -4 -21 -7 -26 -7 -14 0 -11 -38 3 -43 8
-4 9 -6 2 -6 -6 -1 -17 5 -24 13 -6 8 -19 12 -28 9 -27 -10 -62 -40 -55 -47 3
-3 -3 -6 -14 -6 -11 0 -28 -9 -38 -20 -10 -11 -26 -20 -36 -20 -10 0 -24 -8
-31 -19 -7 -10 -17 -20 -23 -21 -23 -7 -45 -26 -45 -39 0 -8 -19 -32 -43 -55
-57 -56 -107 -116 -118 -143 -4 -12 -24 -29 -44 -37 -19 -8 -38 -22 -41 -29
-3 -8 -13 -13 -23 -10 -11 3 -34 -11 -61 -36 -24 -23 -52 -41 -61 -41 -10 0
-26 -13 -36 -30 -9 -16 -23 -30 -29 -30 -7 0 -22 -16 -34 -35 -12 -19 -26 -35
-31 -35 -5 0 -9 -7 -9 -16 0 -11 -6 -15 -20 -11 -14 4 -26 -2 -38 -19 -9 -14
-32 -43 -49 -65 -18 -22 -37 -58 -43 -79 -7 -27 -21 -45 -43 -59 -54 -33 -87
-66 -92 -91 -2 -13 -14 -33 -25 -45 -21 -23 -26 -45 -10 -45 6 0 10 -8 10 -17
0 -16 -1 -16 -16 -1 -15 14 -19 14 -43 0 -15 -8 -32 -23 -37 -32 -20 -37 -64
-99 -93 -131 -17 -18 -31 -41 -31 -51 0 -10 -3 -18 -8 -18 -4 0 -16 -17 -27
-37 -11 -21 -28 -44 -38 -51 -11 -8 -17 -24 -15 -37 2 -14 -7 -34 -19 -49 -13
-14 -25 -37 -29 -51 -3 -14 -12 -29 -19 -33 -7 -4 -20 -21 -28 -39 -15 -28
-15 -35 -2 -67 15 -36 15 -36 -5 -24 -17 11 -23 10 -41 -8 -11 -12 -21 -28
-23 -36 -1 -9 -7 -22 -12 -29 -6 -8 -20 -39 -32 -71 -11 -31 -33 -76 -48 -100
-16 -23 -27 -47 -26 -52 2 -5 -7 -19 -18 -31 -15 -16 -19 -30 -15 -47 4 -17 1
-31 -11 -42 -9 -10 -17 -27 -18 -40 -1 -25 -34 -69 -58 -79 -10 -3 -21 -19
-24 -34 -4 -15 -14 -34 -21 -42 -8 -7 -12 -20 -9 -27 3 -7 1 -16 -5 -20 -5 -3
-7 -14 -4 -25 4 -11 2 -19 -4 -19 -6 0 -11 -9 -11 -20 0 -11 -4 -20 -10 -20
-12 0 -32 -38 -37 -70 -2 -14 -5 -35 -6 -47 -2 -12 -8 -28 -13 -35 -5 -7 -16
-26 -24 -41 -13 -26 -17 -27 -68 -23 -35 3 -62 12 -76 24 -25 23 -117 41 -163
31 -20 -4 -42 -1 -58 7 -14 7 -39 10 -60 7 -24 -4 -35 -2 -35 7 0 8 -12 10
-42 6 -151 -20 -178 -21 -178 -9 0 8 -9 12 -22 10 -13 -2 -17 -2 -10 0 7 3 10
9 7 14 -8 13 -49 11 -62 -2 -7 -7 -17 -8 -25 -3 -7 5 -40 9 -73 10 -33 1 -67
2 -75 2 -8 1 -64 -1 -125 -4 -60 -3 -119 -5 -130 -5 -181 2 -260 -4 -282 -21
-7 -5 -22 -8 -35 -7 -13 2 -29 0 -35 -4 -8 -5 -13 -3 -13 5 -1 8 -6 6 -15 -6
-8 -11 -15 -15 -15 -10 0 26 -101 46 -116 23 -4 -7 -18 -8 -38 -4 -17 4 -43 7
-58 6 -16 -1 -28 3 -28 9 0 10 -118 6 -173 -6 -20 -4 -27 -2 -27 10 0 9 -8 17
-17 18 -32 2 -67 7 -110 14 -29 4 -43 3 -43 -5 0 -6 -9 -11 -20 -11 -11 0 -20
5 -20 10 0 6 -11 10 -24 10 -14 0 -28 5 -31 11 -5 6 -26 8 -59 4 -42 -6 -56
-4 -70 10 -22 23 -83 14 -134 -20 -20 -13 -51 -29 -68 -35 -34 -12 -49 -43
-34 -69 6 -11 3 -22 -7 -33 -11 -12 -13 -21 -6 -30 16 -20 25 -86 13 -93 -17
-11 -11 -25 16 -37 33 -15 58 -60 42 -76 -9 -9 -8 -15 5 -25 10 -7 19 -24 20
-37 3 -30 27 -70 43 -70 13 0 55 -44 53 -56 -5 -31 5 -59 35 -91 18 -21 31
-44 28 -51 -2 -8 5 -16 17 -19 12 -3 21 -9 21 -14 0 -5 6 -9 13 -9 15 0 53
-67 44 -77 -9 -9 22 -43 39 -43 8 0 21 -12 31 -27 10 -16 26 -34 35 -41 10 -7
18 -19 18 -27 0 -8 13 -29 30 -48 20 -23 27 -40 23 -55 -4 -15 -1 -22 9 -22
25 0 79 -31 85 -49 3 -9 21 -35 39 -58 19 -22 38 -53 44 -67 6 -16 17 -26 30
-26 11 0 20 -6 20 -13 0 -8 12 -20 26 -28 15 -7 36 -28 48 -45 11 -17 44 -50
71 -74 28 -23 54 -53 58 -66 5 -13 12 -24 17 -24 5 0 12 -9 15 -20 4 -11 18
-27 33 -34 15 -8 42 -27 60 -43 18 -15 53 -44 77 -63 24 -19 44 -41 44 -47 1
-7 5 -13 10 -13 5 0 7 -9 4 -20 -3 -12 0 -21 8 -22 27 -2 34 -5 62 -18 15 -7
27 -17 27 -22 0 -5 16 -22 35 -39 19 -17 35 -37 35 -45 0 -13 13 -19 34 -15
15 3 37 -22 32 -36 -3 -7 1 -13 8 -13 8 0 16 -8 19 -18 2 -11 17 -21 35 -25
22 -4 31 -13 34 -29 2 -18 12 -24 45 -31 26 -5 50 -18 62 -33 10 -13 25 -24
33 -24 8 0 20 -11 26 -25 6 -14 18 -25 27 -25 8 0 37 -14 63 -30 27 -16 54
-30 61 -30 6 0 11 -5 11 -11 0 -6 7 -8 16 -5 10 4 29 -9 57 -39 22 -25 47 -43
54 -41 7 3 13 1 13 -4 0 -4 14 -11 30 -15 22 -5 41 -22 71 -66 30 -45 46 -59
64 -59 13 0 39 -10 57 -22 69 -48 108 -81 108 -93 0 -6 11 -32 24 -57 23 -43
23 -44 5 -67 -24 -30 -24 -53 1 -69 11 -7 17 -18 14 -27 -4 -8 0 -23 7 -32 8
-9 15 -26 16 -37 6 -62 17 -116 23 -116 5 0 6 -9 3 -19 -6 -23 26 -101 41
-101 6 0 17 -14 25 -32 12 -27 12 -33 -1 -42 -8 -6 -17 -19 -21 -28 -3 -10
-12 -18 -18 -18 -8 0 -9 -11 -5 -31 5 -25 1 -35 -18 -50 -13 -10 -26 -32 -30
-49 -5 -26 -9 -30 -26 -25 -23 7 -125 -65 -133 -95 -3 -11 -12 -20 -21 -20
-33 0 -156 -155 -156 -197 0 -8 -4 -12 -9 -9 -23 15 -116 -109 -105 -139 5
-11 2 -14 -10 -9 -19 7 -76 -40 -76 -63 0 -7 -4 -13 -8 -13 -27 0 -142 -136
-142 -168 0 -11 -8 -22 -20 -25 -11 -3 -24 -16 -29 -30 -5 -13 -17 -27 -25
-30 -9 -4 -16 -11 -16 -17 0 -6 -22 -39 -50 -74 -27 -35 -50 -69 -50 -77 0 -7
-6 -20 -14 -28 -8 -9 -16 -25 -18 -36 -1 -11 -12 -22 -23 -25 -11 -3 -24 -19
-29 -35 -5 -17 -22 -47 -38 -67 -32 -42 -36 -60 -11 -51 16 6 16 4 -1 -15 -11
-12 -28 -22 -38 -22 -18 0 -48 -21 -48 -34 0 -2 8 -6 17 -8 13 -3 8 -9 -18
-21 -20 -10 -42 -30 -50 -45 -7 -15 -20 -35 -27 -44 -8 -10 -15 -29 -15 -43 0
-18 -4 -24 -15 -23 -10 2 -22 -9 -31 -27 -8 -16 -20 -34 -26 -40 -27 -24 -60
-95 -37 -81 4 2 14 1 21 -3 9 -6 5 -10 -13 -15 -29 -7 -34 -21 -11 -30 8 -3
15 -16 15 -30 0 -23 23 -41 40 -31 4 3 6 -4 3 -15 -4 -15 -1 -19 9 -15 15 6
36 -12 37 -30 0 -5 10 -13 23 -17 17 -4 19 -6 5 -7 -10 -1 -17 -7 -14 -13 5
-17 64 -12 93 7 12 8 24 30 28 49 4 20 12 36 18 36 6 0 8 3 5 7 -11 10 13 33
35 33 12 0 19 6 17 18 -3 34 1 44 16 38 10 -3 15 1 15 14 0 10 5 22 10 25 6 3
10 15 10 25 0 10 7 25 15 34 8 8 15 22 15 31 0 9 9 19 20 22 14 4 20 14 20 33
0 18 9 35 23 47 28 22 59 67 51 75 -3 4 4 9 15 13 12 3 21 9 22 13 0 4 3 16 6
27 3 11 5 30 5 42 0 14 5 20 14 16 9 -3 14 2 14 15 0 11 -6 22 -12 25 -7 2 -9
8 -5 13 4 5 12 3 16 -4 11 -18 39 -5 47 21 3 12 16 32 27 45 11 12 18 22 15
22 -3 0 7 14 24 32 16 17 36 44 43 59 8 14 22 29 31 33 9 4 14 12 10 22 -3 9
6 28 24 47 58 63 100 119 100 133 0 8 7 17 15 20 8 3 26 25 39 49 14 24 39 56
56 71 17 16 38 45 47 64 10 19 20 37 24 40 15 11 68 110 59 110 -6 0 -10 7
-10 15 0 10 -6 12 -18 8 -15 -6 -15 -5 -3 11 8 9 20 15 28 12 13 -5 51 10 63
25 3 3 20 14 38 23 25 13 32 23 32 46 0 19 5 30 14 30 19 0 46 27 46 46 0 11
-6 13 -20 9 -15 -5 -18 -3 -14 9 6 17 7 17 39 21 12 1 31 8 44 14 18 10 20 15
10 27 -9 11 -8 14 4 14 8 0 20 13 27 29 7 18 24 34 42 40 29 10 30 10 24 -15
-4 -14 -3 -30 1 -37 3 -6 7 -25 7 -42 1 -21 8 -33 23 -40 13 -5 23 -17 23 -27
0 -26 11 -48 25 -48 22 0 64 -65 58 -89 -4 -17 -1 -21 17 -21 19 0 20 -2 6
-15 -15 -15 -12 -45 4 -45 5 0 12 -9 15 -20 4 -11 10 -18 15 -15 5 3 12 -6 16
-20 3 -14 13 -25 21 -25 9 0 11 -5 7 -12 -6 -10 -3 -9 8 0 15 12 16 9 13 -27
-4 -45 15 -72 38 -52 15 12 37 -3 37 -26 0 -6 8 -17 17 -22 17 -10 17 -10 1
-11 -20 0 -34 -19 -22 -30 8 -7 38 -15 79 -19 6 -1 2 -6 -8 -12 -24 -14 -22
-45 4 -52 16 -4 20 -11 16 -26 -6 -26 15 -55 53 -71 16 -7 30 -16 30 -20 0 -5
3 -17 6 -27 5 -15 4 -15 -5 -3 -16 23 -13 7 7 -39 10 -22 22 -38 26 -34 4 4 4
0 1 -8 -7 -17 21 -45 50 -51 10 -1 31 -21 46 -43 20 -29 33 -39 48 -37 20 3
23 -4 21 -53 -1 -16 33 -65 44 -65 8 0 20 -14 28 -30 7 -18 19 -29 28 -28 9 2
19 -8 25 -27 6 -16 19 -34 30 -40 11 -5 33 -23 48 -39 22 -22 26 -31 16 -37
-10 -6 -9 -12 6 -29 15 -16 27 -20 50 -16 16 2 24 2 17 -1 -14 -5 -11 -9 46
-67 12 -13 22 -33 22 -45 0 -16 10 -26 35 -37 24 -10 36 -22 40 -42 11 -48 20
-57 66 -60 55 -4 94 -45 52 -54 -14 -3 -3 -19 47 -69 36 -36 78 -70 93 -77 20
-9 27 -17 23 -28 -7 -18 32 -54 50 -47 6 2 17 -3 24 -12 7 -8 20 -15 29 -15
10 0 22 -14 30 -35 7 -19 19 -35 27 -35 8 0 17 -7 20 -15 4 -8 12 -15 20 -15
8 0 14 -4 14 -8 0 -10 78 -62 93 -62 9 0 8 -3 0 -8 -7 -4 -14 -19 -15 -32 -3
-21 2 -26 25 -28 15 -2 27 -7 27 -11 0 -4 19 -15 43 -25 23 -9 50 -21 59 -27
10 -5 29 -9 43 -9 14 0 25 -5 25 -11 0 -7 -10 -9 -27 -4 l-28 6 22 -22 c19
-19 24 -21 39 -8 14 12 19 10 40 -16 14 -17 27 -40 30 -52 7 -26 15 -28 31
-12 8 8 14 6 22 -9 9 -17 18 -20 55 -17 31 3 48 0 56 -10 7 -8 20 -15 30 -15
21 0 43 -24 32 -35 -4 -4 5 -5 19 -2 21 6 28 3 32 -13 4 -15 14 -20 36 -20 17
0 31 -4 31 -8 0 -12 75 -36 88 -28 11 7 72 -21 72 -34 0 -9 22 -19 67 -30 26
-6 30 -5 26 8 -5 12 -1 14 18 8 13 -4 40 -9 59 -13 19 -3 42 -12 51 -19 9 -8
18 -12 21 -8 3 3 23 -2 43 -10 21 -9 59 -16 86 -16 26 0 51 -4 54 -10 3 -5 19
-10 36 -10 16 0 29 -3 29 -7 0 -5 24 -9 52 -9 137 -4 244 -11 254 -17 6 -3 34
-7 62 -9 29 -2 52 -6 52 -9 0 -11 81 -18 132 -12 26 3 45 10 42 14 -8 14 9 11
32 -5 11 -8 38 -17 60 -20 56 -9 146 -27 164 -33 8 -3 38 -5 65 -4 28 1 81 -5
119 -13 39 -9 77 -11 90 -7 11 5 27 6 34 4 6 -3 12 1 12 7 0 7 8 9 23 4 12 -4
48 -7 79 -6 31 1 60 -3 63 -8 8 -12 65 -13 65 -1 0 16 29 21 42 7 17 -16 100
-26 122 -14 12 7 18 5 22 -7 6 -14 9 -14 28 -2 13 9 41 14 71 12 108 -6 186
-14 195 -20 6 -3 10 1 10 9 0 11 6 13 29 6 17 -5 45 -3 70 3 35 9 46 8 71 -6
22 -13 41 -16 77 -11 60 8 186 5 193 -5 6 -9 270 -12 270 -2 0 3 36 6 80 6 44
0 80 -4 80 -9 0 -10 114 -2 143 9 12 5 17 2 17 -9 0 -13 11 -16 49 -16 28 0
53 5 56 10 4 6 29 10 55 9 29 -2 55 3 65 11 14 12 18 12 25 0 6 -10 30 -15 72
-16 35 0 82 -4 104 -8 29 -5 53 -3 78 8 20 8 42 14 49 11 46 -14 77 -14 77 0
0 17 16 20 25 6 3 -5 36 -1 76 11 47 13 74 16 78 10 11 -19 146 -24 184 -9 26
12 53 13 117 6 88 -8 105 -6 96 17 -4 11 11 13 84 9 61 -4 97 -2 113 7 26 14
56 18 62 8 3 -4 21 -5 42 -3 21 3 54 6 73 7 19 1 42 5 50 8 51 21 80 26 80 16
0 -6 10 -7 28 -3 15 4 38 9 52 11 57 7 90 15 90 23 0 11 79 31 120 31 34 0
127 27 148 43 6 5 26 7 44 3 23 -5 37 -1 52 13 12 10 50 27 86 39 36 11 81 26
100 32 60 22 65 24 80 27 8 1 33 4 55 6 43 3 85 22 85 37 0 5 6 7 13 4 7 -2
27 2 43 11 16 8 34 15 40 15 6 0 17 6 24 14 6 8 17 13 24 10 7 -3 26 2 42 11
16 8 39 15 51 15 22 0 53 24 53 41 0 5 9 9 19 9 11 0 23 5 26 10 4 6 14 8 23
6 20 -7 47 8 47 26 0 9 12 12 37 10 29 -2 41 3 64 27 16 17 40 35 54 40 14 5
34 12 45 17 11 4 31 9 45 11 30 5 50 21 50 39 0 10 7 13 24 8 13 -3 27 -1 30
5 4 7 -1 11 -14 11 -12 0 -19 4 -15 10 3 5 12 7 20 3 8 -3 15 -1 15 3 1 17 30
47 47 49 51 5 83 18 83 33 0 21 56 76 69 68 14 -9 41 4 41 20 0 7 14 27 31 45
17 17 28 37 25 45 -3 9 0 14 7 12 16 -3 81 57 74 69 -3 5 8 15 24 22 17 7 34
24 39 37 5 13 15 24 21 24 6 0 9 9 6 20 -3 13 0 20 10 20 10 0 13 6 9 16 -3 8
-2 12 4 9 5 -3 20 3 32 14 12 12 18 22 12 22 -5 1 4 4 21 8 17 3 31 14 33 24
4 21 50 67 85 86 15 8 32 29 39 47 7 21 20 35 35 39 19 4 22 9 14 24 -12 21
-5 32 13 25 18 -7 47 41 40 63 -4 13 -3 14 3 5 15 -20 42 -4 40 25 -1 17 4 27
14 28 25 4 59 37 59 57 0 13 10 20 30 24 17 4 30 10 30 15 0 5 7 9 15 9 8 0
15 9 15 20 0 11 7 23 15 26 8 4 15 17 15 30 0 34 41 75 63 63 18 -11 23 1 7
17 -6 6 -6 15 0 24 6 10 10 11 10 3 0 -7 7 -10 15 -7 9 4 15 0 15 -10 0 -26
24 -18 43 14 10 17 24 30 32 30 8 0 12 6 9 14 -3 8 4 16 17 19 14 4 20 11 16
21 -4 11 1 18 18 22 13 3 32 15 41 25 15 17 16 23 6 40 -11 18 -10 19 13 13
26 -6 30 0 25 40 -1 14 3 17 15 12 20 -7 105 56 105 78 0 7 11 23 25 36 19 18
22 26 13 33 -9 6 -8 7 3 4 23 -8 67 41 75 83 4 18 13 41 20 49 8 9 20 25 29
36 11 16 17 17 23 7 13 -20 35 12 27 38 -4 11 -3 19 2 18 4 -1 18 1 30 6 24 8
87 102 78 117 -4 5 1 12 9 15 9 3 16 12 16 20 0 8 7 14 16 14 9 0 14 7 12 18
-2 11 3 26 10 34 10 13 10 19 -5 34 -17 17 -17 17 5 12 41 -11 105 75 88 118
-5 13 -2 15 14 11 25 -6 42 22 40 66 -3 47 -1 57 10 57 14 0 54 41 58 60 2 8
4 34 5 56 1 23 9 50 18 60 9 11 14 25 12 32 -3 7 3 22 12 32 10 11 20 41 22
67 3 26 10 53 15 60 8 10 13 40 22 143 2 20 8 45 14 57 15 27 16 73 2 73 -5 0
-10 5 -10 11 0 6 7 9 15 5 11 -4 15 2 16 27 0 18 2 51 5 75 3 26 1 42 -6 42
-5 0 -10 11 -10 25 0 14 4 25 8 25 16 0 34 89 24 118 -6 17 -6 35 -1 43 22 35
3 104 -25 93 -6 -2 -12 5 -13 17 -2 17 1 19 10 10 19 -19 26 -12 24 28 -1 31
-4 37 -19 33 -23 -6 -24 14 -2 22 9 4 14 9 11 12 -3 3 3 14 14 25 15 15 17 24
9 39 -5 10 -10 30 -10 44 0 16 -6 26 -14 26 -16 0 -30 43 -16 48 6 2 10 10 10
18 0 8 4 14 9 14 5 0 7 9 4 20 -3 11 -10 20 -15 20 -7 0 -7 5 -1 13 10 13 9
88 -2 115 -4 9 -9 33 -11 52 -1 19 -8 52 -15 73 -9 28 -9 43 -1 62 10 21 9 26
-8 35 -11 6 -20 18 -20 26 0 8 -4 13 -9 9 -5 -3 -9 8 -9 25 1 17 5 33 10 36 4
3 8 12 8 20 0 8 -4 12 -10 9 -6 -4 -10 5 -10 19 0 14 4 26 8 26 13 0 1 68 -14
81 -18 14 -18 29 -1 29 23 0 19 63 -10 140 -3 8 -7 23 -8 33 -1 11 -8 23 -16
28 -11 7 -11 9 4 9 21 0 23 36 4 65 -7 11 -11 38 -10 60 6 89 1 158 -14 177
-13 17 -15 106 -3 113 16 10 12 35 -5 35 -16 0 -20 16 -6 24 22 14 14 106 -12
132 -3 3 -3 19 0 35 4 24 2 29 -13 29 -14 0 -15 3 -6 12 16 16 16 51 0 42 -10
-6 -10 -4 0 7 14 16 16 49 2 49 -5 0 -10 7 -10 15 0 8 7 15 15 15 11 0 15 11
15 40 0 22 -5 40 -11 40 -6 0 -10 15 -9 33 1 17 1 34 0 37 -1 3 -4 21 -7 40
-2 19 -9 36 -14 38 -5 2 -9 23 -9 47 0 24 -4 46 -9 49 -4 3 -6 17 -4 31 3 13
9 22 13 20 19 -12 19 16 0 50 -11 19 -20 44 -20 55 0 10 -5 22 -11 25 -6 4 -8
13 -5 21 3 7 -4 18 -15 24 -11 6 -17 14 -15 19 3 4 -6 30 -19 57 -15 31 -20
53 -14 60 5 6 3 32 -5 65 -8 30 -17 74 -21 99 -4 25 -12 54 -18 65 -6 11 -11
27 -12 35 0 8 -10 19 -22 25 -15 8 -19 15 -12 27 6 11 4 20 -6 28 -8 7 -15 21
-15 31 0 10 -5 21 -11 25 -6 3 -8 16 -5 28 3 12 -5 37 -18 59 -13 21 -22 47
-19 57 3 10 -5 31 -17 47 -12 17 -22 36 -24 45 -1 8 -9 26 -17 39 -20 32 -36
76 -44 120 -3 21 -12 42 -20 49 -8 7 -15 20 -15 30 0 10 -7 23 -16 30 -8 8
-14 25 -12 41 2 19 -8 40 -31 69 -21 26 -31 48 -28 61 3 10 -3 29 -12 41 -26
35 -41 76 -34 94 4 10 -5 26 -26 44 -17 16 -31 38 -31 49 0 18 -10 26 -25 19
-7 -4 -55 65 -55 79 0 7 -7 13 -16 13 -8 0 -13 4 -10 9 3 5 -3 29 -14 52 -11
24 -20 41 -20 37 0 -11 -60 49 -60 61 0 6 -4 11 -10 11 -16 0 -11 48 6 58 9 5
22 33 30 63 8 30 19 56 24 57 6 2 10 8 10 13 0 5 20 27 45 50 24 22 47 49 50
60 4 10 15 19 26 19 10 0 19 4 19 8 0 5 11 14 24 21 13 7 30 28 39 46 10 21
24 35 39 37 15 2 22 9 20 21 -2 12 4 17 20 17 15 0 31 12 47 35 13 19 27 35
31 35 5 0 18 17 30 38 13 20 25 32 27 26 5 -13 73 50 73 67 0 7 3 9 7 6 6 -6
36 49 30 56 -1 1 8 16 21 34 12 17 22 38 22 47 0 9 9 26 19 38 11 11 17 26 14
34 -3 7 5 27 17 43 11 17 22 46 23 66 2 19 8 40 15 47 7 7 12 20 12 30 0 10 5
18 10 18 14 0 28 38 33 89 4 38 17 70 17 41 0 -26 28 11 43 58 25 76 45 118
61 132 9 7 16 19 16 28 0 8 11 24 25 36 24 21 36 70 22 93 -5 7 -1 9 11 6 14
-3 23 5 36 31 9 20 14 41 11 46 -3 6 -3 10 2 10 14 1 55 39 57 54 1 8 14 32
30 54 15 23 25 46 21 52 -4 6 5 22 20 36 14 13 23 29 20 34 -4 6 -1 18 6 26 6
8 13 24 14 37 1 12 3 25 4 29 0 4 10 10 21 13 12 4 28 24 38 46 9 21 20 39 24
39 3 0 9 13 13 30 4 17 15 32 27 36 13 4 18 12 15 24 -5 20 19 65 64 119 15
19 26 38 23 43 -3 4 -1 8 4 8 4 0 15 16 22 35 8 20 20 41 27 47 7 6 13 19 13
29 0 11 6 19 14 19 8 0 17 11 20 25 4 14 14 29 24 32 22 9 32 23 32 51 0 14 8
26 24 31 31 12 98 92 91 109 -2 7 0 10 5 7 13 -8 48 29 56 60 3 14 12 25 18
25 7 0 18 11 24 25 6 13 30 36 52 51 23 15 47 42 55 61 8 18 19 33 24 33 6 0
11 6 11 14 0 8 14 20 30 28 18 8 30 20 30 32 0 13 5 16 16 12 13 -5 15 -2 11
13 -6 24 8 38 43 43 14 2 34 17 48 38 13 19 29 35 35 36 7 0 17 2 23 2 7 1 47
37 90 80 46 45 86 77 98 77 12 0 26 11 34 27 7 15 21 30 32 33 11 4 20 11 20
16 0 5 7 9 15 9 8 0 15 5 15 10 0 6 6 10 14 10 7 0 25 9 40 21 14 11 26 17 26
12 0 -4 6 -1 13 7 14 17 105 78 157 105 19 10 42 26 50 35 8 9 27 20 42 24 15
3 51 20 79 37 29 17 66 31 83 31 32 1 110 30 134 51 19 15 82 37 110 37 12 0
46 14 75 30 30 17 57 27 60 24 4 -4 12 -2 20 4 22 19 100 35 161 33 32 -1 64
3 70 8 6 5 34 11 62 14 27 2 60 11 73 18 19 12 23 12 32 -3 8 -15 24 -18 83
-18 68 0 75 -2 91 -26 9 -14 17 -39 17 -55 1 -17 6 -29 15 -29 7 0 13 -7 13
-15 0 -8 7 -15 15 -15 16 0 20 -12 8 -24 -4 -3 -8 -29 -10 -57 -2 -42 0 -50
12 -45 8 3 17 1 20 -4 4 -6 1 -10 -6 -10 -7 0 -9 -8 -6 -21 3 -12 1 -32 -4
-46 -5 -14 -6 -30 -1 -37 11 -14 13 -56 3 -56 -7 0 -31 -43 -31 -55 0 -3 7 -5
16 -5 14 0 14 -2 -1 -16 -10 -10 -12 -20 -7 -28 16 -20 20 -55 8 -59 -15 -6
-36 -73 -36 -113 0 -20 -3 -25 -9 -16 -6 11 -10 10 -15 -4 -4 -11 4 -30 24
-55 30 -38 38 -59 21 -59 -5 0 -15 -24 -21 -52 -7 -29 -19 -56 -26 -61 -7 -4
-16 -23 -20 -42 -3 -20 -10 -38 -15 -40 -4 -3 -6 -12 -3 -20 3 -7 0 -24 -7
-36 -6 -13 -13 -57 -14 -98 -4 -119 -4 -119 -25 -126 -17 -5 -20 -15 -20 -65
0 -49 -4 -64 -26 -90 -15 -18 -28 -45 -29 -63 -1 -18 -5 -41 -10 -51 -5 -12
-5 -21 2 -23 5 -2 8 -15 5 -28 -3 -16 0 -25 8 -25 9 0 9 -4 2 -12 -20 -24 -25
-104 -9 -134 14 -26 13 -32 -8 -74 -27 -51 -38 -137 -17 -132 6 1 12 -5 12
-14 0 -8 -4 -12 -10 -9 -6 4 -7 -2 -1 -17 5 -13 6 -38 4 -55 -3 -20 -1 -33 6
-33 7 0 7 -8 0 -27 -9 -23 -7 -30 12 -44 19 -14 21 -20 10 -32 -8 -10 -10 -28
-6 -51 5 -26 3 -40 -10 -52 -9 -9 -14 -23 -11 -30 5 -13 -12 -75 -23 -84 -31
-25 -53 -100 -31 -100 7 0 7 -7 -1 -21 -8 -15 -8 -19 0 -15 6 4 11 3 11 -3 0
-5 -7 -14 -16 -19 -14 -8 -14 -12 -3 -31 12 -20 12 -24 -7 -39 -13 -11 -25
-40 -33 -81 -11 -57 -11 -65 5 -82 10 -11 19 -27 20 -37 2 -9 14 -25 28 -35
15 -11 26 -29 26 -41 0 -30 29 -55 65 -57 40 -3 110 30 96 44 -18 18 -12 36
14 43 29 7 55 50 55 89 0 14 4 25 9 25 5 0 13 10 16 23 4 12 14 33 23 47 19
29 52 115 57 146 4 29 27 64 42 64 7 0 13 7 13 15 0 8 5 15 11 15 6 0 8 8 4
19 -4 14 1 20 21 25 20 5 25 12 21 27 -3 12 4 31 19 48 13 16 24 32 24 35 0 4
16 21 35 38 20 17 35 38 34 47 -3 33 1 41 21 41 12 0 20 6 19 13 -4 26 21 67
41 67 11 0 20 6 20 14 0 8 16 28 36 46 24 20 34 37 31 49 -3 13 9 29 39 52 24
19 43 39 44 46 0 19 114 133 133 133 25 0 57 36 57 66 0 16 5 24 13 21 17 -6
65 20 77 43 6 10 27 27 48 36 32 16 81 52 133 99 9 8 26 15 38 15 12 0 24 7
27 15 4 10 20 15 50 15 25 0 59 6 77 13 37 15 90 15 109 0 7 -5 21 -13 31 -16
18 -7 24 -27 7 -27 -6 0 1 -18 15 -39 29 -43 49 -161 26 -146 -10 5 -11 -4 -6
-41 4 -27 8 -56 11 -64 5 -20 -10 -42 -26 -38 -7 2 -15 -3 -18 -11 -3 -10 0
-12 13 -7 11 4 22 1 27 -6 12 -20 9 -38 -6 -38 -24 0 -47 -40 -36 -61 14 -25
13 -27 -16 -54 -20 -19 -26 -34 -26 -65 0 -22 -2 -40 -6 -40 -13 0 -30 -57
-25 -84 4 -18 1 -26 -8 -26 -8 -1 -24 -17 -36 -36 -19 -29 -21 -38 -10 -54 10
-17 8 -23 -16 -44 -15 -13 -27 -28 -26 -32 1 -5 1 -24 0 -41 -1 -28 -5 -33
-25 -33 -31 0 -40 -14 -26 -39 8 -16 6 -22 -7 -29 -15 -9 -15 -15 -5 -49 10
-32 10 -40 -4 -50 -27 -20 -44 -59 -30 -73 8 -9 4 -18 -19 -36 -27 -22 -28
-26 -12 -35 25 -15 21 -38 -8 -45 -23 -6 -45 -50 -45 -91 0 -7 -8 -13 -19 -13
-13 0 -18 -7 -17 -22 1 -13 7 -23 16 -23 21 0 34 -23 21 -39 -8 -10 -7 -16 3
-25 8 -7 14 -21 13 -32 -2 -23 -13 -25 -21 -3 -5 14 -10 12 -31 -10 -14 -15
-25 -31 -25 -37 0 -5 -7 -9 -15 -9 -20 0 -19 -36 1 -44 10 -4 14 -14 11 -26
-3 -11 -1 -20 4 -20 5 0 9 -6 9 -14 0 -8 11 -28 25 -44 15 -18 23 -37 19 -46
-4 -12 -2 -15 9 -10 11 4 17 -3 22 -25 7 -32 7 -32 93 -35 12 -1 26 -7 31 -14
6 -10 19 -10 67 2 32 8 53 15 45 15 -8 1 -11 4 -8 7 4 4 13 1 21 -5 18 -15 56
-5 56 15 0 8 9 14 21 14 12 0 30 11 41 25 11 14 28 25 39 25 10 0 19 5 19 11
0 5 17 17 38 25 47 20 82 52 82 76 0 11 7 18 19 18 19 0 144 118 155 146 3 8
17 14 31 14 14 0 36 10 48 23 12 13 30 26 40 30 9 3 17 13 17 20 0 8 16 27 35
41 38 29 46 56 18 56 -16 1 -16 2 2 16 13 10 33 14 58 11 30 -4 39 -1 47 14 6
10 16 19 23 19 19 0 87 75 87 95 0 11 5 15 14 12 9 -4 17 2 21 13 4 11 18 23
31 26 19 5 24 12 21 25 -4 15 0 19 19 19 15 0 24 6 24 16 0 8 4 13 9 10 5 -3
31 12 59 34 27 22 55 40 60 40 6 0 15 6 19 14 4 8 25 24 46 36 20 12 37 26 37
32 0 5 4 7 9 4 13 -8 106 26 133 49 13 11 37 21 53 23 16 2 35 8 41 13 6 5 22
8 35 8 13 -1 44 5 68 14 41 15 46 15 58 -1 24 -31 34 -52 28 -62 -3 -6 -2 -10
3 -10 8 0 25 -60 37 -132 4 -24 2 -38 -5 -38 -6 0 -5 -11 5 -30 19 -37 19 -37
-6 -43 -20 -6 -21 -6 -3 -35 15 -27 16 -32 2 -45 -19 -20 -24 -109 -5 -101 8
3 20 -2 27 -11 8 -10 9 -15 1 -15 -6 0 -11 -7 -11 -15 0 -8 -9 -15 -20 -15
-15 0 -20 -7 -20 -29 0 -17 5 -33 10 -36 18 -11 11 -27 -9 -20 -12 3 -21 0
-25 -10 -3 -9 0 -15 10 -15 10 0 14 -6 11 -15 -4 -8 -2 -17 3 -20 17 -10 11
-25 -10 -25 -18 0 -19 -5 -15 -51 5 -45 3 -51 -15 -56 -21 -6 -24 -12 -14 -37
8 -20 24 -21 24 -1 0 8 5 15 11 15 7 0 9 -11 6 -30 -4 -19 -2 -30 4 -30 8 0 7
-5 -1 -15 -7 -8 -20 -15 -29 -15 -19 0 -71 -50 -71 -68 0 -7 10 -12 23 -12 18
0 22 -5 21 -32 0 -26 -8 -38 -32 -53 -37 -24 -38 -26 -13 -54 23 -26 15 -48
-32 -89 -15 -13 -25 -28 -21 -33 3 -5 -2 -16 -10 -24 -18 -18 -7 -61 21 -82
15 -11 13 -18 -15 -63 -27 -43 -31 -58 -26 -91 4 -26 3 -39 -5 -39 -15 0 -14
-49 2 -55 15 -6 14 -78 -1 -83 -5 -1 -8 -11 -5 -22 3 -13 0 -18 -14 -17 -15 2
-18 -5 -17 -53 0 -38 -4 -58 -15 -66 -13 -10 -13 -14 -1 -28 11 -15 11 -19 -3
-33 -9 -9 -20 -13 -24 -9 -4 4 -1 12 7 17 13 9 13 10 0 6 -9 -2 -16 -18 -18
-40 -2 -20 -8 -37 -15 -37 -6 0 -4 -7 5 -17 16 -15 16 -17 -1 -32 -28 -26 -34
-52 -14 -67 17 -13 17 -14 -4 -20 -28 -8 -31 -48 -6 -62 14 -9 14 -10 -4 -16
-19 -6 -20 -10 -10 -37 10 -26 9 -32 -5 -40 -14 -8 -15 -15 -7 -36 7 -20 5
-34 -11 -65 l-20 -38 22 -47 22 -46 -27 -23 c-27 -23 -35 -44 -17 -44 6 0 10
-15 10 -32 1 -18 7 -51 15 -73 18 -50 18 -56 1 -49 -22 8 -31 -33 -11 -52 12
-12 14 -27 9 -60 -5 -32 -2 -51 10 -69 9 -13 16 -31 16 -38 0 -8 9 -22 20 -32
11 -10 20 -24 20 -30 0 -7 7 -18 15 -25 8 -7 15 -23 15 -35 0 -13 11 -33 25
-46 13 -13 25 -35 25 -47 0 -15 7 -26 18 -29 24 -6 52 -92 52 -156 0 -32 5
-49 16 -55 14 -8 14 -12 -4 -42 -16 -26 -18 -37 -10 -56 6 -13 17 -24 24 -24
10 0 11 -6 4 -24 -6 -17 -5 -29 5 -42 8 -11 15 -33 15 -51 0 -21 6 -33 18 -36
14 -4 15 -5 1 -6 -10 -1 -19 -13 -22 -28 -4 -21 1 -35 22 -58 38 -40 43 -58
27 -97 -14 -35 -14 -72 -2 -101 5 -10 3 -23 -4 -32 -6 -8 -8 -20 -4 -26 4 -7
8 -24 9 -38 1 -14 5 -37 9 -50 6 -18 5 -22 -5 -16 -9 6 -11 3 -6 -9 4 -10 7
-23 7 -31 0 -7 10 -15 22 -18 19 -5 20 -8 7 -23 -11 -14 -11 -18 -1 -22 10 -3
9 -7 -4 -17 -15 -10 -16 -17 -6 -41 16 -40 17 -84 3 -117 -6 -16 -8 -33 -5
-38 3 -6 0 -16 -6 -24 -7 -8 -10 -15 -6 -15 4 0 -1 -14 -9 -31 -13 -24 -14
-34 -4 -45 6 -8 13 -35 14 -62 3 -64 3 -62 21 -62 13 0 12 -5 -5 -29 -19 -26
-19 -30 -5 -35 14 -5 14 -9 3 -23 -15 -18 -13 -54 4 -65 17 -11 15 -48 -4 -59
-25 -13 -28 -48 -7 -87 14 -25 16 -38 7 -53 -6 -13 -7 -25 -1 -32 5 -7 6 -21
2 -32 -4 -11 -2 -27 3 -36 8 -13 6 -21 -6 -34 -9 -9 -18 -28 -18 -43 -3 -47
-6 -69 -13 -80 -3 -6 1 -15 10 -20 16 -9 16 -13 -4 -50 -13 -25 -17 -43 -11
-49 6 -6 6 -20 -1 -38 -6 -15 -8 -36 -4 -47 3 -12 -1 -27 -13 -40 -10 -11 -17
-23 -17 -27 1 -3 -1 -12 -4 -20 -3 -8 0 -17 6 -19 17 -5 15 -28 -3 -46 -9 -9
-11 -17 -5 -21 5 -3 10 -15 10 -25 0 -10 6 -21 13 -23 6 -3 2 -6 -10 -6 -15
-1 -23 -7 -23 -18 0 -19 -17 -76 -34 -112 -8 -18 -8 -25 1 -28 8 -3 6 -19 -7
-57 -11 -29 -16 -62 -13 -74 3 -12 2 -30 -3 -39 -4 -10 -9 -28 -10 -40 -2 -12
-9 -35 -18 -51 -13 -25 -13 -32 0 -57 10 -20 11 -32 4 -39 -5 -5 -10 -18 -10
-27 0 -9 -7 -20 -15 -23 -9 -3 -15 -11 -14 -18 4 -23 -13 -132 -24 -153 -5
-11 -9 -38 -9 -60 1 -22 -2 -53 -7 -70 -5 -16 -14 -57 -22 -90 -7 -33 -16 -65
-20 -70 -19 -25 -26 -92 -13 -110 19 -25 18 -32 -6 -38 -11 -3 -20 -13 -20
-24 0 -10 -11 -39 -24 -65 -19 -37 -21 -48 -10 -48 11 0 8 -12 -12 -50 -14
-27 -23 -54 -19 -60 3 -5 -3 -23 -14 -39 -12 -16 -21 -42 -21 -57 0 -15 -8
-36 -17 -46 -10 -11 -18 -40 -20 -70 -1 -29 -7 -56 -13 -62 -5 -5 -10 -17 -10
-25 0 -9 -14 -52 -31 -96 -22 -55 -29 -89 -26 -112 4 -23 2 -33 -7 -33 -17 0
-29 -42 -15 -51 12 -7 3 -49 -10 -49 -9 0 -47 -75 -54 -108 -5 -21 -3 -23 20
-17 23 5 25 4 14 -9 -8 -9 -20 -16 -27 -16 -8 0 -14 -9 -14 -19 0 -11 -5 -23
-10 -26 -6 -4 -8 -11 -5 -16 4 -5 -1 -19 -9 -31 -20 -29 -20 -52 0 -72 14 -15
14 -16 0 -16 -9 0 -16 -7 -16 -15 0 -8 -5 -15 -10 -15 -6 0 -14 -10 -19 -23
-5 -12 -21 -38 -35 -57 -20 -26 -25 -41 -20 -64 3 -15 2 -31 -3 -35 -19 -14
-43 -62 -43 -87 0 -15 -15 -59 -34 -98 -19 -39 -40 -89 -46 -111 -6 -22 -20
-58 -29 -80 -11 -24 -17 -59 -16 -87 2 -35 -1 -48 -12 -48 -7 0 -17 -8 -20
-17 -4 -10 -15 -30 -26 -45 -11 -15 -17 -33 -14 -42 3 -8 0 -20 -8 -26 -8 -6
-12 -17 -9 -24 3 -7 -2 -19 -11 -26 -8 -7 -15 -20 -15 -30 0 -9 -9 -27 -20
-40 -11 -13 -20 -37 -20 -55 0 -17 -5 -36 -12 -43 -15 -15 -38 -83 -32 -94 3
-4 -2 -18 -10 -30 -9 -12 -16 -33 -16 -45 0 -21 -16 -59 -30 -73 -14 -14 -33
-58 -51 -117 -12 -37 -27 -73 -35 -80 -8 -8 -14 -21 -14 -28 0 -8 -9 -22 -19
-32 -10 -10 -21 -37 -24 -61 -2 -24 -10 -49 -16 -55 -6 -6 -11 -21 -11 -33 0
-12 -7 -27 -15 -34 -8 -7 -15 -18 -15 -24 0 -7 -9 -21 -19 -33 -10 -11 -36
-51 -56 -89 -21 -38 -43 -73 -49 -79 -6 -5 -18 -23 -26 -40 -8 -16 -33 -56
-55 -89 -22 -32 -48 -73 -59 -90 -10 -17 -21 -33 -25 -36 -4 -3 -15 -27 -25
-54 -11 -29 -21 -44 -26 -36 -5 7 -24 -12 -54 -55 -25 -36 -46 -70 -46 -75 0
-6 -4 -10 -10 -10 -5 0 -10 -6 -10 -14 0 -8 -16 -27 -35 -43 -19 -15 -51 -41
-70 -57 -19 -15 -35 -32 -35 -38 0 -18 -58 -68 -79 -68 -12 0 -21 -4 -21 -8 0
-5 -18 -17 -39 -28 -22 -10 -42 -27 -44 -36 -3 -11 -11 -15 -26 -11 -26 7 -68
-20 -83 -53 -6 -13 -18 -24 -25 -24 -8 0 -11 -5 -8 -11 5 -7 -5 -8 -29 -4 -20
4 -36 3 -36 -2 0 -17 -41 -54 -52 -47 -7 4 -8 2 -4 -4 7 -12 -5 -16 -32 -13
-7 1 -19 -5 -28 -13 -8 -8 -21 -13 -29 -10 -8 4 -15 1 -15 -6 0 -9 -11 -11
-37 -7 -30 5 -40 2 -58 -17 -17 -18 -26 -21 -45 -14 -17 6 -28 4 -42 -8 -14
-14 -23 -15 -41 -7 -13 6 -35 9 -49 6 -36 -7 -166 16 -176 30 -4 7 -20 12 -37
12 -22 0 -33 7 -42 26 -7 15 -24 30 -38 33 -14 4 -25 12 -25 19 0 32 -22 87
-35 87 -8 0 -15 7 -15 15 0 8 -6 15 -13 15 -8 0 -21 17 -30 38 -9 20 -21 44
-26 52 -17 27 -52 108 -50 116 3 12 -12 66 -21 79 -9 12 -24 85 -21 103 1 7
-5 15 -13 18 -8 3 -12 12 -9 20 3 7 -4 42 -15 76 -11 35 -25 82 -32 106 -7 27
-16 42 -27 42 -11 0 -14 7 -11 25 3 14 -1 30 -8 36 -11 9 -11 16 1 39 8 16 10
31 5 36 -5 5 -11 27 -13 48 -3 22 -11 44 -18 50 -8 7 -14 28 -13 53 1 23 -2
40 -6 38 -9 -6 -5 106 5 153 7 29 5 34 -15 39 -14 4 -18 8 -10 13 20 12 -2 64
-28 68 -12 2 -22 8 -22 13 0 5 -6 9 -12 9 -7 0 -26 7 -42 15 -16 9 -35 14 -43
11 -7 -3 -18 1 -25 7 -16 16 -51 30 -44 18 3 -5 -2 -12 -12 -15 -34 -13 -60
-32 -114 -89 -43 -43 -58 -67 -63 -98 -4 -23 -15 -45 -26 -52 -10 -6 -19 -19
-19 -27 0 -9 -5 -21 -12 -28 -7 -7 -9 -12 -5 -12 6 0 -8 -35 -50 -130 -9 -19
-15 -42 -14 -50 1 -8 -8 -33 -19 -55 -11 -21 -20 -49 -20 -62 0 -12 -4 -24 -9
-27 -16 -10 -48 -80 -55 -121 -8 -44 -28 -107 -36 -115 -18 -17 -43 -67 -45
-89 -1 -14 -12 -42 -24 -61 -12 -19 -24 -47 -28 -62 -3 -16 -9 -28 -13 -28 -4
0 -15 -17 -23 -38 -8 -21 -22 -44 -31 -51 -9 -8 -16 -21 -17 -30 0 -9 -9 -29
-20 -46 -10 -16 -24 -40 -30 -52 -7 -13 -15 -23 -19 -23 -4 0 -19 -24 -34 -52
-14 -29 -42 -70 -61 -92 -19 -21 -35 -46 -35 -55 0 -9 -18 -31 -40 -50 -23
-19 -48 -49 -56 -67 -9 -19 -26 -35 -40 -38 -14 -4 -29 -17 -34 -29 -10 -26
-57 -77 -70 -77 -6 0 -10 -7 -10 -15 0 -9 -16 -25 -35 -36 -19 -12 -35 -27
-35 -34 0 -7 -8 -12 -17 -11 -9 0 -22 -9 -28 -21 -7 -13 -15 -20 -18 -17 -4 4
-9 -1 -13 -10 -3 -9 -10 -13 -15 -10 -5 3 -9 -2 -9 -11 0 -12 -6 -15 -19 -10
-11 3 -22 1 -26 -4 -3 -6 -21 -10 -40 -9 -19 1 -32 5 -29 9 7 12 -67 115 -91
125 -13 6 -19 17 -17 31 2 13 -5 27 -19 36 -12 9 -19 22 -16 30 3 8 -3 31 -14
51 -10 20 -16 36 -12 36 4 0 2 5 -5 12 -7 7 -12 29 -12 50 0 23 -6 40 -16 46
-9 5 -21 39 -30 88 -18 93 -31 124 -50 117 -8 -3 -14 0 -14 6 0 6 5 11 11 11
7 0 9 11 6 27 -18 89 -28 142 -33 173 -2 19 -9 50 -15 69 -6 18 -11 55 -11 82
0 27 -6 53 -12 59 -14 10 -15 38 -3 57 4 6 3 33 -3 59 -6 26 -8 60 -5 75 3 15
1 30 -4 34 -6 3 -11 16 -11 29 0 12 -3 26 -7 29 -3 4 -7 28 -9 53 -1 26 -7 51
-13 57 -6 6 -11 21 -11 33 0 28 -11 36 -80 52 -83 19 -126 21 -152 6 -12 -7
-38 -20 -56 -29 -18 -9 -35 -22 -38 -30 -3 -7 -12 -11 -20 -8 -10 3 -14 -2
-14 -19 0 -13 -9 -29 -20 -36 -13 -8 -20 -23 -20 -41 0 -17 -4 -33 -10 -36 -5
-3 -10 -22 -10 -41 0 -22 -5 -34 -13 -34 -19 0 -44 -30 -52 -62 -4 -16 -11
-28 -16 -28 -9 0 -37 -58 -73 -150 -10 -25 -26 -62 -37 -82 -10 -20 -19 -44
-19 -53 0 -9 -9 -30 -21 -46 -11 -16 -18 -36 -15 -44 3 -8 -3 -20 -12 -27 -9
-7 -18 -26 -19 -43 -1 -16 -9 -35 -18 -41 -8 -6 -15 -20 -15 -31 0 -11 -7 -26
-15 -33 -8 -7 -15 -22 -15 -34 0 -13 -11 -32 -25 -44 -14 -12 -25 -28 -25 -35
0 -8 -10 -22 -21 -33 -23 -20 -98 -131 -136 -200 -12 -23 -32 -53 -45 -68 -31
-38 -108 -116 -113 -116 -8 0 -55 114 -55 135 0 12 -3 25 -7 29 -4 3 -8 17
-10 29 -2 12 -6 29 -9 37 -4 8 -9 40 -11 70 -3 30 -9 58 -14 61 -6 3 -12 21
-15 40 -3 19 -8 41 -11 49 -3 8 -5 38 -4 67 1 28 -3 54 -9 58 -5 3 -10 24 -10
46 0 29 -4 39 -16 39 -13 0 -14 3 -5 14 16 19 4 77 -19 93 -23 17 -27 35 -5
27 12 -5 15 5 15 56 0 38 -4 59 -10 55 -10 -6 -10 36 1 45 15 13 18 58 4 70
-11 9 -11 17 -3 35 8 17 7 36 -1 67 -7 24 -14 56 -17 72 -2 16 -8 34 -14 40
-10 14 -2 56 11 56 5 0 9 5 9 10 0 6 -7 10 -16 10 -12 0 -14 4 -7 12 12 16 14
86 2 93 -4 3 -4 18 2 33 10 27 2 202 -10 202 -3 0 -7 96 -8 213 -2 302 -15
445 -44 499 -7 12 -15 34 -16 48 -1 14 -5 41 -7 62 -2 20 -11 49 -19 65 -15
27 -28 71 -32 103 -4 46 -19 100 -26 100 -5 0 -9 6 -9 14 0 7 -9 25 -20 39
-11 14 -20 36 -21 49 l-1 23 -8 -25 -8 -25 -13 32 c-9 23 -20 33 -35 33 -15 0
-21 6 -20 17 0 12 -6 18 -19 19 -11 0 -27 3 -35 7 -32 13 -71 3 -77 -21 -5
-21 -6 -22 -18 -5 -8 10 -17 15 -21 10 -9 -9 -14 -108 -6 -121 3 -6 7 -20 8
-33 2 -13 12 -36 23 -51 13 -19 17 -32 10 -39 -6 -6 -5 -21 4 -44 8 -19 20
-59 26 -89 7 -30 16 -64 21 -75 5 -11 11 -45 14 -75 4 -35 12 -60 22 -67 14
-10 15 -15 4 -28 -8 -10 -9 -19 -3 -28 6 -6 16 -66 22 -132 7 -66 16 -131 21
-145 4 -14 3 -36 -1 -48 -6 -14 -5 -31 1 -43 8 -14 7 -19 -1 -19 -7 0 -6 -8 4
-23 8 -12 13 -34 12 -47 -4 -36 -4 -37 -15 -20 -8 13 -10 12 -10 -2 0 -10 4
-18 10 -18 5 0 7 -13 4 -30 -4 -17 -1 -36 5 -44 11 -13 10 -43 -4 -78 -3 -9
-2 -42 4 -73 7 -34 7 -64 2 -74 -5 -9 -6 -23 -1 -31 5 -9 10 -50 13 -93 2 -43
9 -83 15 -89 7 -7 6 -18 -4 -36 -7 -14 -11 -29 -8 -33 2 -4 6 -34 8 -66 3 -32
9 -71 15 -86 6 -15 7 -27 2 -27 -14 0 4 -286 19 -295 4 -2 8 -27 8 -54 1 -27
5 -59 10 -72 5 -13 10 -53 11 -88 1 -35 6 -74 11 -86 5 -13 6 -26 3 -29 -3 -3
1 -16 9 -28 8 -13 18 -39 21 -58 13 -73 16 -86 32 -143 8 -32 15 -60 15 -62 0
-2 6 -2 14 1 19 7 26 -38 11 -67 -14 -25 -1 -59 22 -59 8 0 13 -13 13 -32 1
-33 22 -67 50 -81 46 -23 61 -35 51 -42 -6 -3 -8 -11 -5 -17 4 -6 10 -5 16 3
7 10 9 9 5 -7 -4 -20 0 -21 94 -21 55 -1 102 3 105 8 3 5 10 9 15 9 6 0 8 -4
5 -8 -2 -4 0 -14 5 -22 8 -13 11 -12 20 2 5 10 20 18 32 18 35 0 168 100 181
136 6 17 16 29 22 27 14 -5 84 72 84 92 0 8 8 23 18 33 30 30 62 79 62 96 0 8
9 20 21 26 16 9 19 18 15 36 -5 17 -2 24 8 24 19 0 56 52 56 79 0 12 4 21 10
21 5 0 16 16 25 35 9 19 23 39 31 46 8 6 14 24 14 39 0 15 6 30 14 33 7 3 17
26 20 51 4 25 11 48 17 51 5 4 9 14 9 24 0 10 11 28 25 41 14 13 24 31 23 40
-2 10 3 24 10 33 9 10 10 17 2 22 -14 9 -13 28 2 23 14 -5 48 53 48 82 0 11 3
20 8 20 13 0 34 59 26 72 -14 21 -13 40 1 54 15 15 20 -2 35 -121 8 -65 16
-97 54 -234 8 -30 15 -57 14 -60 -1 -3 2 -13 5 -21 3 -8 8 -37 10 -65 6 -66
28 -167 39 -181 13 -18 58 -155 58 -179 0 -12 11 -32 24 -44 15 -14 22 -30 19
-42 -3 -10 -1 -19 5 -19 6 0 14 -17 18 -37 4 -21 12 -45 19 -53 8 -8 16 -27
20 -41 9 -34 75 -122 102 -134 13 -5 25 -22 28 -36 6 -26 8 -27 65 -25 41 3
60 -1 64 -9 5 -14 109 -41 136 -37 8 1 30 4 48 6 18 2 39 10 47 16 9 8 20 9
28 4 6 -5 19 -9 27 -8 26 2 70 23 70 34 0 5 7 10 15 10 8 0 15 5 15 11 0 6 7
8 15 5 11 -4 17 3 21 24 8 37 18 45 72 60 24 6 46 18 49 26 3 7 11 14 19 14
17 0 134 120 134 137 0 7 6 13 14 13 8 0 18 9 21 20 3 11 11 20 16 20 5 0 9 7
9 15 0 9 6 18 14 21 9 3 12 13 8 27 -5 20 -4 20 11 8 15 -11 17 -11 17 1 0 8
15 29 33 46 77 76 90 92 108 131 10 22 27 51 38 63 12 12 30 41 42 64 11 23
26 45 34 48 8 3 15 14 15 25 0 10 7 21 15 25 8 3 15 12 15 21 0 9 7 27 16 40
9 14 14 31 11 38 -3 8 12 37 34 66 21 28 39 62 39 75 0 13 7 26 15 30 8 3 15
14 15 24 0 11 7 25 15 32 8 7 15 21 15 31 0 10 9 35 20 54 11 20 19 42 18 48
-1 7 6 29 16 49 10 20 15 42 11 48 -3 5 3 23 14 39 12 16 21 33 21 38 0 5 14
35 30 67 17 32 30 66 29 75 -3 32 1 51 11 51 6 0 10 -8 10 -18 0 -10 6 -27 14
-37 8 -11 16 -45 18 -75 4 -54 44 -216 57 -235 4 -5 13 -30 20 -55 22 -79 40
-112 56 -106 16 6 21 -9 6 -18 -13 -8 -1 -98 16 -117 8 -9 15 -29 17 -44 2
-15 10 -32 19 -37 10 -5 17 -15 17 -23 0 -7 6 -26 14 -42 8 -15 22 -47 31 -69
9 -23 28 -47 41 -55 13 -7 24 -19 24 -28 0 -22 91 -121 111 -121 9 0 22 -7 29
-15 7 -8 19 -15 26 -15 8 0 24 -15 36 -33 24 -38 70 -62 111 -59 17 2 30 -3
33 -13 4 -10 14 -13 31 -9 16 4 28 2 33 -7 7 -10 11 -10 24 0 10 8 21 9 31 3
10 -5 39 -5 70 0 31 5 64 4 78 -1 18 -7 30 -6 45 5 12 8 48 14 86 15 49 1 69
6 75 17 6 11 13 13 23 6 19 -14 98 -10 128 6 14 7 38 15 55 17 16 2 33 10 38
18 4 8 16 15 25 15 9 0 23 9 29 19 8 13 19 18 33 14 15 -4 20 -1 20 16 0 11 5
21 10 21 6 0 10 -4 10 -10 0 -5 7 -10 15 -10 9 0 15 7 13 16 -4 20 63 47 96
38 15 -4 30 3 49 22 15 15 27 31 27 36 0 4 12 14 28 21 15 6 44 29 65 49 21
21 43 38 48 38 6 0 9 8 7 18 -2 9 3 16 10 15 6 -2 12 4 12 13 0 10 6 14 15 10
8 -3 15 0 15 6 0 7 5 6 15 -2 12 -10 15 -10 15 4 0 9 8 16 18 16 35 1 92 72
92 116 0 11 5 14 16 10 26 -10 144 125 134 152 0 1 6 10 15 18 8 9 15 21 15
27 0 7 15 22 34 34 32 21 66 75 66 107 0 8 9 20 20 26 11 6 20 15 20 21 0 5 9
20 20 32 14 14 19 29 15 44 -3 13 -2 23 2 22 19 -3 33 2 33 12 0 7 7 17 17 24
9 7 16 25 15 44 0 24 3 31 16 29 11 -2 18 5 20 18 2 12 16 33 32 47 18 16 32
41 36 64 4 21 15 46 26 56 10 10 16 22 13 26 -2 5 2 14 10 21 8 7 15 18 15 25
0 7 7 18 15 25 8 7 15 23 15 36 0 12 5 26 11 29 6 4 8 13 5 21 -3 7 -1 16 5
19 13 9 50 83 48 98 -3 20 20 67 35 73 8 3 12 12 10 19 -3 7 1 26 10 43 8 16
13 38 10 49 -3 12 -1 24 5 27 6 4 11 17 11 29 0 12 9 33 20 47 24 30 25 58 4
88 -12 18 -12 22 -1 22 7 0 22 7 33 15 19 15 19 15 0 30 -20 15 -18 17 19 19
15 1 22 12 30 46 6 25 17 61 26 80 9 19 21 46 28 60 6 14 20 39 30 55 10 17
16 33 14 38 -2 4 3 14 11 23 9 8 18 27 21 42 3 15 15 55 25 88 11 34 20 70 20
81 0 10 6 25 13 32 10 10 9 15 -5 25 -16 12 -15 13 3 27 11 8 23 14 27 14 19
1 32 19 32 43 0 15 7 38 16 50 9 14 14 36 12 52 -2 16 -1 27 2 25 11 -7 29 36
32 75 2 19 10 41 20 47 10 8 14 21 11 34 -4 12 3 32 16 50 13 17 21 36 18 43
-3 6 1 20 8 29 7 9 11 30 9 46 -2 19 3 35 16 46 11 10 17 21 15 25 -2 4 6 30
20 58 13 28 25 67 27 87 1 20 6 39 10 41 4 3 8 13 8 23 0 10 7 32 15 47 8 16
15 40 15 54 0 14 9 44 20 68 10 23 19 45 20 47 0 3 1 8 1 13 5 28 2 38 -11 49
-13 10 -13 12 3 18 9 4 17 17 17 29 0 12 9 27 20 34 16 10 18 17 10 37 -7 18
-6 26 4 32 7 4 16 26 20 48 3 22 8 48 9 58 2 9 13 26 25 37 12 12 22 32 22 45
0 13 5 27 10 30 6 4 8 10 5 15 -3 5 0 20 7 32 38 69 69 253 52 311 -4 11 0 17
10 17 9 0 18 11 22 25 3 14 9 25 13 25 8 0 8 46 0 54 -9 9 2 56 12 56 5 0 9 9
9 20 0 10 6 24 13 31 7 7 11 29 9 53 -3 29 1 46 12 55 9 8 16 25 16 40 0 15 6
33 12 39 10 10 10 17 -1 34 -11 18 -11 22 2 30 18 9 20 68 3 68 -6 0 -4 6 4
13 8 7 16 30 17 52 1 22 2 49 3 60 0 10 5 24 9 30 5 5 12 29 16 53 5 32 4 42
-7 42 -9 0 -10 2 -1 8 21 13 35 66 38 141 2 45 8 77 16 81 6 5 14 28 16 52 10
126 13 147 21 169 5 13 7 38 5 54 -2 17 0 49 5 73 6 23 6 42 2 42 -10 0 -20
38 -11 42 4 2 17 18 30 36 17 25 21 36 12 45 -6 6 -11 21 -11 33 0 13 -5 26
-11 29 -11 8 -9 67 4 76 4 3 3 27 -3 53 -6 26 -7 53 -3 59 19 31 20 96 2 107
-12 8 -12 14 -1 42 24 58 25 68 10 68 -10 0 -14 17 -15 67 -1 37 2 74 6 82 5
8 5 28 0 45 -6 20 -5 32 1 34 14 5 13 32 -1 32 -8 0 -10 17 -6 54 3 30 1 56
-3 58 -5 2 -5 20 0 42 5 22 7 43 4 47 -9 14 -13 129 -5 129 5 0 9 11 9 25 0
18 -5 25 -17 23 -10 -2 -15 3 -13 15 2 10 -3 17 -13 17 -17 0 -20 16 -4 26 7
4 9 22 6 48 -5 34 -3 44 13 54 26 16 25 40 -2 69 -16 17 -23 39 -25 80 -2 31
-8 63 -15 70 -6 7 -8 17 -4 20 4 4 11 1 16 -7 10 -16 12 -12 12 20 0 38 -3 45
-12 25 -7 -17 -9 -16 -9 11 -1 16 -6 35 -11 40 -6 6 -11 39 -11 75 -1 35 -8
86 -15 113 -8 27 -14 62 -14 78 0 16 -9 41 -20 56 -11 15 -24 51 -30 80 -5 29
-14 61 -20 72 -6 10 -11 31 -12 45 -1 14 -10 33 -20 42 -10 9 -18 25 -18 36 0
23 -33 81 -69 120 -19 20 -26 41 -28 73 -1 24 -8 51 -15 58 -10 9 -13 39 -12
97 1 46 -3 95 -8 109 -6 16 -6 26 1 28 8 3 8 10 1 23 -7 11 -7 25 -1 36 25 50
39 92 33 98 -11 11 -9 79 3 87 6 5 3 18 -8 38 -14 24 -15 31 -5 35 8 3 13 23
13 56 0 37 5 54 18 63 23 18 22 36 -3 36 -11 0 -20 4 -20 9 0 22 42 79 65 89
27 12 33 28 13 35 -10 3 -10 7 0 20 8 9 11 21 8 26 -11 17 -14 95 -5 119 7 18
14 22 32 18 12 -3 16 -3 10 0 -7 3 -13 16 -13 28 0 12 -5 27 -11 33 -7 7 -5
16 8 28 29 30 42 62 38 102 -1 21 1 47 5 58 4 11 3 30 -3 43 -8 18 -8 25 3 32
9 6 17 4 22 -3 4 -7 6 5 5 25 -2 21 -6 41 -10 44 -7 8 17 34 32 34 6 0 11 2
11 4 0 11 -30 60 -42 67 -10 6 -10 11 -1 20 9 9 15 9 27 0 10 -9 16 -9 21 -1
14 23 12 75 -4 94 -15 17 -15 18 3 15 16 -3 20 2 20 26 1 17 5 33 10 37 6 4 6
16 -1 30 -7 16 -8 30 -1 42 5 9 8 22 5 29 -2 7 2 17 9 22 22 18 64 106 57 118
-11 17 -4 49 14 69 11 12 13 26 9 45 -10 39 -8 77 4 81 12 4 13 35 3 46 -11
10 -11 56 -1 56 4 0 8 7 8 15 0 7 8 19 18 24 16 10 16 12 -1 25 -10 8 -14 17
-9 20 6 3 8 30 7 58 -2 29 -5 67 -6 83 -1 17 3 43 10 59 12 30 3 45 -26 46 -7
0 -13 5 -13 10 0 6 7 10 15 10 8 0 15 7 15 15 0 8 -9 15 -20 15 -11 0 -20 5
-20 11 0 5 4 7 10 4 5 -3 16 0 23 7 12 10 11 15 -6 28 -20 16 -20 17 4 40 16
15 20 24 12 27 -7 3 -13 13 -13 23 0 10 -5 22 -11 26 -8 4 -7 9 2 15 11 7 9
12 -9 24 -17 12 -20 20 -13 34 8 14 -1 30 -40 78 -29 35 -63 66 -81 72 -26 9
-29 14 -24 36 5 21 1 28 -28 42 -19 9 -37 25 -40 35 -3 14 -10 18 -24 14 -13
-4 -22 -1 -25 8 -7 17 -53 15 -132 -7 -45 -12 -50 -16 -47 -40 1 -15 -2 -27
-8 -27 -5 0 -10 9 -10 19 0 22 -34 33 -69 24 -16 -4 -21 -11 -17 -25 4 -18 1
-19 -27 -14 -20 3 -39 0 -51 -9 -11 -8 -27 -15 -37 -15 -9 0 -22 -7 -29 -15
-7 -8 -16 -13 -20 -10 -5 3 -15 -1 -22 -9 -8 -7 -24 -17 -36 -20 -12 -4 -22
-14 -22 -22 0 -8 -4 -13 -9 -9 -5 3 -12 1 -16 -5 -3 -5 -15 -10 -26 -10 -10 0
-31 -13 -46 -30 -14 -16 -32 -30 -40 -30 -7 0 -13 -9 -13 -19 0 -14 -16 -27
-54 -44 -51 -23 -205 -164 -219 -199 -5 -15 -68 -50 -97 -54 -8 -2 -25 -14
-37 -28 -12 -15 -26 -26 -30 -26 -5 0 -40 -33 -79 -73 -39 -41 -89 -84 -110
-97 -21 -13 -69 -54 -106 -90 -100 -98 -111 -107 -150 -123 -20 -8 -46 -25
-57 -36 -12 -12 -27 -21 -33 -21 -10 0 -9 3 1 9 10 7 11 16 4 37 -10 30 -6
104 6 104 4 0 8 10 8 23 4 42 13 67 27 67 7 0 21 9 31 20 15 17 16 24 7 46
-15 32 -15 34 6 35 15 0 15 1 -2 8 -14 5 -16 10 -8 15 7 4 16 5 21 2 13 -8 24
23 25 74 1 38 4 45 21 45 17 0 20 7 22 45 1 25 2 51 2 59 1 7 7 11 16 7 9 -3
15 0 15 8 0 8 15 43 34 78 18 34 32 68 29 75 -5 13 24 64 44 76 15 9 18 67 3
67 -11 0 -7 65 6 97 9 21 12 23 34 23 20 0 9 21 -17 32 -27 11 -28 12 -5 16
29 5 39 32 36 100 -1 38 2 52 12 52 8 0 14 5 14 10 0 6 -9 10 -21 10 -16 0
-19 4 -14 18 4 9 8 25 9 34 1 10 5 21 9 24 3 4 0 19 -9 35 -13 26 -13 32 1 58
8 17 11 32 6 35 -4 3 -11 28 -14 56 -3 27 -12 65 -20 82 -8 18 -15 44 -15 58
-1 13 -8 30 -16 36 -8 6 -17 21 -20 35 -7 38 -16 57 -31 62 -8 4 -12 -1 -10
-11 1 -9 0 -11 -2 -4 -3 6 -8 12 -13 12 -5 0 -7 6 -4 13 2 7 -4 22 -16 32 -11
10 -20 14 -20 9 0 -5 -8 7 -19 26 -10 19 -25 35 -32 35 -8 0 -17 4 -20 9 -4 5
-15 6 -24 2 -14 -5 -15 -9 -5 -21 7 -9 10 -18 6 -22 -3 -4 -13 3 -22 15 -8 12
-19 20 -24 17 -5 -3 -14 3 -19 14 -8 15 -21 19 -63 18 -29 0 -64 -3 -78 -8
-14 -4 -38 -10 -54 -14 -22 -4 -27 -10 -23 -25 4 -16 2 -18 -12 -10 -30 15
-112 -11 -141 -44 -7 -9 -24 -16 -37 -16 -15 0 -44 -16 -70 -40 -25 -22 -51
-40 -58 -40 -6 0 -21 -11 -33 -25 -12 -14 -26 -25 -32 -25 -5 0 -12 -11 -16
-25 -4 -14 -13 -25 -23 -25 -22 0 -61 -36 -61 -56 0 -10 -6 -13 -18 -10 -13 5
-36 -12 -83 -59 -73 -74 -109 -114 -109 -120 0 -2 -10 -15 -22 -28 -47 -50
-68 -79 -68 -93 0 -8 -6 -14 -13 -14 -8 0 -19 -11 -25 -25 -6 -14 -16 -25 -22
-25 -5 0 -10 -9 -10 -21 0 -12 -8 -23 -19 -26 -10 -2 -23 -14 -29 -26 -32 -70
-40 -92 -34 -102 3 -5 -2 -3 -12 5 -16 12 -19 12 -29 -5 -6 -11 -12 -22 -12
-25 -8 -52 -51 -70 -60 -25 -3 14 -7 36 -10 49 -3 14 0 28 6 31 6 4 8 18 5 30
-3 13 3 44 14 70 19 44 19 51 6 103 -16 59 -14 72 11 72 12 0 15 8 10 39 -2
22 -1 43 3 48 5 4 15 34 23 65 12 51 12 61 -1 79 -12 18 -12 22 3 39 9 10 16
31 15 46 0 16 -1 54 -3 84 -2 46 2 58 20 75 12 11 23 35 25 55 2 19 11 41 21
48 19 15 22 44 6 73 -7 15 -7 24 1 34 7 9 9 34 4 74 -5 51 -4 65 11 81 12 13
15 27 10 48 -5 23 -2 33 10 40 15 8 15 10 1 24 -8 9 -12 18 -9 21 3 3 12 -1
21 -9 14 -14 17 -14 28 8 18 31 17 38 -2 38 -14 0 -15 7 -11 37 4 22 2 42 -5
50 -9 11 -7 15 11 20 16 4 19 8 10 19 -6 8 -8 26 -4 44 5 21 3 30 -6 30 -7 0
-3 10 10 24 13 14 20 29 17 35 -4 5 -2 12 4 16 13 8 13 42 0 47 -6 2 -13 20
-17 41 -4 28 -1 42 12 57 18 20 18 21 -1 34 -15 12 -19 28 -20 83 -1 88 -15
135 -54 189 -29 41 -30 44 -11 44 26 0 27 11 1 33 -11 9 -20 26 -20 38 0 25
-33 74 -77 113 -18 16 -33 35 -33 42 0 21 -43 56 -62 51 -9 -3 -25 4 -34 14
-15 16 -28 19 -75 15 -32 -2 -73 -1 -92 3 -23 6 -42 4 -58 -5z m-1899 -1320
c0 -2 -7 -4 -15 -4 -8 0 -15 4 -15 10 0 5 7 7 15 4 8 -4 15 -8 15 -10z m-320
-364 c0 -5 -5 -10 -11 -10 -5 0 -7 5 -4 10 3 6 8 10 11 10 2 0 4 -4 4 -10z
m2540 -364 c0 -3 -4 -8 -10 -11 -5 -3 -10 -1 -10 4 0 6 5 11 10 11 6 0 10 -2
10 -4z m-3123 -252 c-3 -3 -12 -4 -19 -1 -8 3 -5 6 6 6 11 1 17 -2 13 -5z
m3423 -144 c0 -5 -5 -10 -11 -10 -5 0 -7 5 -4 10 3 6 8 10 11 10 2 0 4 -4 4
-10z m2135 -60 c3 -5 1 -10 -4 -10 -6 0 -11 5 -11 10 0 6 2 10 4 10 3 0 8 -4
11 -10z m-45 -84 c0 -3 -4 -8 -10 -11 -5 -3 -10 -1 -10 4 0 6 5 11 10 11 6 0
10 -2 10 -4z m-5550 -86 c0 -5 -2 -10 -4 -10 -3 0 -8 5 -11 10 -3 6 -1 10 4
10 6 0 11 -4 11 -10z m5365 -60 c3 -5 -1 -10 -9 -10 -9 0 -16 5 -16 10 0 6 4
10 9 10 6 0 13 -4 16 -10z m105 -89 c0 -5 -7 -11 -14 -14 -10 -4 -13 -1 -9 9
6 15 23 19 23 5z m-1190 -75 c0 -3 -4 -8 -10 -11 -5 -3 -10 -1 -10 4 0 6 5 11
10 11 6 0 10 -2 10 -4z m1977 -362 c-3 -3 -12 -4 -19 -1 -8 3 -5 6 6 6 11 1
17 -2 13 -5z m-9627 -34 c0 -5 -4 -10 -10 -10 -5 0 -10 5 -10 10 0 6 5 10 10
10 6 0 10 -4 10 -10z m7527 -42 c-3 -7 -5 -2 -5 12 0 14 2 19 5 13 2 -7 2 -19
0 -25z m-9007 -28 c0 -5 -8 -10 -17 -10 -15 0 -16 2 -3 10 19 12 20 12 20 0z
m-350 -4 c0 -3 -4 -8 -10 -11 -5 -3 -10 -1 -10 4 0 6 5 11 10 11 6 0 10 -2 10
-4z m428 -3 c-10 -2 -26 -2 -35 0 -10 3 -2 5 17 5 19 0 27 -2 18 -5z m1215
-110 c-7 -2 -21 -2 -30 0 -10 3 -4 5 12 5 17 0 24 -2 18 -5z m150 0 c-7 -2
-19 -2 -25 0 -7 3 -2 5 12 5 14 0 19 -2 13 -5z m354 -55 c-3 -8 -6 -5 -6 6 -1
11 2 17 5 13 3 -3 4 -12 1 -19z m-3147 -242 c0 -7 -6 -19 -14 -25 -11 -9 -13
-6 -13 14 0 15 5 25 13 25 8 0 14 -6 14 -14z m-3168 -101 c-6 -34 -22 -42 -22
-11 0 13 6 27 13 29 6 3 13 6 13 6 1 1 -1 -10 -4 -24z m75 -34 c2 -21 -1 -30
-8 -25 -6 3 -9 15 -6 25 3 11 1 19 -4 19 -5 0 -9 5 -9 11 0 26 25 -1 27 -30z
m1896 -4 c6 -16 -48 -51 -63 -42 -6 3 -10 14 -9 23 0 14 2 13 9 -3 5 -11 9
-15 9 -8 1 14 29 43 41 43 4 0 10 -6 13 -13z m551 -26 c8 -12 -41 -24 -57 -14
-8 5 -3 10 13 14 36 10 38 10 44 0z m-2664 -71 c0 -5 -4 -10 -10 -10 -5 0 -10
5 -10 10 0 6 5 10 10 10 6 0 10 -4 10 -10z m15455 -50 c-3 -5 -10 -10 -16 -10
-5 0 -9 5 -9 10 0 6 7 10 16 10 8 0 12 -4 9 -10z m-13780 -20 c3 -5 -1 -10 -9
-10 -9 0 -16 5 -16 10 0 6 4 10 9 10 6 0 13 -4 16 -10z m-855 -225 c0 -8 -7
-15 -15 -15 -8 0 -15 7 -15 15 0 8 7 15 15 15 8 0 15 -7 15 -15z m-15 -55 c3
-5 1 -10 -4 -10 -6 0 -11 5 -11 10 0 6 2 10 4 10 3 0 8 -4 11 -10z m210 -30
c3 -6 -4 -10 -17 -10 -18 0 -20 2 -8 10 19 12 18 12 25 0z m-272 -76 c-10 -7
-22 -9 -27 -4 -14 13 2 29 24 23 19 -5 19 -6 3 -19z m-455 -74 c-1 -17 -3 -28
-6 -25 -2 2 -14 -1 -26 -7 -27 -15 -47 -19 -66 -12 -13 4 -13 6 0 14 8 5 23 7
32 4 13 -4 16 -1 12 11 -5 11 -2 16 7 15 28 -4 39 0 39 15 0 8 2 15 4 15 3 0
4 -14 4 -30z m-116 -102 c-7 -7 -12 -8 -12 -2 0 14 12 26 19 19 2 -3 -1 -11
-7 -17z m38 -18 c0 -12 -28 -25 -36 -17 -9 9 6 27 22 27 8 0 14 -5 14 -10z
m-1575 -1220 c3 -5 1 -10 -4 -10 -6 0 -11 5 -11 10 0 6 2 10 4 10 3 0 8 -4 11
-10z m-2721 -721 c16 13 76 1 76 -15 0 -8 7 -14 16 -14 10 0 14 6 11 14 -4 10
-1 13 9 9 7 -3 14 -9 14 -13 0 -17 62 -39 91 -33 17 3 35 0 44 -7 8 -7 15 -9
15 -5 0 4 6 3 13 -3 13 -11 62 -10 88 2 9 4 34 3 56 -2 24 -6 47 -6 57 0 9 5
16 5 16 0 0 -5 28 -7 63 -5 34 3 125 6 202 7 77 1 148 6 158 10 9 5 24 6 32 2
8 -3 15 -2 15 2 0 9 171 9 185 0 6 -3 32 -2 60 3 35 6 51 6 56 -2 4 -7 18 -9
35 -5 39 10 78 10 81 -1 3 -9 180 -9 189 0 3 3 21 -1 39 -9 23 -9 57 -12 101
-9 37 2 72 1 78 -3 14 -8 22 -9 115 -16 42 -3 90 -8 106 -10 17 -2 38 0 47 5
20 11 46 2 57 -20 9 -15 -17 -120 -40 -163 -5 -9 -11 -35 -15 -56 -5 -30 -2
-43 12 -57 17 -17 17 -17 -3 -11 -26 8 -39 -10 -22 -31 11 -13 10 -17 -3 -27
-10 -7 -20 -34 -24 -67 -4 -30 -10 -59 -15 -64 -4 -6 -7 -30 -6 -55 1 -51 -11
-120 -23 -136 -5 -5 -8 -31 -7 -56 1 -26 -4 -53 -12 -62 -9 -11 -10 -16 -2
-16 14 0 14 -43 0 -57 -9 -9 -17 -33 -36 -111 -4 -15 1 -28 13 -37 18 -13 18
-14 2 -15 -20 0 -21 -4 -12 -38 4 -14 12 -21 20 -18 8 3 14 -1 14 -9 0 -8 -5
-15 -11 -15 -5 0 -9 -8 -8 -17 1 -10 -4 -38 -11 -63 -7 -25 -14 -88 -15 -140
-1 -52 -5 -109 -9 -127 -5 -22 -2 -42 10 -65 22 -41 27 -68 13 -68 -7 0 -8
-11 -4 -30 4 -19 3 -30 -5 -30 -6 0 -11 -17 -10 -42 0 -24 -2 -70 -5 -103 -3
-33 -5 -85 -4 -115 0 -44 -2 -53 -12 -42 -7 6 -21 12 -31 12 -10 0 -18 5 -18
11 0 5 -5 7 -12 3 -7 -4 -8 -3 -4 5 10 15 -50 75 -68 68 -8 -3 -26 5 -41 19
-14 13 -38 27 -53 30 -35 9 -71 37 -94 74 -10 17 -25 30 -33 30 -17 0 -56 20
-68 35 -6 6 -10 5 -14 -3 -4 -10 -8 -10 -19 -1 -8 6 -14 17 -14 23 0 6 -21 18
-48 26 -26 9 -47 21 -47 28 0 7 -11 24 -24 38 -21 22 -25 23 -40 10 -15 -14
-19 -12 -36 22 -24 45 -70 92 -90 92 -8 0 -15 5 -15 11 0 6 -9 8 -20 4 -14 -5
-20 -2 -20 9 0 9 -6 16 -14 16 -8 0 -18 13 -24 28 -14 41 -114 132 -145 132
-11 0 -21 9 -24 20 -3 11 -10 20 -15 20 -19 0 -97 55 -103 73 -4 9 -14 17 -24
17 -11 0 -23 16 -35 50 -10 28 -22 50 -27 50 -6 0 -9 8 -7 18 2 12 -4 17 -23
17 -16 0 -35 10 -47 25 -12 14 -21 21 -22 17 0 -4 -15 9 -34 29 -19 21 -32 43
-30 49 5 12 -63 65 -82 65 -14 0 -64 53 -64 68 0 7 -5 12 -11 12 -5 0 -8 4 -5
9 11 18 -5 39 -34 45 -21 4 -28 10 -24 21 4 8 -1 17 -10 21 -9 3 -16 12 -16
19 0 6 -9 20 -20 30 -12 10 -18 25 -16 32 3 8 -4 21 -16 31 -20 16 -52 47
-103 102 -12 14 -46 60 -74 103 -28 42 -55 77 -60 77 -12 0 -51 76 -51 98 0
10 -5 23 -11 29 -6 6 -11 17 -13 26 -2 19 -49 87 -59 87 -17 0 -49 39 -45 56
2 14 15 17 61 19 32 1 60 -2 63 -7 10 -15 44 -8 44 9 0 13 3 14 12 5 7 -7 16
-8 22 -3z m19666 -73 c0 -3 -4 -8 -10 -11 -5 -3 -10 -1 -10 4 0 6 5 11 10 11
6 0 10 -2 10 -4z m-19763 -202 c-3 -3 -12 -4 -19 -1 -8 3 -5 6 6 6 11 1 17 -2
13 -5z m13663 -34 c0 -5 -4 -10 -10 -10 -5 0 -10 5 -10 10 0 6 5 10 10 10 6 0
10 -4 10 -10z m-11540 -454 c0 -3 -4 -8 -10 -11 -5 -3 -10 -1 -10 4 0 6 5 11
10 11 6 0 10 -2 10 -4z m-61 -2487 c-15 -9 -32 -2 -24 11 3 5 13 6 21 3 12 -4
13 -8 3 -14z m17281 -89 c0 -5 -2 -10 -4 -10 -3 0 -8 5 -11 10 -3 6 -1 10 4
10 6 0 11 -4 11 -10z m-6212 -62 c-2 -6 -10 -14 -16 -16 -7 -2 -10 2 -6 12 7
18 28 22 22 4z m6107 -318 c3 -5 1 -10 -4 -10 -6 0 -11 5 -11 10 0 6 2 10 4
10 3 0 8 -4 11 -10z m-6489 -150 c0 -11 -6 -20 -13 -20 -17 0 -17 27 0 33 6 3
12 6 12 6 1 1 1 -8 1 -19z m194 -60 c0 -5 -7 -10 -15 -10 -8 0 -15 5 -15 10 0
6 7 10 15 10 8 0 15 -4 15 -10z m-11545 -50 c-3 -5 -10 -10 -16 -10 -5 0 -9 5
-9 10 0 6 7 10 16 10 8 0 12 -4 9 -10z m11405 -65 c0 -8 -7 -15 -15 -15 -13 0
-14 3 -3 15 16 18 18 18 18 0z m6310 -35 c0 -5 -5 -10 -11 -10 -5 0 -7 5 -4
10 3 6 8 10 11 10 2 0 4 -4 4 -10z m-17655 -30 c-3 -5 -11 -10 -16 -10 -6 0
-7 5 -4 10 3 6 11 10 16 10 6 0 7 -4 4 -10z m-245 -150 c0 -5 -4 -10 -10 -10
-5 0 -10 5 -10 10 0 6 5 10 10 10 6 0 10 -4 10 -10z m-161 -206 c-6 -8 -21
-14 -33 -14 -21 1 -21 1 3 20 25 22 49 17 30 -6z m11501 -154 c0 -5 -9 -14
-21 -20 -19 -11 -20 -10 -9 9 11 22 30 29 30 11z m-11530 -80 c0 -5 -7 -10
-15 -10 -8 0 -15 5 -15 10 0 6 7 10 15 10 8 0 15 -4 15 -10z m17780 -750 c0
-5 -10 -10 -22 -10 -19 0 -20 2 -8 10 19 13 30 13 30 0z m-6186 -615 c3 -8 1
-15 -4 -15 -6 0 -10 7 -10 15 0 8 2 15 4 15 2 0 6 -7 10 -15z m5766 -339 c0
-3 -4 -8 -10 -11 -5 -3 -10 -1 -10 4 0 6 5 11 10 11 6 0 10 -2 10 -4z m-360
-440 c0 -3 -4 -8 -10 -11 -5 -3 -10 -1 -10 4 0 6 5 11 10 11 6 0 10 -2 10 -4z
m-5101 -22 c10 -9 -22 -31 -44 -31 -29 0 -29 1 -13 27 11 18 40 20 57 4z
m2036 -754 c3 -5 1 -10 -4 -10 -6 0 -11 5 -11 10 0 6 2 10 4 10 3 0 8 -4 11
-10z m-2035 -40 c0 -5 -2 -10 -4 -10 -3 0 -8 5 -11 10 -3 6 -1 10 4 10 6 0 11
-4 11 -10z m340 -25 c-7 -8 -17 -12 -22 -9 -6 4 -5 10 3 15 22 14 33 10 19 -6z"/>
<path d="M17477 16604 c-9 -10 2 -24 19 -24 8 0 14 7 14 15 0 15 -21 21 -33 9z"/>
<path d="M20275 15030 c3 -5 8 -10 11 -10 2 0 4 5 4 10 0 6 -5 10 -11 10 -5 0
-7 -4 -4 -10z"/>
<path d="M20180 14480 c0 -5 5 -10 10 -10 6 0 10 5 10 10 0 6 -4 10 -10 10 -5
0 -10 -4 -10 -10z"/>
<path d="M5074 13725 c-6 -15 26 -56 38 -49 4 3 8 16 8 28 0 27 -38 44 -46 21z"/>
<path d="M6912 13359 c2 -7 10 -15 17 -17 8 -3 12 1 9 9 -2 7 -10 15 -17 17
-8 3 -12 -1 -9 -9z"/>
<path d="M4702 12785 c4 -4 0 -14 -10 -21 -15 -12 -15 -13 -1 -14 21 0 32 27
16 36 -7 4 -9 4 -5 -1z"/>
<path d="M4760 12739 c0 -5 5 -7 10 -4 6 3 10 8 10 11 0 2 -4 4 -10 4 -5 0
-10 -5 -10 -11z"/>
<path d="M4645 11352 c-11 -2 -26 -9 -33 -14 -6 -6 -26 -8 -42 -4 -17 3 -30 2
-30 -3 0 -5 -20 -14 -44 -21 -24 -7 -57 -25 -73 -42 -15 -16 -42 -38 -60 -49
-18 -11 -35 -29 -38 -39 -4 -11 -14 -20 -23 -20 -18 0 -44 -25 -54 -52 -4 -9
-21 -19 -38 -23 -20 -4 -34 -15 -40 -30 -5 -13 -21 -32 -35 -41 -27 -17 -57
-66 -53 -83 2 -5 -5 -16 -15 -23 -10 -7 -19 -25 -20 -38 -1 -14 -12 -42 -25
-62 -13 -20 -26 -53 -29 -72 -4 -28 -2 -35 13 -39 17 -4 17 -6 -3 -12 -24 -8
-31 -29 -13 -40 6 -3 10 -22 10 -41 0 -20 8 -42 19 -53 10 -10 21 -34 25 -52
3 -19 9 -50 13 -69 4 -19 6 -52 6 -72 -1 -31 2 -38 19 -38 10 0 17 -4 13 -9
-7 -12 25 -30 43 -24 7 3 12 -4 12 -16 0 -12 5 -21 10 -21 6 0 10 -9 10 -20 0
-21 57 -84 78 -86 30 -2 34 -5 29 -17 -7 -19 25 -36 79 -44 36 -5 48 -3 55 10
6 9 17 13 31 9 14 -3 19 -2 14 6 -10 17 3 15 20 -3 22 -22 39 -19 58 10 15 22
21 24 57 19 39 -7 119 11 119 26 0 4 26 20 58 36 31 16 59 33 61 38 2 6 15 20
27 33 13 13 24 28 24 32 0 5 14 26 31 47 25 31 111 194 114 214 0 3 3 10 7 16
4 6 9 29 10 52 2 22 6 38 11 35 4 -2 7 1 7 6 0 6 -6 11 -12 12 -7 0 -3 5 8 11
15 7 23 23 27 52 9 60 1 167 -13 199 -10 21 -11 33 -1 53 9 20 9 30 0 40 -7 8
-14 12 -17 9 -7 -7 -31 27 -32 46 0 9 -7 22 -15 29 -16 13 -21 45 -6 35 5 -3
13 0 16 6 8 11 -17 34 -52 49 -13 5 -23 18 -23 28 0 31 -52 84 -85 85 -17 1
-35 8 -40 15 -13 17 -54 10 -70 -12 -11 -14 -13 -15 -19 -1 -3 8 -14 15 -24
15 -10 0 -22 4 -27 8 -6 5 -19 7 -30 4z m142 -274 c15 -7 21 -19 20 -37 -2
-22 2 -26 23 -24 l25 3 -27 -16 c-33 -18 -33 -14 -8 -68 16 -36 17 -49 8 -77
-20 -62 -31 -79 -50 -79 -11 0 -16 5 -13 10 4 6 2 17 -4 23 -8 10 -9 72 -1 72
8 0 7 45 0 50 -6 3 -10 15 -10 26 0 10 -4 19 -10 19 -21 0 -42 50 -36 85 6 32
9 35 34 29 15 -3 37 -10 49 -16z m-12 -347 c3 -5 1 -12 -5 -16 -5 -3 -10 1
-10 9 0 18 6 21 15 7z m-315 -11 c0 -5 -2 -10 -4 -10 -3 0 -8 5 -11 10 -3 6
-1 10 4 10 6 0 11 -4 11 -10z"/>
<path d="M20370 10726 c0 -2 7 -7 16 -10 8 -3 12 -2 9 4 -6 10 -25 14 -25 6z"/>
<path d="M14250 9245 c0 -9 5 -15 11 -13 6 2 11 8 11 13 0 5 -5 11 -11 13 -6
2 -11 -4 -11 -13z"/>
<path d="M1778 7223 c6 -2 18 -2 25 0 6 3 1 5 -13 5 -14 0 -19 -2 -12 -5z"/>
<path d="M1590 6841 c0 -11 4 -21 9 -21 18 0 21 18 6 30 -13 10 -15 9 -15 -9z"/>
<path d="M1440 6670 c0 -5 5 -10 10 -10 6 0 10 5 10 10 0 6 -4 10 -10 10 -5 0
-10 -4 -10 -10z"/>
<path d="M1312 6533 c-2 -22 0 -24 13 -13 18 15 19 26 2 33 -8 3 -14 -4 -15
-20z"/>
<path d="M1254 6515 c-10 -20 -8 -22 13 -22 15 0 23 5 23 17 0 27 -24 31 -36
5z"/>
<path d="M1200 6400 c0 -19 3 -21 12 -12 9 9 9 15 0 24 -9 9 -12 7 -12 -12z"/>
<path d="M1240 6371 c0 -6 5 -13 10 -16 6 -3 10 1 10 9 0 9 -4 16 -10 16 -5 0
-10 -4 -10 -9z"/>
<path d="M1192 6339 c-16 -25 -15 -59 1 -59 18 1 47 25 47 41 0 8 -8 19 -18
26 -15 9 -21 7 -30 -8z"/>
<path d="M13055 6250 c3 -5 8 -10 11 -10 2 0 4 5 4 10 0 6 -5 10 -11 10 -5 0
-7 -4 -4 -10z"/>
<path d="M1040 6236 c-6 -6 -10 -14 -10 -18 0 -13 28 -9 34 5 3 6 3 2 0 -10
-4 -16 1 -23 18 -29 13 -3 26 -12 30 -18 9 -13 14 -8 22 27 6 24 3 30 -14 34
-11 3 -20 8 -20 12 0 10 -50 7 -60 -3z"/>
<path d="M1052 6138 c2 -12 11 -24 21 -26 14 -3 18 1 15 20 -2 12 -11 24 -21
26 -14 3 -18 -1 -15 -20z"/>
<path d="M970 6120 c0 -5 7 -7 15 -4 8 4 15 8 15 10 0 2 -7 4 -15 4 -8 0 -15
-4 -15 -10z"/>
<path d="M933 6082 c-12 -7 -29 -62 -20 -62 2 0 18 7 33 15 16 8 23 15 15 15
-7 0 -11 6 -8 15 7 17 -4 27 -20 17z"/>
<path d="M1014 6059 c0 -20 11 -25 20 -10 3 5 0 13 -7 19 -10 8 -13 6 -13 -9z"/>
<path d="M3900 5970 c0 -5 5 -10 11 -10 5 0 7 5 4 10 -3 6 -8 10 -11 10 -2 0
-4 -4 -4 -10z"/>
<path d="M870 5956 c0 -9 5 -16 10 -16 6 0 10 4 10 9 0 6 -4 13 -10 16 -5 3
-10 -1 -10 -9z"/>
<path d="M832 5858 c-7 -7 -20 -13 -30 -13 -12 0 -18 -10 -20 -37 -2 -20 -10
-42 -18 -48 -8 -7 -14 -21 -14 -31 0 -10 -4 -21 -10 -24 -17 -11 -11 -43 10
-50 14 -4 20 -15 20 -35 0 -22 7 -31 35 -44 19 -9 35 -20 35 -24 0 -10 50 -32
72 -32 10 0 18 -6 18 -13 0 -8 11 -19 25 -25 14 -7 28 -19 31 -27 4 -8 13 -15
21 -15 8 0 11 -4 8 -10 -5 -9 7 -14 26 -12 4 1 21 -13 38 -31 18 -18 46 -47
64 -65 18 -17 38 -30 45 -27 6 2 12 0 12 -6 0 -19 31 -21 50 -4 19 17 22 17
79 -14 32 -17 72 -31 89 -31 16 0 45 -7 64 -15 20 -8 57 -16 84 -19 27 -3 49
-5 49 -6 0 -1 12 -3 28 -4 15 -1 27 2 27 6 0 15 24 8 47 -14 20 -19 28 -21 52
-11 17 6 35 7 42 2 8 -5 25 -9 39 -9 15 0 31 -5 37 -11 8 -8 17 -8 31 0 11 6
39 13 62 16 24 3 50 11 57 17 11 9 19 9 35 -1 17 -11 22 -10 29 1 7 10 13 9
30 -9 18 -18 26 -19 45 -11 19 9 28 8 42 -5 10 -10 21 -14 24 -11 4 3 23 1 44
-5 37 -10 59 -7 130 19 11 4 28 4 36 -1 11 -6 21 -4 32 6 17 18 30 20 20 3 -5
-8 -2 -9 9 -5 10 3 17 2 17 -3 0 -14 41 -23 53 -11 14 14 64 14 72 1 10 -17
35 -11 35 8 0 15 2 15 11 2 8 -11 12 -12 16 -2 7 17 34 15 48 -5 9 -12 28 -17
66 -18 30 0 64 -7 77 -14 32 -17 118 -11 114 9 -2 12 0 12 11 -2 17 -21 107
-36 107 -17 0 10 3 10 12 1 14 -14 52 -16 44 -3 -4 5 13 0 36 -11 24 -12 66
-21 99 -22 32 -1 63 -7 71 -13 18 -14 252 -17 243 -3 -3 5 -2 10 4 10 5 0 13
-5 16 -11 5 -7 13 -5 25 6 15 14 18 14 30 0 16 -20 22 -19 50 5 13 11 28 20
33 20 6 0 25 11 43 25 38 29 40 29 74 12 14 -7 41 -14 60 -16 19 -1 40 -6 45
-11 24 -19 70 -19 93 -1 12 11 22 24 22 29 0 6 6 13 13 16 6 4 2 4 -11 2 -18
-3 -22 0 -20 12 2 9 12 16 22 15 12 -1 15 4 12 14 -4 8 -9 27 -13 41 -3 15 -9
29 -12 32 -3 3 -11 14 -17 25 -19 34 -85 60 -187 74 -87 11 -101 11 -123 -4
-24 -15 -24 -15 -30 14 -10 49 -37 61 -103 46 -24 -6 -43 -21 -64 -52 -18 -24
-39 -43 -50 -43 -10 0 -28 -5 -40 -11 -16 -9 -22 -9 -25 0 -2 6 -8 11 -13 11
-6 0 -8 -4 -5 -9 11 -17 -37 -21 -49 -4 -9 12 -21 14 -51 9 -85 -14 -93 -14
-98 1 -8 19 -62 14 -58 -6 2 -9 -3 -11 -15 -6 -10 4 -33 11 -50 17 -18 5 -33
15 -33 22 0 8 -8 17 -17 21 -28 11 -73 14 -73 4 0 -5 -12 -3 -27 4 -22 10 -35
11 -61 2 -18 -6 -30 -14 -26 -17 3 -4 -14 0 -39 7 -25 8 -47 10 -49 6 -2 -5
-26 -11 -54 -15 -42 -5 -54 -3 -74 14 -25 22 -45 26 -55 10 -4 -6 -15 -8 -25
-5 -10 3 -21 1 -25 -4 -4 -7 -14 -7 -30 -1 -14 5 -32 7 -41 3 -9 -3 -20 0 -26
8 -8 11 -9 10 -4 -3 8 -27 -20 -22 -71 12 -48 32 -107 42 -97 15 4 -8 2 -15
-4 -15 -6 0 -12 5 -14 11 -2 5 -25 12 -51 14 -41 3 -47 1 -47 -16 0 -22 -4
-23 -33 -7 -12 7 -41 18 -65 24 -39 10 -46 9 -79 -13 -19 -13 -38 -22 -41 -18
-3 3 0 5 6 5 7 0 12 7 12 15 0 10 -10 15 -31 15 -24 0 -30 -4 -25 -15 5 -13 2
-13 -25 0 -16 9 -34 13 -39 10 -6 -3 -10 -1 -10 5 0 7 -6 10 -14 7 -7 -3 -18
-1 -23 4 -7 7 -15 6 -24 -3 -17 -15 -49 -20 -49 -6 0 5 -4 6 -10 3 -5 -3 -20
1 -33 10 -13 8 -27 12 -30 8 -9 -9 -71 -8 -85 1 -7 4 -12 4 -12 0 0 -3 -12 1
-26 11 -20 13 -28 14 -34 5 -9 -14 -76 -6 -97 12 -16 13 -46 -9 -36 -26 3 -6
3 -8 -2 -4 -4 4 -15 2 -23 -5 -13 -10 -14 -8 -7 12 6 21 5 23 -14 18 -14 -3
-21 0 -21 9 0 8 -9 14 -20 14 -24 0 -70 20 -70 31 0 8 -29 26 -89 53 -19 9
-48 31 -66 49 -29 30 -34 31 -68 23 -33 -9 -39 -7 -53 12 -8 12 -26 22 -38 22
-21 0 -25 6 -31 48 -4 26 -11 50 -17 53 -6 4 4 13 21 20 33 15 38 24 20 35 -7
4 -16 -1 -21 -10 -12 -21 -28 -21 -28 2 0 13 -2 14 -9 3 -11 -17 -32 -5 -24
14 6 18 1 19 -15 3z m4 -95 c-10 -10 -19 5 -10 18 6 11 8 11 12 0 2 -7 1 -15
-2 -18z m34 -24 c0 -6 -4 -7 -10 -4 -5 3 -10 11 -10 16 0 6 5 7 10 4 6 -3 10
-11 10 -16z m60 -69 c0 -5 -2 -10 -4 -10 -3 0 -8 5 -11 10 -3 6 -1 10 4 10 6
0 11 -4 11 -10z m1180 -279 c0 -6 -4 -13 -10 -16 -5 -3 -10 1 -10 9 0 9 5 16
10 16 6 0 10 -4 10 -9z m850 -42 c0 -6 -4 -7 -10 -4 -5 3 -10 11 -10 16 0 6 5
7 10 4 6 -3 10 -11 10 -16z m377 -76 c-3 -3 -11 -2 -17 2 -9 6 -9 10 1 16 14
8 27 -7 16 -18z"/>
</g>
</svg>
