<?xml version="1.0" standalone="no"?>
<!DOCTYPE svg PUBLIC "-//W3C//DTD SVG 20010904//EN"
 "http://www.w3.org/TR/2001/REC-SVG-20010904/DTD/svg10.dtd">
<svg version="1.0" xmlns="http://www.w3.org/2000/svg"
 width="2048.000000pt" height="2048.000000pt" viewBox="0 0 2048.000000 2048.000000"
 preserveAspectRatio="xMidYMid meet">

<g transform="translate(0.000000,2048.000000) scale(0.100000,-0.100000)"
fill="#000000" stroke="none">
<path d="M7616 16465 c-17 -7 -46 -10 -66 -8 -21 3 -48 0 -61 -8 -13 -7 -59
-14 -102 -15 -48 -2 -98 -10 -132 -23 -31 -12 -64 -21 -75 -21 -10 0 -20 -5
-22 -11 -2 -7 -11 -7 -29 1 -18 8 -32 8 -54 -1 -17 -6 -48 -13 -69 -15 -56 -6
-157 -44 -149 -57 3 -6 1 -7 -6 -3 -6 4 -19 2 -27 -5 -8 -6 -29 -12 -46 -11
-37 1 -201 -76 -240 -112 -15 -15 -38 -26 -51 -26 -14 0 -30 -6 -36 -14 -7 -8
-31 -24 -54 -36 -63 -33 -93 -72 -101 -131 -6 -41 -3 -56 14 -85 12 -19 17
-34 11 -34 -16 0 -13 -16 5 -34 20 -21 37 -10 30 19 -5 18 1 25 37 43 23 11
62 23 87 27 25 3 55 12 66 20 12 8 41 13 65 12 26 -1 44 3 47 11 5 17 22 15
22 -2 0 -8 -9 -22 -21 -30 -21 -14 -18 -43 3 -30 6 4 14 0 19 -7 7 -11 9 -11
9 -1 0 7 11 17 25 22 15 6 25 17 25 30 0 11 5 20 11 20 7 0 9 10 5 25 -5 20
-3 25 13 25 11 0 21 -4 23 -10 2 -5 18 -10 36 -12 32 -2 37 -10 34 -50 -2 -22
31 -24 52 -3 8 8 19 15 25 15 7 0 9 10 5 25 -5 19 -2 26 12 31 11 4 26 16 35
27 13 16 20 17 36 9 15 -8 25 -8 38 2 9 7 36 11 59 10 36 -2 44 1 61 27 21 31
40 37 48 17 3 -10 10 -10 28 1 14 9 54 16 95 17 39 1 81 7 92 13 18 10 76 16
177 20 15 1 17 3 6 10 -7 5 -10 14 -7 20 12 18 26 13 26 -10 0 -16 4 -19 18
-14 9 4 50 8 91 10 44 3 77 9 82 16 5 9 12 8 24 -5 11 -11 24 -14 39 -10 11 4
31 7 44 6 12 -1 22 2 22 7 0 4 21 3 47 -4 38 -10 54 -9 80 1 37 16 57 18 49 5
-8 -12 10 -18 86 -26 44 -5 68 -3 72 4 9 14 53 14 61 1 3 -5 31 -10 60 -10 44
0 53 3 49 15 -4 10 0 15 10 15 10 0 16 -7 14 -17 -4 -25 50 -43 65 -23 7 8 23
16 37 18 18 1 21 0 11 -7 -8 -5 -11 -16 -8 -25 5 -14 10 -14 41 -1 44 19 56
19 56 1 0 -8 4 -17 10 -21 17 -11 159 -15 165 -5 11 17 25 11 35 -16 7 -18 15
-24 26 -20 9 4 22 2 28 -3 12 -9 68 -22 103 -23 13 0 21 -3 19 -7 -3 -4 22
-13 55 -20 32 -6 59 -15 59 -19 0 -4 21 -13 48 -20 26 -7 63 -17 82 -22 19 -6
53 -12 75 -16 22 -3 63 -9 90 -14 28 -4 53 -6 57 -4 4 2 10 -1 13 -6 12 -19
56 -32 70 -20 9 7 16 6 25 -5 7 -8 9 -15 4 -15 -16 -1 40 -29 58 -30 9 0 18 5
20 12 3 8 25 0 66 -24 44 -27 62 -33 62 -23 0 8 5 15 10 15 6 0 10 -7 10 -15
0 -8 6 -15 14 -15 8 0 13 7 12 16 0 9 5 19 12 21 7 3 10 -1 7 -9 -7 -21 22
-51 45 -45 11 3 23 1 26 -4 3 -5 16 -9 29 -9 13 0 27 -4 30 -10 10 -17 25 -11
25 10 0 11 5 20 10 20 6 0 10 -7 10 -15 0 -8 9 -15 20 -15 12 0 31 -7 44 -15
13 -9 52 -22 87 -30 35 -7 75 -17 88 -21 19 -6 23 -4 19 7 -5 12 2 14 28 11
20 -3 34 -10 34 -18 0 -9 11 -14 28 -14 15 0 33 -5 38 -10 6 -6 37 -13 70 -17
32 -3 68 -6 80 -7 11 -1 24 -5 30 -7 5 -3 29 -5 54 -5 28 1 49 -4 56 -13 10
-12 20 -13 60 -4 44 10 50 9 62 -9 10 -14 22 -18 40 -15 14 3 36 -2 48 -10 12
-8 43 -16 68 -17 25 -2 52 -8 58 -13 7 -6 35 -13 62 -17 27 -3 57 -12 65 -20
9 -7 23 -14 31 -15 8 0 32 -4 53 -7 31 -5 37 -3 37 11 0 16 2 17 18 3 9 -9 23
-13 30 -11 7 3 18 1 25 -4 36 -28 110 -45 163 -38 34 4 54 3 54 -4 0 -5 17
-10 38 -9 22 0 48 -4 58 -9 25 -14 126 -26 192 -24 36 1 52 -2 52 -11 0 -8 3
-9 11 -1 7 7 22 8 42 2 18 -4 60 -15 95 -24 35 -9 92 -17 127 -18 36 -1 65 -5
65 -9 0 -5 12 -8 28 -8 15 0 40 -7 57 -16 16 -8 41 -14 55 -13 28 2 58 -8 81
-27 8 -8 28 -15 42 -16 15 -1 27 -5 27 -9 0 -11 52 -30 70 -24 10 3 21 1 25
-5 3 -5 22 -10 41 -10 19 0 34 -4 34 -9 0 -9 59 -23 105 -25 11 -1 30 -11 43
-24 12 -12 31 -22 41 -22 11 0 23 -4 26 -10 3 -5 19 -10 35 -10 16 0 32 -5 36
-11 5 -8 9 -8 14 1 6 9 11 7 19 -7 5 -11 36 -31 67 -44 52 -20 59 -21 68 -7 8
14 11 14 25 -3 15 -17 59 -31 148 -46 22 -3 30 -9 26 -19 -5 -14 42 -39 57
-29 4 2 15 -4 25 -15 11 -12 37 -22 66 -26 64 -9 82 -28 68 -78 -7 -27 -7 -41
1 -51 6 -7 12 -33 14 -57 2 -23 7 -52 11 -62 7 -16 5 -18 -8 -13 -11 4 -14 2
-10 -9 3 -7 9 -14 14 -14 5 0 9 -5 9 -11 0 -6 -7 -8 -16 -5 -12 5 -15 2 -10
-10 3 -8 6 -17 6 -19 0 -2 9 -1 21 2 17 5 20 2 17 -13 -2 -10 4 -28 14 -38 17
-19 17 -21 1 -39 -17 -18 -17 -20 10 -39 15 -11 27 -28 27 -37 0 -10 7 -32 16
-50 9 -17 13 -39 10 -47 -3 -9 1 -22 10 -31 8 -9 13 -22 10 -30 -18 -47 -17
-89 3 -112 12 -13 21 -28 21 -33 0 -4 6 -8 14 -8 14 0 31 -63 21 -79 -3 -6 -1
-12 5 -16 5 -3 10 -15 10 -25 0 -10 10 -26 21 -34 16 -11 22 -27 24 -58 1 -47
34 -128 50 -128 13 0 55 -54 55 -71 0 -6 7 -8 16 -5 13 5 15 1 12 -19 -3 -14
-2 -25 2 -25 10 0 51 -100 45 -110 -7 -11 5 -41 15 -35 4 3 10 -2 14 -10 3 -8
12 -15 21 -15 15 0 66 -48 92 -87 9 -13 21 -23 29 -23 7 0 32 -23 56 -52 59
-71 97 -107 152 -148 26 -19 55 -42 65 -50 9 -9 33 -26 53 -38 20 -13 40 -32
43 -42 4 -11 11 -20 17 -20 13 0 47 -41 48 -58 0 -7 7 -15 15 -18 8 -4 15 -12
15 -19 0 -7 4 -15 9 -17 22 -8 91 -72 91 -84 0 -8 7 -14 15 -14 8 0 22 -12 31
-27 9 -16 25 -40 36 -56 10 -15 16 -31 13 -36 -7 -12 42 -46 78 -55 15 -3 27
-11 27 -16 0 -5 14 -22 30 -37 17 -14 30 -32 30 -40 0 -17 53 -69 79 -78 11
-3 23 -14 26 -24 7 -23 41 -54 85 -78 19 -11 39 -29 45 -41 5 -12 13 -22 17
-22 4 0 21 -13 38 -30 17 -16 35 -30 40 -30 5 0 12 -11 16 -24 4 -18 16 -27
49 -35 26 -6 59 -26 82 -47 25 -24 51 -38 74 -41 25 -4 51 -19 81 -48 25 -23
55 -46 67 -50 13 -4 45 -29 72 -56 27 -27 58 -49 68 -49 12 0 23 -11 30 -30 5
-17 17 -33 26 -36 8 -3 15 -15 15 -25 0 -10 7 -19 15 -19 8 0 22 -11 31 -25 9
-14 28 -31 42 -38 38 -17 54 -54 47 -105 -4 -24 -2 -49 4 -56 5 -6 10 -21 9
-31 0 -19 5 -52 18 -118 3 -16 7 -63 9 -105 5 -128 14 -205 25 -216 5 -5 10
-47 10 -93 0 -46 3 -83 8 -83 4 0 8 -29 9 -65 1 -36 -2 -65 -6 -65 -12 0 -4
-71 8 -83 6 -6 11 -28 11 -49 0 -21 5 -38 11 -38 6 0 7 -5 2 -12 -12 -21 -19
-170 -13 -266 1 -12 -1 -30 -5 -40 -5 -9 -10 -37 -12 -62 -2 -31 -9 -49 -23
-59 -11 -7 -20 -18 -20 -24 0 -6 -7 -19 -17 -29 -15 -17 -15 -18 0 -18 10 0
17 -7 17 -15 0 -8 -3 -14 -7 -14 -5 1 -13 1 -19 0 -15 -1 -25 -112 -11 -129 7
-9 2 -19 -17 -37 -27 -25 -32 -40 -16 -50 16 -10 0 -31 -26 -33 -36 -3 -46
-11 -39 -31 3 -10 -2 -32 -11 -49 -8 -18 -12 -37 -8 -43 4 -8 -1 -9 -16 -4
-14 5 -25 2 -30 -6 -9 -13 8 -59 21 -59 16 0 4 -40 -13 -46 -14 -4 -16 -9 -8
-24 13 -23 13 -33 1 -25 -14 8 -33 -32 -26 -55 4 -11 10 -20 15 -20 5 0 -1
-11 -14 -25 -13 -14 -28 -25 -34 -25 -6 0 -16 -9 -22 -20 -6 -11 -18 -20 -26
-20 -8 0 -13 -4 -10 -8 3 -5 -3 -25 -14 -44 -15 -29 -17 -43 -9 -72 11 -39 -5
-90 -29 -92 -6 -1 -16 -2 -22 -3 -16 -2 -12 -41 5 -47 12 -5 12 -9 0 -28 -8
-13 -12 -26 -8 -30 4 -4 0 -4 -9 -1 -12 5 -19 -3 -28 -29 -10 -31 -15 -35 -36
-30 -18 5 -26 1 -31 -12 -3 -11 -14 -31 -24 -45 -10 -14 -16 -29 -13 -32 3 -3
3 -15 -1 -27 -4 -14 -12 -19 -24 -15 -13 4 -21 -4 -31 -30 -8 -19 -20 -35 -27
-35 -8 0 -17 -8 -20 -17 -4 -10 -20 -34 -36 -54 -16 -20 -27 -45 -25 -56 1
-10 -6 -28 -17 -39 -11 -12 -42 -45 -68 -73 -27 -29 -47 -58 -44 -65 4 -9 -5
-16 -24 -20 -23 -4 -29 -11 -29 -31 0 -17 -11 -35 -30 -52 -16 -13 -30 -33
-30 -43 0 -10 -12 -28 -27 -39 -27 -20 -27 -22 -10 -35 17 -13 16 -15 -10 -20
-18 -5 -40 -24 -63 -56 -19 -27 -41 -50 -47 -50 -7 0 -16 -18 -19 -40 -5 -28
-12 -41 -28 -46 -21 -7 -126 -111 -126 -125 0 -13 -51 -63 -110 -109 -30 -23
-59 -49 -63 -56 -4 -8 -27 -24 -50 -35 -22 -12 -49 -32 -60 -45 -10 -13 -25
-24 -33 -24 -13 0 -52 -31 -104 -83 -10 -10 -25 -17 -33 -15 -8 2 -43 -17 -78
-42 -35 -25 -89 -58 -120 -73 -32 -15 -62 -34 -69 -42 -7 -8 -22 -15 -35 -15
-12 0 -41 -14 -65 -31 -24 -17 -75 -44 -113 -60 -39 -16 -75 -33 -81 -38 -6
-4 -23 -11 -38 -15 -15 -3 -32 -15 -38 -26 -6 -11 -17 -20 -25 -20 -7 0 -27
-12 -44 -26 -22 -18 -37 -23 -52 -19 -20 7 -57 -6 -89 -31 -8 -6 -44 -24 -80
-39 -36 -16 -74 -36 -85 -46 -11 -10 -49 -27 -85 -39 -59 -20 -150 -67 -240
-126 -19 -13 -60 -36 -90 -52 -30 -16 -54 -34 -53 -40 2 -7 -9 -14 -25 -18
-41 -8 -128 -53 -157 -80 -14 -12 -25 -20 -25 -17 0 4 -5 2 -12 -5 -7 -7 -21
-12 -33 -12 -11 0 -33 -8 -50 -18 -16 -10 -57 -29 -90 -42 -75 -29 -87 -38
-80 -61 7 -21 -14 -26 -31 -9 -7 7 -18 5 -35 -8 -13 -10 -46 -27 -74 -37 -27
-10 -63 -29 -78 -42 -16 -12 -40 -23 -53 -23 -29 0 -92 -25 -114 -45 -21 -19
-128 -58 -139 -51 -5 4 -12 2 -16 -4 -3 -5 -17 -10 -31 -10 -14 0 -41 -7 -62
-17 -20 -9 -40 -15 -45 -14 -4 0 -24 -6 -43 -14 -20 -8 -46 -15 -58 -15 -11 0
-30 -7 -40 -15 -11 -8 -29 -12 -42 -9 -38 10 -131 -15 -156 -41 -17 -17 -30
-22 -50 -18 -16 3 -35 -1 -49 -11 -13 -9 -38 -16 -57 -16 -19 0 -35 -6 -38
-15 -5 -11 -16 -13 -50 -8 -34 4 -49 2 -64 -12 -10 -9 -23 -14 -28 -11 -5 3
-25 -3 -46 -13 -28 -15 -36 -16 -36 -5 0 19 -17 17 -50 -6 -15 -11 -30 -17
-33 -14 -12 12 -86 10 -91 -2 -2 -6 -21 -14 -40 -18 -20 -4 -36 -12 -36 -18 0
-6 -10 -8 -24 -4 -14 3 -27 2 -31 -4 -4 -6 -16 -5 -33 1 -35 14 -155 -7 -184
-33 -22 -19 -68 -25 -68 -8 0 14 -127 13 -136 -1 -4 -8 -9 -7 -14 2 -6 9 -12
10 -22 2 -14 -11 -112 -10 -142 2 -10 5 -26 4 -35 -2 -9 -5 -32 -9 -51 -7 -19
1 -41 -2 -47 -8 -9 -7 -17 -7 -28 2 -12 10 -25 10 -61 1 -46 -12 -84 -7 -84
10 0 18 -42 9 -47 -11 -3 -11 -8 -20 -10 -20 -10 0 -108 33 -126 42 -10 5 -28
6 -40 2 -12 -4 -34 -7 -49 -6 -16 1 -28 -2 -28 -7 0 -6 -9 -15 -20 -21 -18 -9
-26 -6 -56 25 -30 31 -39 35 -66 30 -18 -4 -40 -2 -55 6 -21 12 -26 11 -34 -3
-8 -15 -12 -15 -40 -1 -35 18 -110 13 -135 -8 -9 -7 -22 -14 -29 -15 -7 -1
-26 -5 -43 -9 -26 -5 -33 -2 -48 20 -13 20 -23 25 -40 21 -17 -5 -24 -1 -29
14 -8 24 -21 26 -29 4 -4 -10 -12 -14 -22 -10 -9 4 -22 1 -30 -5 -10 -8 -16
-5 -26 10 -17 28 -62 28 -81 0 -17 -24 -32 -10 -22 21 5 17 2 20 -22 21 -86 3
-135 0 -146 -9 -19 -16 -84 -25 -91 -14 -4 7 -17 7 -38 1 -38 -10 -72 8 -43
24 14 7 11 12 -19 28 -29 15 -40 17 -61 7 -19 -8 -31 -8 -48 0 -30 16 -98 8
-113 -13 -15 -20 -36 -12 -27 10 4 11 -2 15 -21 15 -16 0 -31 9 -42 25 -19 29
-28 30 -69 9 -24 -12 -37 -13 -77 -4 -26 7 -52 9 -57 5 -6 -3 -21 3 -33 14
-12 12 -34 21 -49 21 -15 0 -29 6 -31 12 -4 10 -10 10 -32 0 -20 -9 -32 -9
-48 -1 -11 6 -38 9 -60 6 -36 -5 -38 -4 -32 16 6 19 5 20 -8 9 -12 -10 -18 -8
-34 9 -14 16 -25 19 -55 14 -22 -4 -45 -2 -57 6 -15 10 -25 9 -50 -3 -50 -25
-155 -5 -152 29 0 4 -11 9 -26 10 -14 1 -32 8 -41 14 -11 10 -16 10 -22 0 -5
-8 -18 -10 -35 -5 -15 3 -41 7 -59 8 -18 2 -31 7 -30 14 2 8 -3 9 -20 1 -16
-7 -31 -7 -52 2 -17 7 -41 14 -54 15 -13 2 -28 7 -34 13 -5 5 -16 7 -23 4 -8
-3 -14 0 -14 7 0 8 -7 10 -17 5 -36 -14 -82 -13 -87 2 -3 8 -10 12 -16 8 -5
-3 -18 0 -29 7 -15 9 -23 10 -32 1 -8 -8 -18 -7 -37 3 -15 8 -35 14 -44 14
-10 0 -18 4 -18 10 0 15 -68 43 -91 37 -15 -4 -19 -2 -15 9 6 14 1 16 -56 18
-18 0 -36 5 -40 11 -5 6 -11 5 -17 -4 -5 -8 -11 -9 -15 -3 -3 6 -15 8 -27 5
-23 -6 -99 16 -99 29 0 4 -7 8 -15 8 -8 0 -15 5 -15 11 0 6 -9 9 -20 6 -13 -3
-30 5 -50 23 -32 30 -70 42 -93 29 -9 -6 -23 1 -42 21 -26 27 -74 43 -60 20 3
-5 -1 -10 -9 -10 -9 0 -16 4 -16 9 0 4 -21 11 -46 15 -52 7 -75 21 -68 40 3 8
-2 16 -11 20 -9 3 -13 2 -10 -4 10 -16 -7 -12 -39 9 -20 14 -39 17 -67 14 -25
-4 -39 -2 -39 5 0 6 -6 9 -14 6 -18 -7 -57 13 -74 38 -7 10 -22 18 -33 18 -12
0 -19 7 -19 20 0 19 -4 20 -37 14 -21 -3 -40 -7 -43 -8 -3 0 -23 17 -45 39
-32 31 -48 39 -78 40 -21 1 -40 -3 -43 -7 -8 -13 -24 -9 -24 7 0 16 -30 35
-55 35 -10 0 -26 11 -37 25 -23 29 -88 65 -117 65 -11 0 -22 8 -25 18 -4 10
-26 31 -50 46 -25 16 -53 37 -62 47 -9 10 -23 19 -30 19 -7 0 -57 44 -111 99
-60 60 -112 103 -134 111 -19 7 -40 22 -45 34 -5 12 -20 22 -36 24 -15 2 -36
14 -47 28 -10 13 -24 24 -30 24 -6 0 -17 11 -23 25 -6 13 -19 27 -30 30 -10 4
-18 13 -18 21 0 8 -6 14 -14 14 -20 0 -29 17 -28 51 1 27 -22 58 -35 46 -3 -4
-12 1 -18 10 -10 13 -16 15 -26 6 -11 -8 -17 -7 -27 3 -11 12 -10 15 2 20 23
9 19 21 -6 20 -16 -1 -28 9 -38 29 -9 17 -27 48 -41 70 -15 22 -30 51 -34 65
-4 14 -14 33 -23 43 -16 19 -42 23 -42 7 0 -5 -10 -10 -22 -10 l-22 0 20 15
21 14 -25 51 c-13 27 -28 50 -33 50 -5 0 -9 11 -9 25 0 14 -7 28 -15 31 -10 4
-13 14 -9 30 7 27 -10 54 -35 54 -34 0 -77 53 -89 110 -8 34 -22 64 -37 79
-14 13 -25 27 -25 32 0 5 -11 14 -24 19 -30 11 -58 65 -50 95 4 17 0 26 -15
35 -12 6 -21 17 -21 25 0 8 -4 15 -8 15 -5 0 -17 19 -27 43 -9 23 -22 52 -28
64 -5 12 -7 29 -3 38 4 12 -9 31 -41 63 -26 25 -48 51 -49 56 0 6 -2 17 -2 24
-1 7 -13 17 -27 22 -14 5 -26 17 -26 27 -3 43 -5 48 -16 48 -6 0 -15 3 -19 8
-4 4 1 7 11 7 14 0 13 4 -9 21 -14 11 -26 28 -26 37 0 9 -11 30 -25 46 -14 16
-25 33 -25 37 0 4 -9 11 -20 14 -11 3 -20 12 -20 20 0 7 -16 27 -35 43 -19 17
-31 34 -26 37 14 8 1 44 -20 56 -11 5 -19 16 -19 23 0 7 -9 21 -20 31 -11 10
-20 28 -20 41 0 13 -15 35 -35 53 -19 17 -35 34 -35 39 0 5 -7 15 -15 22 -8 7
-15 22 -15 34 0 17 -2 18 -10 6 -8 -13 -10 -13 -10 2 0 9 -9 33 -21 52 -13 22
-18 43 -14 56 5 16 -1 24 -29 41 -20 11 -34 25 -31 29 3 4 -6 15 -20 24 -18
12 -25 25 -25 49 0 18 -6 41 -13 52 -7 11 -19 39 -27 62 -7 23 -21 51 -32 62
-10 11 -18 25 -18 31 0 5 -7 10 -15 10 -12 0 -13 5 -4 27 14 36 3 93 -18 93
-12 0 -14 6 -8 27 12 48 9 63 -10 63 -8 0 -15 9 -15 19 0 13 -5 18 -17 15 -15
-4 -18 3 -20 43 -1 28 -12 68 -27 98 -19 38 -23 60 -20 90 5 36 3 42 -22 56
-15 9 -30 27 -32 40 -9 45 -4 141 7 152 17 17 13 51 -8 76 -29 33 -48 84 -33
89 13 4 17 82 5 82 -5 0 -8 34 -9 75 0 55 3 75 13 75 16 0 17 16 3 25 -7 5 -8
11 -1 19 10 12 -1 133 -15 170 -5 14 -4 17 4 12 15 -9 16 9 2 34 -7 13 -6 21
5 30 9 7 13 21 10 31 -3 9 -1 20 5 24 5 3 10 30 10 60 0 30 4 56 9 59 16 10
23 76 10 93 -10 12 -10 16 1 23 16 10 42 89 33 102 -3 5 -2 24 1 41 4 24 16
38 43 52 37 20 93 70 93 84 0 4 20 12 45 19 25 7 45 16 45 21 0 5 15 12 34 15
18 4 41 15 51 26 10 11 24 20 32 20 7 0 16 7 19 15 4 8 12 15 19 15 7 0 18 6
24 14 6 7 32 19 57 26 25 7 48 19 51 26 2 7 14 15 27 18 26 6 101 74 109 98 4
10 18 20 32 24 19 5 25 12 22 24 -2 10 -1 24 4 31 8 12 10 12 18 1 7 -11 9
-11 14 2 4 9 15 16 25 16 11 0 30 8 43 18 13 10 36 23 51 29 31 14 57 52 36
54 -7 0 1 5 19 10 17 5 41 23 53 39 13 18 26 27 35 23 8 -3 15 -1 15 5 0 5 8
12 18 16 54 18 78 48 49 60 -20 9 -20 10 11 14 17 2 32 8 32 13 0 5 11 14 25
19 16 6 23 14 19 25 -5 11 1 15 23 15 23 0 48 18 118 85 49 47 92 85 97 85 16
0 187 183 190 204 2 12 9 20 15 19 7 -2 25 15 40 37 15 22 33 40 39 40 11 0
64 52 64 63 0 13 62 76 81 82 11 4 22 18 25 33 9 46 23 72 37 72 7 0 24 11 37
25 22 23 27 39 29 98 1 14 6 17 21 12 16 -5 23 0 31 24 6 17 15 31 20 31 4 0
13 17 18 38 6 21 24 51 41 67 16 16 30 38 30 50 0 12 9 30 20 40 11 10 20 27
20 38 0 17 47 115 61 127 18 15 63 129 61 153 -2 18 1 27 11 27 8 0 17 9 20
20 4 18 2 20 -16 14 -19 -6 -20 -5 -9 9 8 9 19 14 26 11 8 -3 18 11 26 36 7
22 19 45 27 51 7 6 13 20 13 31 0 10 6 21 14 24 8 3 12 13 9 24 -3 12 2 20 16
25 12 3 21 13 21 20 0 8 9 34 19 57 11 24 22 55 25 69 8 36 44 79 67 79 10 0
19 5 19 10 0 6 -7 10 -15 10 -8 0 -15 4 -15 10 0 6 9 5 24 -1 20 -9 32 -7 71
16 25 15 51 39 56 52 5 13 13 22 18 19 5 -3 11 1 15 9 3 8 18 15 33 15 15 0
37 7 47 15 19 14 19 15 1 35 -10 11 -26 20 -37 20 -10 0 -18 5 -18 10 0 6 7
10 15 10 8 0 15 7 15 15 0 13 4 12 22 -5 12 -11 28 -20 36 -20 12 0 12 -3 2
-15 -10 -12 -10 -15 4 -15 9 0 16 6 16 14 0 7 9 16 20 19 11 3 20 14 20 24 0
31 21 45 40 28 14 -13 20 -12 48 5 18 11 32 27 32 35 0 8 8 15 18 15 9 0 28 9
42 19 21 17 23 22 12 45 -12 27 -9 31 31 26 56 -5 157 69 157 115 0 20 -5 23
-27 22 -19 -1 -28 3 -28 13 0 24 47 13 71 -17 24 -29 30 -27 84 23 19 18 49
44 65 58 17 14 37 32 46 40 9 7 31 24 48 37 20 15 27 25 20 30 -7 4 -9 14 -4
25 8 18 8 18 12 2 3 -10 8 -18 12 -18 13 0 73 68 68 77 -3 5 -2 15 3 23 7 11
11 11 23 1 12 -10 20 -7 41 12 14 13 26 30 26 37 0 10 3 10 15 0 13 -10 15 -9
15 9 0 11 -6 21 -14 21 -7 0 -16 9 -19 21 -3 12 -10 18 -16 14 -6 -3 -11 1
-11 9 0 19 -11 21 -28 4 -9 -9 -9 -6 0 14 7 14 18 23 25 21 7 -3 13 2 13 11 0
11 -9 16 -28 16 -22 0 -37 -11 -63 -42 -33 -42 -38 -66 -16 -80 9 -6 9 -8 0
-8 -6 0 -20 12 -31 27 -19 26 -22 27 -46 14 -27 -15 -34 -35 -16 -46 6 -3 10
-11 10 -16 0 -6 -7 -3 -16 5 -19 20 -34 20 -34 2 0 -8 -16 -18 -37 -23 -28 -6
-38 -14 -38 -28 0 -12 -8 -21 -20 -23 -11 -2 -29 -12 -40 -22 -11 -9 -28 -20
-37 -23 -10 -4 -18 -16 -18 -27 0 -13 -7 -20 -20 -20 -11 0 -20 -4 -20 -10 0
-5 -17 -14 -38 -20 -45 -12 -77 -42 -69 -65 5 -11 -1 -15 -22 -15 -34 0 -81
-22 -106 -50 -10 -11 -24 -20 -32 -20 -7 0 -13 -7 -13 -15 0 -8 -7 -15 -16
-15 -23 0 -100 -48 -117 -73 -11 -16 -11 -26 -3 -39 8 -13 7 -21 -1 -29 -9 -9
-13 -6 -19 15 -7 30 -41 33 -36 3 2 -12 -4 -17 -22 -17 -13 0 -31 -3 -40 -6
-26 -10 -19 20 12 53 76 84 87 97 87 107 0 6 4 22 9 34 6 18 13 22 31 18 18
-5 29 2 51 32 15 20 31 39 36 42 24 18 68 198 56 231 -6 15 -5 33 2 47 8 18 8
28 -1 38 -6 7 -11 34 -11 59 -1 39 -6 50 -31 70 -38 29 -41 75 -9 108 19 18
25 20 42 9 11 -7 20 -8 20 -3 0 5 10 11 23 14 12 2 30 8 40 12 12 5 17 3 17
-8 0 -9 5 -19 10 -22 12 -8 82 14 91 27 4 6 23 -1 45 -16 39 -25 40 -25 97
-10 43 11 62 12 78 4 11 -7 28 -9 36 -6 9 4 21 -1 29 -11 11 -15 16 -16 34 -5
11 7 25 10 30 7 5 -3 11 -1 15 5 4 6 15 4 31 -7 32 -20 56 -4 37 26 -7 11 -8
23 -2 32 10 16 12 35 3 26 -4 -4 -20 5 -36 18 -16 14 -39 25 -52 25 -12 0 -32
7 -44 16 -14 9 -30 13 -40 9 -48 -21 -67 -14 -63 23 1 8 -14 12 -48 12 -27 0
-51 5 -53 11 -2 5 -12 12 -23 14 -11 2 -22 4 -25 6 -3 1 -26 2 -52 3 -40 1
-47 -2 -42 -16 4 -13 0 -15 -17 -11 -12 3 -24 0 -29 -7 -9 -15 -50 -4 -50 15
0 15 -51 27 -64 14 -6 -5 -18 -9 -29 -9 -14 0 -17 5 -12 21 6 19 4 21 -15 16
-13 -3 -32 -1 -42 4 -11 6 -50 11 -86 11 -37 0 -75 4 -84 9 -22 12 -128 18
-128 7 0 -4 -7 -8 -15 -8 -9 0 -29 -7 -44 -15 -19 -9 -72 -16 -150 -19 -67 -3
-130 -10 -140 -16 -11 -5 -41 -10 -68 -10 -26 0 -61 -7 -77 -15 -16 -9 -37
-13 -45 -9 -19 8 -72 5 -86 -6 -5 -4 -32 -10 -59 -14 -27 -3 -54 -10 -60 -14
-6 -5 -29 -9 -51 -10 -51 -3 -226 -43 -243 -55 -7 -6 -26 -11 -43 -12 -16 -2
-38 -9 -47 -18 -9 -8 -23 -12 -30 -10 -22 8 -64 -7 -59 -21 4 -10 -4 -12 -28
-9 -19 2 -36 -1 -40 -7 -4 -7 -12 -7 -26 0 -19 11 -70 -7 -84 -30 -3 -5 -17
-10 -30 -10 -13 0 -28 -6 -32 -13 -10 -15 -55 -39 -69 -36 -5 1 -24 -4 -41
-11 -22 -8 -33 -19 -33 -32 0 -17 -3 -18 -15 -8 -11 9 -26 8 -69 -4 -30 -9
-58 -21 -61 -26 -3 -6 -19 -10 -35 -10 -17 0 -40 -10 -55 -24 -15 -14 -33 -22
-40 -19 -8 2 -27 -4 -42 -14 -37 -26 -64 -37 -87 -34 -10 2 -28 -6 -40 -17
-11 -11 -41 -26 -66 -33 -25 -7 -59 -26 -77 -42 -20 -18 -63 -40 -115 -57 -69
-22 -85 -32 -97 -56 -8 -16 -16 -23 -19 -16 -5 16 -37 15 -51 -2 -7 -8 -24
-17 -38 -21 -15 -3 -38 -14 -52 -24 -14 -10 -43 -24 -64 -31 -21 -6 -58 -29
-83 -51 -25 -21 -51 -39 -59 -39 -25 0 -115 -51 -115 -66 0 -8 -10 -14 -22
-14 -31 0 -88 -36 -88 -55 0 -8 -9 -15 -20 -15 -11 0 -29 -13 -42 -30 -16 -22
-30 -30 -51 -30 -20 0 -44 -12 -73 -37 -24 -21 -60 -53 -81 -71 -21 -18 -48
-35 -61 -38 -20 -6 -56 -36 -179 -154 -22 -22 -45 -40 -50 -40 -4 0 -21 -16
-36 -35 -15 -19 -37 -35 -48 -35 -11 0 -22 -7 -25 -15 -4 -8 -10 -15 -15 -15
-12 0 -179 -168 -179 -180 0 -5 -6 -7 -14 -4 -7 3 -16 -2 -19 -10 -4 -9 -1
-16 5 -16 7 0 6 -5 -2 -15 -7 -9 -15 -13 -18 -11 -9 10 -61 -24 -67 -43 -3
-11 -12 -18 -19 -15 -11 4 -25 -13 -30 -36 -1 -3 -16 -25 -34 -49 -17 -24 -32
-48 -32 -53 0 -4 -16 -24 -35 -42 -19 -19 -35 -42 -35 -52 0 -9 -17 -34 -39
-54 -45 -43 -73 -83 -70 -102 3 -26 -1 -38 -15 -38 -20 0 -124 -140 -125 -169
-1 -11 -57 -89 -81 -111 -13 -12 -40 -73 -40 -90 0 -12 -5 -17 -13 -15 -13 6
-67 -69 -67 -92 0 -7 -4 -13 -10 -13 -5 0 -10 -8 -10 -17 0 -10 -13 -31 -29
-46 -16 -15 -34 -48 -41 -73 -7 -25 -20 -49 -29 -54 -9 -4 -27 -29 -41 -54
-13 -25 -28 -46 -32 -46 -8 0 -88 -114 -88 -125 0 -4 -11 -21 -24 -38 -13 -18
-40 -66 -60 -107 -20 -41 -55 -109 -77 -150 -29 -54 -40 -84 -37 -107 3 -24
-2 -36 -19 -48 -15 -12 -24 -32 -29 -64 -3 -25 -13 -56 -20 -68 -22 -35 -29
-108 -14 -144 12 -28 11 -32 -4 -41 -11 -6 -17 -22 -17 -46 0 -20 -1 -67 -2
-105 -2 -56 1 -66 13 -62 8 3 4 -4 -9 -15 -20 -17 -22 -22 -10 -37 8 -9 15
-37 15 -62 2 -67 12 -121 25 -138 9 -9 9 -17 2 -24 -6 -6 -8 -19 -6 -30 5 -18
7 -18 17 -3 11 14 16 14 34 3 16 -10 18 -16 10 -26 -8 -10 -8 -21 1 -40 8 -18
9 -29 1 -37 -30 -30 11 -82 58 -73 26 5 38 -3 111 -74 46 -43 86 -79 89 -79 4
-1 20 -12 36 -25 22 -17 34 -21 47 -14 21 11 49 2 49 -15 0 -19 51 -39 64 -26
17 17 40 12 59 -13 15 -21 24 -23 80 -20 96 5 172 11 175 13 1 1 7 4 12 5 6 1
13 4 18 5 4 1 15 2 24 1 10 -1 26 3 38 9 14 8 20 8 20 0 0 -7 15 -9 42 -5 24
3 79 8 123 11 115 6 147 14 171 40 12 12 20 25 17 28 -3 3 11 3 31 -1 24 -4
43 0 60 11 14 9 35 16 46 16 12 0 35 14 52 30 25 26 35 30 63 24 24 -4 34 -2
38 11 9 23 72 47 104 39 23 -6 25 -4 21 13 -12 46 35 68 85 42 16 -9 22 -9 25
0 2 6 12 11 23 11 10 0 19 4 19 9 0 5 14 16 30 25 17 8 28 10 25 5 -13 -20 33
-7 54 15 29 31 83 55 88 39 5 -15 63 14 63 31 0 8 17 16 39 20 22 3 41 10 43
15 1 5 21 12 43 15 30 5 35 4 19 -3 -31 -14 -39 -30 -19 -44 18 -14 11 -47
-11 -47 -20 0 -39 -72 -25 -98 15 -28 14 -32 -9 -32 -23 0 -26 -21 -8 -50 11
-16 9 -26 -6 -55 -17 -32 -18 -40 -6 -92 7 -32 14 -93 16 -135 1 -42 7 -85 12
-94 7 -13 4 -25 -10 -45 -17 -22 -19 -36 -14 -71 4 -24 9 -70 12 -103 3 -36
10 -63 19 -67 7 -5 16 -22 20 -39 4 -17 13 -33 21 -36 9 -3 12 -13 8 -25 -3
-11 0 -31 6 -44 11 -19 10 -29 -3 -56 -12 -24 -13 -34 -4 -40 7 -4 16 -3 21 2
18 18 36 10 36 -14 0 -13 5 -26 12 -28 10 -4 10 -13 1 -41 -7 -24 -8 -37 -1
-37 6 0 7 -11 4 -25 -8 -30 8 -65 29 -65 15 0 32 -46 21 -57 -3 -4 1 -17 9
-30 9 -13 14 -32 10 -42 -3 -10 3 -27 14 -39 14 -17 17 -33 14 -69 -4 -48 20
-118 37 -108 5 3 11 1 15 -5 3 -5 1 -10 -5 -10 -18 0 21 -50 51 -65 17 -9 30
-26 34 -44 3 -16 15 -37 26 -47 25 -23 24 -43 -3 -54 -13 -5 -17 -9 -10 -9 6
-1 12 -8 12 -16 0 -8 11 -17 25 -21 14 -3 24 -11 23 -18 -1 -6 6 -28 15 -48
11 -26 22 -38 36 -38 23 0 26 -7 12 -29 -9 -14 8 -41 27 -41 5 0 13 -10 19
-22 8 -19 6 -25 -10 -33 -25 -12 -34 -35 -14 -35 9 0 18 -8 21 -18 4 -11 18
-25 31 -32 27 -14 31 -25 15 -35 -5 -3 -10 -11 -10 -18 0 -8 3 -8 12 1 17 17
28 15 28 -7 0 -11 5 -23 10 -26 6 -3 10 -18 10 -33 0 -34 8 -44 43 -60 15 -7
26 -16 22 -21 -3 -6 0 -13 7 -18 7 -4 18 -17 24 -28 6 -11 23 -26 37 -33 21
-10 25 -18 21 -40 -3 -22 4 -36 37 -70 24 -25 47 -41 55 -38 17 6 18 -3 4 -40
-9 -23 -8 -26 8 -22 12 3 24 -2 31 -14 7 -12 18 -17 28 -14 12 5 14 1 9 -18
-4 -18 -1 -28 11 -35 16 -8 14 -11 -12 -21 -23 -9 -26 -13 -15 -20 8 -5 19 -5
26 1 16 13 35 -12 28 -38 -5 -17 0 -22 30 -27 29 -6 40 -14 55 -47 11 -22 17
-47 14 -55 -5 -12 7 -19 30 -15 4 0 7 -8 7 -19 0 -11 5 -20 12 -20 6 0 3 -9
-7 -20 -10 -11 -13 -20 -7 -20 7 0 12 6 12 13 1 6 9 -13 20 -44 10 -30 18 -64
18 -75 -3 -29 31 -74 56 -74 15 0 17 -3 8 -8 -16 -10 -5 -42 14 -42 8 0 14 -5
14 -11 0 -6 7 -9 15 -5 9 3 15 0 15 -8 0 -7 9 -21 20 -31 12 -10 19 -24 16
-31 -2 -6 1 -23 8 -36 7 -14 13 -44 13 -67 0 -48 26 -84 55 -75 13 4 18 0 18
-13 0 -25 19 -43 37 -36 12 5 14 1 9 -15 -4 -11 -3 -23 2 -26 5 -3 7 -17 4
-31 -2 -15 0 -25 7 -25 6 0 11 7 11 15 0 8 5 15 11 15 5 0 7 -5 4 -10 -3 -6 1
-13 9 -16 9 -3 16 -13 16 -20 0 -8 7 -17 15 -20 11 -5 12 -11 4 -25 -7 -15 -6
-19 6 -19 8 0 23 -4 33 -9 9 -5 25 -12 35 -15 26 -8 32 -34 13 -55 -15 -16
-15 -22 -5 -39 7 -12 23 -23 35 -26 13 -4 26 -15 29 -27 4 -11 18 -24 31 -30
14 -5 23 -13 19 -18 -6 -11 29 -74 37 -66 6 6 51 -51 60 -75 3 -9 23 -24 44
-35 41 -21 123 -102 124 -122 0 -6 10 -15 23 -19 12 -4 36 -17 53 -30 17 -13
36 -24 41 -24 6 0 14 -7 17 -16 4 -9 13 -14 21 -10 11 4 15 -2 15 -19 0 -17 6
-25 18 -25 9 0 23 -9 30 -20 7 -11 23 -20 37 -20 18 0 26 -7 31 -24 3 -13 16
-28 30 -35 14 -6 24 -19 24 -31 0 -12 10 -25 25 -32 14 -6 30 -24 37 -40 13
-29 18 -32 78 -43 57 -11 100 -28 98 -40 -3 -15 47 -65 66 -65 9 0 16 -4 16
-9 0 -5 23 -15 50 -22 28 -7 50 -16 50 -21 0 -16 81 -59 100 -53 10 3 21 2 24
-3 3 -6 21 -13 40 -16 20 -4 44 -18 55 -31 10 -14 25 -25 33 -25 7 0 22 -6 33
-13 11 -8 44 -22 74 -33 29 -10 56 -25 58 -31 3 -8 23 -13 47 -13 23 0 51 -6
61 -14 11 -8 25 -12 32 -9 7 3 13 -2 13 -11 0 -9 9 -17 23 -17 12 -1 29 -2 37
-3 8 -1 32 -9 53 -19 21 -10 41 -16 44 -13 4 3 11 -4 17 -17 7 -12 21 -22 32
-23 19 -1 79 -18 119 -33 62 -25 90 -30 99 -21 12 12 46 13 46 1 0 -11 89 -45
114 -43 10 0 33 -10 51 -24 17 -13 37 -24 43 -24 7 0 12 -3 12 -7 1 -32 50
-39 50 -7 0 8 7 14 16 14 13 0 14 -3 5 -13 -16 -20 -4 -27 46 -27 24 0 43 -4
43 -9 0 -15 52 -23 61 -9 6 9 14 7 32 -10 13 -12 32 -22 43 -22 11 0 30 -9 43
-21 15 -14 30 -19 46 -15 13 3 26 2 30 -4 3 -5 12 -7 20 -3 9 3 21 0 29 -6 8
-6 31 -11 52 -10 22 1 75 -1 119 -4 61 -5 83 -10 95 -25 34 -43 64 -53 139
-48 71 5 72 5 82 -22 l11 -27 19 24 c19 23 20 23 33 5 11 -14 17 -16 27 -7 16
12 48 3 68 -20 9 -12 19 -14 37 -6 37 14 48 11 59 -13 12 -25 38 -38 29 -14
-8 21 14 21 36 1 20 -18 50 -10 50 13 0 12 5 11 23 -6 13 -12 31 -22 40 -22
10 0 20 -7 23 -15 9 -23 37 -19 31 5 -6 24 18 28 27 5 6 -17 36 -21 36 -5 0
16 36 12 50 -5 7 -9 19 -14 26 -11 6 2 15 2 18 -2 10 -9 46 -10 46 0 0 18 45
2 55 -19 12 -27 49 -48 66 -37 13 8 62 8 141 1 31 -3 46 -1 44 7 -2 6 -1 8 1
4 3 -5 24 -8 49 -8 37 0 43 -3 38 -17 -5 -15 -4 -16 5 -3 9 12 14 13 31 3 11
-7 47 -13 80 -13 47 0 60 -3 60 -15 0 -9 9 -15 24 -15 13 0 35 -9 49 -20 23
-18 27 -19 35 -5 7 13 13 14 38 5 35 -14 133 -20 139 -10 2 4 23 7 45 7 29 0
40 -4 40 -15 0 -11 6 -12 23 -7 44 16 195 7 215 -12 7 -7 22 -13 33 -13 10 0
19 -4 19 -10 0 -5 9 -10 21 -10 15 0 19 4 15 16 -5 13 0 15 35 9 22 -4 53 -13
67 -21 29 -15 82 -19 82 -6 0 9 49 8 72 -2 9 -4 41 -5 69 -3 42 5 55 2 65 -11
15 -21 112 -20 155 2 25 13 29 13 29 0 0 -23 47 -17 53 7 5 20 7 21 22 5 13
-13 20 -14 31 -5 11 9 18 9 29 -1 9 -7 26 -9 45 -5 23 5 30 3 30 -8 0 -23 31
-26 121 -11 56 9 88 10 101 3 23 -12 167 -19 174 -8 2 5 11 6 19 3 8 -4 28 -1
45 5 22 7 29 7 24 0 -4 -8 3 -9 22 -5 16 3 60 7 97 8 38 1 71 6 73 10 3 4 21
8 40 8 19 0 45 7 57 15 14 8 28 11 36 6 23 -14 94 -1 114 21 17 21 33 24 144
27 39 1 59 7 81 26 19 15 33 21 37 15 8 -13 62 -13 70 0 3 5 17 10 30 10 13 0
27 5 31 11 3 6 15 8 26 6 11 -3 32 -1 47 5 14 6 34 10 44 9 24 -3 21 14 -5 32
-23 16 -23 16 10 16 21 1 32 -4 32 -13 0 -19 58 -19 135 0 66 17 85 22 196 59
41 14 94 25 117 25 22 0 44 4 47 10 3 5 16 10 29 10 12 0 31 7 42 15 10 8 29
15 42 15 13 0 42 10 65 22 81 42 96 48 104 46 12 -4 103 34 103 42 0 5 22 13
49 20 28 6 62 23 76 36 15 13 38 24 54 24 15 0 36 9 45 19 10 11 31 23 47 26
47 11 86 34 92 55 5 20 31 27 41 11 8 -13 112 43 146 79 8 9 23 19 33 23 9 3
17 11 17 17 0 5 9 10 20 10 11 0 20 5 20 11 0 5 5 7 11 3 13 -8 128 44 146 66
7 8 13 12 13 7 0 -14 59 23 70 44 7 11 18 18 26 15 18 -7 80 19 96 42 7 10 29
23 48 28 19 5 35 14 35 20 0 6 8 19 19 29 14 14 22 16 35 8 12 -8 31 -2 81 25
36 20 71 44 78 53 7 10 19 16 27 12 9 -3 21 -1 28 5 6 5 27 13 44 17 18 3 35
11 39 16 3 5 39 26 80 45 41 20 77 40 80 45 3 5 13 9 22 9 10 0 35 9 57 20 21
11 41 18 43 15 3 -2 33 15 68 40 35 24 66 40 69 35 7 -12 60 13 72 33 4 8 29
21 55 30 26 8 62 27 80 40 18 14 63 39 99 57 37 18 81 45 99 61 17 16 35 29
41 29 5 0 17 8 27 18 10 9 45 31 78 47 32 17 63 36 67 43 4 6 14 12 22 12 8 0
18 15 23 33 6 20 14 31 24 29 8 -1 21 5 28 13 7 8 20 15 29 16 9 0 36 23 61
50 25 28 73 78 108 112 35 33 70 76 77 94 8 18 18 33 22 32 21 -4 33 2 33 16
0 8 7 15 15 15 8 0 18 12 21 28 4 15 14 34 23 43 48 49 61 70 56 97 -3 15 -2
21 1 15 3 -7 11 -13 18 -13 15 0 86 72 86 86 0 6 9 21 19 33 11 13 17 29 15
36 -3 7 0 16 5 20 6 3 8 11 5 17 -5 7 -1 9 9 5 16 -6 45 19 34 30 -3 3 0 18 8
34 14 25 13 29 -3 38 -16 10 -15 11 3 12 36 3 40 4 53 12 6 5 12 16 12 26 0 9
13 27 30 39 21 16 32 34 36 63 4 26 10 36 15 28 10 -17 39 6 39 30 0 9 13 22
30 28 24 9 31 19 36 52 4 25 12 41 20 41 14 0 16 6 18 45 1 11 7 20 14 21 6 1
16 2 20 3 4 0 13 21 20 45 7 29 19 47 31 51 34 10 44 31 33 65 -7 19 -7 32 -1
36 6 3 9 15 7 27 -3 19 2 22 32 22 31 0 35 3 32 24 -2 13 -10 30 -17 38 -8 7
-12 20 -9 28 8 19 22 19 26 0 3 -14 5 -14 26 0 15 11 22 26 22 49 0 19 7 39
15 46 8 7 15 19 15 26 0 8 5 14 10 14 6 0 10 7 10 15 0 18 -26 20 -33 3 -3 -7
-6 -1 -6 14 -1 15 4 30 9 33 6 3 10 14 10 24 0 27 25 70 49 87 22 16 29 44 10
44 -13 0 -2 39 18 61 8 10 15 31 15 48 1 28 3 30 27 24 23 -5 24 -4 13 9 -16
20 -6 44 21 52 l22 6 -24 19 c-24 18 -24 19 -4 25 11 4 29 16 39 27 17 19 17
20 -3 25 -19 5 -19 8 -8 42 9 25 22 42 44 51 27 13 31 20 31 53 0 27 4 37 11
32 7 -4 20 3 29 16 14 19 16 29 7 47 -9 20 -7 26 13 40 21 15 22 21 17 80 -5
49 -3 70 9 88 18 27 21 94 6 121 -6 10 -7 27 -2 39 5 12 7 71 5 130 -2 85 1
112 12 124 10 10 13 24 8 45 -10 46 -8 100 4 104 6 2 11 8 11 13 0 6 -4 8 -9
5 -17 -11 -32 23 -33 78 -1 31 -5 56 -10 56 -15 0 -27 44 -16 57 6 7 8 19 5
27 -3 7 -2 30 3 49 6 28 5 34 -6 30 -8 -3 -14 0 -14 6 0 7 6 14 13 17 10 3 14
31 14 105 l0 100 -29 6 c-19 4 -25 9 -18 13 7 4 9 13 6 19 -4 6 -4 20 -1 31 8
24 53 28 61 5 4 -8 14 -15 24 -15 11 0 22 -5 25 -11 4 -5 18 -14 31 -19 13 -5
24 -16 24 -25 0 -8 7 -15 15 -15 9 0 18 -7 22 -16 3 -8 17 -20 30 -25 14 -5
23 -14 21 -21 -4 -11 59 -78 74 -78 4 0 11 -12 14 -26 4 -15 12 -23 20 -20 13
5 124 -94 124 -111 0 -15 46 -50 93 -72 25 -11 47 -28 51 -37 5 -13 9 -14 20
-5 18 15 56 -5 56 -29 0 -20 91 -41 116 -27 15 8 16 6 10 -18 -7 -26 -5 -27
24 -23 23 3 30 1 26 -9 -3 -8 4 -15 19 -19 13 -3 27 -15 30 -25 4 -13 19 -21
45 -25 21 -4 41 -13 44 -20 3 -8 12 -14 20 -14 7 0 16 -10 19 -21 4 -16 10
-20 24 -14 10 5 38 7 63 6 47 -2 75 -23 65 -49 -3 -9 1 -12 14 -7 11 3 22 1
26 -5 4 -7 12 -7 25 0 29 16 51 12 57 -10 3 -11 10 -20 15 -20 6 0 8 7 4 15
-3 8 -1 15 5 15 6 0 13 -9 16 -19 4 -16 8 -18 23 -9 15 10 22 6 43 -18 21 -24
29 -27 44 -18 18 11 117 9 163 -3 14 -3 31 -5 38 -4 6 1 12 -6 12 -17 0 -14 8
-18 37 -19 20 -1 42 -8 48 -16 7 -10 17 -12 34 -5 14 5 30 7 38 4 7 -3 15 -1
18 5 4 5 10 7 13 5 4 -2 27 -7 52 -11 24 -4 53 -13 64 -21 23 -16 82 -19 91
-5 11 19 61 22 93 6 33 -17 62 -13 86 10 20 20 82 25 78 6 -2 -8 3 -11 12 -8
9 4 18 2 22 -4 4 -6 13 -4 25 7 21 19 27 20 131 28 81 6 147 23 171 43 10 10
17 12 17 5 0 -16 16 -15 33 3 9 8 39 16 69 19 56 4 88 13 88 26 0 5 9 6 20 3
11 -3 20 -1 20 3 0 5 26 23 58 39 31 17 59 32 62 35 24 24 94 62 120 65 29 4
79 36 88 58 2 4 8 7 13 7 6 0 23 10 39 22 21 15 28 27 24 40 -4 15 0 18 29 18
21 0 37 6 40 14 6 15 62 46 84 46 7 0 13 4 13 9 0 6 13 18 29 27 16 9 39 34
51 55 11 21 29 44 39 51 10 7 24 30 31 50 8 20 22 39 32 41 11 3 18 14 18 29
0 16 14 36 40 58 47 39 60 73 62 160 1 54 5 69 23 85 29 26 50 124 28 132 -11
5 -11 7 1 17 13 9 14 22 6 80 -8 50 -7 72 1 83 9 10 9 23 0 54 -7 22 -9 49 -6
60 5 13 -1 26 -17 39 -19 16 -20 19 -5 20 21 0 22 22 2 60 -9 17 -12 40 -9 58
5 22 1 33 -14 43 -12 9 -19 26 -20 44 0 46 -8 87 -19 94 -6 3 -14 20 -17 37
-5 24 -3 33 8 37 18 7 22 37 6 37 -5 0 -10 7 -10 15 0 8 -5 15 -11 15 -19 0
-39 28 -39 54 0 14 -5 28 -10 31 -6 4 -7 12 -1 22 5 10 3 21 -6 32 -61 72 -72
88 -62 98 8 8 7 13 -1 18 -7 4 -17 1 -22 -6 -7 -10 -8 -8 -4 10 5 25 -11 56
-54 102 -14 15 -40 48 -59 73 -18 25 -38 46 -43 46 -5 0 -6 5 -3 10 4 6 -1 24
-9 42 -9 17 -16 37 -16 45 0 7 -9 13 -20 13 -20 0 -74 53 -75 73 -1 18 -45 87
-56 87 -5 0 -9 6 -9 13 0 8 -9 22 -20 32 -11 10 -17 22 -14 26 3 5 -3 6 -12 2
-13 -5 -16 -3 -11 9 6 18 -17 42 -50 52 -13 4 -24 18 -28 36 -4 16 -15 32 -26
35 -10 4 -19 12 -19 20 0 7 -6 15 -14 18 -7 3 -16 20 -20 37 -5 26 -9 30 -20
21 -11 -9 -20 -5 -45 21 -80 85 -102 113 -107 135 -4 12 -10 23 -15 23 -5 0
-9 7 -9 16 0 11 -6 14 -20 9 -22 -7 -93 43 -86 61 2 6 -5 10 -16 10 -15 -1
-25 13 -44 58 -26 64 -37 76 -70 76 -12 0 -28 10 -37 23 -40 62 -134 159 -150
155 -21 -4 -78 35 -64 44 9 6 9 8 -1 8 -14 0 -71 60 -72 76 0 6 -9 19 -20 29
-15 13 -23 15 -33 7 -11 -9 -20 -5 -43 19 -16 17 -46 40 -66 52 -30 16 -38 27
-38 48 0 25 -5 30 -42 39 -68 17 -108 38 -109 57 0 10 -3 13 -6 6 -3 -9 -13
-8 -36 5 -42 22 -101 64 -105 74 -2 4 -14 5 -27 2 -19 -5 -27 0 -39 24 -21 41
-35 48 -51 26 -14 -18 -14 -18 -15 0 0 26 -28 56 -46 49 -8 -3 -14 0 -14 7 0
6 -4 9 -9 6 -9 -6 -45 9 -104 41 -16 8 -44 30 -62 48 -31 30 -40 33 -102 34
-47 1 -71 6 -79 16 -6 8 -21 15 -33 15 -12 0 -21 6 -21 15 0 9 -9 15 -25 15
-13 0 -28 8 -34 17 -7 13 -20 17 -49 14 -45 -3 -102 28 -118 63 -7 17 -18 21
-55 21 -40 0 -54 7 -112 53 -65 52 -161 90 -194 77 -9 -3 -18 6 -24 25 -9 25
-14 28 -29 20 -26 -14 -40 -12 -34 4 5 13 -23 36 -51 42 -5 1 -28 10 -50 20
-22 10 -45 17 -52 16 -7 -2 -20 9 -29 23 -9 14 -23 24 -30 21 -7 -3 -16 -1
-19 4 -4 6 -17 10 -31 10 -15 0 -24 6 -24 15 0 19 -27 19 -64 0 -42 -22 -50
-19 -73 29 l-21 43 -57 -1 c-33 -1 -64 4 -74 11 -20 16 -55 17 -45 2 4 -7 1
-10 -7 -7 -8 3 -14 13 -14 24 0 14 -10 20 -48 27 -26 4 -63 16 -82 27 -44 25
-48 25 -40 0 3 -11 4 -20 2 -20 -15 0 -126 67 -150 91 -32 32 -67 37 -91 13
-15 -14 -19 -14 -50 5 -19 12 -39 28 -46 36 -7 8 -27 15 -46 15 -18 0 -36 5
-39 10 -3 6 -20 10 -36 10 -17 0 -28 4 -25 9 6 10 -54 35 -62 26 -3 -3 -10 5
-17 18 -7 15 -18 21 -34 19 -16 -3 -24 2 -28 17 -4 16 -9 18 -29 11 -15 -6
-24 -6 -24 0 0 5 -16 12 -35 16 -20 3 -35 12 -35 20 0 19 -31 33 -61 27 -18
-3 -35 3 -56 21 -20 16 -43 26 -64 26 -39 0 -141 -7 -181 -13 -22 -3 -32 2
-50 28 -28 42 -95 66 -114 41 -17 -24 -80 -21 -87 4 -5 21 -47 29 -47 9 0 -6
-9 -8 -21 -4 -12 4 -33 9 -48 10 -14 2 -38 7 -53 11 -19 4 -28 2 -28 -6 0 -7
-6 -10 -14 -7 -7 3 -18 1 -24 -5 -8 -8 -15 -8 -24 0 -8 6 -33 11 -56 10 -24 0
-45 2 -48 5 -3 3 -19 0 -36 -7 -17 -7 -49 -11 -72 -9 -22 3 -69 -2 -103 -11
-33 -9 -68 -13 -76 -10 -10 3 -18 -2 -22 -15 -7 -22 -55 -31 -55 -11 0 16 -20
12 -47 -10 -14 -11 -44 -23 -65 -27 -22 -3 -42 -12 -45 -19 -3 -8 -10 -14 -17
-14 -6 0 -12 -9 -12 -19 0 -20 38 -37 56 -26 20 12 31 -7 13 -20 -10 -7 -21
-11 -25 -9 -5 3 -8 0 -8 -5 0 -6 7 -11 15 -11 8 0 29 -8 47 -18 33 -19 131
-24 156 -8 6 3 13 2 16 -3 4 -5 32 -9 64 -8 31 0 74 -3 95 -8 25 -5 48 -3 65
5 42 19 112 21 112 3 0 -15 11 -15 105 1 6 1 15 5 22 9 14 9 45 -2 38 -13 -9
-14 15 -22 29 -11 11 9 18 6 32 -13 15 -19 31 -26 73 -30 33 -4 59 -2 67 5 11
9 18 8 29 -1 19 -16 95 -25 95 -11 0 5 -8 12 -17 15 -10 3 5 4 34 1 32 -2 67
-13 92 -29 22 -15 45 -26 50 -26 6 0 15 -8 20 -18 8 -16 19 -18 70 -15 50 4
61 1 73 -15 10 -15 25 -20 66 -20 30 0 59 -5 65 -11 6 -6 23 -11 38 -11 17 0
34 -8 43 -22 9 -12 16 -19 16 -14 0 5 6 3 13 -3 8 -6 17 -8 20 -4 4 3 7 -3 7
-15 0 -17 6 -22 28 -23 59 -3 85 -9 101 -23 10 -9 28 -16 42 -16 13 0 33 -7
43 -15 11 -8 34 -15 52 -15 18 0 36 -4 39 -10 3 -5 17 -10 30 -10 13 0 27 -4
30 -10 3 -5 15 -10 26 -10 12 0 19 -5 17 -12 -6 -17 28 -52 41 -43 6 3 11 13
11 21 0 8 7 14 15 14 8 0 15 -7 15 -15 0 -14 32 -37 60 -41 34 -6 105 -29 111
-36 6 -9 47 -13 69 -7 9 3 14 -3 14 -13 -2 -15 7 -18 47 -18 42 0 54 -5 85
-34 l36 -34 36 18 c32 16 39 16 53 4 8 -8 37 -17 64 -20 35 -4 53 -12 67 -29
11 -14 22 -24 26 -23 4 1 17 -4 30 -11 13 -7 30 -10 37 -7 7 2 16 -2 19 -11 4
-9 14 -13 26 -10 11 3 23 0 28 -6 27 -43 113 -77 140 -55 11 9 12 7 7 -15 -6
-22 -3 -27 18 -32 14 -4 28 -13 31 -21 3 -8 16 -14 28 -14 13 0 39 -10 58 -23
49 -32 90 -49 90 -37 0 17 15 11 47 -17 17 -16 32 -37 35 -48 3 -18 10 -20 66
-17 70 2 112 -16 112 -50 0 -15 4 -18 18 -12 33 15 76 5 95 -21 19 -25 47 -34
47 -14 0 6 6 5 15 -3 34 -31 45 -38 58 -38 7 0 28 -14 45 -31 27 -27 37 -31
67 -26 19 3 35 2 35 -4 0 -5 6 -9 14 -9 19 0 76 -33 76 -43 0 -5 4 -6 9 -2 6
3 15 -4 21 -15 6 -11 20 -20 32 -20 12 0 29 -7 39 -16 10 -9 49 -23 86 -30 37
-8 72 -19 77 -24 6 -6 18 -10 28 -10 10 0 18 -7 18 -15 0 -8 18 -27 40 -41 22
-15 40 -30 40 -34 0 -4 9 -10 20 -13 11 -3 23 -13 27 -23 9 -24 40 -54 57 -54
7 0 19 -7 26 -15 7 -8 16 -12 21 -9 5 3 21 -9 36 -26 14 -18 44 -43 65 -56 21
-13 38 -29 38 -35 0 -6 14 -22 30 -36 17 -13 30 -31 30 -39 0 -8 7 -14 17 -14
9 0 30 -10 47 -23 17 -13 39 -26 49 -30 10 -4 23 -20 28 -36 6 -18 22 -34 42
-42 39 -16 67 -39 67 -55 0 -6 9 -23 20 -37 11 -14 20 -32 20 -40 0 -18 30
-30 54 -21 11 4 16 1 16 -13 0 -10 9 -24 20 -31 11 -7 20 -20 20 -31 0 -10 9
-26 19 -35 18 -17 19 -17 23 1 3 14 7 12 23 -14 11 -18 26 -33 35 -33 8 0 26
-18 40 -40 13 -22 28 -40 32 -40 4 0 8 -9 8 -21 0 -12 8 -23 20 -26 12 -3 24
-19 30 -42 9 -35 55 -81 80 -81 6 0 13 -6 16 -14 3 -8 19 -18 34 -21 32 -7 70
-58 70 -93 0 -12 13 -31 30 -44 17 -12 30 -30 30 -40 0 -17 66 -88 82 -88 7 0
21 -24 62 -107 14 -29 30 -53 34 -53 15 0 30 -45 25 -73 -3 -16 -1 -27 6 -27
6 0 11 5 11 11 0 6 6 9 13 6 6 -2 12 -11 12 -19 0 -16 49 -85 73 -103 10 -8
11 -17 4 -36 -8 -19 -6 -31 8 -50 11 -13 17 -33 14 -44 -3 -13 4 -30 19 -47
14 -15 23 -29 20 -32 -2 -2 0 -13 6 -25 7 -13 8 -22 1 -26 -6 -3 -6 -13 -1
-23 5 -9 15 -30 22 -47 8 -16 18 -33 24 -37 5 -4 4 -16 -4 -32 -9 -16 -12 -41
-8 -71 4 -25 3 -45 -2 -45 -5 0 -9 -20 -8 -45 1 -25 7 -45 13 -45 6 0 10 -24
10 -61 -1 -46 3 -64 16 -73 16 -12 15 -13 -3 -27 -14 -10 -19 -22 -16 -39 3
-15 -2 -32 -15 -45 -20 -21 -52 -100 -69 -170 -6 -22 -20 -53 -33 -70 -13 -16
-30 -43 -39 -60 -8 -16 -40 -57 -71 -90 -31 -33 -56 -66 -56 -72 0 -7 -4 -13
-10 -13 -5 0 -10 -7 -10 -16 0 -8 -4 -12 -10 -9 -13 8 -80 -24 -87 -42 -3 -7
-13 -13 -23 -13 -9 0 -28 -8 -41 -19 -13 -10 -53 -34 -88 -52 -35 -19 -66 -42
-69 -52 -2 -10 -10 -16 -18 -13 -7 3 -24 -4 -37 -15 -14 -10 -29 -19 -34 -19
-4 0 -20 -11 -35 -25 -15 -14 -33 -25 -40 -25 -8 0 -23 -7 -34 -14 -12 -8 -30
-15 -40 -15 -10 0 -44 -7 -74 -15 -30 -9 -62 -16 -71 -16 -9 0 -28 -9 -43 -21
-21 -16 -34 -19 -65 -14 -24 4 -42 2 -46 -4 -3 -6 -35 -11 -69 -11 -43 0 -67
-5 -75 -14 -8 -10 -23 -13 -47 -9 -28 5 -34 2 -34 -12 0 -14 -5 -16 -22 -10
-13 4 -65 12 -116 18 -70 8 -96 7 -101 -1 -4 -7 -17 -9 -31 -5 -14 3 -59 9
-100 13 -41 4 -85 11 -96 15 -13 4 -25 2 -28 -4 -4 -6 -20 -11 -37 -11 -22 0
-29 5 -29 20 0 21 -24 28 -35 10 -5 -8 -11 -7 -21 1 -8 6 -25 8 -39 5 -20 -5
-27 -2 -35 16 -7 18 -9 19 -9 6 -1 -21 -41 -25 -41 -5 0 8 -9 22 -20 32 -17
16 -24 16 -44 5 -14 -7 -36 -10 -51 -8 -14 3 -28 1 -31 -3 -3 -5 -17 -9 -31
-9 -18 0 -24 4 -19 15 3 8 1 15 -5 15 -6 0 -8 7 -5 16 5 12 1 14 -15 9 -11 -4
-26 -2 -33 4 -8 7 -22 8 -36 3 -28 -11 -70 7 -70 29 0 9 -9 24 -19 33 -16 15
-21 15 -28 3 -16 -26 -38 -25 -67 4 -16 16 -32 29 -36 29 -4 0 -12 12 -19 26
-9 21 -16 25 -36 20 -14 -4 -25 -2 -25 4 0 5 -11 10 -24 10 -14 0 -33 11 -44
25 -11 13 -22 22 -25 19 -3 -4 -21 1 -39 10 -27 14 -34 15 -43 3 -12 -16 -35
-11 -35 9 0 8 6 11 16 7 14 -5 15 -3 5 16 -7 12 -16 19 -21 16 -5 -3 -11 -1
-15 5 -3 5 -15 10 -26 10 -22 0 -99 66 -99 86 0 19 -28 43 -58 50 -43 11 -143
96 -138 117 3 12 -5 22 -24 32 -15 8 -30 21 -33 30 -4 8 -14 15 -22 15 -13 0
-15 6 -10 28 6 31 -13 58 -37 50 -13 -5 -53 31 -53 47 0 5 -12 16 -27 23 -16
7 -31 24 -34 38 -3 13 -17 33 -30 43 -13 10 -24 26 -24 34 0 9 -8 18 -17 21
-10 3 -29 23 -43 43 -14 21 -27 40 -30 43 -4 3 -16 26 -27 51 -12 25 -28 51
-37 58 -9 8 -16 22 -16 32 0 11 -4 19 -8 19 -5 0 -14 12 -21 26 -10 23 -9 26
4 21 10 -5 15 0 15 14 0 11 -7 22 -15 26 -23 8 -56 82 -49 109 7 29 -13 92
-38 120 -10 11 -16 27 -13 36 4 9 -4 19 -22 29 -15 8 -34 22 -41 32 -7 9 -19
17 -26 17 -8 0 -17 11 -20 25 -4 14 -11 25 -17 25 -6 0 -8 9 -4 20 10 31 -12
92 -45 128 -17 17 -36 32 -41 32 -6 0 -7 5 -4 11 4 5 -5 28 -19 50 -15 22 -28
53 -29 69 -2 27 -9 34 -29 31 -5 0 -8 3 -8 8 0 5 -7 17 -17 26 -12 12 -13 19
-4 24 8 5 5 13 -10 27 -30 27 -72 101 -64 114 3 5 1 10 -6 10 -9 0 -9 3 0 14
11 13 5 46 -9 46 -4 0 -7 12 -6 27 1 16 -8 36 -21 50 -13 12 -23 29 -23 38 0
8 -4 15 -10 15 -5 0 -7 7 -3 16 3 9 -3 21 -15 30 -12 8 -19 21 -15 29 3 9 0
22 -7 30 -9 11 -10 18 -1 29 9 10 8 15 -4 20 -8 3 -15 12 -15 19 0 35 -54 117
-77 117 -7 0 -13 11 -13 25 0 16 -6 25 -16 25 -8 0 -28 14 -44 32 -30 32 -31
41 -18 143 2 14 -6 22 -32 31 -29 10 -34 16 -32 37 2 14 -3 29 -11 34 -7 4
-16 16 -20 26 -4 10 -23 25 -42 33 -22 9 -35 21 -35 32 0 10 -9 28 -20 40 -11
12 -20 26 -20 32 0 5 -15 10 -34 10 -37 0 -52 22 -47 67 3 27 -84 133 -109
133 -18 0 -53 33 -45 42 3 3 -12 13 -34 22 -28 10 -39 20 -35 30 6 15 -24 56
-41 56 -11 0 -32 23 -51 56 -6 10 -20 20 -32 22 -12 2 -25 15 -31 34 -9 25
-15 29 -35 24 -20 -5 -26 0 -40 28 -9 19 -16 41 -16 48 0 22 -33 48 -59 48
-16 0 -21 4 -18 14 7 17 -48 80 -61 72 -12 -7 -52 22 -52 37 0 19 -210 227
-229 227 -7 0 -30 15 -51 33 -21 17 -65 46 -97 62 -51 27 -58 34 -60 63 -1 19
4 32 11 32 6 0 32 18 56 40 24 22 50 40 58 40 19 0 108 79 136 120 21 32 21
38 9 67 -7 18 -22 37 -33 43 -11 6 -20 16 -20 23 0 7 -8 21 -17 32 -13 16 -15
17 -10 3 8 -22 -6 -23 -24 -2 -7 8 -21 13 -31 11 -10 -3 -21 -1 -24 4 -9 16
-68 10 -102 -11 -18 -11 -40 -20 -49 -20 -22 0 -102 -52 -108 -70 -3 -8 -21
-25 -40 -38 -19 -12 -41 -38 -49 -57 -8 -19 -22 -35 -31 -35 -9 0 -24 -13 -33
-30 -19 -34 -37 -37 -70 -14 -13 9 -32 14 -43 11 -11 -3 -25 0 -32 7 -18 18
-114 46 -145 42 -15 -2 -21 -1 -14 1 6 2 12 8 12 11 0 11 -60 42 -80 42 -10 0
-33 8 -52 17 -60 30 -66 32 -85 27 -10 -3 -34 6 -54 19 -20 14 -54 27 -75 30
-98 14 -154 30 -154 43 0 8 -10 14 -22 14 -13 0 -36 7 -52 15 -34 18 -87 20
-103 4 -9 -9 -16 -8 -28 5 -9 9 -12 16 -6 16 6 0 11 5 11 10 0 6 -11 8 -25 4
-18 -4 -25 -3 -23 6 4 16 -93 52 -106 39 -6 -5 -18 -1 -31 11 -14 13 -37 20
-72 21 -38 2 -50 5 -46 16 3 7 -1 13 -8 14 -8 0 -31 2 -51 4 -21 2 -40 0 -43
-6 -9 -13 -25 -11 -25 4 0 18 -84 41 -151 42 -42 0 -63 5 -79 20 -16 14 -24
16 -27 8 -5 -15 -66 -9 -128 13 -22 8 -53 14 -70 13 -42 -2 -117 9 -149 21
-15 5 -32 8 -37 4 -5 -3 -25 0 -44 8 -28 9 -40 10 -55 1 -14 -10 -21 -9 -29 1
-7 9 -29 13 -61 11 -33 -2 -54 2 -61 12 -7 8 -27 13 -48 12 -20 -1 -66 6 -103
15 -36 10 -72 16 -80 15 -7 -2 -29 4 -49 13 -20 9 -56 19 -80 23 -24 4 -56 14
-71 21 -15 8 -40 14 -57 14 -16 0 -33 5 -36 10 -4 6 -15 8 -25 5 -11 -3 -38
-1 -62 6 -54 14 -127 22 -197 21 -34 -1 -68 6 -95 18 -22 11 -68 22 -101 25
-71 6 -116 15 -130 25 -5 4 -34 7 -63 6 -30 -1 -51 3 -49 9 5 15 -44 36 -78
34 -17 -2 -37 1 -45 6 -8 5 -32 10 -52 11 -21 1 -57 9 -80 17 -24 9 -71 24
-105 34 -35 10 -63 21 -63 24 0 3 -11 4 -25 1 -14 -2 -39 4 -59 16 -20 12 -52
24 -73 28 -21 3 -43 13 -50 21 -9 11 -15 12 -31 2 -16 -10 -24 -8 -48 9 -16
12 -54 26 -84 31 -90 16 -143 29 -190 45 -25 9 -60 16 -77 16 -23 0 -33 5 -33
15 0 20 -17 19 -38 -2 -16 -16 -17 -15 -20 1 -5 23 -50 40 -68 25 -10 -9 -21
-5 -45 15 -33 28 -44 32 -54 16 -4 -7 -11 -7 -18 -2 -21 16 -76 20 -81 5 -7
-17 -26 -17 -26 1 0 20 -17 24 -77 18 -35 -3 -53 -1 -53 6 0 6 -7 9 -15 6 -8
-4 -22 -1 -30 6 -19 16 -46 19 -160 21 -49 1 -95 5 -100 10 -16 12 -122 18
-155 9 -18 -5 -32 -5 -35 1 -4 5 -25 9 -48 8 -23 0 -64 2 -92 4 -33 3 -56 0
-70 -9 -26 -19 -45 -18 -61 4 -9 10 -17 13 -21 7 -8 -10 -122 -12 -183 -2 -19
3 -48 -1 -64 -8z m284 -65 c0 -5 -4 -10 -10 -10 -5 0 -10 5 -10 10 0 6 5 10
10 10 6 0 10 -4 10 -10z m877 -116 c-3 -3 -12 -4 -19 -1 -8 3 -5 6 6 6 11 1
17 -2 13 -5z m-727 -34 c0 -5 -2 -10 -4 -10 -3 0 -8 5 -11 10 -3 6 -1 10 4 10
6 0 11 -4 11 -10z m389 -26 c3 -16 1 -17 -13 -5 -19 16 -21 34 -3 29 6 -3 14
-13 16 -24z m-122 -6 c-3 -8 -6 -5 -6 6 -1 11 2 17 5 13 3 -3 4 -12 1 -19z
m133 -58 c0 -5 -4 -10 -10 -10 -5 0 -10 5 -10 10 0 6 5 10 10 10 6 0 10 -4 10
-10z m735 -130 c3 -5 1 -10 -4 -10 -6 0 -11 5 -11 10 0 6 2 10 4 10 3 0 8 -4
11 -10z m-3491 -15 c19 -14 19 -15 -5 -15 -14 0 -29 4 -34 9 -6 5 -21 11 -35
14 -17 3 -12 5 15 5 22 1 49 -5 59 -13z m779 -28 c-3 -5 -10 -4 -15 1 -6 6 -7
16 -3 22 6 9 9 9 16 -1 4 -7 5 -17 2 -22z m-123 13 c0 -5 -2 -10 -4 -10 -3 0
-8 5 -11 10 -3 6 -1 10 4 10 6 0 11 -4 11 -10z m163 -16 c9 -3 13 -13 10 -24
-6 -24 -33 -15 -33 11 0 21 1 22 23 13z m-2006 -30 c-3 -3 -12 -4 -19 -1 -8 3
-5 6 6 6 11 1 17 -2 13 -5z m1333 -18 c0 -2 -7 -7 -16 -10 -8 -3 -12 -2 -9 4
6 10 25 14 25 6z m367 -32 c-3 -3 -12 -4 -19 -1 -8 3 -5 6 6 6 11 1 17 -2 13
-5z m-907 -34 c0 -5 -4 -10 -10 -10 -5 0 -10 5 -10 10 0 6 5 10 10 10 6 0 10
-4 10 -10z m-63 -32 c18 -7 33 -16 33 -20 0 -4 6 -8 13 -8 33 0 44 -33 44
-132 0 -54 -4 -98 -9 -98 -4 0 -8 -12 -8 -26 0 -38 -16 -62 -97 -142 -40 -40
-73 -77 -73 -82 0 -5 -9 -12 -20 -15 -13 -4 -20 -15 -20 -31 0 -13 -4 -24 -10
-24 -5 0 -10 -6 -10 -14 0 -8 -9 -18 -20 -21 -32 -10 -53 -49 -45 -85 5 -24 3
-31 -12 -37 -22 -8 -43 -35 -36 -46 8 -14 -29 -87 -44 -87 -12 0 -18 -25 -14
-57 1 -7 -10 -20 -24 -29 -21 -14 -26 -24 -23 -51 2 -24 -3 -39 -15 -48 -9 -7
-17 -24 -17 -38 0 -33 -37 -97 -56 -97 -8 0 -17 -8 -21 -17 -14 -39 -45 -72
-74 -78 -21 -5 -35 -16 -42 -34 -7 -15 -18 -26 -24 -24 -7 3 -13 0 -13 -5 0
-6 -15 -14 -32 -18 -18 -3 -39 -15 -46 -25 -7 -11 -20 -19 -27 -19 -8 0 -22
-11 -31 -25 -9 -14 -23 -25 -30 -25 -8 0 -14 -9 -14 -21 0 -13 -4 -18 -12 -13
-7 5 -9 2 -6 -8 4 -10 -4 -19 -28 -28 -32 -13 -46 -30 -24 -30 6 0 10 -7 10
-15 0 -18 -31 -20 -48 -3 -20 20 -132 -74 -132 -112 0 -5 -9 -10 -21 -10 -11
0 -18 -4 -15 -9 3 -5 -7 -11 -23 -14 -20 -4 -31 -14 -35 -32 -4 -14 -10 -24
-14 -21 -13 8 -72 -23 -72 -39 0 -9 -9 -15 -23 -15 -27 0 -48 -18 -102 -88
-22 -29 -41 -48 -43 -42 -2 5 -8 10 -13 10 -14 0 -130 -91 -164 -128 -16 -19
-43 -40 -60 -48 -43 -21 -66 -36 -99 -64 -45 -38 -96 -91 -96 -99 0 -4 -16
-13 -35 -21 -19 -8 -35 -19 -35 -25 0 -5 -18 -21 -40 -35 -22 -14 -40 -28 -40
-33 0 -4 -8 -10 -17 -14 -25 -8 -73 -54 -73 -69 0 -6 -16 -29 -35 -50 -19 -21
-35 -42 -35 -46 0 -4 -5 -8 -11 -8 -25 0 -165 -160 -152 -174 3 -3 1 -6 -6 -6
-12 0 -81 -69 -81 -81 0 -4 9 -9 21 -12 12 -3 18 -10 14 -17 -4 -6 -14 -9 -22
-6 -9 4 -17 -1 -20 -14 -3 -11 -9 -17 -14 -14 -12 7 -42 -23 -35 -35 3 -5 -1
-11 -9 -15 -8 -3 -15 -14 -15 -24 0 -18 -34 -62 -48 -62 -4 0 -13 -13 -20 -30
-8 -16 -19 -30 -26 -30 -22 0 -40 -45 -27 -69 10 -17 9 -21 -4 -21 -9 0 -18
-7 -21 -15 -4 -8 -12 -15 -20 -15 -31 0 -2 -88 33 -102 17 -6 17 -7 -1 -7 -10
-1 -24 6 -30 14 -19 26 -52 7 -73 -43 -24 -55 -31 -75 -29 -83 0 -4 -7 -16
-17 -27 -11 -12 -16 -25 -13 -31 4 -6 -9 -34 -29 -62 -27 -40 -33 -55 -24 -65
6 -8 7 -14 2 -14 -10 0 -43 -63 -43 -82 0 -20 -32 -48 -55 -48 -13 0 -30 -11
-39 -25 -9 -14 -24 -25 -33 -25 -9 0 -31 -11 -50 -26 -18 -14 -33 -23 -33 -20
0 3 -24 -8 -54 -24 -30 -17 -63 -30 -74 -30 -11 0 -22 -7 -25 -15 -6 -14 -81
-55 -102 -55 -6 0 -22 -10 -35 -22 -14 -13 -28 -22 -32 -21 -4 2 -12 -7 -18
-18 -7 -13 -17 -18 -27 -15 -9 4 -21 2 -27 -3 -6 -4 -33 -11 -59 -14 -30 -3
-53 -11 -61 -22 -8 -11 -20 -16 -29 -12 -9 3 -18 0 -21 -9 -4 -10 -13 -13 -31
-8 -19 5 -25 2 -25 -9 0 -9 -13 -18 -30 -22 -17 -4 -30 -11 -30 -16 0 -5 -7
-9 -15 -9 -9 0 -27 -7 -40 -16 -13 -9 -29 -13 -35 -9 -5 3 -22 -3 -37 -14 -21
-18 -34 -20 -74 -15 -45 6 -50 4 -76 -24 -20 -24 -30 -29 -44 -22 -12 7 -21 5
-29 -5 -6 -7 -26 -17 -43 -21 -18 -3 -44 -15 -59 -26 -23 -16 -44 -19 -120
-18 -141 2 -156 4 -170 22 -16 21 -60 14 -51 -8 6 -17 -8 -19 -24 -3 -6 6 -26
13 -44 15 -62 8 -104 17 -109 23 -11 13 -89 71 -97 71 -4 0 -18 11 -31 25 -21
22 -22 30 -16 84 4 42 3 65 -6 76 -7 8 -9 26 -5 43 6 30 -13 62 -37 62 -7 0
-7 5 1 14 6 7 8 26 5 45 -4 19 -2 37 6 46 7 8 10 31 8 52 -3 25 0 42 9 48 11
8 11 16 1 41 -10 27 -9 34 9 53 13 14 20 34 18 54 -1 18 7 49 17 69 10 21 18
44 18 52 0 8 14 41 30 73 17 32 32 71 33 88 1 16 9 37 17 46 38 41 54 65 52
78 -2 7 5 23 16 35 11 11 34 48 52 81 34 63 57 96 102 147 16 17 28 37 28 44
0 8 9 19 20 26 11 7 20 18 20 24 0 7 7 14 15 18 8 3 15 13 15 22 0 9 8 28 19
42 10 15 21 39 24 53 4 15 18 34 32 43 14 9 25 24 25 32 0 9 13 33 29 53 16
20 40 59 55 86 14 28 44 68 66 90 28 27 38 45 34 57 -3 12 9 41 35 80 23 33
44 71 47 84 3 13 9 24 13 24 3 0 23 16 43 35 25 22 38 43 38 59 0 19 5 26 19
26 14 0 28 17 47 55 15 31 35 60 45 66 11 5 19 16 19 24 0 8 9 15 20 15 15 0
20 7 20 28 1 32 81 125 122 141 15 6 34 25 43 45 11 24 24 36 37 36 18 0 33
13 114 101 15 16 33 29 41 29 7 0 16 7 19 15 3 8 14 17 24 20 11 3 22 15 25
26 4 10 13 19 21 19 8 0 14 7 14 15 0 8 5 15 11 15 6 0 8 12 5 33 -3 17 -3 26
0 20 9 -20 59 -15 79 7 10 11 22 20 26 20 15 0 59 43 59 58 0 8 6 12 14 9 15
-6 38 14 35 29 -4 24 2 36 17 30 14 -5 74 29 82 47 2 4 12 7 22 7 10 0 27 13
36 29 11 18 29 31 47 35 17 3 36 15 44 26 8 11 20 20 27 20 7 0 30 14 51 30
21 17 44 29 51 26 8 -3 23 7 34 22 12 15 29 27 37 27 9 0 21 8 26 17 9 13 7
22 -7 37 -19 21 -19 21 10 21 17 0 35 -5 41 -11 7 -7 15 -6 26 5 9 9 22 16 29
17 7 0 4 4 -7 9 -16 7 -11 9 21 9 41 1 64 15 64 38 0 7 -7 13 -15 13 -8 0 -15
-4 -15 -10 0 -5 -5 -10 -11 -10 -8 0 -8 4 0 14 8 10 9 16 1 21 -5 3 -10 11
-10 17 0 7 6 6 15 -2 10 -9 15 -9 15 -1 0 6 11 11 24 11 18 0 27 8 34 28 l10
27 10 -25 c15 -38 50 -66 64 -52 7 7 20 12 29 12 9 0 22 7 29 15 7 9 19 14 26
11 18 -7 29 13 15 27 -20 20 -12 31 9 12 18 -16 21 -17 44 -1 14 9 33 16 41
16 9 0 31 11 48 24 18 13 50 28 72 32 22 4 51 15 64 25 13 11 33 19 45 19 30
0 141 54 157 78 16 22 54 37 84 33 16 -2 18 0 8 10 -19 20 -15 31 6 19 11 -5
29 -10 41 -10 36 0 118 31 136 51 9 10 27 19 38 19 12 0 61 20 110 45 49 24
105 48 125 52 20 4 38 8 41 8 27 6 98 29 111 35 9 5 37 11 63 15 25 4 46 11
46 16 0 5 13 9 29 9 16 0 42 5 58 11 15 7 45 11 65 10 31 -2 39 2 52 26 11 20
15 23 16 11 0 -19 20 -26 20 -8 0 6 10 8 24 4 14 -3 29 0 39 10 18 18 39 20
53 6 7 -7 22 -5 48 5 20 9 57 17 80 19 24 2 48 6 52 8 5 3 26 4 47 3 21 -1 40
2 42 6 3 4 23 5 45 2 40 -6 40 -5 41 28 1 24 3 27 6 12 3 -16 11 -23 28 -23
15 0 23 5 21 13 -1 6 -1 9 1 5 8 -13 43 -9 43 5 0 9 9 12 29 9 16 -2 37 1 48
7 23 13 20 13 60 -1z m6123 -77 c0 -12 -20 -25 -27 -18 -7 7 6 27 18 27 5 0 9
-4 9 -9z m2660 -110 c0 -5 -7 -12 -16 -15 -14 -5 -15 -4 -4 9 14 17 20 19 20
6z m-10516 -46 c-5 -11 -11 -12 -25 -4 -26 13 -24 19 6 19 17 0 23 -4 19 -15z
m2843 -17 c-3 -8 -6 -5 -6 6 -1 11 2 17 5 13 3 -3 4 -12 1 -19z m-70 -50 c-3
-8 -6 -5 -6 6 -1 11 2 17 5 13 3 -3 4 -12 1 -19z m-210 -105 c-3 -3 -11 -2
-17 2 -9 6 -9 10 1 16 14 8 27 -7 16 -18z m18 -53 c-3 -5 -14 -10 -23 -9 -14
0 -13 2 3 9 27 11 27 11 20 0z m-100 -119 c9 -15 -12 -22 -42 -15 -25 7 -25 8
-8 15 28 11 43 11 50 0z m-95 -91 c0 -5 -7 -10 -16 -10 -8 0 -12 5 -9 10 3 6
10 10 16 10 5 0 9 -4 9 -10z m7480 -140 c0 -5 -5 -10 -11 -10 -5 0 -7 5 -4 10
3 6 8 10 11 10 2 0 4 -4 4 -10z m-7933 -16 c-3 -3 -12 -4 -19 -1 -8 3 -5 6 6
6 11 1 17 -2 13 -5z m-2997 -35 c0 -5 -4 -9 -10 -9 -5 0 -10 7 -10 16 0 8 5
12 10 9 6 -3 10 -10 10 -16z m3020 1 c0 -5 -7 -10 -15 -10 -8 0 -15 5 -15 10
0 6 7 10 15 10 8 0 15 -4 15 -10z m-70 -30 c0 -5 -8 -10 -17 -10 -15 0 -16 2
-3 10 19 12 20 12 20 0z m-2975 -39 c-3 -6 -11 -11 -17 -11 -6 0 -6 6 2 15 14
17 26 13 15 -4z m2905 -1 c0 -12 -28 -25 -36 -17 -9 9 6 27 22 27 8 0 14 -5
14 -10z m8719 -196 c24 -5 31 -12 31 -30 0 -17 10 -27 40 -40 22 -10 40 -23
40 -30 0 -21 60 -64 90 -64 16 0 42 -11 59 -26 34 -28 41 -47 15 -37 -26 10
-12 -20 14 -32 12 -5 22 -18 22 -27 0 -10 10 -20 23 -23 12 -4 27 -16 32 -28
6 -12 17 -23 25 -23 8 -1 20 -2 27 -3 6 0 21 -21 33 -46 13 -27 29 -45 39 -45
9 0 25 -16 35 -35 11 -19 23 -35 28 -35 16 0 97 -90 100 -111 2 -12 17 -29 34
-38 43 -23 98 -70 90 -78 -10 -10 15 -33 35 -33 12 0 19 -7 19 -20 0 -15 7
-20 29 -20 25 0 30 -5 37 -32 8 -37 31 -59 55 -52 21 6 50 -22 43 -40 -3 -8 3
-16 15 -19 12 -3 25 -17 31 -31 5 -15 21 -31 34 -36 26 -9 44 -30 27 -30 -19
0 -12 -22 9 -27 11 -3 20 -13 20 -23 0 -10 4 -20 8 -22 11 -4 72 -94 72 -106
0 -6 7 -13 16 -16 8 -3 13 -10 10 -15 -3 -5 3 -11 14 -14 12 -3 20 -14 20 -26
0 -11 6 -24 13 -28 16 -10 37 -49 37 -67 0 -8 4 -16 10 -18 5 -1 11 -24 13
-51 2 -26 7 -47 11 -47 13 1 37 -30 31 -39 -3 -5 3 -16 13 -23 26 -18 32 -31
38 -80 3 -24 10 -47 15 -52 5 -6 9 -22 9 -36 0 -18 8 -31 25 -40 14 -7 25 -21
25 -31 0 -10 5 -21 10 -24 6 -3 10 -17 10 -30 0 -13 6 -30 13 -37 7 -7 16 -21
20 -30 3 -10 14 -18 24 -18 16 0 16 -2 3 -11 -11 -8 -12 -12 -2 -16 6 -2 12
-17 12 -31 1 -15 7 -38 15 -52 19 -33 18 -40 -2 -40 -13 -1 -10 -5 10 -16 24
-13 27 -20 22 -44 -6 -27 14 -57 23 -32 2 6 10 8 18 5 7 -3 11 -10 7 -17 -4
-6 -8 -16 -9 -22 -1 -6 -5 -21 -8 -32 -5 -15 -1 -24 16 -34 13 -7 28 -13 33
-13 6 0 9 -12 9 -25 -2 -29 13 -42 38 -34 12 4 15 0 11 -15 -3 -13 4 -27 21
-42 37 -32 60 -80 45 -93 -8 -8 -13 -7 -16 2 -3 8 -19 26 -36 40 -18 15 -43
39 -58 54 -17 18 -33 25 -46 22 -15 -4 -32 6 -61 35 -22 23 -46 41 -52 41 -7
0 -10 7 -6 15 4 11 -1 15 -18 15 -37 0 -56 10 -56 31 0 10 -7 19 -15 19 -9 0
-35 20 -60 44 -24 24 -54 48 -67 52 -13 4 -29 15 -36 25 -7 11 -19 19 -27 19
-7 0 -16 8 -20 19 -3 10 -21 35 -40 54 -19 20 -35 43 -35 52 0 9 -13 28 -30
42 -16 13 -30 34 -30 44 0 11 -8 22 -17 25 -45 15 -66 31 -80 64 -15 34 -50
60 -80 60 -7 0 -13 5 -13 10 0 6 5 10 10 10 23 0 7 20 -36 45 -27 16 -43 32
-41 40 4 8 -10 20 -34 30 -21 10 -39 24 -39 32 0 7 -7 16 -16 20 -8 3 -13 12
-10 19 3 8 1 14 -5 14 -13 0 -79 64 -79 77 0 25 -97 93 -134 93 -16 0 -27 7
-31 20 -3 11 -13 20 -21 20 -10 0 -13 7 -9 23 5 18 -1 25 -35 39 -28 12 -44
26 -51 46 -7 22 -20 32 -49 41 -22 6 -40 15 -40 20 0 4 -18 29 -40 54 -22 25
-40 49 -40 55 0 5 -10 33 -22 61 -14 34 -26 50 -35 47 -9 -4 -13 3 -13 20 0
14 4 23 9 20 4 -3 6 6 3 19 -3 16 -11 25 -23 25 -19 0 -24 14 -20 58 1 14 -4
22 -14 22 -17 0 -21 25 -5 35 16 10 12 40 -9 67 -11 13 -23 38 -27 54 -3 16
-16 40 -28 54 -31 35 -45 70 -44 109 1 25 -5 39 -20 49 -14 9 -22 25 -22 44 0
17 -6 31 -16 35 -13 5 -13 7 -2 14 11 8 11 10 -1 18 -7 5 -14 21 -15 37 -1 16
-6 36 -11 44 -5 8 -10 23 -11 34 0 11 -6 22 -12 24 -19 6 -14 19 9 25 17 5 20
11 15 29 -3 13 -6 31 -6 40 0 9 -9 18 -22 20 -12 2 -23 9 -26 16 -3 9 3 11 21
7 17 -5 26 -2 30 9 7 17 19 19 66 10z m-9567 -720 c-16 -27 -32 -61 -36 -75
-3 -14 -18 -42 -34 -61 -15 -20 -37 -57 -47 -82 -11 -25 -23 -46 -27 -46 -4 0
-8 -6 -8 -13 0 -8 -11 -24 -25 -37 -14 -13 -25 -31 -25 -40 0 -10 -17 -29 -38
-43 -22 -14 -47 -41 -56 -61 -9 -20 -26 -40 -36 -46 -11 -6 -20 -15 -20 -21 0
-13 -67 -79 -81 -79 -6 0 -8 -7 -5 -16 4 -11 -1 -18 -14 -21 -11 -3 -36 -27
-55 -54 -19 -27 -39 -49 -45 -49 -5 0 -10 -7 -10 -15 0 -8 -15 -22 -32 -31
-18 -9 -41 -23 -51 -32 -16 -14 -16 -17 -1 -41 17 -26 17 -26 -3 -8 -21 18
-22 17 -94 -44 -40 -35 -103 -94 -140 -131 -38 -37 -73 -68 -78 -68 -16 0 -50
-32 -72 -67 -12 -19 -29 -33 -40 -33 -11 0 -24 -11 -30 -24 -6 -13 -19 -27
-28 -30 -16 -6 -67 -36 -112 -67 -15 -10 -23 -26 -24 -45 0 -27 -3 -29 -32
-26 -26 3 -39 -4 -67 -32 -19 -20 -37 -36 -41 -36 -4 0 -44 -25 -90 -55 -45
-30 -87 -55 -93 -55 -17 0 -40 39 -35 60 3 10 -1 21 -8 25 -8 5 0 12 22 19 24
8 33 17 31 29 -2 11 4 17 18 17 11 0 20 4 20 10 0 5 14 25 30 43 32 37 38 65
18 85 -6 6 -8 15 -4 19 4 4 11 1 16 -7 15 -23 42 0 61 51 10 26 23 44 32 44
15 0 46 34 60 65 14 29 62 88 99 120 21 18 36 36 33 40 -3 4 2 10 10 14 8 3
15 12 15 21 0 8 9 15 20 15 11 0 20 6 20 14 0 8 8 17 18 20 10 3 23 19 29 36
6 16 22 34 35 39 13 5 30 16 38 26 7 9 26 23 41 31 15 7 29 24 31 36 2 15 11
24 25 26 12 2 25 12 28 23 4 10 15 24 26 29 10 6 19 20 19 31 0 11 4 17 10 14
5 -3 29 12 52 34 23 23 50 41 59 41 9 0 22 7 29 15 7 8 17 15 22 15 5 0 36 23
69 52 43 38 57 57 53 70 -5 16 5 23 28 19 4 0 23 15 42 34 20 19 39 35 43 35
11 0 115 77 129 95 6 8 20 18 30 22 30 12 102 95 87 100 -27 9 -13 33 18 33
28 0 30 -2 18 -17 -7 -10 5 -2 26 18 22 19 53 41 68 47 15 7 30 19 33 27 4 8
12 15 19 15 7 0 16 8 21 18 6 14 8 13 11 -9 3 -17 -7 -45 -25 -75z m9688 16
c0 -5 -7 -10 -15 -10 -8 0 -15 5 -15 10 0 6 7 10 15 10 8 0 15 -4 15 -10z
m-10060 -66 c0 -8 -9 -14 -20 -14 -19 0 -27 19 -14 33 10 9 34 -4 34 -19z
m160 5 c0 -5 -4 -9 -10 -9 -5 0 -10 7 -10 16 0 8 5 12 10 9 6 -3 10 -10 10
-16z m10737 -105 c-3 -3 -12 -4 -19 -1 -8 3 -5 6 6 6 11 1 17 -2 13 -5z
m-11057 -138 c0 -3 -4 -8 -10 -11 -5 -3 -10 -1 -10 4 0 6 5 11 10 11 6 0 10
-2 10 -4z m-340 -870 c0 -3 -4 -8 -10 -11 -5 -3 -10 -1 -10 4 0 6 5 11 10 11
6 0 10 -2 10 -4z m-1320 -846 c0 -5 -7 -10 -15 -10 -8 0 -15 5 -15 10 0 6 7
10 15 10 8 0 15 -4 15 -10z m282 -362 c-7 -7 -12 -8 -12 -2 0 14 12 26 19 19
2 -3 -1 -11 -7 -17z m-252 -518 c0 -5 -7 -7 -15 -4 -8 4 -12 10 -9 15 6 11 24
2 24 -11z m14564 -84 c9 3 16 1 16 -4 0 -17 -39 -25 -55 -12 -8 7 -12 16 -9
22 3 5 11 5 19 -2 7 -6 20 -8 29 -4z m-514 -1246 c0 -5 -5 -10 -11 -10 -5 0
-7 5 -4 10 3 6 8 10 11 10 2 0 4 -4 4 -10z m-12553 -1686 c-3 -3 -12 -4 -19
-1 -8 3 -5 6 6 6 11 1 17 -2 13 -5z m363 -444 c0 -5 -5 -10 -11 -10 -5 0 -7 5
-4 10 3 6 8 10 11 10 2 0 4 -4 4 -10z m9550 -564 c0 -3 -4 -8 -10 -11 -5 -3
-10 -1 -10 4 0 6 5 11 10 11 6 0 10 -2 10 -4z m196 -183 c-10 -10 -19 5 -10
18 6 11 8 11 12 0 2 -7 1 -15 -2 -18z m-156 -54 c0 -5 -4 -9 -10 -9 -5 0 -10
7 -10 16 0 8 5 12 10 9 6 -3 10 -10 10 -16z m-7820 -299 c0 -5 -4 -10 -10 -10
-5 0 -10 5 -10 10 0 6 5 10 10 10 6 0 10 -4 10 -10z m-100 -154 c0 -3 -4 -8
-10 -11 -5 -3 -10 -1 -10 4 0 6 5 11 10 11 6 0 10 -2 10 -4z m6160 -206 c0 -5
-4 -10 -10 -10 -5 0 -10 5 -10 10 0 6 5 10 10 10 6 0 10 -4 10 -10z m168 -127
c-10 -2 -18 -9 -18 -15 0 -6 -3 -9 -6 -5 -10 10 6 27 24 26 15 -1 15 -2 0 -6z
m-4243 -53 c3 -6 -1 -7 -9 -4 -18 7 -21 14 -7 14 6 0 13 -4 16 -10z m-80 -80
c3 -5 1 -10 -4 -10 -6 0 -11 5 -11 10 0 6 2 10 4 10 3 0 8 -4 11 -10z m2335
-100 c0 -5 -4 -10 -10 -10 -5 0 -10 5 -10 10 0 6 5 10 10 10 6 0 10 -4 10 -10z"/>
<path d="M2815 15110 c-9 -15 -1 -23 21 -18 15 3 16 4 1 16 -11 9 -17 10 -22
2z"/>
<path d="M6823 15918 c3 -10 2 -20 -4 -23 -5 -4 -6 -11 -3 -17 5 -7 11 -2 16
12 6 15 5 27 -3 34 -9 8 -10 7 -6 -6z"/>
<path d="M6560 15854 c0 -11 -6 -14 -20 -9 -15 5 -27 -1 -43 -21 -32 -40 -38
-61 -21 -68 8 -3 14 -13 14 -22 0 -12 -3 -14 -13 -6 -20 17 -52 8 -55 -16 -2
-12 1 -22 7 -22 6 0 11 -6 11 -14 0 -8 16 -16 40 -20 50 -8 105 16 107 47 1
12 7 23 12 25 25 8 61 45 61 63 0 21 16 26 23 7 2 -7 8 -9 13 -5 5 4 4 11 -2
15 -6 4 -13 15 -17 25 -8 20 -47 23 -47 3 0 -7 -7 -19 -15 -26 -9 -7 -13 -20
-11 -29 6 -20 -19 -55 -33 -47 -8 5 -8 45 -1 66 2 3 2 9 1 14 -1 4 6 14 16 22
16 12 16 15 3 24 -21 14 -30 12 -30 -6z m-39 -159 c0 -5 -12 -11 -26 -13 -18
-2 -25 1 -25 13 0 12 7 15 25 13 14 -2 26 -7 26 -13z"/>
<path d="M9790 15353 c-24 -37 -30 -57 -29 -95 1 -26 7 -48 12 -48 5 0 4 -7
-3 -16 -11 -13 -10 -16 8 -21 25 -6 28 -22 10 -42 -10 -11 -10 -14 0 -18 18
-7 15 -37 -6 -57 -16 -13 -19 -30 -18 -91 1 -41 4 -77 8 -80 3 -4 0 -18 -8
-33 -12 -24 -12 -28 3 -39 11 -9 12 -13 4 -13 -7 0 -11 -6 -8 -15 4 -8 2 -17
-2 -20 -5 -3 0 -22 10 -42 21 -41 25 -73 9 -73 -5 0 -10 -9 -10 -20 0 -11 -4
-28 -9 -38 -5 -9 -15 -43 -22 -75 -10 -45 -10 -66 -1 -91 15 -40 15 -73 2 -81
-5 -3 -10 -21 -10 -39 0 -26 5 -35 23 -40 l22 -7 -22 -9 c-15 -6 -23 -18 -23
-33 0 -13 -9 -32 -20 -42 -22 -20 -26 -41 -9 -47 11 -4 5 -21 -31 -88 -10 -19
-21 -56 -25 -82 -4 -28 -13 -49 -22 -52 -10 -4 -14 -16 -11 -36 2 -16 1 -27
-3 -24 -4 2 -10 -5 -14 -16 -3 -11 -11 -20 -16 -20 -5 0 -9 -7 -9 -15 0 -8 6
-12 14 -9 8 3 17 0 21 -7 6 -8 -1 -10 -24 -7 -30 4 -44 -13 -21 -27 17 -10 11
-25 -10 -25 -32 0 -43 -33 -22 -69 10 -18 23 -29 30 -26 8 3 20 5 28 5 8 0 14
10 15 23 1 21 1 21 8 -3 6 -21 2 -27 -24 -41 -16 -9 -31 -13 -33 -8 -2 5 -10
9 -18 9 -9 0 -12 -5 -9 -10 4 -6 1 -18 -6 -26 -12 -14 -14 -14 -27 3 -14 17
-14 16 -9 -6 6 -23 -11 -65 -40 -102 -19 -23 -43 -108 -32 -115 16 -9 10 -34
-8 -34 -14 0 -15 -2 -4 -9 20 -13 6 -55 -23 -69 -19 -8 -23 -17 -20 -41 3 -22
-1 -31 -11 -31 -8 0 -21 -15 -29 -34 -15 -36 -16 -53 -3 -72 4 -7 -1 -14 -13
-17 -11 -3 -24 -17 -30 -31 -5 -14 -13 -26 -18 -26 -4 0 -6 -18 -4 -40 3 -31
1 -40 -11 -40 -9 0 -28 -15 -42 -34 -28 -37 -45 -106 -26 -106 6 0 11 -4 11
-10 0 -5 -10 -10 -23 -10 -25 0 -36 -16 -59 -85 -7 -22 -21 -49 -30 -59 -10
-11 -18 -24 -18 -29 0 -6 -11 -24 -24 -42 -32 -42 -58 -104 -51 -125 4 -13 -1
-19 -19 -24 -32 -8 -69 -69 -72 -117 -1 -22 -10 -46 -23 -60 -11 -13 -21 -29
-21 -36 0 -8 -7 -25 -16 -39 -9 -13 -14 -27 -11 -30 3 -4 -8 -18 -25 -32 -27
-23 -28 -27 -14 -38 15 -10 15 -12 1 -18 -8 -3 -15 -11 -15 -18 0 -7 -16 -30
-34 -52 -19 -21 -44 -57 -55 -80 -10 -23 -26 -48 -35 -55 -9 -8 -16 -22 -16
-31 0 -10 -11 -32 -25 -48 -14 -17 -31 -45 -37 -64 -12 -35 -30 -58 -45 -58
-5 0 -20 -19 -32 -41 -18 -32 -21 -43 -11 -49 17 -11 2 -33 -20 -27 -21 5 -42
-26 -33 -50 3 -10 2 -15 -2 -10 -11 9 -84 -69 -97 -104 -5 -15 -18 -29 -29
-32 -10 -3 -26 -18 -36 -34 -9 -17 -26 -34 -37 -39 -12 -5 -21 -16 -21 -24 -1
-25 -13 -37 -44 -43 -23 -5 -31 -13 -36 -38 -10 -44 -61 -97 -101 -105 -31 -6
-134 -94 -134 -115 0 -4 -9 -11 -21 -14 -11 -4 -25 -20 -31 -36 -5 -16 -14
-26 -19 -23 -5 3 -9 -2 -9 -10 0 -9 -14 -19 -32 -24 -20 -5 -33 -15 -32 -24 1
-10 -14 -21 -38 -29 -22 -7 -48 -23 -58 -36 -10 -13 -25 -23 -34 -23 -9 0 -16
-4 -16 -10 0 -5 -16 -12 -35 -16 -19 -3 -35 -10 -35 -16 0 -5 -13 -14 -30 -19
-32 -12 -38 -24 -17 -32 6 -3 -4 -6 -24 -6 -24 -1 -43 -9 -59 -27 -14 -14 -44
-34 -67 -44 -24 -10 -70 -39 -102 -64 -33 -26 -63 -46 -66 -46 -13 0 -105 -63
-105 -72 0 -4 -6 -8 -13 -8 -21 0 -77 -30 -77 -41 0 -5 -7 -9 -16 -9 -9 0 -39
-13 -66 -30 -26 -16 -52 -30 -57 -30 -5 0 -11 -7 -15 -15 -3 -8 -17 -15 -30
-15 -29 0 -96 -29 -96 -42 0 -4 -10 -8 -23 -8 -13 0 -28 -5 -34 -11 -13 -13
-28 -22 -102 -62 -28 -15 -51 -32 -51 -37 0 -6 -8 -10 -19 -10 -26 0 -91 -28
-91 -40 0 -6 -13 -10 -29 -10 -17 0 -42 -11 -58 -24 -16 -13 -40 -26 -53 -28
-15 -2 -30 -14 -38 -31 -11 -23 -19 -28 -38 -23 -14 4 -35 -1 -56 -14 -18 -11
-43 -20 -54 -20 -12 0 -27 -7 -34 -15 -7 -8 -20 -15 -29 -15 -9 0 -26 -7 -38
-15 -12 -8 -29 -12 -37 -9 -9 3 -27 -1 -41 -10 -13 -9 -35 -16 -49 -16 -14 0
-28 -4 -31 -10 -3 -5 -17 -10 -31 -10 -13 0 -29 -9 -36 -20 -8 -12 -24 -20
-39 -20 -15 0 -29 -7 -33 -15 -6 -18 -62 -21 -68 -3 -5 13 -87 -14 -129 -43
-20 -14 -41 -17 -87 -15 -44 3 -65 0 -73 -10 -6 -8 -29 -14 -51 -14 -29 0 -45
-7 -63 -26 -17 -18 -30 -24 -44 -19 -10 3 -22 1 -26 -5 -4 -6 -15 -8 -25 -5
-11 4 -23 -1 -32 -13 -17 -24 -59 -36 -51 -15 5 13 1 13 -26 -1 -33 -18 -45
-50 -13 -39 13 5 11 0 -7 -20 -23 -25 -25 -26 -54 -11 -16 9 -40 14 -53 11
-13 -2 -25 0 -27 6 -2 6 -10 6 -23 -1 -12 -6 -31 -8 -43 -5 -12 3 -32 1 -44
-5 -12 -5 -30 -13 -41 -16 -10 -4 -16 -12 -13 -20 3 -8 -1 -20 -9 -26 -10 -10
-14 -10 -14 -1 0 16 -79 9 -89 -8 -6 -9 -12 -8 -26 6 -12 11 -20 14 -22 6 -3
-8 -13 -9 -33 -3 -25 7 -32 5 -44 -12 -14 -19 -22 -21 -96 -15 -68 5 -84 4
-100 -11 -46 -42 -50 -44 -50 -24 0 28 -11 34 -30 17 -15 -14 -19 -13 -35 5
-25 27 -49 25 -69 -5 l-17 -26 -17 21 c-13 16 -31 22 -75 25 -51 4 -57 2 -57
-16 0 -14 -7 -19 -30 -19 -16 0 -33 -7 -38 -15 -6 -12 -14 -14 -33 -6 l-24 10
25 7 25 8 -25 6 c-39 9 -79 0 -73 -16 7 -19 -11 -18 -27 1 -16 19 -44 19 -64
0 -19 -20 -47 -20 -40 0 9 21 -18 28 -79 21 -62 -8 -80 -33 -67 -92 11 -48 13
-48 43 -18 16 16 33 24 43 20 8 -3 23 -2 32 3 12 6 34 2 72 -15 30 -13 68 -23
83 -24 15 0 39 -7 52 -16 23 -15 25 -15 50 12 14 15 24 32 22 38 -2 5 5 18 15
28 20 20 33 24 22 7 -3 -6 -2 -14 3 -18 5 -3 19 -21 32 -38 29 -42 45 -42 65
2 9 19 21 35 26 35 14 0 12 -34 -2 -48 -15 -15 17 -29 35 -15 25 20 47 22 62
6 14 -13 20 -14 41 -3 21 12 27 11 44 -5 17 -16 25 -17 40 -7 24 15 57 16 65
2 9 -15 46 -12 110 10 40 14 62 17 69 10 13 -13 46 -13 46 0 0 14 33 13 47 -1
9 -9 21 -8 50 5 56 25 68 33 66 44 -2 7 8 7 28 2 35 -10 51 -9 61 4 3 5 35 11
70 12 91 3 108 7 108 21 0 20 39 36 55 23 17 -14 55 -4 71 18 8 11 35 16 99
19 51 2 97 9 109 16 12 8 39 14 60 15 24 1 43 8 48 17 5 8 20 15 33 15 14 0
25 6 25 13 0 19 20 36 36 30 8 -3 14 -13 14 -23 0 -22 37 -23 59 -2 7 7 20 11
27 8 8 -3 14 1 14 9 0 23 20 28 40 10 14 -12 24 -15 32 -8 7 5 26 8 43 7 16
-2 43 6 62 17 21 13 42 19 56 15 14 -3 33 1 46 10 15 11 33 14 61 9 26 -4 40
-3 40 4 0 6 7 8 15 5 8 -4 23 -3 33 2 9 4 28 9 42 11 14 1 33 3 43 4 9 1 17 9
17 17 0 8 6 12 13 9 7 -3 24 4 38 14 13 10 29 19 35 19 7 0 35 16 63 35 56 39
66 42 74 21 5 -12 11 -13 36 -3 17 6 31 15 31 18 0 4 14 10 31 14 17 4 42 13
57 21 15 8 32 14 38 14 7 0 14 7 18 15 3 9 18 15 35 15 21 0 28 5 27 18 -1 12
5 16 23 14 15 -1 43 13 79 39 37 28 57 38 61 30 6 -9 18 -6 47 8 21 10 56 26
76 35 20 9 50 28 67 41 16 14 45 32 65 40 21 9 36 23 37 33 0 10 3 12 6 5 5
-15 43 -18 43 -4 0 5 -6 11 -12 14 -7 2 -10 8 -6 12 4 4 14 2 22 -4 12 -10 22
-8 51 14 19 15 35 32 35 39 0 7 4 6 9 -2 14 -23 49 5 43 34 -5 26 6 29 85 24
27 -1 41 7 83 50 28 28 56 50 63 47 14 -4 25 7 49 48 13 24 24 30 50 30 43 1
65 12 71 36 3 11 11 19 19 18 21 -4 68 19 75 37 3 9 1 25 -5 34 -9 15 -6 19
20 24 17 3 41 6 55 6 13 0 26 7 29 15 4 8 17 15 31 15 17 0 23 5 21 17 -2 12
5 18 26 20 15 1 36 9 45 17 10 9 22 16 27 16 16 0 84 66 84 81 0 8 21 28 45
44 25 17 59 47 76 68 17 20 35 35 40 31 13 -8 41 15 33 28 -3 5 -14 6 -24 3
-10 -3 -21 -1 -25 5 -4 6 7 10 27 10 40 0 63 13 56 32 -4 9 5 19 23 27 16 7
29 18 29 24 0 7 15 19 33 27 17 8 38 28 45 43 8 15 29 35 47 44 18 9 36 25 38
35 3 11 15 22 27 25 17 4 20 11 16 29 -5 17 -2 24 8 24 17 0 48 39 40 52 -3 4
2 8 10 8 14 0 20 11 17 32 0 4 5 5 12 2 14 -5 87 97 87 121 0 8 5 15 10 15 6
0 10 5 10 11 0 6 14 27 31 46 23 27 29 41 24 60 -4 19 -1 26 15 30 11 3 20 11
20 18 0 8 8 11 20 8 13 -4 20 0 20 10 0 20 49 107 61 107 5 0 9 7 9 15 0 8 4
15 10 15 5 0 15 18 21 41 7 23 19 43 26 46 7 3 13 15 13 28 0 48 13 88 32 92
20 6 24 33 6 51 -9 9 -7 12 13 12 13 0 31 5 39 10 13 8 12 11 -4 23 -19 14
-19 15 0 48 10 19 25 38 32 42 6 4 12 13 12 20 0 7 9 18 20 25 11 7 20 21 20
32 0 10 9 24 19 30 13 6 24 30 32 66 10 43 22 66 55 100 33 33 44 54 49 89 4
25 12 45 17 45 6 0 8 7 4 15 -8 23 4 45 24 45 24 0 35 18 31 48 -1 15 6 32 19
44 14 13 18 23 11 27 -7 4 0 19 19 39 19 21 27 38 23 49 -4 11 -3 14 5 9 11
-6 29 22 30 47 0 4 8 19 17 33 9 14 14 28 12 30 -3 3 6 16 19 29 25 25 31 45
14 45 -6 0 -2 10 10 22 11 12 20 30 20 39 0 10 4 20 9 23 5 4 12 25 16 49 4
23 13 53 21 67 7 14 16 46 19 72 4 33 12 51 26 58 22 12 26 59 7 78 -9 9 -8
12 5 12 10 0 17 8 17 21 0 11 -4 17 -10 14 -5 -3 -10 -2 -10 3 0 5 10 12 22
15 21 6 21 7 5 25 -19 21 -22 42 -6 42 7 0 9 10 5 24 -3 14 -2 28 4 31 5 3 10
-3 10 -13 0 -11 6 -25 14 -31 20 -17 39 12 34 49 -3 16 0 30 5 30 13 0 36 31
37 50 0 8 7 28 15 44 9 16 13 36 11 43 -3 7 1 13 9 13 18 0 45 39 45 66 0 12
5 24 11 26 16 5 38 75 27 86 -5 5 0 27 13 53 32 64 36 77 48 152 8 47 9 73 2
81 -7 9 -7 16 1 24 8 8 8 19 -2 42 -10 24 -10 37 -1 56 6 14 11 42 11 63 0 21
6 44 14 50 18 15 15 223 -3 229 -13 4 -15 42 -1 42 5 0 13 -7 18 -16 6 -10 9
5 9 48 1 34 -3 65 -8 68 -5 3 -4 22 2 43 8 30 7 44 -5 69 -9 17 -16 37 -16 43
0 7 -6 18 -14 24 -19 16 -9 49 16 57 16 5 18 8 7 15 -11 7 -12 12 -1 29 22 35
15 86 -15 112 -19 15 -27 31 -25 46 2 12 -1 22 -7 22 -6 0 -11 7 -11 16 0 9
-14 34 -31 55 -23 29 -38 39 -59 39 -16 0 -30 7 -34 15 -11 31 -46 16 -76 -32z
m10 -1113 c0 -5 -4 -10 -10 -10 -5 0 -10 5 -10 10 0 6 5 10 10 10 6 0 10 -4
10 -10z m-210 -670 c0 -5 -4 -10 -9 -10 -6 0 -13 5 -16 10 -3 6 1 10 9 10 9 0
16 -4 16 -10z m-119 -303 c-1 -12 -15 -9 -19 4 -3 6 1 10 8 8 6 -3 11 -8 11
-12z m50 -75 c-19 -6 -41 6 -41 23 0 14 3 13 26 -2 15 -9 21 -19 15 -21z m49
-32 c0 -5 -4 -10 -10 -10 -5 0 -10 5 -10 10 0 6 5 10 10 10 6 0 10 -4 10 -10z
m57 -52 c-3 -8 -6 -5 -6 6 -1 11 2 17 5 13 3 -3 4 -12 1 -19z m-357 -618 c0
-5 -2 -10 -4 -10 -3 0 -8 5 -11 10 -3 6 -1 10 4 10 6 0 11 -4 11 -10z m-163
-16 c-3 -3 -12 -4 -19 -1 -8 3 -5 6 6 6 11 1 17 -2 13 -5z m56 -261 c-7 -2
-19 -2 -25 0 -7 3 -2 5 12 5 14 0 19 -2 13 -5z m-133 -223 c0 -5 -2 -10 -4
-10 -3 0 -8 5 -11 10 -3 6 -1 10 4 10 6 0 11 -4 11 -10z m-1320 -1401 c0 -5
-4 -9 -10 -9 -5 0 -10 7 -10 16 0 8 5 12 10 9 6 -3 10 -10 10 -16z m-211 -260
c11 -4 11 -7 -1 -20 -8 -8 -18 -21 -21 -29 -4 -8 -5 -3 -2 12 3 15 0 28 -7 30
-7 3 -8 10 -4 17 5 8 11 9 15 4 3 -6 12 -12 20 -14z m-96 -106 c-7 -2 -19 -2
-25 0 -7 3 -2 5 12 5 14 0 19 -2 13 -5z m-440 -90 c-7 -2 -21 -2 -30 0 -10 3
-4 5 12 5 17 0 24 -2 18 -5z m-2105 -731 c6 -18 -15 -14 -22 4 -4 10 -1 14 6
12 6 -2 14 -10 16 -16z m-858 -122 c0 -5 -17 -10 -37 -9 -31 0 -34 2 -18 9 28
12 55 12 55 0z"/>
<path d="M7685 12963 c-16 -3 -38 -12 -47 -20 -11 -10 -26 -13 -42 -9 -17 4
-26 1 -30 -10 -3 -9 -13 -14 -21 -10 -16 6 -66 -8 -107 -30 -14 -8 -34 -14
-45 -14 -10 0 -31 -7 -48 -16 -16 -9 -50 -27 -75 -40 -25 -12 -53 -32 -62 -43
-10 -12 -26 -21 -37 -21 -10 0 -37 -18 -60 -40 -22 -22 -47 -40 -54 -40 -18 0
-77 -62 -77 -81 0 -8 -14 -23 -30 -33 -17 -10 -43 -36 -58 -59 -15 -23 -32
-46 -39 -50 -16 -10 -17 -34 -2 -39 8 -3 10 -17 5 -42 -5 -28 -11 -36 -22 -32
-11 4 -14 1 -12 -12 2 -10 12 -17 25 -17 25 0 52 -30 53 -58 0 -10 7 -20 15
-23 8 -3 17 -13 20 -22 2 -10 18 -26 35 -37 16 -11 30 -28 30 -37 0 -35 74
-64 86 -34 4 12 10 12 35 -1 17 -8 40 -12 53 -9 15 4 28 0 36 -9 7 -9 28 -23
47 -32 30 -14 36 -14 44 -2 5 8 9 10 9 5 0 -5 7 -3 15 4 12 10 21 8 50 -10 19
-12 35 -17 35 -12 0 5 13 12 30 15 16 4 53 22 81 42 28 19 55 35 60 35 5 0 11
11 15 25 3 14 19 36 35 49 16 14 29 28 29 32 0 11 82 84 95 84 11 1 45 68 45
89 0 7 5 9 11 6 6 -4 20 2 32 12 12 11 30 23 40 27 14 5 17 12 12 34 -4 22 0
35 20 56 23 25 26 35 22 79 -3 28 -1 62 4 75 11 29 3 43 -12 22 -8 -12 -10 -9
-6 11 3 19 -3 32 -23 48 -19 14 -30 35 -34 62 -6 36 -9 40 -28 36 -25 -7 -48
14 -48 42 0 19 -10 26 -32 22 -4 0 -5 6 -2 14 4 8 2 15 -4 15 -6 0 -16 2 -24
3 -7 2 -26 2 -43 0z m-265 -463 c0 -17 -39 -50 -60 -50 -18 0 -19 3 -10 21 15
27 70 50 70 29z"/>
<path d="M12520 12002 c-17 -7 -35 -10 -39 -8 -12 8 -101 -26 -137 -51 -16
-12 -43 -25 -59 -29 -16 -4 -39 -18 -51 -31 -12 -12 -28 -23 -36 -23 -9 0 -21
-7 -28 -15 -7 -8 -19 -15 -26 -15 -14 0 -57 -33 -78 -59 -6 -7 -26 -28 -43
-46 -18 -17 -33 -37 -33 -43 0 -7 -4 -12 -9 -12 -5 0 -13 -15 -17 -32 -3 -18
-15 -39 -25 -46 -19 -13 -26 -42 -10 -42 5 0 11 -14 15 -30 3 -19 14 -34 28
-39 15 -5 18 -10 9 -15 -17 -11 5 -37 25 -29 9 3 18 -5 25 -23 17 -46 37 -62
90 -69 38 -5 49 -11 49 -25 0 -12 10 -20 33 -24 97 -17 108 -18 121 -7 10 8
16 9 21 1 4 -6 12 -7 23 -1 9 5 35 12 56 15 67 11 86 18 79 29 -3 5 -1 7 5 4
5 -4 23 0 39 8 15 8 53 25 83 39 33 14 77 47 110 80 30 31 60 56 65 56 12 0
29 38 45 98 6 23 15 42 20 42 16 0 12 76 -4 89 -8 7 -18 27 -22 44 -3 18 -10
37 -14 42 -5 6 -10 19 -12 30 -3 20 -11 33 -40 65 -9 10 -19 27 -23 39 -3 12
-18 23 -33 27 -15 3 -34 8 -42 12 -27 11 -128 7 -160 -6z"/>
<path d="M17016 11123 c-6 -14 -5 -15 5 -6 7 7 10 15 7 18 -3 3 -9 -2 -12 -12z"/>
<path d="M9002 10532 c-18 -2 -36 -10 -39 -18 -3 -8 -11 -14 -18 -14 -7 0 -18
-7 -25 -15 -7 -8 -19 -15 -27 -15 -8 0 -22 -7 -30 -16 -9 -8 -24 -13 -34 -11
-11 3 -21 1 -24 -4 -7 -10 -103 -59 -117 -59 -5 0 -33 -12 -62 -26 -61 -31
-116 -87 -116 -120 0 -13 -5 -24 -11 -24 -5 0 -7 -5 -3 -12 4 -6 -1 -17 -10
-24 -15 -10 -18 -30 -20 -105 -1 -81 0 -93 16 -97 12 -3 18 -14 18 -35 0 -28
1 -29 13 -12 13 17 15 17 30 -6 10 -13 17 -27 17 -31 0 -4 19 -27 43 -51 28
-29 42 -52 41 -69 -1 -23 2 -25 45 -24 25 0 49 5 53 11 4 5 10 7 13 3 6 -6
-28 -73 -51 -99 -8 -8 -14 -19 -14 -23 0 -4 -11 -24 -25 -44 -14 -20 -25 -44
-25 -54 0 -10 -13 -24 -29 -33 -32 -16 -63 -53 -55 -66 2 -5 -7 -16 -21 -25
-14 -9 -25 -23 -25 -30 0 -8 -11 -20 -25 -26 -14 -6 -25 -17 -25 -25 0 -7 -4
-13 -8 -13 -9 0 -122 -109 -164 -158 -15 -18 -30 -32 -33 -32 -8 0 -115 -112
-115 -120 0 -5 -10 -12 -22 -16 -13 -3 -31 -13 -40 -22 -11 -9 -42 -16 -85
-17 -78 -3 -104 -11 -96 -31 3 -8 0 -14 -6 -14 -6 0 -11 -6 -11 -14 0 -8 -14
-23 -30 -33 -17 -9 -33 -24 -36 -33 -7 -20 -101 -80 -126 -80 -10 0 -16 -4
-13 -10 4 -6 -8 -10 -29 -10 -19 0 -41 -6 -48 -13 -7 -7 -40 -19 -73 -26 -94
-21 -165 -43 -165 -52 0 -5 -12 -4 -26 1 -35 14 -35 13 -28 -17 6 -23 5 -26
-7 -16 -8 6 -25 11 -39 11 -14 0 -44 3 -67 7 -36 6 -43 5 -52 -14 -14 -25 -33
-28 -24 -3 3 9 2 14 -2 9 -5 -4 -16 0 -26 9 -21 19 -79 10 -79 -12 0 -19 -7
-18 -33 7 -16 14 -30 19 -49 15 -24 -5 -28 -2 -28 17 -1 24 -85 94 -107 89 -7
-2 -18 6 -25 18 -15 24 -63 27 -76 4 -5 -8 -20 -21 -33 -28 -17 -8 -23 -19
-21 -35 1 -13 -3 -30 -9 -37 -15 -18 -4 -45 16 -38 10 4 15 0 15 -12 0 -43 34
-94 77 -114 24 -11 43 -27 43 -35 0 -24 85 -65 150 -71 25 -2 60 -7 78 -10 21
-3 32 -1 32 7 0 9 3 9 14 0 10 -8 16 -9 21 -1 3 6 11 7 17 4 7 -4 7 -9 -1 -13
-5 -4 -8 -17 -4 -29 4 -19 12 -22 50 -22 25 0 60 7 79 16 26 13 37 14 48 5 11
-9 23 -9 51 3 35 15 101 16 124 2 6 -4 11 -1 11 7 0 18 59 29 77 15 17 -14 84
8 112 37 13 14 28 22 35 18 6 -4 22 -6 35 -4 32 4 42 -15 35 -71 -6 -44 -5
-48 15 -48 20 0 21 -1 6 -23 -35 -54 -39 -182 -6 -190 11 -3 8 -5 -6 -6 -13 0
-23 -5 -23 -10 0 -11 23 -30 34 -28 13 3 28 -57 16 -61 -13 -5 -13 -32 0 -32
6 0 10 -18 10 -40 0 -22 5 -40 10 -40 6 0 10 -5 10 -11 0 -6 -7 -8 -15 -5 -20
7 -33 -23 -14 -34 7 -5 10 -13 5 -17 -5 -4 -11 -2 -13 5 -7 18 -33 15 -33 -4
0 -13 7 -15 35 -11 40 7 43 2 16 -27 -18 -19 -18 -23 -5 -41 13 -17 16 -18 24
-5 15 24 35 -2 21 -28 -7 -13 -7 -30 -1 -53 6 -19 8 -46 5 -60 -5 -21 -2 -28
17 -33 19 -5 20 -8 8 -16 -8 -5 -23 -7 -32 -4 -23 7 -23 -1 2 -37 16 -22 19
-33 10 -48 -14 -28 -13 -41 5 -35 17 7 21 -11 5 -21 -17 -11 -11 -24 15 -31
14 -3 22 -10 19 -15 -3 -5 2 -12 11 -15 11 -5 13 -10 5 -19 -8 -10 -4 -20 14
-42 50 -55 49 -52 25 -72 l-23 -18 22 -8 c15 -4 25 -17 29 -36 3 -16 9 -29 14
-29 12 0 51 -79 44 -89 -2 -5 6 -12 19 -15 14 -3 37 -23 52 -44 45 -62 180
-151 217 -144 4 1 7 -3 7 -9 0 -6 7 -8 15 -5 9 3 18 -1 21 -9 4 -8 15 -15 25
-15 10 0 19 -7 19 -15 0 -8 7 -15 15 -15 8 0 15 -5 15 -12 0 -9 3 -9 12 0 7 7
18 12 26 12 18 0 45 -28 37 -39 -3 -6 3 -15 14 -21 15 -7 22 -7 28 2 10 17 53
41 53 30 0 -5 9 -18 20 -29 17 -19 27 -21 73 -16 41 4 56 2 66 -11 10 -12 18
-13 32 -5 13 7 25 6 40 -1 15 -9 24 -8 35 1 11 9 18 9 22 2 10 -16 114 -13
134 4 9 8 21 12 27 9 6 -4 18 -3 28 2 10 5 41 19 68 32 28 13 57 27 65 31 8 5
41 21 72 36 32 15 60 36 64 46 3 9 10 17 15 17 12 0 139 129 139 141 0 13 47
81 79 114 40 42 44 51 30 76 -10 20 -9 21 15 15 23 -6 30 0 67 56 59 90 79
126 79 148 0 10 6 25 13 32 18 19 47 83 47 105 0 10 7 28 15 40 20 29 27 153
8 153 -7 0 -13 5 -13 10 0 6 11 10 25 10 19 0 25 5 25 23 0 12 6 31 14 42 19
29 30 123 15 141 -9 11 -9 25 -1 57 28 110 35 285 12 312 -9 11 -10 19 -3 23
14 9 10 67 -7 87 -7 8 -10 18 -6 22 3 3 6 1 6 -5 0 -16 19 -15 55 4 29 15 75
12 75 -5 0 -5 18 -9 40 -9 22 0 40 3 40 9 0 5 7 9 15 9 8 0 15 5 15 12 0 6 10
2 23 -9 19 -18 35 -21 122 -21 55 0 106 5 112 10 9 7 23 6 43 -2 23 -10 33
-10 44 -1 9 8 16 8 20 2 5 -7 15 -7 31 -1 14 5 30 8 37 6 51 -16 70 -16 65 -2
-4 10 -1 13 9 9 7 -3 14 -9 14 -14 0 -12 97 -11 105 1 3 6 17 10 30 10 24 0
85 50 85 70 0 15 21 12 41 -6 17 -15 21 -15 41 -2 13 8 40 18 61 22 21 4 46
16 55 27 9 10 32 22 52 25 43 8 160 69 215 112 15 12 36 22 46 22 11 0 19 6
19 14 0 14 29 26 68 26 12 0 22 4 22 9 0 15 95 58 124 56 20 0 28 5 33 23 3
15 1 27 -7 32 -7 4 11 7 40 7 39 -1 54 3 62 16 5 9 14 17 20 17 6 0 18 9 27
19 9 11 32 22 51 25 22 3 46 17 62 35 15 17 33 31 40 31 11 0 58 88 58 110 0
4 -6 13 -14 19 -8 7 -12 21 -8 33 4 15 2 19 -7 13 -10 -5 -11 -2 -6 14 3 11 3
21 -2 21 -4 0 -9 11 -9 23 -2 34 -46 97 -67 97 -10 0 -25 7 -34 15 -9 10 -30
15 -54 13 -41 -2 -54 4 -54 28 0 15 -3 15 -34 7 -18 -5 -18 -7 -6 -20 17 -17
19 -29 5 -38 -5 -3 -10 0 -10 8 0 11 -51 57 -63 57 -3 0 -7 -11 -9 -25 -3 -14
-1 -25 3 -25 5 0 9 -7 9 -15 0 -9 -6 -12 -15 -9 -8 4 -15 1 -15 -5 0 -6 -7
-11 -15 -11 -8 0 -15 -4 -15 -10 0 -5 5 -10 11 -10 6 0 3 -7 -6 -16 -15 -15
-15 -18 1 -35 9 -11 25 -19 34 -19 17 0 30 -19 30 -41 0 -5 -8 -9 -19 -9 -10
0 -29 -8 -42 -18 -13 -10 -40 -26 -60 -35 -20 -9 -39 -23 -42 -31 -3 -7 -18
-16 -34 -19 -65 -13 -89 -21 -113 -37 -80 -56 -139 -90 -155 -90 -24 0 -119
-45 -135 -65 -7 -8 -17 -15 -22 -15 -5 0 -36 -13 -70 -30 -33 -16 -66 -30 -73
-30 -7 0 -28 -11 -48 -24 -44 -30 -176 -58 -270 -58 -38 0 -84 -6 -103 -14
-19 -8 -46 -11 -63 -8 -22 5 -31 3 -31 -7 0 -8 -6 -5 -15 8 -14 20 -23 21
-166 21 -147 0 -153 -1 -174 -24 -25 -27 -40 -31 -32 -9 9 21 -9 28 -35 13
-30 -17 -80 -16 -94 0 -7 10 -41 15 -107 17 -68 1 -103 7 -115 17 -20 17 -78
23 -87 8 -3 -5 -11 -10 -16 -10 -6 0 -7 5 -3 12 4 7 3 8 -5 4 -6 -4 -25 -1
-41 8 -23 11 -38 12 -60 5 -23 -8 -34 -7 -52 5 -12 9 -30 16 -40 16 -10 0 -18
7 -18 15 0 7 -6 18 -14 22 -15 9 -48 70 -65 123 -7 21 -23 42 -41 52 -33 18
-35 27 -21 75 9 31 -8 137 -26 166 -4 6 -8 21 -9 34 -2 13 -5 32 -9 42 -3 11
-2 22 2 24 5 3 7 34 5 69 -3 35 -4 78 -4 96 0 17 -4 32 -9 32 -5 0 -9 9 -9 21
0 11 5 17 10 14 12 -8 12 -7 -1 55 -7 31 -16 50 -25 50 -8 0 -14 6 -14 14 0
16 -42 46 -66 46 -11 0 -15 6 -11 20 3 10 0 21 -5 22 -12 4 51 68 67 68 13 0
45 52 45 74 0 9 12 26 26 39 14 12 35 42 45 67 11 25 25 55 32 68 6 13 10 37
9 54 -1 17 1 35 6 42 14 17 2 82 -20 105 -10 12 -26 44 -34 72 -13 42 -18 49
-35 44 -14 -5 -19 -2 -19 14 0 11 -4 22 -10 26 -5 3 -7 12 -4 20 6 15 -30 39
-49 32 -7 -2 -21 -1 -32 2 -11 4 -35 5 -53 3z m-125 -1288 c-3 -54 10 -83 32
-70 16 10 21 -9 12 -42 -10 -33 1 -52 31 -52 13 0 18 -8 18 -29 0 -24 3 -28
20 -24 21 5 24 -2 20 -44 -1 -13 3 -23 9 -23 6 0 11 -9 11 -21 0 -29 18 -59
36 -59 10 0 14 -6 11 -14 -3 -7 3 -26 13 -41 10 -15 16 -33 14 -40 -6 -13 43
-65 61 -65 7 0 15 -14 19 -30 4 -24 12 -32 37 -37 20 -4 34 -14 40 -31 15 -38
51 -85 58 -75 3 6 15 14 25 20 16 9 25 5 50 -18 17 -16 38 -30 46 -30 66 -6
80 -12 80 -35 0 -8 9 -14 21 -14 11 0 17 5 14 10 -13 21 8 9 37 -22 16 -17 32
-44 35 -60 3 -16 10 -31 14 -34 14 -8 10 -37 -3 -31 -9 3 -14 -9 -16 -37 -1
-22 -5 -62 -8 -88 -4 -30 -2 -48 4 -48 14 0 8 -157 -7 -193 -15 -39 -14 -57 5
-57 13 0 11 -7 -11 -36 -25 -32 -27 -42 -22 -90 3 -30 2 -52 -3 -49 -4 3 -13
-2 -20 -10 -7 -8 -10 -15 -6 -15 3 0 -6 -23 -20 -50 -29 -55 -27 -76 8 -89 21
-8 21 -10 5 -16 -9 -4 -23 -2 -31 4 -17 15 -28 2 -51 -66 -11 -29 -23 -53 -27
-53 -4 0 -8 -6 -8 -12 0 -7 -16 -25 -35 -41 -19 -15 -32 -33 -30 -40 6 -16 -5
-31 -32 -46 -13 -6 -23 -18 -23 -26 0 -8 -6 -15 -14 -15 -7 0 -19 -13 -26 -29
-6 -16 -22 -39 -36 -52 -13 -12 -24 -27 -24 -33 0 -6 -23 -35 -50 -64 -56 -61
-123 -96 -255 -136 -22 -7 -47 -16 -56 -20 -8 -4 -28 -2 -43 4 -35 13 -76 13
-76 -1 0 -6 -12 -1 -26 10 -14 11 -32 17 -40 14 -8 -3 -21 0 -29 7 -12 10 -15
10 -15 -3 0 -13 -8 -15 -37 -10 -21 3 -40 8 -43 10 -5 4 -6 8 -9 33 -2 17 -31
11 -31 -6 0 -13 -3 -14 -14 -5 -8 7 -36 14 -63 16 -37 3 -53 10 -68 29 -12 15
-31 26 -44 26 -22 0 -71 41 -71 58 0 4 -13 13 -30 19 -28 10 -37 31 -31 67 3
15 -21 36 -41 36 -16 0 -18 3 -9 14 7 8 9 25 6 39 -4 14 -2 28 4 31 16 10 13
36 -3 30 -18 -7 -28 23 -16 46 7 13 6 19 -5 24 -8 3 -12 12 -9 20 3 8 0 25 -7
38 -7 13 -14 37 -14 54 -1 16 -8 43 -16 60 -14 29 -16 97 -5 162 3 21 -2 49
-14 78 -11 25 -20 58 -20 72 -1 24 -2 25 -11 9 -10 -17 -12 -17 -25 8 -19 36
-18 42 9 48 22 6 26 21 27 114 0 18 5 35 10 38 15 9 12 45 -5 51 -20 8 -19 24
2 24 14 0 13 3 -4 18 -21 18 -24 58 -6 70 5 4 9 35 9 70 -1 35 3 62 9 62 6 0
3 6 -5 13 -12 9 -14 22 -9 50 4 28 2 40 -10 46 -22 13 -2 34 70 73 33 17 59
35 59 39 0 13 77 59 98 59 11 0 25 14 35 35 9 19 24 35 33 35 19 0 44 24 44
43 0 8 9 17 21 20 14 4 18 10 13 18 -5 9 -2 10 11 5 20 -7 55 18 55 40 0 7 10
19 23 25 37 20 82 72 79 92 -3 15 1 17 16 12 21 -6 62 27 62 50 0 6 12 18 27
26 14 8 32 29 40 47 9 22 19 32 31 30 11 -2 23 9 33 29 9 18 22 39 29 47 6 9
9 20 5 26 -7 11 27 28 57 29 15 1 17 -8 15 -55z m2883 -190 c0 -2 -9 -4 -21
-4 -11 0 -18 4 -14 10 5 8 35 3 35 -6z m80 -74 c0 -13 -28 -25 -38 -16 -3 4 0
11 8 16 20 13 30 12 30 0z m-5175 -270 c-3 -5 -10 -10 -16 -10 -5 0 -9 5 -9
10 0 6 7 10 16 10 8 0 12 -4 9 -10z m725 -95 c-7 -8 -17 -12 -23 -8 -6 4 -3 9
9 14 27 11 28 11 14 -6z m595 -224 c3 -5 1 -12 -5 -16 -5 -3 -10 1 -10 9 0 18
6 21 15 7z m15 -41 c0 -5 -2 -10 -4 -10 -3 0 -8 5 -11 10 -3 6 -1 10 4 10 6 0
11 -4 11 -10z m-190 -51 c0 -10 -24 -39 -33 -39 -3 0 0 11 6 25 12 25 27 33
27 14z m760 -1399 c12 -8 11 -10 -7 -10 -13 0 -23 5 -23 10 0 13 11 13 30 0z"/>
<path d="M3352 9250 c0 -14 2 -19 5 -12 2 6 2 18 0 25 -3 6 -5 1 -5 -13z"/>
<path d="M3550 9211 c0 -12 29 -23 41 -15 18 10 9 24 -16 24 -14 0 -25 -4 -25
-9z"/>
<path d="M7760 7916 c0 -9 5 -16 10 -16 6 0 10 4 10 9 0 6 -4 13 -10 16 -5 3
-10 -1 -10 -9z"/>
<path d="M7776 7713 c-12 -12 -5 -23 14 -23 11 0 20 4 20 9 0 11 -26 22 -34
14z"/>
<path d="M7790 7639 c0 -5 -4 -7 -10 -4 -5 3 -10 1 -10 -5 0 -11 49 -34 57
-26 6 6 -20 46 -29 46 -5 0 -8 -5 -8 -11z"/>
</g>
</svg>
